<svg width="199" height="60" viewBox="0 0 199 60" fill="none" xmlns="http://www.w3.org/2000/svg"><path d="M6.28848 58.7078H0L20.5656 1.29666H26.8529L6.28848 58.7078Z" fill="#7BACFC"/><path d="M50.3934 60C42.9237 60 37.0929 58.3045 32.901 54.9147C28.7091 51.5237 26.5824 46.4764 26.5235 39.773H33.5424C33.7031 49.1844 39.3189 53.8907 50.3934 53.8907C55.0719 53.8907 58.6617 52.9753 61.1605 51.1469C63.6604 49.3173 64.9109 46.6452 64.9109 43.1305C65.0184 40.6063 63.8499 38.1977 61.8031 36.7184C59.7354 35.1858 56.1225 33.8567 50.9632 32.7275L45.8779 31.5972C40.0702 30.2484 35.7187 28.301 32.8201 25.7548C29.9226 23.2076 28.4825 19.6235 28.501 15.004C28.375 10.7034 30.3733 6.61658 33.8452 4.07622C37.3599 1.3625 42.1101 0.00566483 48.0958 0.00566483C51.644 -0.0590591 55.1806 0.430992 58.5785 1.45731C61.2044 2.21433 63.6015 3.61392 65.5524 5.52786C67.145 7.15517 68.3932 9.08762 69.2208 11.2096C70.024 13.3813 70.4493 15.6731 70.4771 17.9881H63.539C63.2189 13.8967 61.8886 10.8987 59.5493 8.9917C57.2089 7.08585 53.3915 6.13351 48.0958 6.13351C44.0576 6.13351 40.952 6.9148 38.7792 8.47623C36.6433 9.94867 35.4113 12.4116 35.5095 15.004C35.3732 17.4958 36.4029 19.909 38.2984 21.5328C40.121 23.0943 43.6831 24.4662 48.9857 25.6473L54.0722 26.7788C60.4127 28.1796 64.9814 30.1802 67.7784 32.7818C70.5753 35.3823 71.9703 38.8381 71.9645 43.149C71.9645 48.3615 70.0587 52.4737 66.247 55.4845C62.4341 58.4941 57.15 60 50.3934 60Z" fill="#7BACFC"/><path d="M91.7361 54.1923C95.0242 54.2443 98.2234 53.1301 100.768 51.0486C103.339 49.0063 104.629 46.0753 104.634 42.2579V37.3413C102.999 38.4115 101.108 39.0264 99.1561 39.1235L93.1092 39.8446C89.6084 40.2804 87.1235 41.0825 85.6452 42.2671C84.1393 43.5096 83.3152 45.3946 83.4273 47.3432C83.328 49.256 84.1 51.1098 85.5297 52.3846C86.9455 53.5866 89.0651 54.1923 91.7361 54.1923ZM113.21 53.4445H115.544V58.6905C114.365 58.8592 113.173 58.939 111.982 58.9309C107.624 58.9309 105.286 56.9418 104.973 52.9637C102.086 57.4411 97.5761 59.6787 91.4437 59.6787C86.8657 59.6787 83.2852 58.6107 80.6755 56.4911C78.0658 54.3714 76.7655 51.3687 76.7655 47.5039C76.7655 39.9695 81.8983 35.6666 92.1649 34.5987L98.1321 33.9572C102.484 33.4706 104.66 31.5613 104.66 28.2304C104.66 25.9143 103.948 24.2465 102.523 23.2248C101.098 22.2089 98.6926 21.6935 95.3086 21.6935C91.7454 21.6935 89.0744 22.2991 87.5245 23.4745C85.9746 24.6499 85.0396 26.8227 84.8524 29.8867H78.3778C78.9118 20.6949 84.5531 16.0996 95.2993 16.0996C105.727 16.0996 110.94 20.132 110.94 28.1946V51.4496C110.948 52.7938 111.705 53.4445 113.21 53.4445Z" fill="#7BACFC"/><path d="M127.238 58.7078H120.79V1.29666H127.238V58.7078Z" fill="#7BACFC"/><path d="M164.334 40.6456V17.097H170.782V58.7078H164.654V52.4736C161.484 57.277 157.129 59.6787 151.589 59.6787C146.969 59.6787 143.367 58.4142 140.785 55.8854C138.202 53.3555 136.91 49.7934 136.91 45.197V17.097H143.395V44.6006C143.395 50.7816 146.565 53.8721 152.907 53.8721C155.929 53.8825 158.826 52.6574 160.923 50.4788C163.197 48.2286 164.334 44.9508 164.334 40.6456Z" fill="#7BACFC"/><path d="M198.677 17.097V22.7441H190.136V49.7577C190.136 52.127 191.721 53.3197 194.892 53.3197H198.677V58.7264C196.896 58.887 195.365 58.9668 194.081 58.9668C187.152 58.9668 183.687 56.0901 183.687 50.3367V22.7268H176.829V17.097H183.687V5.34989H190.136V17.097H198.677Z" fill="#7BACFC"/></svg>