<svg width="24" height="24" viewBox="0 0 24 24" fill="none" xmlns="http://www.w3.org/2000/svg">
<g clip-path="url(#clip0_48_1682)">
<path d="M13.9002 21.9949C13.189 21.9949 12.6129 21.4116 12.6129 20.6914V16.923H11.4021V20.6914C11.4021 21.4116 10.8261 21.9949 10.1148 21.9949C9.40355 21.9949 8.82753 21.4116 8.82753 20.6914V10.9685C7.50018 10.8366 6.18786 10.6287 5.00577 10.3649C4.66517 10.2838 4.37465 10.0708 4.19433 9.76645C4.00901 9.45706 3.95391 9.09188 4.03906 8.74192C4.21437 8.04199 4.90559 7.62102 5.60683 7.77317C7.44007 8.18907 9.57385 8.40717 11.7777 8.40717C14.4262 8.40717 16.5599 8.18907 18.3932 7.77317C19.0994 7.61594 19.7906 8.04199 19.9609 8.74192C20.0461 9.09695 19.991 9.45706 19.8057 9.76645C19.6203 10.0708 19.3298 10.2838 18.9892 10.3649C17.8121 10.6338 16.5048 10.8417 15.1725 10.9685V20.6965C15.1725 21.4167 14.5965 22 13.8852 22L13.9002 21.9949ZM10.5005 16.01H13.5145V20.6914C13.5145 20.9045 13.6848 21.082 13.9002 21.082C14.1156 21.082 14.2859 20.9095 14.2859 20.6914V10.1316L14.6966 10.0961C16.1292 9.9744 17.5467 9.75631 18.8039 9.47228C18.9041 9.44692 18.9942 9.38098 19.0493 9.28969C19.1094 9.19332 19.1245 9.07667 19.0994 8.96508C19.0443 8.74699 18.8239 8.61512 18.5985 8.66584C16.7052 9.09188 14.5013 9.32012 11.7878 9.32012C9.51875 9.32012 7.31485 9.09188 5.4215 8.66584C5.20111 8.61512 4.97572 8.74699 4.92062 8.96508C4.89557 9.07667 4.9106 9.19332 4.97071 9.28969C5.0258 9.38098 5.11095 9.44692 5.21614 9.47228C6.47336 9.75631 7.89588 9.9744 9.3234 10.0961L9.73413 10.1316V20.6965C9.73413 20.9095 9.90443 21.087 10.1198 21.087C10.3352 21.087 10.5055 20.9146 10.5055 20.6965V16.0151L10.5005 16.01Z" fill="#1D1D1D"/>
<path d="M12 7.34728C10.5312 7.34728 9.33337 6.14777 9.33337 4.6768C9.33337 3.20582 10.5249 2 12 2C13.4752 2 14.6667 3.19951 14.6667 4.67048C14.6667 6.14146 13.4689 7.34096 12 7.34096V7.34728ZM12 3.13638C11.1553 3.13638 10.4681 3.82451 10.4681 4.67048C10.4681 5.51645 11.1553 6.20459 12 6.20459C12.8448 6.20459 13.532 5.51645 13.532 4.67048C13.532 3.82451 12.8448 3.13638 12 3.13638Z" fill="#0073E6"/>
</g>
<defs>
<clipPath id="clip0_48_1682">
<rect width="24" height="24" fill="white"/>
</clipPath>
</defs>
</svg>
