<svg width="24" height="24" viewBox="0 0 24 24" fill="none" xmlns="http://www.w3.org/2000/svg">
<g clip-path="url(#clip0_48_1424)">
<path fill-rule="evenodd" clip-rule="evenodd" d="M10.1334 10.0433C10.3263 9.65023 10.8468 9.61641 11.0915 9.956L11.1316 10.0198L13.2935 13.9681L14.2003 11.8314C14.2805 11.6424 14.4503 11.5129 14.645 11.4865L14.7191 11.4815H20.8925C21.2052 11.4815 21.4587 11.7429 21.4587 12.0654C21.4587 12.3649 21.2401 12.6118 20.9585 12.6455L20.8925 12.6494L15.0891 12.6494L13.8774 15.5074C13.7001 15.9252 13.1566 15.9753 12.9047 15.623L12.8655 15.5605L10.6655 11.5439L9.37747 14.1695C9.29177 14.3441 9.12792 14.4613 8.94264 14.4852L8.87226 14.4897H4.35238C4.03965 14.4897 3.78613 14.2283 3.78613 13.9057C3.78613 13.6063 4.00473 13.3594 4.28635 13.3257L4.35238 13.3218L8.52339 13.3216L10.1334 10.0433Z" fill="#0073E6"/>
<path fill-rule="evenodd" clip-rule="evenodd" d="M16.4394 4C15.0002 4 13.8681 4.66217 12.7565 5.87522L12.5759 6.07768L12.3659 6.32697L11.9996 6.77221L11.5633 6.24194L11.3768 6.02342C10.222 4.71621 9.0574 4 7.56059 4C4.47322 4 2 6.55071 2 9.73481L2.00234 9.96113L2.00952 10.1837L2.0218 10.4027C2.02429 10.439 2.027 10.4751 2.02994 10.5111L2.05036 10.7257L2.07655 10.9377L2.10874 11.1475L2.14721 11.3555C2.15416 11.39 2.16138 11.4244 2.16888 11.4588L2.21724 11.6646C2.22587 11.6988 2.23479 11.733 2.244 11.7671L2.30285 11.9716L2.369 12.1756C2.38065 12.2096 2.39262 12.2435 2.40491 12.2775L2.48252 12.4815C2.49611 12.5155 2.51004 12.5495 2.5243 12.5836L2.61395 12.7883C2.62958 12.8225 2.64556 12.8567 2.66189 12.891L2.76417 13.0972C2.83524 13.2352 2.91213 13.3741 2.9952 13.5145L3.12448 13.7262L3.26328 13.9404C3.28722 13.9764 3.31157 14.0124 3.33633 14.0486L3.4899 14.2673L3.65364 14.4893L3.8278 14.7151L4.01266 14.945C4.04437 14.9837 4.07654 15.0226 4.10918 15.0616L4.31055 15.2983L4.52327 15.54L4.74758 15.787L4.98375 16.0396L5.23204 16.2983L5.4927 16.5634L5.76601 16.8352L6.05221 17.114L6.35156 17.4003L6.66434 17.6944L7.15922 18.1508L7.68576 18.6267L8.43855 19.2936L9.04234 19.8196L9.68071 20.3689L10.3545 20.9429L11.0647 21.5426C11.1456 21.6107 11.2272 21.6793 11.3096 21.7485L11.3966 21.8143C11.826 22.0891 12.3358 22.0533 12.6955 21.7442L13.8818 20.743L14.5203 20.1984L15.1746 19.6345L15.6315 19.2361L16.0691 18.8501L16.4878 18.4761L16.8877 18.1135L17.2694 17.7618L17.6332 17.4204L17.9795 17.0888L18.3085 16.7664L18.6207 16.4528L18.9164 16.1473L19.1959 15.8495C19.2412 15.8004 19.2858 15.7517 19.3298 15.7032L19.5858 15.4159C19.6272 15.3685 19.668 15.3214 19.7081 15.2746L19.9415 14.9964C19.9791 14.9506 20.0162 14.9049 20.0526 14.8595L20.264 14.5894C20.5024 14.2771 20.7118 13.9744 20.8949 13.6774L21.0455 13.4242C21.7425 12.206 22 11.0673 22 9.73481C22 6.55071 19.5268 4 16.4394 4ZM16.4394 5.16799C18.9013 5.16799 20.8675 7.19578 20.8675 9.73482C20.8675 9.81474 20.8664 9.89391 20.8641 9.97241L20.8535 10.206L20.8354 10.4361C20.7952 10.8552 20.7151 11.2595 20.5846 11.6636L20.5083 11.8842C20.3454 12.3256 20.12 12.77 19.8183 13.2367L19.661 13.4719C19.6064 13.551 19.5497 13.6308 19.4906 13.7114L19.3067 13.9556L19.1089 14.2051C19.0748 14.2472 19.0401 14.2895 19.0047 14.332L18.7854 14.5904L18.5512 14.8555L18.3017 15.1276C18.2589 15.1736 18.2153 15.2199 18.1712 15.2666L17.8981 15.5504L17.6089 15.8428L17.3031 16.1441L16.9803 16.455L16.6401 16.7759L16.2822 17.1074L15.9061 17.45L15.5115 17.8042L15.098 18.1707L14.4414 18.7443L13.7958 19.3007L13.1611 19.8421L12.4707 20.426L11.999 20.8225L11.0712 20.04L10.4186 19.4843L9.60287 18.7817L8.8476 18.1205L8.31951 17.6501L7.82329 17.2004L7.50974 16.9115L7.06465 16.4937L6.78436 16.2249L6.38789 15.8358L6.01939 15.4623L5.78882 15.2215L5.57001 14.9868L5.36269 14.7579L5.16661 14.5344L4.98149 14.3161L4.80706 14.1025C4.77887 14.0673 4.75111 14.0323 4.72378 13.9975L4.56489 13.7905C4.53925 13.7563 4.51403 13.7223 4.48922 13.6885L4.34528 13.4872C4.3221 13.454 4.29932 13.4209 4.27693 13.3879L4.14733 13.1917L4.02694 12.9985L3.91552 12.8078C3.89768 12.7762 3.88021 12.7447 3.86309 12.7133L3.7646 12.5259L3.6744 12.3402L3.59223 12.1559L3.51781 11.9727C3.50604 11.9422 3.49458 11.9118 3.48343 11.8814L3.42014 11.6991C3.41019 11.6688 3.40054 11.6385 3.39117 11.6081L3.33842 11.4261C3.33019 11.3958 3.32224 11.3654 3.31457 11.335L3.27174 11.1524L3.23521 10.9691C3.22963 10.9384 3.2243 10.9078 3.21921 10.877L3.19161 10.6918C3.18748 10.6609 3.18359 10.6298 3.17993 10.5987L3.16065 10.4109C3.15788 10.3795 3.15532 10.3479 3.15298 10.3163L3.14143 10.1252L3.13469 9.93151L3.13251 9.73482C3.13251 7.19578 5.09869 5.16799 7.56059 5.16799C8.67754 5.16799 9.57853 5.72211 10.5397 6.81006L10.7705 7.08255L11.5768 8.067C11.802 8.32834 12.198 8.32834 12.4232 8.067L13.1575 7.16964L13.359 6.92778L13.4603 6.81006C14.4215 5.72211 15.3225 5.16799 16.4394 5.16799Z" fill="#1D1D1D"/>
</g>
<defs>
<clipPath id="clip0_48_1424">
<rect width="24" height="24" fill="white"/>
</clipPath>
</defs>
</svg>
