<svg width="24" height="24" viewBox="0 0 24 24" fill="none" xmlns="http://www.w3.org/2000/svg">
<g clip-path="url(#clip0_31_873)">
<path fill-rule="evenodd" clip-rule="evenodd" d="M11.958 6.27007C11.958 6.0027 11.7416 5.78595 11.4747 5.78595H9.81765L9.76129 5.78921C9.52092 5.81717 9.33435 6.0218 9.33435 6.27007C9.33435 6.53744 9.55073 6.75419 9.81765 6.75419H11.4747L11.531 6.75093C11.7714 6.72297 11.958 6.51834 11.958 6.27007ZM12.0734 18.8173C12.0946 19.0838 11.8961 19.3171 11.6276 19.3386L11.4872 19.3428C11.2059 19.3423 10.8831 19.291 10.5608 19.1504C10.342 19.055 10.1444 18.9239 9.97619 18.7528C9.54345 18.3125 9.35408 17.7502 9.4141 17.1053C9.43888 16.8391 9.67441 16.6434 9.94018 16.6682C10.2059 16.693 10.4013 16.9289 10.3765 17.1952L10.3704 17.293C10.3607 17.612 10.4573 17.8623 10.665 18.0736C10.7421 18.152 10.8365 18.2146 10.9467 18.2627C11.1526 18.3525 11.379 18.3806 11.5535 18.3732L11.6099 18.3719C11.8514 18.3807 12.0537 18.5698 12.0734 18.8173ZM11.4747 8.46614C11.7416 8.46614 11.958 8.68288 11.958 8.95026C11.958 9.19853 11.7714 9.40316 11.531 9.43112L11.4747 9.43438H9.81765C9.55073 9.43438 9.33435 9.21763 9.33435 8.95026C9.33435 8.70198 9.52092 8.49736 9.76129 8.46939L9.81765 8.46614H11.4747ZM11.958 11.6304C11.958 11.363 11.7416 11.1463 11.4747 11.1463H9.81765L9.76129 11.1495C9.52092 11.1775 9.33435 11.3821 9.33435 11.6304C9.33435 11.8978 9.55073 12.1145 9.81765 12.1145H11.4747L11.531 12.1113C11.7714 12.0833 11.958 11.8787 11.958 11.6304Z" fill="#0073E6"/>
<path fill-rule="evenodd" clip-rule="evenodd" d="M11.3972 2.00213C10.0356 2.05743 8.94867 3.18062 8.94867 4.55809V13.5894L8.93075 13.6023C7.73262 14.4628 7 15.8526 7 17.3679C7 19.9262 9.07034 22 11.6242 22C14.1781 22 16.2485 19.9262 16.2485 17.3679L16.246 17.2159C16.1952 15.6495 15.3616 14.2376 14.0557 13.4272L14.0562 4.55811C14.0562 3.1453 12.9128 2 11.5024 2L11.3972 2.00213ZM11.5024 2.96826C12.379 2.96826 13.0896 3.68006 13.0896 4.55811L13.0893 13.7069C13.0893 13.8856 13.1875 14.0497 13.3449 14.1339C14.5277 14.7669 15.2819 16.0004 15.2819 17.3679C15.2819 19.3914 13.6443 21.0318 11.6242 21.0318C9.60418 21.0318 7.9666 19.3914 7.9666 17.3679C7.9666 16.089 8.6256 14.924 9.68879 14.2584C9.82298 14.1744 9.90653 14.0308 9.9152 13.8749L9.91528 4.5581C9.91528 3.68006 10.6259 2.96826 11.5024 2.96826Z" fill="#1D1D1D"/>
</g>
<defs>
<clipPath id="clip0_31_873">
<rect width="24" height="24" fill="white"/>
</clipPath>
</defs>
</svg>
