<svg width="24" height="24" viewBox="0 0 24 24" fill="none" xmlns="http://www.w3.org/2000/svg">
<g clip-path="url(#clip0_31_1015)">
<path d="M20.3388 15.3994L18.2943 12.8716C18.1999 12.7549 18.0832 12.6716 17.9554 12.6049V8.17161C17.9554 7.94939 17.761 7.76605 17.5165 7.76605C17.2721 7.76605 17.0777 7.94939 17.0777 8.17161V12.5716C16.9165 12.6327 16.7665 12.7272 16.6554 12.8716L14.611 15.3994C14.3554 15.7216 14.2999 16.1494 14.4777 16.5161C14.6554 16.8827 15.0221 17.1161 15.4277 17.1161H19.5165C19.9277 17.1161 20.2943 16.8827 20.4665 16.5161C20.6443 16.1438 20.5943 15.7161 20.3332 15.3994H20.3388ZM17.5165 13.4994L19.561 16.0272C19.561 16.0272 19.5832 16.0549 19.5665 16.0883C19.5499 16.1216 19.5277 16.1216 19.5165 16.1216H15.4277C15.4277 16.1216 15.3943 16.1216 15.3777 16.0883C15.361 16.0549 15.3777 16.0383 15.3832 16.0272L17.4277 13.4994" fill="#0073E6"/>
<path d="M21.8958 7.52778C21.8739 7.47222 21.841 7.41667 21.7971 7.37222L19.3512 4.90556C19.3019 4.85556 19.2361 4.82222 19.1703 4.80556C19.1154 4.77778 19.0551 4.76111 18.9948 4.76111H9.97368L8.54785 2.28333C8.44914 2.11111 8.26268 2 8.05978 2C7.85687 2 7.67041 2.10556 7.5717 2.28333L6.14587 4.75556H2.40581C2.18097 4.75556 2 4.93889 2 5.16667V7.78889C2 7.96111 2.1042 8.10556 2.25226 8.17222C2.30162 8.19444 2.35646 8.20556 2.4113 8.20556H5.83877V18.6889C5.83877 18.6889 5.80587 18.7444 5.78942 18.7778H5.34522C4.46778 18.7778 3.75487 19.5 3.75487 20.3889C3.75487 21.2778 4.46778 22 5.34522 22H10.8292C11.7066 22 12.4195 21.2778 12.4195 20.3889C12.4195 19.5 11.7066 18.7778 10.8292 18.7778H10.3356V8.20556H21.5942C21.819 8.20556 22 8.02222 22 7.79445C22 7.69445 21.9616 7.6 21.9013 7.52778H21.8958ZM2.81711 5.58333H5.83877V7.37778H2.81711V5.58333ZM9.52399 5.58333V7.37778H6.65588V5.58333H9.52399ZM7.0946 4.75556L8.06526 3.07778L9.03044 4.75556H7.0946ZM9.12366 8.20556L6.66137 10.7V8.20556H9.12366ZM8.96463 15.0778L6.66137 17.7444V12.35L8.96463 15.0722V15.0778ZM6.9904 11.5333L9.52948 8.96111V14.5278L6.9904 11.5278V11.5333ZM10.3356 5.58333H18.7809L20.5632 7.37778H10.3356V5.58333ZM9.51851 15.7278V18.7778H6.88621L9.51851 15.7278ZM11.4324 20.3889C11.4324 20.7278 11.1637 21 10.8292 21H5.34522C5.01069 21 4.74198 20.7278 4.74198 20.3889C4.74198 20.05 5.01069 19.7778 5.34522 19.7778H10.8292C11.1637 19.7778 11.4324 20.05 11.4324 20.3889Z" fill="#1D1D1D"/>
</g>
<defs>
<clipPath id="clip0_31_1015">
<rect width="24" height="24" fill="white"/>
</clipPath>
</defs>
</svg>
