<svg width="24" height="24" viewBox="0 0 24 24" fill="none" xmlns="http://www.w3.org/2000/svg">
<g clip-path="url(#clip0_48_1565)">
<path fill-rule="evenodd" clip-rule="evenodd" d="M5.4 2H18.6C19.9255 2 21 3.11929 21 4.5V19.5C21 20.8807 19.9255 22 18.6 22H5.4C4.07452 22 3 20.8807 3 19.5V4.5C3 3.11929 4.07452 2 5.4 2ZM18.5992 3.24988H5.39922C4.73647 3.24988 4.19922 3.80952 4.19922 4.49988V19.4999C4.19922 20.1902 4.73647 20.7499 5.39922 20.7499H18.5992C19.262 20.7499 19.7992 20.1902 19.7992 19.4999V4.49988C19.7992 3.80952 19.262 3.24988 18.5992 3.24988ZM7.93591 11.375C8.4528 11.375 8.87183 11.7947 8.87183 12.3125C8.87183 12.8303 8.4528 13.25 7.93591 13.25C7.41902 13.25 7 12.8303 7 12.3125C7 11.7947 7.41902 11.375 7.93591 11.375ZM8.87183 17.3127C8.87183 16.7949 8.4528 16.3752 7.93591 16.3752C7.41902 16.3752 7 16.7949 7 17.3127C7 17.8304 7.41902 18.2502 7.93591 18.2502C8.4528 18.2502 8.87183 17.8304 8.87183 17.3127ZM15.7352 11.6877C16.0798 11.6877 16.3591 11.9675 16.3591 12.3127C16.3591 12.6313 16.1211 12.8942 15.8134 12.9328L15.7352 12.9377H10.7436C10.399 12.9377 10.1197 12.6578 10.1197 12.3127C10.1197 11.994 10.3577 11.7311 10.6654 11.6925L10.7436 11.6877H15.7352ZM16.3591 17.3128C16.3591 16.9676 16.0798 16.6878 15.7352 16.6878H10.7436L10.6654 16.6926C10.3577 16.7312 10.1197 16.9941 10.1197 17.3128C10.1197 17.658 10.399 17.9378 10.7436 17.9378H15.7352L15.8134 17.9329C16.1211 17.8943 16.3591 17.6314 16.3591 17.3128Z" fill="#1D1D1D"/>
<path fill-rule="evenodd" clip-rule="evenodd" d="M8.87183 7.31304C8.87183 6.79527 8.4528 6.37554 7.93591 6.37554C7.41902 6.37554 7 6.79527 7 7.31304C7 7.83081 7.41902 8.25054 7.93591 8.25054C8.4528 8.25054 8.87183 7.83081 8.87183 7.31304ZM16.3591 7.31316C16.3591 6.96799 16.0798 6.68816 15.7352 6.68816H10.7436L10.6654 6.69303C10.3577 6.7316 10.1197 6.99454 10.1197 7.31316C10.1197 7.65834 10.399 7.93816 10.7436 7.93816H15.7352L15.8134 7.93329C16.1211 7.89473 16.3591 7.63179 16.3591 7.31316Z" fill="#0073E6"/>
</g>
<defs>
<clipPath id="clip0_48_1565">
<rect width="24" height="24" fill="white"/>
</clipPath>
</defs>
</svg>
