<svg width="24" height="24" viewBox="0 0 24 24" fill="none" xmlns="http://www.w3.org/2000/svg">
<g clip-path="url(#clip0_31_1090)">
<path fill-rule="evenodd" clip-rule="evenodd" d="M11.2573 11.3614C11.4809 11.585 11.4809 11.9475 11.2573 12.1711C11.0497 12.3787 10.7222 12.3936 10.4975 12.2156L10.4476 12.1711L9.08724 10.8107C8.86366 10.5871 8.86366 10.2246 9.08724 10.001C9.29485 9.79333 9.62229 9.77853 9.84702 9.95647L9.89695 10.001L11.2573 11.3614ZM13.4535 9.16439C13.6772 9.388 13.6772 9.75057 13.4535 9.97419C13.2459 10.1818 12.9185 10.1966 12.6938 10.0187L12.6438 9.97419L11.2835 8.61381C11.0599 8.39019 11.0599 8.02762 11.2835 7.80401C11.4912 7.5964 11.8186 7.58159 12.0433 7.75953L12.0933 7.80401L13.4535 9.16439ZM15.6499 6.96802C15.8734 7.19164 15.8734 7.55415 15.6499 7.77777C15.4422 7.98544 15.1148 8.00024 14.8901 7.8223L14.8401 7.77777L13.4798 6.41739C13.2562 6.19378 13.2562 5.83125 13.4798 5.60764C13.6874 5.40001 14.0149 5.38518 14.2396 5.56316L14.2895 5.60764L15.6499 6.96802Z" fill="#0073E6"/>
<path fill-rule="evenodd" clip-rule="evenodd" d="M21.8323 2.1677C22.0399 2.37534 22.0548 2.70277 21.8768 2.92751L21.8323 2.97745L19.827 4.9828C21.0561 6.55541 20.947 8.83414 19.4999 10.2815L12.9978 16.7837C12.1169 17.6647 10.6886 17.6647 9.80756 16.7837L8.91667 15.8928L6.25067 18.5589C6.21944 18.5901 6.18549 18.617 6.14959 18.6395L8.53203 21.0226C8.75561 21.2462 8.75561 21.6087 8.53203 21.8323C8.32442 22.0399 7.99698 22.0548 7.77225 21.8768L7.72232 21.8323L2.1677 16.2774C1.9441 16.0538 1.9441 15.6912 2.1677 15.4676C2.37532 15.26 2.70273 15.2452 2.92747 15.4232L2.97741 15.4676L5.36035 17.8502C5.37134 17.8327 5.38338 17.8156 5.39647 17.7991L5.44096 17.7491L8.10696 15.083L7.32984 14.3059C6.44889 13.4249 6.44889 11.9965 7.32984 11.1155L13.8319 4.61317C15.24 3.20502 17.4351 3.06369 19.0012 4.1892L21.0226 2.1677C21.2462 1.9441 21.6087 1.9441 21.8323 2.1677ZM18.6901 9.47149C19.8081 8.35347 19.8081 6.54077 18.6901 5.42275C17.5721 4.30472 15.7595 4.30472 14.6416 5.42275L8.13954 11.9251C7.70578 12.3589 7.70578 13.0622 8.13954 13.496L10.6173 15.9738C11.0511 16.4076 11.7544 16.4076 12.1881 15.9738L18.6901 9.47149Z" fill="#1D1D1D"/>
</g>
<defs>
<clipPath id="clip0_31_1090">
<rect width="24" height="24" fill="white"/>
</clipPath>
</defs>
</svg>
