<svg width="24" height="24" viewBox="0 0 24 24" fill="none" xmlns="http://www.w3.org/2000/svg">
<g clip-path="url(#clip0_40_2355)">
<path fill-rule="evenodd" clip-rule="evenodd" d="M7.05944 3.33331H3.96944C2.88175 3.33331 2 4.24446 2 5.3684C2.01013 14.5498 9.20987 21.9895 18.0943 22C19.1828 22 20.0645 21.0889 20.0645 19.9649V16.7811C20.0645 15.6571 19.1828 14.746 18.0951 14.746C17.2467 14.7477 16.4039 14.6248 15.591 14.3816L15.2876 14.2848C14.6602 14.0579 13.9558 14.1893 13.4368 14.6269L12.163 15.775C11.816 16.0964 10.6547 15.5621 9.49131 14.3604C8.36386 13.1958 7.75758 11.9127 7.96786 11.6309L9.03391 10.3034C9.5176 9.80732 9.70499 9.00872 9.47945 8.27917C9.17908 7.33642 9.02757 6.35596 9.02888 5.36932C9.02888 4.24446 8.14713 3.33331 7.05944 3.33331ZM3.96946 4.66667H7.05946C7.43452 4.66667 7.73858 4.98086 7.73858 5.36843C7.73708 6.49643 7.91044 7.61829 8.25211 8.69056C8.32899 8.93932 8.26365 9.21774 8.081 9.40662L6.96041 10.7982C6.55801 11.3372 6.6046 12.1014 6.93355 12.9142L7.03013 13.1369C7.15069 13.3979 7.29831 13.6621 7.4676 13.9239L7.61789 14.1477C7.66968 14.222 7.72311 14.2959 7.77806 14.3694L7.94734 14.5884C8.06306 14.7333 8.18437 14.8758 8.31025 15.0149L8.50237 15.2208L8.70061 15.4208L8.90421 15.614L9.11242 15.7997C9.35773 16.0117 9.61092 16.2066 9.86662 16.3788L10.0863 16.5207L10.3064 16.6507C11.3337 17.2283 12.352 17.3907 13.0179 16.7738L14.2012 15.707C14.394 15.5207 14.6463 15.4655 14.8734 15.5475C15.9214 15.9033 17.0055 16.0815 18.0964 16.0793C18.4702 16.0793 18.7742 16.3935 18.7742 16.7811V19.9649C18.7742 20.3525 18.4702 20.6667 18.0951 20.6667C9.92284 20.6571 3.29966 13.8131 3.29034 5.36767C3.29034 4.98086 3.5944 4.66667 3.96946 4.66667Z" fill="#1D1D1D"/>
<path fill-rule="evenodd" clip-rule="evenodd" d="M22 10.6667C22 5.8802 18.245 2 13.6129 2C13.2566 2 12.9678 2.29848 12.9678 2.66667C12.9678 3.03486 13.2566 3.33333 13.6129 3.33333C17.5324 3.33333 20.7097 6.61658 20.7097 10.6667C20.7097 11.0349 20.9986 11.3333 21.3549 11.3333C21.7112 11.3333 22 11.0349 22 10.6667ZM18.7742 10.6667C18.7742 7.72114 16.4634 5.33333 13.6129 5.33333C13.2566 5.33333 12.9678 5.6318 12.9678 5.99999C12.9678 6.36818 13.2566 6.66666 13.6129 6.66666C15.7508 6.66666 17.4839 8.45752 17.4839 10.6667C17.4839 11.0349 17.7728 11.3333 18.1291 11.3333C18.4854 11.3333 18.7742 11.0349 18.7742 10.6667Z" fill="#0073E6"/>
</g>
<defs>
<clipPath id="clip0_40_2355">
<rect width="24" height="24" fill="white"/>
</clipPath>
</defs>
</svg>
