<svg width="24" height="24" viewBox="0 0 24 24" fill="none" xmlns="http://www.w3.org/2000/svg">
<g clip-path="url(#clip0_46_472)">
<path fill-rule="evenodd" clip-rule="evenodd" d="M18.5517 2H5.44828C3.54385 2 2 3.52309 2 5.40191V15.6076L2.00319 15.7552C2.0815 17.5656 3.59396 19.0095 5.44828 19.0095H6.13793V20.6392L6.14372 20.7578C6.22761 21.4803 6.81521 22 7.51724 22C7.86761 22 8.20484 21.8685 8.46048 21.6321L10.6999 19.5614L10.8046 19.4704C11.1566 19.1811 11.6189 19.0135 12.0976 19.0096L18.5517 19.0095C20.4562 19.0095 22 17.4865 22 15.6076V5.40191C22 3.52309 20.4562 2 18.5517 2ZM9.77136 18.5554L7.51726 20.6393L7.5161 20.6001L7.51724 18.3292C7.51724 17.9534 7.20847 17.6488 6.82759 17.6488H5.44827C4.30562 17.6488 3.37931 16.7349 3.37931 15.6076V5.40192C3.37931 4.27463 4.30562 3.36078 5.44827 3.36078H18.5517C19.6944 3.36078 20.6207 4.27463 20.6207 5.40192V15.6076C20.6207 16.7349 19.6944 17.6488 18.5517 17.6488L12.0919 17.6489C11.2884 17.6554 10.5179 17.9347 9.90597 18.4383L9.77136 18.5554Z" fill="#1D1D1D"/>
<path fill-rule="evenodd" clip-rule="evenodd" d="M12 8.12341C12.3641 8.12341 12.6641 8.39379 12.7051 8.74213L12.7099 8.82381V9.80366L13.7038 9.80436C14.0959 9.80436 14.4138 10.1179 14.4138 10.5047C14.4138 10.8639 14.1397 11.16 13.7866 11.2004L13.7038 11.2051L12.7099 11.2044V12.1857C12.7099 12.5725 12.3921 12.8861 12 12.8861C11.6359 12.8861 11.3358 12.6157 11.2948 12.2674L11.29 12.1857V11.2044L10.2961 11.2051C9.90403 11.2051 9.58618 10.8916 9.58618 10.5047C9.58618 10.1456 9.86025 9.84953 10.2133 9.80907L10.2961 9.80436L11.29 9.80366V8.82381C11.29 8.43699 11.6079 8.12341 12 8.12341Z" fill="#0073E6"/>
</g>
<defs>
<clipPath id="clip0_46_472">
<rect width="24" height="24" fill="white"/>
</clipPath>
</defs>
</svg>
