<svg width="24" height="24" viewBox="0 0 24 24" fill="none" xmlns="http://www.w3.org/2000/svg">
<g clip-path="url(#clip0_31_1042)">
<path fill-rule="evenodd" clip-rule="evenodd" d="M20.4155 3.58447C22.5282 5.69712 22.5282 9.12234 20.4155 11.235L11.2349 20.4155C9.12229 22.5282 5.69709 22.5282 3.58447 20.4155C1.47184 18.3029 1.47184 14.8777 3.58447 12.7651L12.765 3.58447C14.8777 1.47184 18.3029 1.47184 20.4155 3.58447ZM19.5854 4.41442C17.965 2.79403 15.3584 2.76095 13.6977 4.31521L13.5952 4.41442L9.22854 8.78105L15.2188 14.7713L19.5854 10.4046C21.2395 8.75046 21.2395 6.06858 19.5854 4.41442ZM14.3886 15.6014L8.39842 9.61118L4.41459 13.595C2.76044 15.2492 2.76044 17.9311 4.4146 19.5852C6.03502 21.2056 8.64161 21.2387 10.3023 19.6844L10.4048 19.5852L14.3886 15.6014Z" fill="#1D1D1D"/>
<path fill-rule="evenodd" clip-rule="evenodd" d="M18.5141 5.82474C18.7616 6.03417 18.7924 6.40458 18.5829 6.65199C18.3735 6.89946 18.0031 6.93022 17.7556 6.72079C16.7987 5.91065 16.0275 5.99995 15.1577 7.04508C14.9503 7.29425 14.5802 7.32818 14.331 7.12079C14.0818 6.91341 14.048 6.54329 14.2553 6.29406C15.5332 4.75866 17.0477 4.58336 18.5141 5.82474Z" fill="#0073E6"/>
</g>
<defs>
<clipPath id="clip0_31_1042">
<rect width="24" height="24" fill="white"/>
</clipPath>
</defs>
</svg>
