<svg width="24" height="24" viewBox="0 0 24 24" fill="none" xmlns="http://www.w3.org/2000/svg">
<g clip-path="url(#clip0_46_433)">
<path fill-rule="evenodd" clip-rule="evenodd" d="M18.3609 5.92842C17.8596 5.34109 17.131 5 16.3606 5H4.53186L4.41872 5.00252C3.06871 5.06285 2 6.19757 2 7.57929V14.5365L2.00246 14.6511C2.06122 16.0184 3.16683 17.1158 4.53186 17.1158C4.58683 17.1158 4.63983 17.1075 4.68964 17.092C4.92109 18.1818 5.89955 19 7.0715 19C8.23269 19 9.20394 18.1967 9.44678 17.1219H15.7159C15.9587 18.1967 16.93 19 18.0912 19C19.2623 19 20.2402 18.1829 20.4725 17.0944C21.3409 16.9588 22 16.196 22 15.2833V11.3809L21.9962 11.2527C21.9707 10.827 21.819 10.4175 21.5589 10.0795L18.447 6.03461L18.3609 5.92842ZM20.4563 16.0267C20.7195 15.9238 20.9157 15.6697 20.9439 15.3603L20.9474 15.2833V11.3809C20.9474 11.1665 20.886 10.9582 20.7726 10.7821L20.7209 10.7087L17.6089 6.66379C17.3265 6.29672 16.9099 6.07333 16.464 6.04329L16.3606 6.03982H4.53186C3.74858 6.03982 3.10046 6.67661 3.05516 7.48839L3.05263 7.57929V14.5365C3.05263 15.3911 3.71958 16.076 4.53186 16.076C4.58683 16.076 4.63983 16.0843 4.68964 16.0997C4.92109 15.01 5.89955 14.1918 7.0715 14.1918C8.23708 14.1918 9.21128 15.0012 9.4495 16.0821H15.7132C15.9514 15.0012 16.9256 14.1918 18.0912 14.1918C19.2368 14.1918 20.1975 14.9737 20.4563 16.0267ZM8.45255 16.5959C8.45255 15.8424 7.83423 15.2316 7.07148 15.2316C6.30869 15.2316 5.69037 15.8424 5.69037 16.5959C5.69037 17.3494 6.3087 17.9602 7.07148 17.9602C7.83422 17.9602 8.45255 17.3494 8.45255 16.5959ZM18.0912 15.2316C18.854 15.2316 19.4723 15.8424 19.4723 16.5959C19.4723 17.3494 18.854 17.9602 18.0912 17.9602C17.3284 17.9602 16.7101 17.3494 16.7101 16.5959C16.7101 15.8424 17.3284 15.2316 18.0912 15.2316Z" fill="#1D1D1D"/>
<path fill-rule="evenodd" clip-rule="evenodd" d="M15.9647 7.2503C15.9582 6.96324 15.7174 6.73572 15.4268 6.74213C15.1362 6.74853 14.9058 6.98644 14.9123 7.27351L14.9251 8.0837L14.9294 8.73074L14.9292 9.04377L14.9306 9.27287C14.982 10.5238 16.0248 11.5239 17.3054 11.5239H19.1606L19.222 11.5204C19.4838 11.4904 19.6869 11.2706 19.6869 11.004C19.6869 10.7169 19.4513 10.4841 19.1606 10.4841H17.3054L17.218 10.4813C16.5244 10.4366 15.9771 9.86462 15.9813 9.16797L15.982 8.72928C15.9818 8.62178 15.9814 8.51298 15.9806 8.40342L15.9734 7.7411L15.9647 7.2503ZM8.82702 8.05884C8.79662 7.80027 8.57416 7.59957 8.30424 7.59957C8.01357 7.59957 7.77793 7.83234 7.77793 8.11947V8.84683L7.04109 8.84735L6.97971 8.85084C6.71795 8.88088 6.51477 9.10063 6.51477 9.36725C6.51477 9.65439 6.75041 9.88716 7.04109 9.88716L7.77793 9.88664V10.615L7.78147 10.6757C7.81187 10.9342 8.03433 11.1349 8.30424 11.1349C8.59492 11.1349 8.83056 10.9022 8.83056 10.615V9.88664L9.5674 9.88716L9.62878 9.88367C9.89054 9.85363 10.0937 9.63388 10.0937 9.36725C10.0937 9.08012 9.85808 8.84735 9.5674 8.84735L8.83056 8.84683V8.11947L8.82702 8.05884Z" fill="#0073E6"/>
</g>
<defs>
<clipPath id="clip0_46_433">
<rect width="24" height="24" fill="white"/>
</clipPath>
</defs>
</svg>
