<svg width="24" height="24" viewBox="0 0 24 24" fill="none" xmlns="http://www.w3.org/2000/svg">
<g clip-path="url(#clip0_31_1075)">
<path fill-rule="evenodd" clip-rule="evenodd" d="M11.1434 5.02789C10.5484 4.80713 10.1244 4.23433 10.1244 3.56249C10.1244 2.69954 10.8239 1.99998 11.6869 1.99998C12.5498 1.99998 13.2493 2.69954 13.2493 3.56249C13.2493 4.23433 12.8253 4.80713 12.2303 5.02789V5.83563C15.2426 5.94611 17.7034 8.21664 18.1097 11.1442H18.9722C19.1929 10.5492 19.7657 10.1252 20.4375 10.1252C21.3005 10.1252 22 10.8247 22 11.6877C22 12.5506 21.3005 13.2502 20.4375 13.2502C19.7657 13.2502 19.1929 12.8262 18.9722 12.2311H18.1643C18.0455 15.4544 15.4537 18.046 12.2303 18.1642V18.9721C12.8253 19.1929 13.2493 19.7657 13.2493 20.4375C13.2493 21.3004 12.5498 22 11.6869 22C10.8239 22 10.1244 21.3004 10.1244 20.4375C10.1244 19.7657 10.5484 19.1929 11.1434 18.9721V18.1335C11.1434 18.1254 11.1436 18.1174 11.1439 18.1095C8.21709 17.703 5.94709 15.2428 5.83612 12.2311H5.02783C4.80707 12.8262 4.23428 13.2502 3.56247 13.2502C2.69954 13.2502 2 12.5506 2 11.6877C2 10.8247 2.69954 10.1252 3.56247 10.1252C4.23428 10.1252 4.80707 10.5492 5.02782 11.1442H5.86647C5.87458 11.1442 5.88265 11.1444 5.89067 11.1447C6.26825 8.42231 8.42248 6.26795 11.1448 5.89026L11.1434 5.86655V5.02789ZM12.1624 3.56248C12.1624 3.82512 11.9495 4.03802 11.6869 4.03802C11.4242 4.03802 11.2113 3.82512 11.2113 3.56248C11.2113 3.29984 11.4242 3.08693 11.6869 3.08693C11.9495 3.08693 12.1624 3.29984 12.1624 3.56248ZM12.0002 6.9184C14.8066 6.9184 17.0816 9.19348 17.0816 11.9999C17.0816 14.8064 14.8066 17.0815 12.0002 17.0815C9.19383 17.0815 6.9188 14.8064 6.9188 11.9999C6.9188 9.19348 9.19383 6.9184 12.0002 6.9184ZM11.6869 20.913C11.9495 20.913 12.1624 20.7001 12.1624 20.4375C12.1624 20.1748 11.9495 19.9619 11.6869 19.9619C11.4242 19.9619 11.2113 20.1748 11.2113 20.4375C11.2113 20.7001 11.4242 20.913 11.6869 20.913ZM3.08693 11.6877C3.08693 11.9503 3.29983 12.1632 3.56246 12.1632C3.82509 12.1632 4.038 11.9503 4.038 11.6877C4.038 11.425 3.82509 11.2121 3.56246 11.2121C3.29983 11.2121 3.08693 11.425 3.08693 11.6877ZM20.4375 12.1632C20.1749 12.1632 19.962 11.9503 19.962 11.6877C19.962 11.425 20.1749 11.2121 20.4375 11.2121C20.7002 11.2121 20.9131 11.425 20.9131 11.6877C20.9131 11.9503 20.7002 12.1632 20.4375 12.1632ZM4.70793 18.8502C4.09775 18.24 4.09775 17.2506 4.70793 16.6404C5.31811 16.0302 6.30741 16.0302 6.91759 16.6404C7.52777 17.2506 7.52777 18.24 6.91759 18.8502C6.30741 19.4604 5.31811 19.4604 4.70793 18.8502ZM5.47679 18.082C5.66234 18.2675 5.96318 18.2675 6.14874 18.082C6.33429 17.8964 6.33429 17.5956 6.14874 17.41C5.96318 17.2245 5.66234 17.2245 5.47679 17.41C5.29124 17.5956 5.29124 17.8964 5.47679 18.082ZM16.6408 4.70776C16.0307 5.31796 16.0307 6.30728 16.6408 6.91748C17.251 7.52768 18.2403 7.52768 18.8505 6.91748C19.4607 6.30728 19.4607 5.31796 18.8505 4.70776C18.2403 4.09756 17.251 4.09756 16.6408 4.70776ZM18.0817 6.14931C17.8961 6.33487 17.5953 6.33487 17.4097 6.14931C17.2242 5.96375 17.2242 5.6629 17.4097 5.47734C17.5953 5.29179 17.8961 5.29179 18.0817 5.47734C18.2672 5.6629 18.2672 5.96375 18.0817 6.14931ZM5.1492 4.70795C5.75938 4.09775 6.74868 4.09775 7.35886 4.70795C7.96904 5.31814 7.96904 6.30747 7.35886 6.91767C6.74868 7.52786 5.75938 7.52786 5.1492 6.91767C4.53902 6.30747 4.53902 5.31814 5.1492 4.70795ZM5.91733 5.47682C5.73178 5.66238 5.73178 5.96323 5.91733 6.14879C6.10289 6.33434 6.40373 6.33434 6.58928 6.14879C6.77483 5.96323 6.77483 5.66238 6.58928 5.47682C6.40373 5.29127 6.10289 5.29127 5.91733 5.47682ZM19.2918 16.6407C18.6816 16.0305 17.6923 16.0305 17.0821 16.6407C16.4719 17.2509 16.4719 18.2402 17.0821 18.8504C17.6923 19.4606 18.6816 19.4606 19.2918 18.8504C19.902 18.2402 19.902 17.2509 19.2918 16.6407ZM17.8503 18.0815C17.6647 17.896 17.6647 17.5951 17.8503 17.4096C18.0358 17.224 18.3366 17.224 18.5222 17.4096C18.7078 17.5951 18.7078 17.896 18.5222 18.0815C18.3366 18.2671 18.0358 18.2671 17.8503 18.0815Z" fill="#1D1D1D"/>
<path fill-rule="evenodd" clip-rule="evenodd" d="M8.79334 11.4021C9.09349 11.4021 9.33681 11.6454 9.33681 11.9456C9.33681 13.5731 10.2977 14.663 12.0541 14.663C12.3543 14.663 12.5976 14.9063 12.5976 15.2065C12.5976 15.5066 12.3543 15.7499 12.0541 15.7499C9.66483 15.7499 8.24988 14.1451 8.24988 11.9456C8.24988 11.6454 8.4932 11.4021 8.79334 11.4021Z" fill="#0073E6"/>
</g>
<defs>
<clipPath id="clip0_31_1075">
<rect width="24" height="24" fill="white"/>
</clipPath>
</defs>
</svg>
