<svg width="24" height="24" viewBox="0 0 24 24" fill="none" xmlns="http://www.w3.org/2000/svg">
<g clip-path="url(#clip0_31_854)">
<path fill-rule="evenodd" clip-rule="evenodd" d="M10.2253 12.819C10.159 10.873 8.58152 9.31604 6.6452 9.31604C4.66679 9.31604 3.06297 10.9414 3.06297 12.9465V18.0002C2.44708 18.1948 2 18.7772 2 19.4655C2 20.313 2.6779 21 3.51414 21C4.35037 21 5.02827 20.313 5.02827 19.4655C5.02827 18.8385 4.65722 18.2993 4.12552 18.0612V12.9465L4.12811 12.8296C4.1884 11.4735 5.29227 10.3929 6.6452 10.3929C8.03678 10.3929 9.16488 11.5362 9.16488 12.9465V17.1211L9.16699 17.2504C9.23429 19.3115 10.9041 20.9613 12.9541 20.9613C15.0469 20.9613 16.7434 19.242 16.7434 17.1211V11.0564H15.6808V17.1211L15.6784 17.2379C15.618 18.7099 14.4214 19.8845 12.9541 19.8845C11.4482 19.8845 10.2274 18.6473 10.2274 17.1211V12.9465L10.2253 12.819ZM3.51414 19.9231C3.76355 19.9231 3.96573 19.7182 3.96573 19.4655C3.96573 19.2127 3.76355 19.0078 3.51414 19.0078C3.26474 19.0078 3.06256 19.2127 3.06256 19.4655C3.06256 19.7182 3.26474 19.9231 3.51414 19.9231Z" fill="#1D1D1D"/>
<path fill-rule="evenodd" clip-rule="evenodd" d="M13.026 3C13.3195 3 13.5573 3.24106 13.5573 3.53843C13.5573 3.81455 13.3522 4.04213 13.088 4.07323L13.026 4.07685H12.4207C12.0257 4.07685 11.7055 4.40135 11.7055 4.80164C11.7055 4.94364 11.7466 5.08187 11.8229 5.19954L11.8728 5.26754L16.2396 10.5412L20.7616 5.27753C21.0037 4.99574 20.9926 4.57815 20.7478 4.31004L20.6918 4.25497C20.5802 4.15653 20.4417 4.09598 20.2957 4.08069L20.2222 4.07685H19.7754C19.4819 4.07685 19.2441 3.83579 19.2441 3.53843C19.2441 3.2623 19.4492 3.03472 19.7134 3.00362L19.7754 3H20.2222C20.6512 3 21.0658 3.15726 21.3894 3.44277C22.1035 4.07276 22.2013 5.15343 21.6293 5.90274L21.563 5.98459L16.8246 11.5009C16.7979 11.532 16.7688 11.561 16.7376 11.5875C16.428 11.8508 15.976 11.8289 15.6923 11.5494L15.6379 11.49L11.0589 5.95975C10.7902 5.63527 10.6429 5.22523 10.6429 4.80164C10.6429 3.83979 11.3867 3.05398 12.3231 3.00267L12.4207 3H13.026Z" fill="#0073E6"/>
</g>
<defs>
<clipPath id="clip0_31_854">
<rect width="24" height="24" fill="white"/>
</clipPath>
</defs>
</svg>
