<svg width="24" height="24" viewBox="0 0 24 24" fill="none" xmlns="http://www.w3.org/2000/svg">
<g clip-path="url(#clip0_31_994)">
<path fill-rule="evenodd" clip-rule="evenodd" d="M14.7165 8.38757L15.6132 9.28435L9.28495 15.6127L8.38818 14.7159L14.7165 8.38757Z" fill="#0073E6"/>
<path fill-rule="evenodd" clip-rule="evenodd" d="M3.3719 3.62548L3.49651 3.49635C5.49163 1.50122 8.72646 1.50122 10.7216 3.49635L11.9999 4.77466L13.2782 3.49635C15.2733 1.50122 18.508 1.50122 20.5031 3.49635C22.4568 5.45001 22.4975 8.5921 20.6253 10.5952L20.5031 10.7215L19.2249 11.9998L20.5036 13.2784C22.4988 15.2737 22.4988 18.5084 20.5036 20.5037C18.5085 22.4988 15.2738 22.4988 13.2785 20.5037L11.9998 19.2249L10.7214 20.5034C8.72628 22.4985 5.49155 22.4985 3.49632 20.5034C1.54279 18.5497 1.50209 15.4076 3.37425 13.4045L3.49635 13.2782L4.77479 11.9998L3.49651 10.7215C1.5518 8.77673 1.49746 5.64324 3.3719 3.62548ZM5.67156 12.8965L4.39311 14.1749C2.89325 15.6749 2.89325 18.1067 4.39309 19.6066C5.85457 21.068 8.20069 21.1055 9.70745 19.719L9.82463 19.6066L11.1031 18.3282L5.67156 12.8965ZM18.3282 11.103L12.8966 5.67143L14.1749 4.39312L14.2921 4.2807C15.7989 2.89425 18.145 2.93172 19.6064 4.39312C21.1063 5.89307 21.1063 8.32482 19.6064 9.82468L18.3282 11.103ZM19.6067 14.175L9.82465 4.3929C8.3248 2.89305 5.89297 2.89305 4.40129 4.38458L4.29289 4.49689C2.8904 6.00674 2.93125 8.36259 4.39312 9.82448L14.1751 19.6067C15.6751 21.1065 18.1068 21.1065 19.6067 19.6067C21.1066 18.1067 21.1066 15.675 19.6067 14.175Z" fill="#1D1D1D"/>
</g>
<defs>
<clipPath id="clip0_31_994">
<rect width="24" height="24" fill="white"/>
</clipPath>
</defs>
</svg>
