<svg width="24" height="24" viewBox="0 0 24 24" fill="none" xmlns="http://www.w3.org/2000/svg">
<g clip-path="url(#clip0_46_707)">
<path fill-rule="evenodd" clip-rule="evenodd" d="M19.2386 3.73775H4.76139C3.7886 3.73775 3 4.53784 3 5.5248L3.00299 5.62981C3.04267 6.32469 3.47369 6.91305 4.07578 7.17142L4.15757 7.20354L4.15818 19.0379C4.15818 20.6738 5.46531 22 7.07775 22H16.9223L17.0523 21.9971C18.6044 21.9281 19.8418 20.6296 19.8418 19.0379V7.19925L19.8645 7.1917C20.5367 6.93084 21 6.28006 21 5.5248C21 4.53784 20.2114 3.73775 19.2386 3.73775ZM4.76138 4.96178H19.2386C19.5451 4.96178 19.7936 5.21386 19.7936 5.52482C19.7936 5.81929 19.5696 6.06364 19.2826 6.08615L19.2154 6.08832C18.8915 6.10097 18.6354 6.37103 18.6354 6.69987V19.0379C18.6354 19.9978 17.8684 20.776 16.9222 20.776H14.608V15.6488L14.6047 15.5534C14.5565 14.8604 13.9871 14.3134 13.2918 14.3134H10.6641L10.5701 14.3168C9.88707 14.3657 9.34792 14.9433 9.34792 15.6488V20.776H7.07773C6.13159 20.776 5.3646 19.9978 5.3646 19.0379V6.69987C5.3646 6.38601 5.13173 6.12734 4.83173 6.09198L4.76138 6.08787C4.45488 6.08787 4.20642 5.83578 4.20642 5.52482C4.20642 5.21386 4.45488 4.96178 4.76138 4.96178ZM10.5544 20.776H13.4015V15.6488C13.4015 15.5996 13.3701 15.5578 13.3265 15.5431L13.2918 15.5374H10.6641C10.6156 15.5374 10.5745 15.5693 10.5599 15.6136L10.5544 15.6488V20.776Z" fill="#1D1D1D"/>
<path d="M7.92358 9.05228C7.92358 9.70014 8.44212 10.2253 9.08176 10.2253H14.8726C15.5123 10.2253 16.0308 9.70014 16.0308 9.05228V3.17305C16.0308 2.52519 15.5123 1.99999 14.8726 1.99999H9.08176C8.44212 1.99999 7.92358 2.52518 7.92358 3.17305V9.05228Z" fill="white"/>
<path fill-rule="evenodd" clip-rule="evenodd" d="M9.13002 9.0034V3.22193H14.8244V9.0034H9.13002ZM9.08176 10.2253C8.44212 10.2253 7.92358 9.70014 7.92358 9.05228V3.17305C7.92358 2.52518 8.44212 1.99999 9.08176 1.99999H14.8726C15.5123 1.99999 16.0308 2.52519 16.0308 3.17305V9.05228C16.0308 9.70014 15.5123 10.2253 14.8726 10.2253H9.08176Z" fill="#1D1D1D"/>
<path fill-rule="evenodd" clip-rule="evenodd" d="M12.0482 4.08078C12.3575 4.08078 12.6125 4.31704 12.6473 4.62141L12.6514 4.69279L12.6508 5.30418L13.2546 5.30479C13.5878 5.30479 13.8578 5.5788 13.8578 5.9168C13.8578 6.23066 13.625 6.48933 13.325 6.52469L13.2546 6.5288L12.6508 6.52819L12.6514 7.14081C12.6514 7.47881 12.3813 7.75281 12.0482 7.75281C11.7388 7.75281 11.4839 7.51656 11.449 7.21218L11.445 7.14081L11.4444 6.52819L10.8417 6.5288C10.5086 6.5288 10.2385 6.2548 10.2385 5.9168C10.2385 5.60294 10.4714 5.34426 10.7714 5.30891L10.8417 5.30479L11.4444 5.30418L11.445 4.69279C11.445 4.35478 11.715 4.08078 12.0482 4.08078Z" fill="#0073E6"/>
</g>
<defs>
<clipPath id="clip0_46_707">
<rect width="24" height="24" fill="white"/>
</clipPath>
</defs>
</svg>
