<svg width="24" height="24" viewBox="0 0 24 24" fill="none" xmlns="http://www.w3.org/2000/svg">
<g clip-path="url(#clip0_31_933)">
<path fill-rule="evenodd" clip-rule="evenodd" d="M18.5517 2H5.44828C3.54385 2 2 3.52309 2 5.40191V15.6076L2.00319 15.7552C2.0815 17.5656 3.59396 19.0095 5.44828 19.0095H6.13793V20.6392L6.14372 20.7578C6.22761 21.4803 6.81521 22 7.51724 22C7.86761 22 8.20484 21.8685 8.46048 21.6321L10.6999 19.5614L10.8046 19.4704C11.1566 19.1811 11.6189 19.0135 12.0976 19.0096L18.5517 19.0095C20.4562 19.0095 22 17.4865 22 15.6076V5.40191C22 3.52309 20.4562 2 18.5517 2ZM9.67331 18.8291L7.32002 21L7.31881 20.9591L7.32 18.5934C7.32 18.202 6.99765 17.8846 6.6 17.8846H5.16C3.96706 17.8846 3 16.9326 3 15.7583V5.12638C3 3.95201 3.96706 3 5.16 3H18.84C20.0329 3 21 3.95201 21 5.12638V15.7583C21 16.9326 20.0329 17.8846 18.84 17.8846L12.096 17.8847C11.2571 17.8915 10.4527 18.1825 9.81383 18.7071L9.67331 18.8291Z" fill="#1D1D1D"/>
<path fill-rule="evenodd" clip-rule="evenodd" d="M12.2074 13.4848C12.5883 13.4848 12.897 13.7894 12.897 14.1652C12.897 14.5141 12.6308 14.8017 12.2878 14.841L12.2074 14.8456H6.69013C6.30925 14.8456 6.00048 14.5409 6.00048 14.1652C6.00048 13.8163 6.26671 13.5287 6.6097 13.4894L6.69013 13.4848H12.2074ZM14.966 10.0829C15.3469 10.0829 15.6557 10.3875 15.6557 10.7632C15.6557 11.1122 15.3894 11.3997 15.0464 11.4391L14.966 11.4436H6.69013C6.30925 11.4436 6.00048 11.139 6.00048 10.7632C6.00048 10.4143 6.26671 10.1267 6.6097 10.0874L6.69013 10.0829H14.966ZM12.2074 6.68091C12.5883 6.68091 12.897 6.98553 12.897 7.36129C12.897 7.71021 12.6308 7.99779 12.2878 8.03709L12.2074 8.04167H6.69014C6.30926 8.04167 6.00049 7.73705 6.00049 7.36129C6.00049 7.01237 6.26672 6.72479 6.60972 6.68549L6.69014 6.68091H12.2074Z" fill="#0073E6"/>
</g>
<defs>
<clipPath id="clip0_31_933">
<rect width="24" height="24" fill="white"/>
</clipPath>
</defs>
</svg>
