<svg width="24" height="24" viewBox="0 0 24 24" fill="none" xmlns="http://www.w3.org/2000/svg">
<g clip-path="url(#clip0_40_1937)">
<path fill-rule="evenodd" clip-rule="evenodd" d="M15.1407 5H4.73764C3.22568 5 2 6.2536 2 7.8V16.2C2 17.7464 3.22568 19 4.73764 19H15.1407C16.6526 19 17.8783 17.7464 17.8783 16.2V15.8343L21.2498 17.2086C21.6094 17.3551 22 17.0842 22 16.6884V7.24001C22 6.84413 21.6094 6.57324 21.2498 6.7198L17.8783 8.09402V7.8C17.8783 6.2536 16.6526 5 15.1407 5ZM4.73761 6.12001H15.1406C16.0478 6.12001 16.7832 6.87218 16.7832 7.80001V16.2C16.7832 17.1279 16.0478 17.88 15.1406 17.88H4.73761C3.83044 17.88 3.09503 17.1279 3.09503 16.2V7.80001C3.09503 6.87218 3.83044 6.12001 4.73761 6.12001ZM17.8783 9.2989L20.9045 8.06522V15.8621L17.8783 14.6284V9.2989Z" fill="#1D1D1D"/>
<path fill-rule="evenodd" clip-rule="evenodd" d="M11.8672 8.0379C12.1696 8.0379 12.4147 8.28862 12.4147 8.5979C12.4147 8.88509 12.2034 9.12179 11.9311 9.15414L11.8672 9.1579H7.48698C6.90969 9.1579 6.43674 9.61479 6.39493 10.1943L6.39193 10.2779V14.7579C6.39193 15.0672 6.14679 15.3179 5.8444 15.3179C5.56361 15.3179 5.33219 15.1017 5.30056 14.8232L5.29688 14.7579V10.2779C5.29688 9.07827 6.21889 8.0989 7.37768 8.04064L7.48698 8.0379H11.8672Z" fill="#0073E6"/>
</g>
<defs>
<clipPath id="clip0_40_1937">
<rect width="24" height="24" fill="white"/>
</clipPath>
</defs>
</svg>
