<svg width="24" height="24" viewBox="0 0 24 24" fill="none" xmlns="http://www.w3.org/2000/svg">
<g clip-path="url(#clip0_40_2299)">
<path fill-rule="evenodd" clip-rule="evenodd" d="M9.64804 18.3721C9.64804 19.6985 10.6889 20.774 11.9727 20.774C13.2162 20.774 14.2315 19.7648 14.2938 18.4957L14.2968 18.3721H15.4834C15.4834 20.3757 13.9117 22 11.9727 22C10.0776 22 8.53308 20.4486 8.46385 18.5081L8.46143 18.3721H9.64804Z" fill="#0073E6"/>
<path fill-rule="evenodd" clip-rule="evenodd" d="M14.763 4.97039C14.5085 3.46079 13.3412 2 12.0009 2C10.6754 2 9.51846 3.43064 9.24769 4.92307C7.16102 5.96799 5.72238 8.17732 5.72238 10.7342V14.8165C5.72238 15.1179 5.60839 15.3967 5.40579 15.606C5.22735 15.7904 4.99344 15.9054 4.74225 15.9287L4.64731 15.9331C3.73899 15.9331 3 16.691 3 17.6293C3 18.5676 3.73899 19.3255 4.64731 19.3255H19.3583C19.7969 19.3255 20.2153 19.1433 20.5174 18.8302C20.8231 18.5144 21 18.0835 21 17.6293C21 16.6909 20.2665 15.9331 19.3583 15.9331H19.2907C18.6957 15.9331 18.2156 15.4348 18.2156 14.8165V10.839C18.2156 8.36741 16.8816 6.10546 14.763 4.97039ZM13.3589 4.44202C13.0432 3.76416 12.4992 3.22601 12.0009 3.22601C11.5077 3.22601 10.9691 3.75464 10.6522 4.42383C11.0767 4.32973 11.5172 4.2802 11.969 4.2802C12.4401 4.2802 12.9043 4.33435 13.3589 4.44202ZM11.969 5.50621C12.6768 5.50621 13.3632 5.65649 13.9963 5.94368L14.1418 6.01939C15.9109 6.93031 17.029 8.79681 17.029 10.839V14.8165C17.029 16.1106 18.0391 17.1591 19.2907 17.1591H19.3583C19.6112 17.1591 19.8134 17.368 19.8134 17.6293C19.8134 17.7545 19.764 17.8748 19.6777 17.964C19.596 18.0486 19.4793 18.0995 19.3583 18.0995H4.64732C4.39238 18.0995 4.18661 17.8884 4.18661 17.6293C4.18661 17.3702 4.39238 17.1591 4.64732 17.1591C5.25378 17.1591 5.8249 16.9068 6.24485 16.4729C6.66789 16.0358 6.909 15.4463 6.909 14.8165V10.7342C6.909 7.84653 9.17411 5.50621 11.969 5.50621Z" fill="#1D1D1D"/>
</g>
<defs>
<clipPath id="clip0_40_2299">
<rect width="24" height="24" fill="white"/>
</clipPath>
</defs>
</svg>
