<svg width="24" height="24" viewBox="0 0 24 24" fill="none" xmlns="http://www.w3.org/2000/svg">
<g clip-path="url(#clip0_40_2394)">
<path fill-rule="evenodd" clip-rule="evenodd" d="M2 4C2 2.89543 2.89543 2 4 2H20C21.1046 2 22 2.89543 22 4V20C22 21.1046 21.1046 22 20 22H4C2.89543 22 2 21.1046 2 20V4ZM4 3.33333C3.63181 3.33333 3.33333 3.63181 3.33333 4V20C3.33333 20.3682 3.63181 20.6667 4 20.6667H20C20.3682 20.6667 20.6667 20.3682 20.6667 20V4C20.6667 3.63181 20.3682 3.33333 20 3.33333H4Z" fill="#1D1D1D"/>
<path fill-rule="evenodd" clip-rule="evenodd" d="M12 7.33334C12.3682 7.33334 12.6667 7.63182 12.6667 8.00001V11.3333H16C16.3682 11.3333 16.6667 11.6318 16.6667 12C16.6667 12.3682 16.3682 12.6667 16 12.6667H12.6667V16C12.6667 16.3682 12.3682 16.6667 12 16.6667C11.6319 16.6667 11.3334 16.3682 11.3334 16V12.6667H8.00004C7.63185 12.6667 7.33337 12.3682 7.33337 12C7.33337 11.6318 7.63185 11.3333 8.00004 11.3333H11.3334V8.00001C11.3334 7.63182 11.6319 7.33334 12 7.33334Z" fill="#0073E6"/>
</g>
<defs>
<clipPath id="clip0_40_2394">
<rect width="24" height="24" fill="white"/>
</clipPath>
</defs>
</svg>
