<svg width="24" height="24" viewBox="0 0 24 24" fill="none" xmlns="http://www.w3.org/2000/svg">
<g clip-path="url(#clip0_40_2332)">
<path fill-rule="evenodd" clip-rule="evenodd" d="M2 9.11127L2 18.7742C2 20.5558 3.44424 22 5.22581 22H18.7742C20.5557 22 22 20.5558 22 18.7742V10.3871V9.09678V6.67608L21.997 6.53615C21.9237 4.8195 20.5089 3.45027 18.7742 3.45027L10.9819 3.44968L9.98546 2.23573L9.92939 2.17569C9.81043 2.06355 9.65237 2 9.48686 2H5.22581L5.08588 2.00298C3.36923 2.07625 2 3.49113 2 5.22581V9.09678V9.11127ZM3.29032 9.11127L3.29032 18.7742C3.29032 19.8432 4.15687 20.7097 5.22581 20.7097H18.7742C19.8431 20.7097 20.7097 19.8432 20.7097 18.7742V10.3871V9.09681C20.7097 8.02787 19.8431 7.16133 18.7742 7.16133L5.22581 7.16133C4.15687 7.16133 3.29032 8.02787 3.29032 9.09681V9.11127ZM3.29032 6.5159C3.82946 6.11094 4.49961 5.87098 5.22581 5.87098H18.7742C19.4973 5.87098 20.1648 6.10888 20.7027 6.51068C20.622 5.55652 19.849 4.79957 18.8879 4.74388L18.7742 4.74059H10.6777C10.5122 4.74059 10.3542 4.67704 10.2352 4.56491L10.1791 4.50486L9.18193 3.29032H5.22581C4.19504 3.29032 3.35248 4.09608 3.29361 5.11208L3.29032 5.22581V6.5159Z" fill="#1D1D1D"/>
<path fill-rule="evenodd" clip-rule="evenodd" d="M11.9355 11.6599C12.2664 11.6599 12.539 11.9094 12.5763 12.2308L12.5807 12.3062V13.2103L13.4839 13.211C13.8402 13.211 14.129 13.5003 14.129 13.8572C14.129 14.1886 13.88 14.4618 13.5591 14.4991L13.4839 14.5035L12.5807 14.5028V15.4082C12.5807 15.7651 12.2918 16.0545 11.9355 16.0545C11.6046 16.0545 11.3319 15.805 11.2947 15.4836L11.2903 15.4082V14.5028L10.3871 14.5035C10.0308 14.5035 9.74194 14.2141 9.74194 13.8572C9.74194 13.5258 9.991 13.2526 10.3119 13.2153L10.3871 13.211L11.2903 13.2103V12.3062C11.2903 11.9493 11.5792 11.6599 11.9355 11.6599Z" fill="#0073E6"/>
</g>
<defs>
<clipPath id="clip0_40_2332">
<rect width="24" height="24" fill="white"/>
</clipPath>
</defs>
</svg>
