<svg width="24" height="24" viewBox="0 0 24 24" fill="none" xmlns="http://www.w3.org/2000/svg">
<g clip-path="url(#clip0_40_2015)">
<path fill-rule="evenodd" clip-rule="evenodd" d="M15.0855 2.26236C15.1365 2.30446 15.1845 2.35124 15.2291 2.40246L19.6748 7.50647C19.8746 7.73589 19.9898 8.0368 19.9994 8.35182L20 8.36364C20 8.36786 20 8.37207 19.9999 8.37627C20 8.38229 20 8.38831 20 8.39433V19.4194C20 20.8446 18.9388 22 17.6296 22H6.37037C5.06125 22 4 20.8446 4 19.4194V4.58065C4 3.15539 5.06125 2 6.37037 2H14.3691C14.4141 2 14.4588 2.00278 14.5031 2.00826C14.5346 2.00283 14.567 2 14.6 2C14.7996 2 14.9764 2.10336 15.0855 2.26236ZM14 3.29028H6.37035C5.74554 3.29028 5.23366 3.81666 5.18842 4.48431L5.18517 4.58061V19.4193C5.18517 20.0995 5.66865 20.6568 6.2819 20.7061L6.37035 20.7096H17.6296C18.2544 20.7096 18.7663 20.1833 18.8115 19.5156L18.8148 19.4193V9H14.6C14.2923 9 14.0387 8.75434 14.004 8.43785L14 8.36364V3.29028ZM18.2338 7.72727H15.1997L15.1999 4.24411L18.2338 7.72727Z" fill="#1D1D1D"/>
<path fill-rule="evenodd" clip-rule="evenodd" d="M10.4 16.9249C10.7273 16.9249 10.9926 17.2047 10.9926 17.5499C10.9926 17.8704 10.7639 18.1346 10.4691 18.1707L10.4 18.1749H7.5556C7.22832 18.1749 6.963 17.8951 6.963 17.5499C6.963 17.2294 7.19177 16.9652 7.48649 16.9291L7.5556 16.9249H10.4ZM12.1783 13.7999C12.5056 13.7999 12.7709 14.0797 12.7709 14.4249C12.7709 14.7454 12.5421 15.0096 12.2474 15.0457L12.1783 15.0499H7.43755C7.11027 15.0499 6.84496 14.7701 6.84496 14.4249C6.84496 14.1044 7.07372 13.8402 7.36844 13.8041L7.43755 13.7999H12.1783ZM10.4 10.6749C10.7273 10.6749 10.9926 10.9547 10.9926 11.2999C10.9926 11.6204 10.7639 11.8846 10.4691 11.9207L10.4 11.9249H7.5556C7.22832 11.9249 6.963 11.6451 6.963 11.2999C6.963 10.9794 7.19177 10.7152 7.48649 10.6791L7.5556 10.6749H10.4Z" fill="#0073E6"/>
</g>
<defs>
<clipPath id="clip0_40_2015">
<rect width="24" height="24" fill="white"/>
</clipPath>
</defs>
</svg>
