<svg width="24" height="24" viewBox="0 0 24 24" fill="none" xmlns="http://www.w3.org/2000/svg">
<g clip-path="url(#clip0_31_978)">
<path fill-rule="evenodd" clip-rule="evenodd" d="M11.9994 6.85913C15.536 6.85913 18.403 9.73094 18.403 13.2735V17.6352C18.403 18.7689 17.4855 19.6878 16.3538 19.6878H7.64507C6.51337 19.6878 5.59595 18.7689 5.59595 17.6352V13.2735C5.59595 9.73094 8.46289 6.85913 11.9994 6.85913ZM11.9995 7.90638C9.08963 7.90638 6.72155 10.2299 6.64343 13.1258L6.64144 13.2735V17.6353C6.64144 18.1641 7.04901 18.5975 7.56665 18.6376L7.64509 18.6406H16.3539C16.8818 18.6406 17.3145 18.2323 17.3545 17.7138L17.3575 17.6353V13.2735C17.3575 10.3093 14.9586 7.90638 11.9995 7.90638ZM16.1085 20.5C16.1085 20.2239 15.8745 20 15.5858 20H8.41385L8.35289 20.0034C8.09291 20.0322 7.89111 20.2436 7.89111 20.5C7.89111 20.7761 8.12515 21 8.41385 21H15.5858L15.6467 20.9966C15.9067 20.9678 16.1085 20.7564 16.1085 20.5Z" fill="#1D1D1D"/>
<path fill-rule="evenodd" clip-rule="evenodd" d="M21.4773 12.4932C21.766 12.4932 22 12.7276 22 13.0168C22 13.2853 21.7982 13.5066 21.5382 13.5369L21.4773 13.5404H19.9404C19.6517 13.5404 19.4177 13.306 19.4177 13.0168C19.4177 12.7483 19.6195 12.5269 19.8795 12.4967L19.9404 12.4932H21.4773ZM4.05958 12.4932C4.34827 12.4932 4.58231 12.7276 4.58231 13.0168C4.58231 13.2853 4.38051 13.5066 4.12054 13.5369L4.05958 13.5404H2.52273C2.23404 13.5404 2 13.306 2 13.0168C2 12.7483 2.2018 12.5269 2.46177 12.4967L2.52273 12.4932H4.05958ZM19.071 5.93406C19.2594 6.12282 19.2739 6.41983 19.1145 6.62525L19.071 6.67458L17.9843 7.76313C17.7802 7.96761 17.4492 7.96761 17.245 7.76313C17.0566 7.57437 17.0421 7.27736 17.2015 7.07194L17.245 7.02262L18.3317 5.93406C18.5359 5.72958 18.8669 5.72958 19.071 5.93406ZM5.61913 5.8905L5.66837 5.93406L6.75508 7.02262C6.95922 7.2271 6.95922 7.55864 6.75508 7.76313C6.56665 7.95188 6.27013 7.9664 6.06507 7.80669L6.01582 7.76313L4.92911 6.67458C4.72497 6.47009 4.72497 6.13855 4.92911 5.93406C5.11755 5.74531 5.41406 5.73079 5.61913 5.8905ZM11.9993 3C12.2674 3 12.4884 3.20214 12.5186 3.46256L12.5221 3.52362V5.06307C12.5221 5.35225 12.288 5.58669 11.9993 5.58669C11.7313 5.58669 11.5103 5.38455 11.4801 5.12413L11.4766 5.06307V3.52362C11.4766 3.23443 11.7106 3 11.9993 3Z" fill="#0073E6"/>
</g>
<defs>
<clipPath id="clip0_31_978">
<rect width="24" height="24" fill="white"/>
</clipPath>
</defs>
</svg>
