<svg width="24" height="24" viewBox="0 0 24 24" fill="none" xmlns="http://www.w3.org/2000/svg">
<g clip-path="url(#clip0_46_553)">
<path fill-rule="evenodd" clip-rule="evenodd" d="M10.5088 9.5695C10.5936 9.57721 10.6717 9.6062 10.7386 9.65097L15.5171 9.65134C15.7973 9.65134 16.0244 9.8876 16.0244 10.179C16.0244 10.4497 15.8286 10.6727 15.5762 10.7032L15.5171 10.7067H10.4436C10.331 10.7067 10.2269 10.6685 10.1427 10.6039C7.52357 10.5158 5.26517 12.5733 5.03397 15.3219C4.79464 18.1671 6.81819 20.6754 9.55368 20.9243C12.2892 21.1733 14.7007 19.0686 14.9401 16.2233C14.9645 15.933 15.2106 15.7182 15.4897 15.7436C15.7688 15.769 15.9753 16.025 15.9509 16.3153C15.6627 19.7412 12.759 22.2754 9.46525 21.9757C6.17149 21.676 3.73498 18.6558 4.02314 15.2299C4.31131 11.804 7.21503 9.26977 10.5088 9.5695Z" fill="#0073E6"/>
<path fill-rule="evenodd" clip-rule="evenodd" d="M10.4944 2C8.95328 2 7.70398 3.29942 7.70398 4.90233C7.70398 6.30652 8.66273 7.47781 9.93649 7.74664V14.29L9.9389 14.4011C9.99473 15.6901 11.0172 16.7174 12.2703 16.7174L16.6492 16.7173L19.0384 21.7074L19.0678 21.7609C19.2065 21.9823 19.4858 22.0652 19.7187 21.9446C19.9695 21.8147 20.0716 21.4979 19.9467 21.237L17.4176 15.9545L17.3858 15.8972C17.2925 15.7515 17.1346 15.662 16.9635 15.662H12.2703L12.1869 15.6593C11.4972 15.6145 10.9512 15.0186 10.9512 14.29V7.76595C12.275 7.53921 13.2848 6.34342 13.2848 4.90233C13.2848 3.29942 12.0355 2 10.4944 2ZM10.4944 3.05542C11.4751 3.05542 12.2701 3.88232 12.2701 4.90235C12.2701 5.92239 11.4751 6.74929 10.4944 6.74929C9.51369 6.74929 8.71868 5.92239 8.71868 4.90235C8.71868 3.88232 9.51369 3.05542 10.4944 3.05542Z" fill="#1D1D1D"/>
</g>
<defs>
<clipPath id="clip0_46_553">
<rect width="24" height="24" fill="white"/>
</clipPath>
</defs>
</svg>
