<svg width="94" height="24" viewBox="0 0 94 24" fill="none" xmlns="http://www.w3.org/2000/svg">
<path d="M9.36109 0.0906792C4.28803 0.0906792 0.175049 4.88615 0.175049 10.8007C0.175049 16.7148 4.28803 21.5103 9.36109 21.5103C14.4341 21.5103 18.5471 16.7148 18.5471 10.8007C18.5471 4.88615 14.4341 0.0906792 9.36109 0.0906792Z" fill="#ED192D"/>
<path d="M2.94731 16.1347C2.06504 14.6225 1.54761 12.7839 1.54761 10.8007C1.54761 8.81744 2.06504 6.97887 2.94731 5.46624V16.1347Z" fill="white"/>
<path d="M4.92041 3.11662C5.42915 2.6955 5.98132 2.34577 6.56749 2.07723V19.5236C5.98132 19.2555 5.42915 18.905 4.92041 18.4846V3.11662Z" fill="white"/>
<path d="M8.54004 1.51296C8.81008 1.47934 9.08354 1.46197 9.36076 1.46197C9.63986 1.46197 9.91557 1.47972 10.1871 1.51371V20.0871C9.91557 20.1211 9.63986 20.1392 9.36076 20.1392C9.08354 20.1392 8.81008 20.1215 8.54004 20.0882V1.51296Z" fill="white"/>
<path d="M12.1604 2.07998C12.7469 2.34889 13.2991 2.70013 13.8075 3.12125V18.4798C13.2991 18.9013 12.7469 19.2521 12.1604 19.5211V2.07998Z" fill="white"/>
<path d="M15.7808 5.47638C16.6596 6.98674 17.1752 8.82154 17.1752 10.8006C17.1752 12.7797 16.6596 14.6141 15.7808 16.1244V5.47638Z" fill="white"/>
<path d="M0.944824 10.8007C0.944824 8.34538 1.69906 6.09853 2.94769 4.36382V4.94962C1.89848 6.56989 1.27454 8.59843 1.27454 10.8007C1.27454 13.0026 1.89848 15.0311 2.94769 16.6514V17.2368C1.69906 15.5025 0.944824 13.2557 0.944824 10.8007Z" fill="white"/>
<path d="M15.7808 16.6428C16.8266 15.024 17.4486 12.9989 17.4486 10.8008C17.4486 8.60264 16.8266 6.57749 15.7808 4.95873V4.3722C17.0264 6.10539 17.7776 8.34921 17.7776 10.8008C17.7776 13.2519 17.0264 15.4957 15.7808 17.2289V16.6428Z" fill="white"/>
<path d="M18.3143 20.3883C18.377 20.1193 18.5042 19.844 18.6523 19.6242C18.4623 19.5309 18.3022 19.4607 18.1371 19.3175C18.5012 18.7676 18.5919 18.3911 18.6515 17.729L18.6259 13.9857C18.3856 15.0742 17.8044 16.5019 17.3025 17.2482C17.1559 17.4665 17.0913 17.6047 17.0007 17.7501C16.9486 17.8343 16.6536 18.3204 16.6611 18.9157C16.4553 18.9572 16.2665 18.9497 16.0274 18.9319C16.0569 19.191 16.0727 19.2276 16.0047 19.6521C15.0972 19.7224 14.8328 20.2666 13.7571 20.8483C13.2314 21.1327 12.8903 21.2622 12.104 21.5492C13.9324 21.5273 15.275 21.7872 16.4243 21.0144C16.555 21.1874 16.6521 21.3555 16.7382 21.5591C16.8964 21.4348 17.2069 21.2815 17.4649 21.215C17.7606 21.5062 18.1568 21.621 18.6644 21.5753C18.7361 21.1667 18.6345 20.6643 18.3143 20.3883Z" fill="#ED192D"/>
<path d="M18.4518 19.697C18.3101 19.7548 17.6431 20.0011 17.6431 20.0011L17.6341 20.0105C17.6307 19.952 17.6167 19.8942 17.5922 19.8398L17.5884 19.8273C17.8456 19.6736 18.0072 19.456 18.011 19.4224C18.0091 19.4198 18.008 19.4179 18.0095 19.4183C18.0106 19.4187 18.011 19.4202 18.011 19.4224C18.0329 19.4523 18.2524 19.6558 18.4518 19.697Z" fill="white"/>
<path d="M17.9002 16.5343C18.5691 15.0549 18.4116 15.1191 18.5596 14.505C18.54 14.8008 18.5211 15.1739 18.4792 15.4443C18.1876 17.0563 17.7687 18.2505 17.2653 19.5682C17.2653 19.5682 17.1271 19.5565 17.0576 19.5698C16.9356 19.4293 16.8974 19.2348 16.8974 19.2348C16.6633 18.2634 17.3918 17.6583 17.9002 16.5343Z" fill="white"/>
<path d="M16.2266 19.1309L16.8509 19.6521L16.8528 19.657C16.8339 19.671 16.8154 19.6869 16.798 19.7039C16.7667 19.7356 16.7402 19.77 16.7195 19.807L16.7157 19.816C16.3977 19.6616 16.1851 19.6552 16.1851 19.6552C16.2651 19.3107 16.2266 19.1309 16.2266 19.1309Z" fill="white"/>
<path d="M13.3914 21.3774C13.0776 21.4492 12.8241 21.4458 12.6262 21.4545L13.2909 21.2486C14.7314 20.7085 15.0982 19.8723 16.0711 19.8531C16.2988 19.855 16.4854 19.9146 16.6542 20.0094L16.6561 20.0355C16.6493 20.0978 16.655 20.1613 16.6731 20.2221L16.6735 20.2311C16.0016 20.5646 14.4655 21.1312 13.3914 21.3774Z" fill="white"/>
<path d="M16.8149 21.334C16.7764 21.2309 16.7228 21.0643 16.574 20.8996C16.7745 20.7297 16.8157 20.6383 16.8829 20.4721L16.8878 20.4744C16.9509 20.5118 17.0208 20.5333 17.0914 20.539L17.0997 20.5378L16.8149 21.334Z" fill="white"/>
<path d="M16.9431 20.2503C16.8324 20.1389 16.8328 19.9588 16.9442 19.8477C17.0556 19.7371 17.2354 19.7375 17.3464 19.8493C17.4571 19.9603 17.4567 20.1404 17.3453 20.2511C17.2339 20.3618 17.0537 20.3614 16.9431 20.2503Z" fill="white"/>
<path d="M17.5617 21.0476C17.4147 20.8765 17.3517 20.7443 17.2961 20.5128C17.369 20.4916 17.4548 20.4474 17.5061 20.3757L18.5032 21.3883C18.1248 21.4234 17.7973 21.3342 17.5617 21.0476Z" fill="white"/>
<path d="M18.6644 0.00986958C18.1568 -0.0362077 17.7606 0.0785999 17.4649 0.369795C17.2069 0.303322 16.8964 0.149988 16.7382 0.0257292C16.6521 0.229301 16.555 0.39699 16.4243 0.570347C15.275 -0.202395 13.9324 0.0574551 12.104 0.0351715C12.8903 0.322589 13.2314 0.452128 13.7571 0.736525C14.8328 1.31816 15.0972 1.86202 16.0047 1.93265C16.0727 2.35717 16.0569 2.39343 16.0274 2.65327C16.2665 2.63514 16.4553 2.62759 16.6611 2.66913C16.6536 3.26399 16.9486 3.75045 17.0007 3.83429C17.0913 3.98008 17.1559 4.11832 17.3025 4.33662C17.8044 5.08293 18.3856 6.51019 18.6259 7.59906L18.6515 3.85583C18.5919 3.19375 18.5012 2.8172 18.1371 2.26729C18.3022 2.12415 18.4623 2.05389 18.6523 1.96061C18.5042 1.74079 18.377 1.46508 18.3143 1.19655C18.6345 0.920086 18.7361 0.418147 18.6644 0.00986958Z" fill="#ED192D"/>
<path d="M18.4518 1.88761C18.3101 1.82982 17.6431 1.58358 17.6431 1.58358L17.6341 1.57414C17.6307 1.6323 17.6167 1.69047 17.5922 1.74485L17.5884 1.75732C17.8456 1.91104 18.0072 2.12857 18.011 2.16219C18.0091 2.16521 18.008 2.16709 18.0095 2.16634C18.0106 2.16558 18.011 2.16445 18.011 2.16219C18.0329 2.13273 18.2524 1.92878 18.4518 1.88761Z" fill="white"/>
<path d="M17.9002 5.05047C18.5691 6.52986 18.4116 6.46566 18.5596 7.07977C18.54 6.78404 18.5211 6.41052 18.4792 6.14085C18.1876 4.52852 17.7687 3.33426 17.2653 2.01614C17.2653 2.01614 17.1271 2.02824 17.0576 2.01502C16.9356 2.15552 16.8974 2.35003 16.8974 2.35003C16.6633 3.32143 17.3918 3.92648 17.9002 5.05047Z" fill="white"/>
<path d="M16.2266 2.4538L16.8509 1.93258L16.8528 1.92768C16.8339 1.9137 16.8154 1.89785 16.798 1.88085C16.7667 1.8495 16.7402 1.81437 16.7195 1.77811L16.7157 1.7683C16.3977 1.92315 16.1851 1.92919 16.1851 1.92919C16.2651 2.27364 16.2266 2.4538 16.2266 2.4538Z" fill="white"/>
<path d="M13.3914 0.20748C13.0776 0.13572 12.8241 0.139117 12.6262 0.130431L13.2909 0.336258C14.7314 0.876346 15.0982 1.71254 16.0711 1.73218C16.2988 1.72991 16.4854 1.67024 16.6542 1.57544L16.6561 1.54938C16.6493 1.48707 16.655 1.42362 16.6731 1.36281L16.6735 1.35376C16.0016 1.01988 14.4655 0.453352 13.3914 0.20748Z" fill="white"/>
<path d="M16.8149 0.250863C16.7764 0.353971 16.7228 0.520529 16.574 0.6852C16.7745 0.855158 16.8157 0.946551 16.8829 1.11273L16.8878 1.11085C16.9509 1.07308 17.0208 1.05156 17.0914 1.04551L17.0997 1.04702L16.8149 0.250863Z" fill="white"/>
<path d="M16.9431 1.33439C16.8324 1.44618 16.8328 1.62596 16.9442 1.73662C17.0556 1.84766 17.2354 1.8469 17.3464 1.73586C17.4571 1.62407 17.4567 1.44429 17.3453 1.33363C17.2339 1.22297 17.0537 1.22335 16.9431 1.33439Z" fill="white"/>
<path d="M17.5617 0.537143C17.4147 0.708234 17.3517 0.840411 17.2961 1.07193C17.369 1.09308 17.4548 1.13729 17.5061 1.20905L18.5032 0.196471C18.1248 0.161347 17.7973 0.250481 17.5617 0.537143Z" fill="white"/>
<path d="M0.0217433 21.5753C0.529351 21.621 0.925543 21.5062 1.22127 21.215C1.47923 21.2815 1.78968 21.4348 1.94831 21.5591C2.03405 21.3555 2.13149 21.1874 2.26217 21.0144C3.41146 21.7872 4.75375 21.5273 6.58213 21.5492C5.79579 21.2622 5.45474 21.1327 4.929 20.8483C3.85335 20.2666 3.58935 19.7224 2.6814 19.6521C2.61379 19.2276 2.62927 19.191 2.65873 18.9319C2.42004 18.9497 2.2312 18.9572 2.02536 18.9157C2.03291 18.3204 1.73794 17.8343 1.68545 17.7501C1.5948 17.6047 1.5306 17.4665 1.38368 17.2482C0.882111 16.5019 0.300853 15.0742 0.0602679 13.9857L0.0345879 17.729C0.0942621 18.3911 0.185284 18.7676 0.549372 19.3175C0.383946 19.4607 0.224185 19.5309 0.0342099 19.6242C0.181884 19.844 0.30954 20.1193 0.372236 20.3883C0.0515815 20.6643 -0.049639 21.1667 0.0217433 21.5753Z" fill="#ED192D"/>
<path d="M0.234375 19.697C0.376007 19.7548 1.04338 20.0011 1.04338 20.0011L1.05244 20.0105C1.05546 19.952 1.06981 19.8942 1.09436 19.8398L1.09777 19.8273C0.84094 19.6736 0.678912 19.456 0.675512 19.4224C0.677401 19.4198 0.678535 19.4179 0.676647 19.4183C0.675514 19.4187 0.675135 19.4202 0.675512 19.4224C0.653229 19.4523 0.43417 19.6558 0.234375 19.697Z" fill="white"/>
<path d="M0.785417 16.5343C0.116538 15.0549 0.274029 15.1191 0.125977 14.505C0.145238 14.8008 0.164123 15.1739 0.206424 15.4443C0.497996 17.0563 0.916471 18.2505 1.4203 19.5682C1.4203 19.5682 1.55816 19.5565 1.62765 19.5698C1.74964 19.4293 1.78779 19.2348 1.78779 19.2348C2.02195 18.2634 1.29378 17.6583 0.785417 16.5343Z" fill="white"/>
<path d="M2.45945 19.1309L1.83552 19.6521L1.83325 19.657C1.85251 19.671 1.87064 19.6869 1.88801 19.7039C1.91936 19.7356 1.9458 19.77 1.96657 19.807L1.97035 19.816C2.28836 19.6616 2.50137 19.6552 2.50137 19.6552C2.42093 19.3107 2.45945 19.1309 2.45945 19.1309Z" fill="white"/>
<path d="M5.29439 21.3774C5.60825 21.4492 5.86167 21.4458 6.05958 21.4545L5.39524 21.2486C3.95437 20.7085 3.58764 19.8723 2.61472 19.8531C2.38736 19.855 2.2004 19.9146 2.03158 20.0094L2.03007 20.0355C2.03649 20.0978 2.03082 20.1613 2.01307 20.2221L2.0127 20.2311C2.68422 20.5646 4.22063 21.1312 5.29439 21.3774Z" fill="white"/>
<path d="M1.8712 21.334C1.90973 21.2309 1.96336 21.0643 2.11254 20.8996C1.91199 20.7297 1.87044 20.6383 1.80359 20.4721L1.79831 20.4744C1.73561 20.5118 1.66574 20.5333 1.59473 20.539L1.58643 20.5378L1.8712 21.334Z" fill="white"/>
<path d="M1.74254 20.2503C1.85358 20.1389 1.85282 19.9588 1.74178 19.8477C1.63037 19.7371 1.45021 19.7375 1.33955 19.8493C1.22889 19.9603 1.22927 20.1404 1.34068 20.2511C1.4521 20.3618 1.63188 20.3614 1.74254 20.2503Z" fill="white"/>
<path d="M1.1243 21.0476C1.27122 20.8765 1.33429 20.7443 1.39019 20.5128C1.31729 20.4916 1.23156 20.4474 1.17982 20.3757L0.183105 21.3883C0.561545 21.4234 0.888999 21.3342 1.1243 21.0476Z" fill="white"/>
<path d="M0.372236 1.19655C0.30954 1.46508 0.181884 1.74079 0.0342099 1.96061C0.224185 2.05389 0.383946 2.12415 0.549372 2.26729C0.185284 2.8172 0.0942621 3.19375 0.0345879 3.85583L0.0602679 7.59906C0.300853 6.51019 0.882111 5.08293 1.38368 4.33662C1.5306 4.11832 1.5948 3.98008 1.68545 3.83429C1.73794 3.75045 2.03291 3.26399 2.02536 2.66913C2.2312 2.62759 2.42004 2.63514 2.65873 2.65327C2.62927 2.39343 2.61379 2.35717 2.6814 1.93265C3.58935 1.86202 3.85335 1.31816 4.929 0.736525C5.45474 0.452128 5.79579 0.322589 6.58213 0.0351715C4.75375 0.0574551 3.41146 -0.202395 2.26217 0.570347C2.13149 0.39699 2.03405 0.229301 1.94831 0.0257292C1.78968 0.149988 1.47923 0.303322 1.22127 0.369795C0.925543 0.0785999 0.529351 -0.0362077 0.0217433 0.00986958C-0.049639 0.418147 0.0515815 0.920086 0.372236 1.19655Z" fill="#ED192D"/>
<path d="M0.234375 1.88761C0.376007 1.82982 1.04338 1.58358 1.04338 1.58358L1.05244 1.57414C1.05546 1.6323 1.06981 1.69047 1.09436 1.74485L1.09777 1.75732C0.84094 1.91104 0.678912 2.12857 0.675512 2.16219C0.677401 2.16521 0.678535 2.16709 0.676647 2.16634C0.675514 2.16558 0.675135 2.16445 0.675512 2.16219C0.653229 2.13273 0.43417 1.92878 0.234375 1.88761Z" fill="white"/>
<path d="M0.785417 5.05047C0.116538 6.52986 0.274029 6.46566 0.125977 7.07977C0.145238 6.78404 0.164123 6.41052 0.206424 6.14085C0.497996 4.52852 0.916471 3.33426 1.4203 2.01614C1.4203 2.01614 1.55816 2.02824 1.62765 2.01502C1.74964 2.15552 1.78779 2.35003 1.78779 2.35003C2.02195 3.32143 1.29378 3.92648 0.785417 5.05047Z" fill="white"/>
<path d="M2.45945 2.4538L1.83552 1.93258L1.83325 1.92768C1.85251 1.9137 1.87064 1.89785 1.88801 1.88085C1.91936 1.8495 1.9458 1.81437 1.96657 1.77811L1.97035 1.7683C2.28836 1.92315 2.50137 1.92919 2.50137 1.92919C2.42093 2.27364 2.45945 2.4538 2.45945 2.4538Z" fill="white"/>
<path d="M5.29439 0.20748C5.60825 0.13572 5.86167 0.139117 6.05958 0.130431L5.39524 0.336258C3.95437 0.876346 3.58764 1.71254 2.61472 1.73218C2.38736 1.72991 2.2004 1.67024 2.03158 1.57544L2.03007 1.54938C2.03649 1.48707 2.03082 1.42362 2.01307 1.36281L2.0127 1.35376C2.68422 1.01988 4.22063 0.453352 5.29439 0.20748Z" fill="white"/>
<path d="M1.8712 0.250863C1.90973 0.353971 1.96336 0.520529 2.11254 0.6852C1.91199 0.855158 1.87044 0.946551 1.80359 1.11273L1.79831 1.11085C1.73561 1.07308 1.66574 1.05156 1.59473 1.04551L1.58643 1.04702L1.8712 0.250863Z" fill="white"/>
<path d="M1.74254 1.33439C1.85358 1.44618 1.85282 1.62596 1.74178 1.73662C1.63037 1.84766 1.45021 1.8469 1.33955 1.73586C1.22889 1.62407 1.22927 1.44429 1.34068 1.33363C1.4521 1.22297 1.63188 1.22335 1.74254 1.33439Z" fill="white"/>
<path d="M1.1243 0.537143C1.27122 0.708234 1.33429 0.840411 1.39019 1.07193C1.31729 1.09308 1.23156 1.13729 1.17982 1.20905L0.183105 0.196471C0.561545 0.161347 0.888999 0.250481 1.1243 0.537143Z" fill="white"/>
<path d="M13.8075 2.3591V2.77606C13.2961 2.37534 12.7443 2.04148 12.1604 1.78578V1.42282C12.7417 1.66491 13.2931 1.98066 13.8075 2.3591Z" fill="white"/>
<path d="M9.36076 0.858815C9.63949 0.858815 9.91519 0.875424 10.1871 0.906395V1.24329C9.91557 1.21081 9.63986 1.19381 9.36076 1.19381C9.08391 1.19381 8.81008 1.21044 8.54004 1.24292V0.906026C8.81046 0.875056 9.08391 0.858815 9.36076 0.858815Z" fill="white"/>
<path d="M6.56749 1.42051V1.78309C5.98396 2.03802 5.43217 2.37152 4.92041 2.77148V2.35454C5.43519 1.97648 5.98699 1.66185 6.56749 1.42051Z" fill="white"/>
<path d="M4.92041 19.2464V18.8298C5.43217 19.2298 5.98396 19.5629 6.56749 19.8182V20.1804C5.98699 19.9391 5.43519 19.6248 4.92041 19.2464Z" fill="white"/>
<path d="M9.36076 20.7425C9.08391 20.7425 8.81046 20.7263 8.54004 20.6953V20.3581C8.81008 20.3905 9.08391 20.4072 9.36076 20.4072C9.63986 20.4072 9.91557 20.3902 10.1871 20.3573V20.6946C9.91519 20.7259 9.63949 20.7425 9.36076 20.7425Z" fill="white"/>
<path d="M12.1604 20.1779V19.8153C12.7443 19.56 13.2961 19.2261 13.8075 18.8254V19.2416C13.2931 19.6208 12.7417 19.9361 12.1604 20.1779Z" fill="white"/>
<path d="M28.4893 5.86063H31.8881V10.2455H30.7554L30.5855 9.22543C30.1545 9.72397 29.5317 10.4604 28.0474 10.4604C26.0876 10.4604 24.3083 9.05546 24.3083 6.20054C24.3083 3.98014 25.5434 1.884 28.2854 1.89533C30.7781 1.89533 31.7635 3.51559 31.8541 4.63693H30.1545C30.1545 4.31968 29.577 3.29993 28.376 3.29993C27.1636 3.29993 26.0423 4.13839 26.0423 6.22321C26.0423 8.44399 27.2547 9.02185 28.41 9.02185C28.7839 9.02185 30.0303 8.87418 30.3815 7.23163H28.4893V5.86063Z" fill="#231F20"/>
<path d="M36.9077 8.47749C36.7831 8.90843 36.3298 9.13505 35.888 9.13505C34.6076 9.13505 34.517 8.11492 34.4716 7.66208H38.6069V7.37882C38.6069 4.6255 36.9644 4.05934 35.7746 4.05934C33.135 4.05934 32.8857 6.38172 32.8857 7.10688C32.8857 9.58826 34.1884 10.4037 35.888 10.4037C36.9187 10.4037 38.1201 9.92818 38.5389 8.47749H36.9077ZM34.517 6.63101C34.6076 5.83787 35.0042 5.36198 35.752 5.36198C36.2619 5.36198 36.885 5.65658 36.9757 6.63101H34.517Z" fill="#231F20"/>
<path d="M45.1106 10.2455H43.5243V6.58572C43.5243 6.14383 43.5017 5.39602 42.4933 5.39602C41.7908 5.39602 41.2469 5.8719 41.2469 6.78967V10.2455H39.6606V4.21763H41.1793V5.10143H41.2016C41.4172 4.73885 41.8701 4.05939 43.0145 4.05939C44.1928 4.05939 45.1106 4.75018 45.1106 6.07585V10.2455Z" fill="#231F20"/>
<path d="M50.1294 8.47749C50.0047 8.90843 49.5515 9.13505 49.1096 9.13505C47.8293 9.13505 47.7386 8.11492 47.6933 7.66208H51.829V7.37882C51.829 4.6255 50.186 4.05934 48.9963 4.05934C46.3567 4.05934 46.1074 6.38172 46.1074 7.10688C46.1074 9.58826 47.4104 10.4037 49.1096 10.4037C50.1407 10.4037 51.3417 9.92818 51.7606 8.47749H50.1294ZM47.7386 6.63101C47.8293 5.83787 48.2258 5.36198 48.9737 5.36198C49.4835 5.36198 50.1063 5.65658 50.1974 6.63101H47.7386Z" fill="#231F20"/>
<path d="M52.8713 4.21763H54.3893V5.26005H54.4123C54.7405 4.6482 55.1031 4.05939 56.0662 4.05939C56.1681 4.05939 56.2701 4.07034 56.3721 4.08205V5.6906C56.2361 5.66794 56.0662 5.66796 55.9189 5.66796C54.6842 5.66796 54.4572 6.43842 54.4572 7.10692V10.2455H52.8713V4.21763Z" fill="#231F20"/>
<path d="M62.1731 5.80386C62.1731 4.31956 60.6208 4.05934 59.771 4.05934C58.5363 4.05934 57.256 4.31957 57.0747 6.16644H58.6039C58.6496 5.8152 58.7856 5.32836 59.5787 5.32836C59.9866 5.32836 60.6208 5.36197 60.6208 6.03047C60.6208 6.37039 60.3152 6.47237 60.066 6.50636L58.6379 6.72165C57.6295 6.86895 56.8821 7.46946 56.8821 8.64784C56.8821 9.89382 57.8112 10.4037 58.7172 10.4037C59.794 10.4037 60.3035 9.90514 60.6661 9.53123C60.7001 9.87152 60.7227 9.96217 60.8134 10.2454H62.5243V10.0071C62.3317 9.93913 62.1731 9.78089 62.1731 9.06669V5.80386ZM60.6208 8.08131C60.6208 8.8178 59.9073 9.27063 59.2045 9.27063C58.8989 9.27063 58.4684 9.10105 58.4684 8.54586C58.4684 7.88869 58.9552 7.74139 59.5448 7.63941C60.2015 7.53744 60.4622 7.43548 60.6208 7.31084V8.08131Z" fill="#231F20"/>
<path d="M65.2206 10.2455H63.6343V2.11053H65.2206V10.2455Z" fill="#231F20"/>
<path d="M68.371 3.50381H66.7852V2.03123H68.371V3.50381ZM68.371 4.21763V10.2455H66.7852V4.21763H68.371Z" fill="#231F20"/>
<path d="M71.6672 4.21757H72.653V5.35063H71.6672V8.62516C71.6672 8.97603 71.6785 9.11237 72.3244 9.11237C72.426 9.11237 72.5397 9.10104 72.653 9.08933V10.2904C72.4037 10.3017 72.154 10.3134 71.9052 10.3134H71.7012C70.3302 10.3134 70.0809 9.79183 70.0809 9.0104V5.35063H69.2651V4.21757H70.0809V2.58635H71.6672V4.21757Z" fill="#231F20"/>
<path d="M78.5445 5.80386C78.5445 4.31956 76.9926 4.05934 76.1428 4.05934C74.9078 4.05934 73.6278 4.31957 73.4461 6.16644H74.9758C75.0211 5.8152 75.1574 5.32836 75.9502 5.32836C76.3581 5.32836 76.9926 5.36197 76.9926 6.03047C76.9926 6.37039 76.6867 6.47237 76.4374 6.50636L75.0098 6.72165C74.0013 6.86895 73.2539 7.46946 73.2539 8.64784C73.2539 9.89382 74.1826 10.4037 75.0891 10.4037C76.1655 10.4037 76.6753 9.90514 77.0379 9.53123C77.0719 9.87152 77.0942 9.96217 77.1852 10.2454H78.8961V10.0071C78.7031 9.93913 78.5445 9.78089 78.5445 9.06669V5.80386ZM76.9926 8.08131C76.9926 8.8178 76.2788 9.27063 75.5763 9.27063C75.2704 9.27063 74.8398 9.10105 74.8398 8.54586C74.8398 7.88869 75.327 7.74139 75.9162 7.63941C76.5734 7.53744 76.834 7.43548 76.9926 7.31084V8.08131Z" fill="#231F20"/>
<path d="M81.7398 4.21757H82.7256V5.35063H81.7398V8.62516C81.7398 8.97603 81.7515 9.11237 82.3974 9.11237C82.499 9.11237 82.6123 9.10104 82.7256 9.08933V10.2904C82.4759 10.3017 82.227 10.3134 81.9778 10.3134H81.7738C80.4028 10.3134 80.1536 9.79183 80.1536 9.0104V5.35063H79.3381V4.21757H80.1536V2.58635H81.7398V4.21757Z" fill="#231F20"/>
<path d="M30.0527 13.4411H28.4664V16.33H28.4438C28.1945 15.9447 27.7186 15.3899 26.6989 15.3899C25.3732 15.3899 24.1948 16.4093 24.1948 18.4937C24.1948 20.1484 24.943 21.7342 26.7329 21.7342C27.39 21.7342 28.0925 21.4967 28.4778 20.8169H28.5004V21.576H30.0527V13.4411ZM25.8264 18.6074C25.8264 17.6556 26.1663 16.7605 27.1751 16.7605C28.2625 16.7605 28.5344 17.735 28.5344 18.6977C28.5344 19.5932 28.1378 20.4316 27.1294 20.4316C26.1097 20.4316 25.8264 19.3212 25.8264 18.6074Z" fill="#231F20"/>
<path d="M35.0151 19.8081C34.8905 20.2386 34.4373 20.4656 33.9954 20.4656C32.7154 20.4656 32.6244 19.4455 32.5791 18.9926H36.7143V18.7094C36.7143 15.9561 35.0718 15.3899 33.8821 15.3899C31.2421 15.3899 30.9932 17.7123 30.9932 18.4374C30.9932 20.9188 32.2958 21.7342 33.9954 21.7342C35.0265 21.7342 36.2271 21.2587 36.6467 19.8081H35.0151ZM32.6244 17.9616C32.7154 17.1684 33.1116 16.6925 33.8594 16.6925C34.3693 16.6925 34.9925 16.9871 35.0831 17.9616H32.6244Z" fill="#231F20"/>
<path d="M46.2321 16.1033C46.0958 15.6161 45.8356 14.6983 44.4306 14.6983C43.6148 14.6983 42.4137 15.2425 42.4137 17.5423C42.4137 19.0039 42.9916 20.3182 44.4306 20.3182C45.3706 20.3182 46.0282 19.7857 46.2321 18.7886H47.9313C47.5914 20.5558 46.4361 21.7908 44.3962 21.7908C42.2325 21.7908 40.6802 20.3296 40.6802 17.5196C40.6802 14.676 42.3231 13.2257 44.4193 13.2257C46.8549 13.2257 47.8407 14.9022 47.9313 16.1033H46.2321Z" fill="#231F20"/>
<path d="M53.9813 17.1344C53.9813 15.6501 52.429 15.3899 51.5792 15.3899C50.3442 15.3899 49.0642 15.6501 48.8826 17.497H50.4122C50.4575 17.1458 50.5935 16.6589 51.3866 16.6589C51.7945 16.6589 52.429 16.6925 52.429 17.361C52.429 17.701 52.1231 17.8029 51.8738 17.8369L50.4466 18.0522C49.4381 18.1995 48.6899 18.8 48.6899 19.9784C48.6899 21.2244 49.619 21.7342 50.5259 21.7342C51.6019 21.7342 52.1118 21.2357 52.4743 20.8618C52.5083 21.2021 52.531 21.2927 52.6216 21.576H54.3326V21.3377C54.1399 21.2697 53.9813 21.1115 53.9813 20.3972V17.1344ZM52.429 19.4119C52.429 20.1484 51.7152 20.6012 51.0131 20.6012C50.7068 20.6012 50.2766 20.4316 50.2766 19.8764C50.2766 19.2193 50.7638 19.072 51.3526 18.97C52.0098 18.868 52.2704 18.766 52.429 18.6414V19.4119Z" fill="#231F20"/>
<path d="M57.1766 15.5481H58.1627V16.6812H57.1766V19.9557C57.1766 20.3066 57.1879 20.4429 57.8338 20.4429C57.9357 20.4429 58.0494 20.4316 58.1627 20.4199V21.6209C57.9131 21.6323 57.6638 21.644 57.4145 21.644H57.211C55.84 21.644 55.5907 21.1224 55.5907 20.341V16.6812H54.7749V15.5481H55.5907V13.9169H57.1766V15.5481Z" fill="#231F20"/>
<path d="M64.0532 17.1344C64.0532 15.6501 62.5013 15.3899 61.6515 15.3899C60.4165 15.3899 59.1361 15.6501 58.9548 17.497H60.4844C60.5298 17.1458 60.6654 16.6589 61.4589 16.6589C61.8668 16.6589 62.5013 16.6925 62.5013 17.361C62.5013 17.701 62.195 17.8029 61.9461 17.8369L60.5184 18.0522C59.51 18.1995 58.7622 18.8 58.7622 19.9784C58.7622 21.2244 59.6913 21.7342 60.5977 21.7342C61.6738 21.7342 62.184 21.2357 62.5466 20.8618C62.5806 21.2021 62.6029 21.2927 62.6939 21.576H64.4044V21.3377C64.2118 21.2697 64.0532 21.1115 64.0532 20.3972V17.1344ZM62.5013 19.4119C62.5013 20.1484 61.7875 20.6012 61.085 20.6012C60.779 20.6012 60.3485 20.4316 60.3485 19.8764C60.3485 19.2193 60.8357 19.072 61.4249 18.97C62.0817 18.868 62.3427 18.766 62.5013 18.6414V19.4119Z" fill="#231F20"/>
<path d="M67.1014 21.576H65.5151V13.4411H67.1014V21.576Z" fill="#231F20"/>
<path d="M74.0578 21.576H72.5395V20.7262H72.5169C72.1543 21.3717 71.5201 21.7342 70.6817 21.7342C69.492 21.7342 68.6309 21.0544 68.6309 19.5138V15.5482H70.2168V19.2872C70.2168 20.2163 70.761 20.3972 71.2478 20.3972C71.769 20.3972 72.4715 20.1027 72.4715 19.0266V15.5482H74.0578V21.576Z" fill="#231F20"/>
<path d="M80.9916 21.576H79.4053V17.9163C79.4053 17.4744 79.3827 16.7266 78.3742 16.7266C77.6721 16.7266 77.1279 17.2025 77.1279 18.1202V21.576H75.542V15.5482H77.0603V16.432H77.0826C77.2982 16.0694 77.7514 15.39 78.8955 15.39C80.0738 15.39 80.9916 16.0807 80.9916 17.4064V21.576Z" fill="#231F20"/>
<path d="M85.5378 21.474C84.7896 23.7058 84.586 24 83.2037 24C82.9884 24 82.7165 23.989 82.4903 23.9777V22.7091C82.5579 22.72 82.6598 22.7317 82.7958 22.7317C83.3737 22.7317 83.6909 22.652 83.8382 21.8253L81.6174 15.5482H83.385L84.6767 19.9894H84.6993L85.9344 15.5482H87.6109L85.5378 21.474Z" fill="#231F20"/>
<path d="M93.0864 17.1344C93.0864 15.6501 91.5345 15.3899 90.6847 15.3899C89.4493 15.3899 88.1693 15.6501 87.988 17.497H89.5173C89.563 17.1458 89.6989 16.6589 90.4917 16.6589C90.8996 16.6589 91.5345 16.6925 91.5345 17.361C91.5345 17.701 91.2282 17.8029 90.9789 17.8369L89.5516 18.0522C88.5432 18.1995 87.7954 18.8 87.7954 19.9784C87.7954 21.2244 88.7241 21.7342 89.631 21.7342C90.707 21.7342 91.2168 21.2357 91.5794 20.8618C91.6138 21.2021 91.6361 21.2927 91.7271 21.576H93.4376V21.3377C93.245 21.2697 93.0864 21.1115 93.0864 20.3972V17.1344ZM91.5345 19.4119C91.5345 20.1484 90.8203 20.6012 90.1182 20.6012C89.8119 20.6012 89.3817 20.4316 89.3817 19.8764C89.3817 19.2193 89.8689 19.072 90.4577 18.97C91.1152 18.868 91.3755 18.766 91.5345 18.6414V19.4119Z" fill="#231F20"/>
</svg>
