<svg width="215" height="150" viewBox="0 0 215 150" fill="none" xmlns="http://www.w3.org/2000/svg">
<path opacity="0.9" d="M135.132 57.43C96.9221 47.658 83.3815 -29.7048 26.9734 12.5083C-13.0511 42.4595 11.4691 115.499 61.6878 107.019C92.0822 101.867 87.3917 101.341 113.129 115.244C139.231 129.308 167.972 136.397 195.855 111.436C210.28 98.5179 215.939 67.0352 201.939 50.7417C184.388 30.3592 158.485 63.4098 135.132 57.43Z" fill="#EFF7FF"/>
<ellipse cx="120.5" cy="143.5" rx="52.5" ry="3.5" fill="#F5F5F5"/>
<path d="M121.387 80.2184C121.995 79.5948 122.563 78.953 123.09 78.2959L134.396 89.3383C135.09 90.0177 134.851 91.389 133.861 92.4024C132.872 93.4159 131.505 93.6888 130.811 93.0094L119.505 81.967C120.148 81.424 120.777 80.8407 121.385 80.2171L121.387 80.2184Z" fill="#1D1D1D"/>
<path opacity="0.6" d="M121.127 79.9896C132.157 68.6986 131.888 50.5485 120.527 39.4502C109.166 28.3519 91.0149 28.5081 79.9849 39.799C68.955 51.09 69.2233 69.2401 80.5843 80.3385C91.9453 91.4368 110.097 91.2806 121.127 79.9896Z" fill="#8FC2F5"/>
<path d="M78.0382 83.0622C90.8729 95.6382 111.378 95.4578 123.835 82.6609C136.293 69.8625 135.986 49.2932 123.15 36.7173C110.316 24.1413 89.8107 24.3217 77.3538 37.1186C64.8956 49.9169 65.2022 70.4862 78.0382 83.0622ZM80.642 80.387C69.289 69.264 69.0172 51.0692 80.037 39.749C91.0569 28.4288 109.194 28.2694 120.547 39.3938C131.9 50.5182 132.171 68.713 121.152 80.0332C110.132 91.3534 91.9949 91.5128 80.642 80.3884V80.387Z" fill="#7BACFC"/>
<path d="M169.953 128.522L171.714 126.696C173.474 124.871 173.421 121.964 171.595 120.205L135.013 84.9265C133.187 83.1661 130.281 83.2205 128.522 85.0451L126.761 86.8711C125.001 88.6957 125.055 91.6028 126.88 93.3619L163.462 128.64C165.287 130.401 168.194 130.346 169.953 128.522Z" fill="#656565"/>
<path opacity="0.35" d="M88.8399 71.2315C96.506 79.2245 101.258 78.1642 100.757 82.4547C100.256 86.7452 91.398 85.7448 82.7698 76.0396C74.1415 66.3344 75.0893 54.9166 79.8491 55.2485C84.6089 55.5803 80.129 62.1492 88.8399 71.2315Z" fill="white"/>
</svg>
