<svg width="2112" height="1712" viewBox="0 0 2112 1712" fill="none" xmlns="http://www.w3.org/2000/svg">
<rect width="2112" height="1712" rx="24" fill="#8FC2F5"/>
<rect x="60" y="61" width="1992" height="165" rx="24" fill="#F5F5F5"/>
<rect x="60" y="266" width="1992" height="1016" rx="24" fill="white"/>
<rect x="60" y="1508" width="1992" height="152" rx="24" fill="#F5F5F5"/>
<rect x="60" y="1318" width="1992" height="152" rx="24" fill="#F5F5F5"/>
<rect x="110" y="388" width="1878" height="204" rx="24" fill="#F5F5F5"/>
<rect x="110" y="622" width="1878" height="624" rx="24" fill="#F5F5F5"/>
<rect x="141" y="482" width="1809" height="86" rx="24" fill="#FFECC7"/>
<rect x="138" y="808" width="1804" height="114" rx="24" fill="#FFECC7"/>
<rect x="165.897" y="826" width="421.941" height="79" rx="24" fill="white"/>
<rect x="1492.16" y="826" width="421.941" height="79" rx="24" fill="white"/>
<rect x="1050.46" y="826" width="421.941" height="79" rx="24" fill="white"/>
<rect x="607.598" y="826" width="423.103" height="79" rx="24" fill="white"/>
<rect x="136" y="718" width="1809" height="74" rx="24" fill="#FFECC7"/>
<rect x="141" y="938" width="1809" height="74" rx="24" fill="#FFECC7"/>
<rect x="141" y="1128" width="1809" height="74" rx="24" fill="#FFECC7"/>
<rect x="138" y="1028" width="1809" height="74" rx="24" fill="#FFECC7"/>
<path d="M901.705 131.176V125.091H930.375V131.176H919.688V160H912.392V131.176H901.705ZM938.864 160.494C937.193 160.494 935.705 160.205 934.398 159.625C933.091 159.034 932.057 158.165 931.295 157.017C930.545 155.858 930.17 154.415 930.17 152.688C930.17 151.233 930.438 150.011 930.972 149.023C931.506 148.034 932.233 147.239 933.153 146.636C934.074 146.034 935.119 145.58 936.29 145.273C937.472 144.966 938.71 144.75 940.006 144.625C941.528 144.466 942.756 144.318 943.688 144.182C944.619 144.034 945.295 143.818 945.716 143.534C946.136 143.25 946.347 142.83 946.347 142.273V142.17C946.347 141.091 946.006 140.256 945.324 139.665C944.653 139.074 943.699 138.778 942.46 138.778C941.153 138.778 940.114 139.068 939.341 139.648C938.568 140.216 938.057 140.932 937.807 141.795L931.091 141.25C931.432 139.659 932.102 138.284 933.102 137.125C934.102 135.955 935.392 135.057 936.972 134.432C938.563 133.795 940.403 133.477 942.494 133.477C943.949 133.477 945.341 133.648 946.67 133.989C948.011 134.33 949.199 134.858 950.233 135.574C951.278 136.29 952.102 137.21 952.705 138.335C953.307 139.449 953.608 140.784 953.608 142.341V160H946.722V156.369H946.517C946.097 157.188 945.534 157.909 944.83 158.534C944.125 159.148 943.278 159.631 942.29 159.983C941.301 160.324 940.159 160.494 938.864 160.494ZM940.943 155.483C942.011 155.483 942.955 155.273 943.773 154.852C944.591 154.42 945.233 153.841 945.699 153.114C946.165 152.386 946.398 151.562 946.398 150.642V147.864C946.17 148.011 945.858 148.148 945.46 148.273C945.074 148.386 944.636 148.494 944.148 148.597C943.659 148.687 943.17 148.773 942.682 148.852C942.193 148.92 941.75 148.983 941.352 149.04C940.5 149.165 939.756 149.364 939.119 149.636C938.483 149.909 937.989 150.278 937.636 150.744C937.284 151.199 937.108 151.767 937.108 152.449C937.108 153.438 937.466 154.193 938.182 154.716C938.909 155.227 939.83 155.483 940.943 155.483ZM959.378 160V125.091H966.639V138.216H966.861C967.179 137.511 967.639 136.795 968.241 136.068C968.855 135.33 969.651 134.716 970.628 134.227C971.616 133.727 972.844 133.477 974.31 133.477C976.219 133.477 977.98 133.977 979.594 134.977C981.207 135.966 982.497 137.46 983.463 139.46C984.429 141.449 984.912 143.943 984.912 146.943C984.912 149.864 984.44 152.33 983.497 154.341C982.565 156.341 981.293 157.858 979.679 158.892C978.077 159.915 976.281 160.426 974.293 160.426C972.884 160.426 971.685 160.193 970.696 159.727C969.719 159.261 968.918 158.676 968.293 157.972C967.668 157.256 967.19 156.534 966.861 155.807H966.537V160H959.378ZM966.486 146.909C966.486 148.466 966.702 149.824 967.134 150.983C967.565 152.142 968.19 153.045 969.009 153.693C969.827 154.33 970.821 154.648 971.991 154.648C973.173 154.648 974.173 154.324 974.991 153.676C975.81 153.017 976.429 152.108 976.849 150.949C977.281 149.778 977.497 148.432 977.497 146.909C977.497 145.398 977.287 144.068 976.866 142.92C976.446 141.773 975.827 140.875 975.009 140.227C974.19 139.58 973.185 139.256 971.991 139.256C970.81 139.256 969.81 139.568 968.991 140.193C968.185 140.818 967.565 141.705 967.134 142.852C966.702 144 966.486 145.352 966.486 146.909ZM997.018 125.091V160H989.757V125.091H997.018ZM1014.77 160.511C1012.07 160.511 1009.76 159.966 1007.81 158.875C1005.88 157.773 1004.39 156.216 1003.35 154.205C1002.3 152.182 1001.78 149.79 1001.78 147.028C1001.78 144.335 1002.3 141.972 1003.35 139.938C1004.39 137.903 1005.86 136.318 1007.76 135.182C1009.67 134.045 1011.91 133.477 1014.48 133.477C1016.2 133.477 1017.81 133.756 1019.3 134.312C1020.8 134.858 1022.11 135.682 1023.22 136.784C1024.35 137.886 1025.22 139.273 1025.85 140.943C1026.47 142.602 1026.78 144.545 1026.78 146.773V148.767H1004.68V144.267H1019.95C1019.95 143.222 1019.72 142.295 1019.27 141.489C1018.81 140.682 1018.18 140.051 1017.38 139.597C1016.58 139.131 1015.65 138.898 1014.6 138.898C1013.49 138.898 1012.52 139.153 1011.66 139.665C1010.82 140.165 1010.16 140.841 1009.69 141.693C1009.21 142.534 1008.97 143.472 1008.95 144.506V148.784C1008.95 150.08 1009.19 151.199 1009.67 152.142C1010.16 153.085 1010.85 153.812 1011.73 154.324C1012.62 154.835 1013.67 155.091 1014.89 155.091C1015.69 155.091 1016.43 154.977 1017.1 154.75C1017.77 154.523 1018.35 154.182 1018.82 153.727C1019.3 153.273 1019.66 152.716 1019.91 152.057L1026.63 152.5C1026.29 154.114 1025.59 155.523 1024.53 156.727C1023.49 157.92 1022.14 158.852 1020.48 159.523C1018.83 160.182 1016.93 160.511 1014.77 160.511ZM1042.77 160V125.091H1050.15V139.494H1065.13V125.091H1072.5V160H1065.13V145.58H1050.15V160H1042.77ZM1090.38 160.511C1087.68 160.511 1085.37 159.966 1083.42 158.875C1081.49 157.773 1080 156.216 1078.96 154.205C1077.91 152.182 1077.39 149.79 1077.39 147.028C1077.39 144.335 1077.91 141.972 1078.96 139.938C1080 137.903 1081.47 136.318 1083.37 135.182C1085.28 134.045 1087.52 133.477 1090.09 133.477C1091.81 133.477 1093.42 133.756 1094.91 134.312C1096.41 134.858 1097.72 135.682 1098.83 136.784C1099.96 137.886 1100.83 139.273 1101.46 140.943C1102.08 142.602 1102.39 144.545 1102.39 146.773V148.767H1080.29V144.267H1095.56C1095.56 143.222 1095.33 142.295 1094.88 141.489C1094.42 140.682 1093.79 140.051 1092.98 139.597C1092.19 139.131 1091.26 138.898 1090.21 138.898C1089.1 138.898 1088.13 139.153 1087.27 139.665C1086.43 140.165 1085.77 140.841 1085.3 141.693C1084.82 142.534 1084.58 143.472 1084.56 144.506V148.784C1084.56 150.08 1084.8 151.199 1085.28 152.142C1085.77 153.085 1086.46 153.812 1087.34 154.324C1088.23 154.835 1089.28 155.091 1090.5 155.091C1091.3 155.091 1092.04 154.977 1092.71 154.75C1093.38 154.523 1093.96 154.182 1094.43 153.727C1094.91 153.273 1095.27 152.716 1095.52 152.057L1102.24 152.5C1101.9 154.114 1101.2 155.523 1100.14 156.727C1099.1 157.92 1097.75 158.852 1096.09 159.523C1094.44 160.182 1092.54 160.511 1090.38 160.511ZM1114.6 160.494C1112.93 160.494 1111.44 160.205 1110.13 159.625C1108.83 159.034 1107.79 158.165 1107.03 157.017C1106.28 155.858 1105.9 154.415 1105.9 152.688C1105.9 151.233 1106.17 150.011 1106.71 149.023C1107.24 148.034 1107.97 147.239 1108.89 146.636C1109.81 146.034 1110.85 145.58 1112.02 145.273C1113.21 144.966 1114.44 144.75 1115.74 144.625C1117.26 144.466 1118.49 144.318 1119.42 144.182C1120.35 144.034 1121.03 143.818 1121.45 143.534C1121.87 143.25 1122.08 142.83 1122.08 142.273V142.17C1122.08 141.091 1121.74 140.256 1121.06 139.665C1120.39 139.074 1119.43 138.778 1118.19 138.778C1116.89 138.778 1115.85 139.068 1115.08 139.648C1114.3 140.216 1113.79 140.932 1113.54 141.795L1106.83 141.25C1107.17 139.659 1107.84 138.284 1108.84 137.125C1109.84 135.955 1111.13 135.057 1112.71 134.432C1114.3 133.795 1116.14 133.477 1118.23 133.477C1119.68 133.477 1121.08 133.648 1122.4 133.989C1123.75 134.33 1124.93 134.858 1125.97 135.574C1127.01 136.29 1127.84 137.21 1128.44 138.335C1129.04 139.449 1129.34 140.784 1129.34 142.341V160H1122.46V156.369H1122.25C1121.83 157.188 1121.27 157.909 1120.56 158.534C1119.86 159.148 1119.01 159.631 1118.02 159.983C1117.04 160.324 1115.89 160.494 1114.6 160.494ZM1116.68 155.483C1117.75 155.483 1118.69 155.273 1119.51 154.852C1120.33 154.42 1120.97 153.841 1121.43 153.114C1121.9 152.386 1122.13 151.562 1122.13 150.642V147.864C1121.9 148.011 1121.59 148.148 1121.19 148.273C1120.81 148.386 1120.37 148.494 1119.88 148.597C1119.39 148.687 1118.9 148.773 1118.42 148.852C1117.93 148.92 1117.48 148.983 1117.09 149.04C1116.23 149.165 1115.49 149.364 1114.85 149.636C1114.22 149.909 1113.72 150.278 1113.37 150.744C1113.02 151.199 1112.84 151.767 1112.84 152.449C1112.84 153.438 1113.2 154.193 1113.92 154.716C1114.64 155.227 1115.56 155.483 1116.68 155.483ZM1144.62 160.426C1142.63 160.426 1140.83 159.915 1139.22 158.892C1137.62 157.858 1136.35 156.341 1135.4 154.341C1134.47 152.33 1134 149.864 1134 146.943C1134 143.943 1134.49 141.449 1135.45 139.46C1136.42 137.46 1137.7 135.966 1139.31 134.977C1140.92 133.977 1142.69 133.477 1144.61 133.477C1146.07 133.477 1147.29 133.727 1148.27 134.227C1149.26 134.716 1150.06 135.33 1150.66 136.068C1151.27 136.795 1151.74 137.511 1152.06 138.216H1152.28V125.091H1159.52V160H1152.36V155.807H1152.06C1151.71 156.534 1151.23 157.256 1150.61 157.972C1149.99 158.676 1149.19 159.261 1148.2 159.727C1147.23 160.193 1146.03 160.426 1144.62 160.426ZM1146.92 154.648C1148.1 154.648 1149.08 154.33 1149.89 153.693C1150.71 153.045 1151.33 152.142 1151.77 150.983C1152.21 149.824 1152.43 148.466 1152.43 146.909C1152.43 145.352 1152.21 144 1151.78 142.852C1151.35 141.705 1150.73 140.818 1149.91 140.193C1149.09 139.568 1148.1 139.256 1146.92 139.256C1145.73 139.256 1144.73 139.58 1143.91 140.227C1143.09 140.875 1142.47 141.773 1142.05 142.92C1141.63 144.068 1141.42 145.398 1141.42 146.909C1141.42 148.432 1141.63 149.778 1142.05 150.949C1142.48 152.108 1143.1 153.017 1143.91 153.676C1144.73 154.324 1145.73 154.648 1146.92 154.648ZM1177.42 160.511C1174.73 160.511 1172.41 159.966 1170.47 158.875C1168.54 157.773 1167.05 156.216 1166 154.205C1164.96 152.182 1164.43 149.79 1164.43 147.028C1164.43 144.335 1164.96 141.972 1166 139.938C1167.05 137.903 1168.52 136.318 1170.42 135.182C1172.33 134.045 1174.57 133.477 1177.13 133.477C1178.86 133.477 1180.47 133.756 1181.96 134.312C1183.46 134.858 1184.76 135.682 1185.88 136.784C1187 137.886 1187.88 139.273 1188.5 140.943C1189.13 142.602 1189.44 144.545 1189.44 146.773V148.767H1167.33V144.267H1182.61C1182.61 143.222 1182.38 142.295 1181.92 141.489C1181.47 140.682 1180.84 140.051 1180.03 139.597C1179.24 139.131 1178.31 138.898 1177.25 138.898C1176.15 138.898 1175.17 139.153 1174.32 139.665C1173.48 140.165 1172.82 140.841 1172.34 141.693C1171.87 142.534 1171.62 143.472 1171.61 144.506V148.784C1171.61 150.08 1171.85 151.199 1172.33 152.142C1172.82 153.085 1173.5 153.812 1174.39 154.324C1175.28 154.835 1176.33 155.091 1177.54 155.091C1178.35 155.091 1179.09 154.977 1179.76 154.75C1180.43 154.523 1181 154.182 1181.48 153.727C1181.96 153.273 1182.32 152.716 1182.57 152.057L1189.29 152.5C1188.95 154.114 1188.25 155.523 1187.19 156.727C1186.14 157.92 1184.79 158.852 1183.13 159.523C1181.49 160.182 1179.58 160.511 1177.42 160.511ZM1194.18 160V133.818H1201.22V138.386H1201.49C1201.97 136.761 1202.77 135.534 1203.89 134.705C1205.02 133.864 1206.32 133.443 1207.78 133.443C1208.14 133.443 1208.54 133.466 1208.96 133.511C1209.38 133.557 1209.75 133.619 1210.07 133.699V140.142C1209.72 140.04 1209.25 139.949 1208.65 139.869C1208.05 139.79 1207.5 139.75 1207 139.75C1205.93 139.75 1204.97 139.983 1204.13 140.449C1203.3 140.903 1202.64 141.54 1202.16 142.358C1201.68 143.176 1201.44 144.119 1201.44 145.188V160H1194.18Z" fill="black"/>
<path d="M929.705 312.176V306.091H958.375V312.176H947.688V341H940.392V312.176H929.705ZM966.864 341.494C965.193 341.494 963.705 341.205 962.398 340.625C961.091 340.034 960.057 339.165 959.295 338.017C958.545 336.858 958.17 335.415 958.17 333.688C958.17 332.233 958.438 331.011 958.972 330.023C959.506 329.034 960.233 328.239 961.153 327.636C962.074 327.034 963.119 326.58 964.29 326.273C965.472 325.966 966.71 325.75 968.006 325.625C969.528 325.466 970.756 325.318 971.688 325.182C972.619 325.034 973.295 324.818 973.716 324.534C974.136 324.25 974.347 323.83 974.347 323.273V323.17C974.347 322.091 974.006 321.256 973.324 320.665C972.653 320.074 971.699 319.778 970.46 319.778C969.153 319.778 968.114 320.068 967.341 320.648C966.568 321.216 966.057 321.932 965.807 322.795L959.091 322.25C959.432 320.659 960.102 319.284 961.102 318.125C962.102 316.955 963.392 316.057 964.972 315.432C966.563 314.795 968.403 314.477 970.494 314.477C971.949 314.477 973.341 314.648 974.67 314.989C976.011 315.33 977.199 315.858 978.233 316.574C979.278 317.29 980.102 318.21 980.705 319.335C981.307 320.449 981.608 321.784 981.608 323.341V341H974.722V337.369H974.517C974.097 338.188 973.534 338.909 972.83 339.534C972.125 340.148 971.278 340.631 970.29 340.983C969.301 341.324 968.159 341.494 966.864 341.494ZM968.943 336.483C970.011 336.483 970.955 336.273 971.773 335.852C972.591 335.42 973.233 334.841 973.699 334.114C974.165 333.386 974.398 332.562 974.398 331.642V328.864C974.17 329.011 973.858 329.148 973.46 329.273C973.074 329.386 972.636 329.494 972.148 329.597C971.659 329.687 971.17 329.773 970.682 329.852C970.193 329.92 969.75 329.983 969.352 330.04C968.5 330.165 967.756 330.364 967.119 330.636C966.483 330.909 965.989 331.278 965.636 331.744C965.284 332.199 965.108 332.767 965.108 333.449C965.108 334.438 965.466 335.193 966.182 335.716C966.909 336.227 967.83 336.483 968.943 336.483ZM987.378 341V306.091H994.639V319.216H994.861C995.179 318.511 995.639 317.795 996.241 317.068C996.855 316.33 997.651 315.716 998.628 315.227C999.616 314.727 1000.84 314.477 1002.31 314.477C1004.22 314.477 1005.98 314.977 1007.59 315.977C1009.21 316.966 1010.5 318.46 1011.46 320.46C1012.43 322.449 1012.91 324.943 1012.91 327.943C1012.91 330.864 1012.44 333.33 1011.5 335.341C1010.57 337.341 1009.29 338.858 1007.68 339.892C1006.08 340.915 1004.28 341.426 1002.29 341.426C1000.88 341.426 999.685 341.193 998.696 340.727C997.719 340.261 996.918 339.676 996.293 338.972C995.668 338.256 995.19 337.534 994.861 336.807H994.537V341H987.378ZM994.486 327.909C994.486 329.466 994.702 330.824 995.134 331.983C995.565 333.142 996.19 334.045 997.009 334.693C997.827 335.33 998.821 335.648 999.991 335.648C1001.17 335.648 1002.17 335.324 1002.99 334.676C1003.81 334.017 1004.43 333.108 1004.85 331.949C1005.28 330.778 1005.5 329.432 1005.5 327.909C1005.5 326.398 1005.29 325.068 1004.87 323.92C1004.45 322.773 1003.83 321.875 1003.01 321.227C1002.19 320.58 1001.18 320.256 999.991 320.256C998.81 320.256 997.81 320.568 996.991 321.193C996.185 321.818 995.565 322.705 995.134 323.852C994.702 325 994.486 326.352 994.486 327.909ZM1025.02 306.091V341H1017.76V306.091H1025.02ZM1042.77 341.511C1040.07 341.511 1037.76 340.966 1035.81 339.875C1033.88 338.773 1032.39 337.216 1031.35 335.205C1030.3 333.182 1029.78 330.79 1029.78 328.028C1029.78 325.335 1030.3 322.972 1031.35 320.938C1032.39 318.903 1033.86 317.318 1035.76 316.182C1037.67 315.045 1039.91 314.477 1042.48 314.477C1044.2 314.477 1045.81 314.756 1047.3 315.312C1048.8 315.858 1050.11 316.682 1051.22 317.784C1052.35 318.886 1053.22 320.273 1053.85 321.943C1054.47 323.602 1054.78 325.545 1054.78 327.773V329.767H1032.68V325.267H1047.95C1047.95 324.222 1047.72 323.295 1047.27 322.489C1046.81 321.682 1046.18 321.051 1045.38 320.597C1044.58 320.131 1043.65 319.898 1042.6 319.898C1041.49 319.898 1040.52 320.153 1039.66 320.665C1038.82 321.165 1038.16 321.841 1037.69 322.693C1037.21 323.534 1036.97 324.472 1036.95 325.506V329.784C1036.95 331.08 1037.19 332.199 1037.67 333.142C1038.16 334.085 1038.85 334.812 1039.73 335.324C1040.62 335.835 1041.67 336.091 1042.89 336.091C1043.69 336.091 1044.43 335.977 1045.1 335.75C1045.77 335.523 1046.35 335.182 1046.82 334.727C1047.3 334.273 1047.66 333.716 1047.91 333.057L1054.63 333.5C1054.29 335.114 1053.59 336.523 1052.53 337.727C1051.49 338.92 1050.14 339.852 1048.48 340.523C1046.83 341.182 1044.93 341.511 1042.77 341.511ZM1070.77 306.091H1079.87L1089.48 329.545H1089.89L1099.51 306.091H1108.61V341H1101.45V318.278H1101.16L1092.13 340.83H1087.25L1078.22 318.193H1077.93V341H1070.77V306.091ZM1122.02 341.494C1120.35 341.494 1118.86 341.205 1117.55 340.625C1116.25 340.034 1115.21 339.165 1114.45 338.017C1113.7 336.858 1113.33 335.415 1113.33 333.688C1113.33 332.233 1113.59 331.011 1114.13 330.023C1114.66 329.034 1115.39 328.239 1116.31 327.636C1117.23 327.034 1118.28 326.58 1119.45 326.273C1120.63 325.966 1121.87 325.75 1123.16 325.625C1124.68 325.466 1125.91 325.318 1126.84 325.182C1127.78 325.034 1128.45 324.818 1128.87 324.534C1129.29 324.25 1129.5 323.83 1129.5 323.273V323.17C1129.5 322.091 1129.16 321.256 1128.48 320.665C1127.81 320.074 1126.86 319.778 1125.62 319.778C1124.31 319.778 1123.27 320.068 1122.5 320.648C1121.72 321.216 1121.21 321.932 1120.96 322.795L1114.25 322.25C1114.59 320.659 1115.26 319.284 1116.26 318.125C1117.26 316.955 1118.55 316.057 1120.13 315.432C1121.72 314.795 1123.56 314.477 1125.65 314.477C1127.11 314.477 1128.5 314.648 1129.83 314.989C1131.17 315.33 1132.36 315.858 1133.39 316.574C1134.43 317.29 1135.26 318.21 1135.86 319.335C1136.46 320.449 1136.76 321.784 1136.76 323.341V341H1129.88V337.369H1129.67C1129.25 338.188 1128.69 338.909 1127.99 339.534C1127.28 340.148 1126.43 340.631 1125.45 340.983C1124.46 341.324 1123.32 341.494 1122.02 341.494ZM1124.1 336.483C1125.17 336.483 1126.11 336.273 1126.93 335.852C1127.75 335.42 1128.39 334.841 1128.86 334.114C1129.32 333.386 1129.55 332.562 1129.55 331.642V328.864C1129.33 329.011 1129.01 329.148 1128.62 329.273C1128.23 329.386 1127.79 329.494 1127.3 329.597C1126.82 329.687 1126.33 329.773 1125.84 329.852C1125.35 329.92 1124.91 329.983 1124.51 330.04C1123.66 330.165 1122.91 330.364 1122.28 330.636C1121.64 330.909 1121.14 331.278 1120.79 331.744C1120.44 332.199 1120.26 332.767 1120.26 333.449C1120.26 334.438 1120.62 335.193 1121.34 335.716C1122.07 336.227 1122.99 336.483 1124.1 336.483ZM1142.4 341V314.818H1149.66V341H1142.4ZM1146.05 311.443C1144.97 311.443 1144.04 311.085 1143.27 310.369C1142.51 309.642 1142.12 308.773 1142.12 307.761C1142.12 306.761 1142.51 305.903 1143.27 305.188C1144.04 304.46 1144.97 304.097 1146.05 304.097C1147.13 304.097 1148.05 304.46 1148.81 305.188C1149.58 305.903 1149.97 306.761 1149.97 307.761C1149.97 308.773 1149.58 309.642 1148.81 310.369C1148.05 311.085 1147.13 311.443 1146.05 311.443ZM1162.74 325.864V341H1155.48V314.818H1162.4V319.438H1162.7C1163.28 317.915 1164.25 316.71 1165.62 315.824C1166.98 314.926 1168.63 314.477 1170.58 314.477C1172.4 314.477 1173.98 314.875 1175.33 315.67C1176.69 316.466 1177.74 317.602 1178.49 319.08C1179.24 320.545 1179.61 322.295 1179.61 324.33V341H1172.35V325.625C1172.36 324.023 1171.95 322.773 1171.12 321.875C1170.29 320.966 1169.15 320.511 1167.7 320.511C1166.72 320.511 1165.86 320.722 1165.11 321.142C1164.37 321.562 1163.79 322.176 1163.37 322.983C1162.96 323.778 1162.75 324.739 1162.74 325.864Z" fill="black"/>
<path d="M142.136 432.784V428.727H161.25V432.784H154.125V452H149.261V432.784H142.136ZM166.909 452.33C165.795 452.33 164.803 452.136 163.932 451.75C163.061 451.356 162.371 450.777 161.864 450.011C161.364 449.239 161.114 448.277 161.114 447.125C161.114 446.155 161.292 445.341 161.648 444.682C162.004 444.023 162.489 443.492 163.102 443.091C163.716 442.689 164.413 442.386 165.193 442.182C165.981 441.977 166.807 441.833 167.67 441.75C168.686 441.644 169.504 441.545 170.125 441.455C170.746 441.356 171.197 441.212 171.477 441.023C171.758 440.833 171.898 440.553 171.898 440.182V440.114C171.898 439.394 171.67 438.837 171.216 438.443C170.769 438.049 170.133 437.852 169.307 437.852C168.436 437.852 167.742 438.045 167.227 438.432C166.712 438.811 166.371 439.288 166.205 439.864L161.727 439.5C161.955 438.439 162.402 437.523 163.068 436.75C163.735 435.97 164.595 435.371 165.648 434.955C166.708 434.53 167.936 434.318 169.33 434.318C170.299 434.318 171.227 434.432 172.114 434.659C173.008 434.886 173.799 435.239 174.489 435.716C175.186 436.193 175.735 436.807 176.136 437.557C176.538 438.299 176.739 439.189 176.739 440.227V452H172.148V449.58H172.011C171.731 450.125 171.356 450.606 170.886 451.023C170.417 451.432 169.852 451.754 169.193 451.989C168.534 452.216 167.773 452.33 166.909 452.33ZM168.295 448.989C169.008 448.989 169.636 448.848 170.182 448.568C170.727 448.28 171.155 447.894 171.466 447.409C171.777 446.924 171.932 446.375 171.932 445.761V443.909C171.78 444.008 171.572 444.098 171.307 444.182C171.049 444.258 170.758 444.33 170.432 444.398C170.106 444.458 169.78 444.515 169.455 444.568C169.129 444.614 168.833 444.655 168.568 444.693C168 444.777 167.504 444.909 167.08 445.091C166.655 445.273 166.326 445.519 166.091 445.83C165.856 446.133 165.739 446.511 165.739 446.966C165.739 447.625 165.977 448.129 166.455 448.477C166.939 448.818 167.553 448.989 168.295 448.989ZM180.585 452V428.727H185.426V437.477H185.574C185.786 437.008 186.093 436.53 186.494 436.045C186.903 435.553 187.434 435.144 188.085 434.818C188.744 434.485 189.563 434.318 190.54 434.318C191.813 434.318 192.987 434.652 194.062 435.318C195.138 435.977 195.998 436.973 196.642 438.307C197.286 439.633 197.608 441.295 197.608 443.295C197.608 445.242 197.294 446.886 196.665 448.227C196.044 449.561 195.195 450.572 194.119 451.261C193.051 451.943 191.854 452.284 190.528 452.284C189.589 452.284 188.79 452.129 188.131 451.818C187.479 451.508 186.945 451.117 186.528 450.648C186.112 450.17 185.794 449.689 185.574 449.205H185.358V452H180.585ZM185.324 443.273C185.324 444.311 185.468 445.216 185.756 445.989C186.044 446.761 186.46 447.364 187.006 447.795C187.551 448.22 188.214 448.432 188.994 448.432C189.782 448.432 190.449 448.216 190.994 447.784C191.54 447.345 191.953 446.739 192.233 445.966C192.521 445.186 192.665 444.288 192.665 443.273C192.665 442.265 192.525 441.379 192.244 440.614C191.964 439.848 191.551 439.25 191.006 438.818C190.46 438.386 189.79 438.17 188.994 438.17C188.206 438.17 187.54 438.379 186.994 438.795C186.456 439.212 186.044 439.803 185.756 440.568C185.468 441.333 185.324 442.235 185.324 443.273ZM205.679 428.727V452H200.838V428.727H205.679ZM217.511 452.341C215.716 452.341 214.17 451.977 212.875 451.25C211.587 450.515 210.595 449.477 209.898 448.136C209.201 446.788 208.852 445.193 208.852 443.352C208.852 441.557 209.201 439.981 209.898 438.625C210.595 437.269 211.576 436.212 212.841 435.455C214.114 434.697 215.606 434.318 217.318 434.318C218.47 434.318 219.542 434.504 220.534 434.875C221.534 435.239 222.405 435.788 223.148 436.523C223.898 437.258 224.481 438.182 224.898 439.295C225.314 440.402 225.523 441.697 225.523 443.182V444.511H210.784V441.511H220.966C220.966 440.814 220.814 440.197 220.511 439.659C220.208 439.121 219.788 438.701 219.25 438.398C218.72 438.087 218.102 437.932 217.398 437.932C216.663 437.932 216.011 438.102 215.443 438.443C214.883 438.777 214.443 439.227 214.125 439.795C213.807 440.356 213.644 440.981 213.636 441.67V444.523C213.636 445.386 213.795 446.133 214.114 446.761C214.439 447.39 214.898 447.875 215.489 448.216C216.08 448.557 216.78 448.727 217.591 448.727C218.129 448.727 218.621 448.652 219.068 448.5C219.515 448.348 219.898 448.121 220.216 447.818C220.534 447.515 220.777 447.144 220.943 446.705L225.42 447C225.193 448.076 224.727 449.015 224.023 449.818C223.326 450.614 222.424 451.235 221.318 451.682C220.22 452.121 218.951 452.341 217.511 452.341ZM235.293 432.784V428.727H254.406V432.784H247.281V452H242.418V432.784H235.293ZM262.304 441.909V452H257.463V428.727H262.168V437.625H262.372C262.766 436.595 263.402 435.788 264.281 435.205C265.16 434.614 266.262 434.318 267.588 434.318C268.8 434.318 269.857 434.583 270.759 435.114C271.668 435.636 272.372 436.39 272.872 437.375C273.38 438.352 273.63 439.523 273.622 440.886V452H268.781V441.75C268.789 440.674 268.516 439.837 267.963 439.239C267.418 438.64 266.652 438.341 265.668 438.341C265.009 438.341 264.425 438.481 263.918 438.761C263.418 439.042 263.024 439.451 262.736 439.989C262.455 440.519 262.312 441.159 262.304 441.909ZM285.386 452.341C283.591 452.341 282.045 451.977 280.75 451.25C279.462 450.515 278.47 449.477 277.773 448.136C277.076 446.788 276.727 445.193 276.727 443.352C276.727 441.557 277.076 439.981 277.773 438.625C278.47 437.269 279.451 436.212 280.716 435.455C281.989 434.697 283.481 434.318 285.193 434.318C286.345 434.318 287.417 434.504 288.409 434.875C289.409 435.239 290.28 435.788 291.023 436.523C291.773 437.258 292.356 438.182 292.773 439.295C293.189 440.402 293.398 441.697 293.398 443.182V444.511H278.659V441.511H288.841C288.841 440.814 288.689 440.197 288.386 439.659C288.083 439.121 287.663 438.701 287.125 438.398C286.595 438.087 285.977 437.932 285.273 437.932C284.538 437.932 283.886 438.102 283.318 438.443C282.758 438.777 282.318 439.227 282 439.795C281.682 440.356 281.519 440.981 281.511 441.67V444.523C281.511 445.386 281.67 446.133 281.989 446.761C282.314 447.39 282.773 447.875 283.364 448.216C283.955 448.557 284.655 448.727 285.466 448.727C286.004 448.727 286.496 448.652 286.943 448.5C287.39 448.348 287.773 448.121 288.091 447.818C288.409 447.515 288.652 447.144 288.818 446.705L293.295 447C293.068 448.076 292.602 449.015 291.898 449.818C291.201 450.614 290.299 451.235 289.193 451.682C288.095 452.121 286.826 452.341 285.386 452.341ZM301.534 452.33C300.42 452.33 299.428 452.136 298.557 451.75C297.686 451.356 296.996 450.777 296.489 450.011C295.989 449.239 295.739 448.277 295.739 447.125C295.739 446.155 295.917 445.341 296.273 444.682C296.629 444.023 297.114 443.492 297.727 443.091C298.341 442.689 299.038 442.386 299.818 442.182C300.606 441.977 301.432 441.833 302.295 441.75C303.311 441.644 304.129 441.545 304.75 441.455C305.371 441.356 305.822 441.212 306.102 441.023C306.383 440.833 306.523 440.553 306.523 440.182V440.114C306.523 439.394 306.295 438.837 305.841 438.443C305.394 438.049 304.758 437.852 303.932 437.852C303.061 437.852 302.367 438.045 301.852 438.432C301.337 438.811 300.996 439.288 300.83 439.864L296.352 439.5C296.58 438.439 297.027 437.523 297.693 436.75C298.36 435.97 299.22 435.371 300.273 434.955C301.333 434.53 302.561 434.318 303.955 434.318C304.924 434.318 305.852 434.432 306.739 434.659C307.633 434.886 308.424 435.239 309.114 435.716C309.811 436.193 310.36 436.807 310.761 437.557C311.163 438.299 311.364 439.189 311.364 440.227V452H306.773V449.58H306.636C306.356 450.125 305.981 450.606 305.511 451.023C305.042 451.432 304.477 451.754 303.818 451.989C303.159 452.216 302.398 452.33 301.534 452.33ZM302.92 448.989C303.633 448.989 304.261 448.848 304.807 448.568C305.352 448.28 305.78 447.894 306.091 447.409C306.402 446.924 306.557 446.375 306.557 445.761V443.909C306.405 444.008 306.197 444.098 305.932 444.182C305.674 444.258 305.383 444.33 305.057 444.398C304.731 444.458 304.405 444.515 304.08 444.568C303.754 444.614 303.458 444.655 303.193 444.693C302.625 444.777 302.129 444.909 301.705 445.091C301.28 445.273 300.951 445.519 300.716 445.83C300.481 446.133 300.364 446.511 300.364 446.966C300.364 447.625 300.602 448.129 301.08 448.477C301.564 448.818 302.178 448.989 302.92 448.989ZM321.551 452.284C320.225 452.284 319.025 451.943 317.949 451.261C316.881 450.572 316.032 449.561 315.403 448.227C314.782 446.886 314.472 445.242 314.472 443.295C314.472 441.295 314.794 439.633 315.438 438.307C316.081 436.973 316.938 435.977 318.006 435.318C319.081 434.652 320.259 434.318 321.54 434.318C322.517 434.318 323.331 434.485 323.983 434.818C324.642 435.144 325.172 435.553 325.574 436.045C325.983 436.53 326.294 437.008 326.506 437.477H326.653V428.727H331.483V452H326.71V449.205H326.506C326.278 449.689 325.956 450.17 325.54 450.648C325.131 451.117 324.597 451.508 323.938 451.818C323.286 452.129 322.491 452.284 321.551 452.284ZM323.085 448.432C323.866 448.432 324.525 448.22 325.062 447.795C325.608 447.364 326.025 446.761 326.312 445.989C326.608 445.216 326.756 444.311 326.756 443.273C326.756 442.235 326.612 441.333 326.324 440.568C326.036 439.803 325.619 439.212 325.074 438.795C324.528 438.379 323.866 438.17 323.085 438.17C322.29 438.17 321.619 438.386 321.074 438.818C320.528 439.25 320.116 439.848 319.835 440.614C319.555 441.379 319.415 442.265 319.415 443.273C319.415 444.288 319.555 445.186 319.835 445.966C320.123 446.739 320.536 447.345 321.074 447.784C321.619 448.216 322.29 448.432 323.085 448.432Z" fill="black"/>
<path d="M142.136 668.784V664.727H161.25V668.784H154.125V688H149.261V668.784H142.136ZM166.909 688.33C165.795 688.33 164.803 688.136 163.932 687.75C163.061 687.356 162.371 686.777 161.864 686.011C161.364 685.239 161.114 684.277 161.114 683.125C161.114 682.155 161.292 681.341 161.648 680.682C162.004 680.023 162.489 679.492 163.102 679.091C163.716 678.689 164.413 678.386 165.193 678.182C165.981 677.977 166.807 677.833 167.67 677.75C168.686 677.644 169.504 677.545 170.125 677.455C170.746 677.356 171.197 677.212 171.477 677.023C171.758 676.833 171.898 676.553 171.898 676.182V676.114C171.898 675.394 171.67 674.837 171.216 674.443C170.769 674.049 170.133 673.852 169.307 673.852C168.436 673.852 167.742 674.045 167.227 674.432C166.712 674.811 166.371 675.288 166.205 675.864L161.727 675.5C161.955 674.439 162.402 673.523 163.068 672.75C163.735 671.97 164.595 671.371 165.648 670.955C166.708 670.53 167.936 670.318 169.33 670.318C170.299 670.318 171.227 670.432 172.114 670.659C173.008 670.886 173.799 671.239 174.489 671.716C175.186 672.193 175.735 672.807 176.136 673.557C176.538 674.299 176.739 675.189 176.739 676.227V688H172.148V685.58H172.011C171.731 686.125 171.356 686.606 170.886 687.023C170.417 687.432 169.852 687.754 169.193 687.989C168.534 688.216 167.773 688.33 166.909 688.33ZM168.295 684.989C169.008 684.989 169.636 684.848 170.182 684.568C170.727 684.28 171.155 683.894 171.466 683.409C171.777 682.924 171.932 682.375 171.932 681.761V679.909C171.78 680.008 171.572 680.098 171.307 680.182C171.049 680.258 170.758 680.33 170.432 680.398C170.106 680.458 169.78 680.515 169.455 680.568C169.129 680.614 168.833 680.655 168.568 680.693C168 680.777 167.504 680.909 167.08 681.091C166.655 681.273 166.326 681.519 166.091 681.83C165.856 682.133 165.739 682.511 165.739 682.966C165.739 683.625 165.977 684.129 166.455 684.477C166.939 684.818 167.553 684.989 168.295 684.989ZM180.585 688V664.727H185.426V673.477H185.574C185.786 673.008 186.093 672.53 186.494 672.045C186.903 671.553 187.434 671.144 188.085 670.818C188.744 670.485 189.563 670.318 190.54 670.318C191.813 670.318 192.987 670.652 194.062 671.318C195.138 671.977 195.998 672.973 196.642 674.307C197.286 675.633 197.608 677.295 197.608 679.295C197.608 681.242 197.294 682.886 196.665 684.227C196.044 685.561 195.195 686.572 194.119 687.261C193.051 687.943 191.854 688.284 190.528 688.284C189.589 688.284 188.79 688.129 188.131 687.818C187.479 687.508 186.945 687.117 186.528 686.648C186.112 686.17 185.794 685.689 185.574 685.205H185.358V688H180.585ZM185.324 679.273C185.324 680.311 185.468 681.216 185.756 681.989C186.044 682.761 186.46 683.364 187.006 683.795C187.551 684.22 188.214 684.432 188.994 684.432C189.782 684.432 190.449 684.216 190.994 683.784C191.54 683.345 191.953 682.739 192.233 681.966C192.521 681.186 192.665 680.288 192.665 679.273C192.665 678.265 192.525 677.379 192.244 676.614C191.964 675.848 191.551 675.25 191.006 674.818C190.46 674.386 189.79 674.17 188.994 674.17C188.206 674.17 187.54 674.379 186.994 674.795C186.456 675.212 186.044 675.803 185.756 676.568C185.468 677.333 185.324 678.235 185.324 679.273ZM205.679 664.727V688H200.838V664.727H205.679ZM217.511 688.341C215.716 688.341 214.17 687.977 212.875 687.25C211.587 686.515 210.595 685.477 209.898 684.136C209.201 682.788 208.852 681.193 208.852 679.352C208.852 677.557 209.201 675.981 209.898 674.625C210.595 673.269 211.576 672.212 212.841 671.455C214.114 670.697 215.606 670.318 217.318 670.318C218.47 670.318 219.542 670.504 220.534 670.875C221.534 671.239 222.405 671.788 223.148 672.523C223.898 673.258 224.481 674.182 224.898 675.295C225.314 676.402 225.523 677.697 225.523 679.182V680.511H210.784V677.511H220.966C220.966 676.814 220.814 676.197 220.511 675.659C220.208 675.121 219.788 674.701 219.25 674.398C218.72 674.087 218.102 673.932 217.398 673.932C216.663 673.932 216.011 674.102 215.443 674.443C214.883 674.777 214.443 675.227 214.125 675.795C213.807 676.356 213.644 676.981 213.636 677.67V680.523C213.636 681.386 213.795 682.133 214.114 682.761C214.439 683.39 214.898 683.875 215.489 684.216C216.08 684.557 216.78 684.727 217.591 684.727C218.129 684.727 218.621 684.652 219.068 684.5C219.515 684.348 219.898 684.121 220.216 683.818C220.534 683.515 220.777 683.144 220.943 682.705L225.42 683C225.193 684.076 224.727 685.015 224.023 685.818C223.326 686.614 222.424 687.235 221.318 687.682C220.22 688.121 218.951 688.341 217.511 688.341ZM235.293 668.784V664.727H254.406V668.784H247.281V688H242.418V668.784H235.293ZM257.554 688V664.727H262.395V673.477H262.543C262.755 673.008 263.062 672.53 263.463 672.045C263.872 671.553 264.402 671.144 265.054 670.818C265.713 670.485 266.531 670.318 267.509 670.318C268.781 670.318 269.955 670.652 271.031 671.318C272.107 671.977 272.967 672.973 273.611 674.307C274.255 675.633 274.577 677.295 274.577 679.295C274.577 681.242 274.262 682.886 273.634 684.227C273.012 685.561 272.164 686.572 271.088 687.261C270.02 687.943 268.823 688.284 267.497 688.284C266.558 688.284 265.759 688.129 265.099 687.818C264.448 687.508 263.914 687.117 263.497 686.648C263.08 686.17 262.762 685.689 262.543 685.205H262.327V688H257.554ZM262.293 679.273C262.293 680.311 262.437 681.216 262.724 681.989C263.012 682.761 263.429 683.364 263.974 683.795C264.52 684.22 265.183 684.432 265.963 684.432C266.751 684.432 267.418 684.216 267.963 683.784C268.509 683.345 268.921 682.739 269.202 681.966C269.49 681.186 269.634 680.288 269.634 679.273C269.634 678.265 269.493 677.379 269.213 676.614C268.933 675.848 268.52 675.25 267.974 674.818C267.429 674.386 266.759 674.17 265.963 674.17C265.175 674.17 264.509 674.379 263.963 674.795C263.425 675.212 263.012 675.803 262.724 676.568C262.437 677.333 262.293 678.235 262.293 679.273ZM285.693 688.341C283.928 688.341 282.402 687.966 281.114 687.216C279.833 686.458 278.845 685.405 278.148 684.057C277.451 682.701 277.102 681.129 277.102 679.341C277.102 677.538 277.451 675.962 278.148 674.614C278.845 673.258 279.833 672.205 281.114 671.455C282.402 670.697 283.928 670.318 285.693 670.318C287.458 670.318 288.981 670.697 290.261 671.455C291.549 672.205 292.542 673.258 293.239 674.614C293.936 675.962 294.284 677.538 294.284 679.341C294.284 681.129 293.936 682.701 293.239 684.057C292.542 685.405 291.549 686.458 290.261 687.216C288.981 687.966 287.458 688.341 285.693 688.341ZM285.716 684.591C286.519 684.591 287.189 684.364 287.727 683.909C288.265 683.447 288.67 682.818 288.943 682.023C289.223 681.227 289.364 680.322 289.364 679.307C289.364 678.292 289.223 677.386 288.943 676.591C288.67 675.795 288.265 675.167 287.727 674.705C287.189 674.242 286.519 674.011 285.716 674.011C284.905 674.011 284.223 674.242 283.67 674.705C283.125 675.167 282.712 675.795 282.432 676.591C282.159 677.386 282.023 678.292 282.023 679.307C282.023 680.322 282.159 681.227 282.432 682.023C282.712 682.818 283.125 683.447 283.67 683.909C284.223 684.364 284.905 684.591 285.716 684.591ZM303.864 688.284C302.538 688.284 301.337 687.943 300.261 687.261C299.193 686.572 298.345 685.561 297.716 684.227C297.095 682.886 296.784 681.242 296.784 679.295C296.784 677.295 297.106 675.633 297.75 674.307C298.394 672.973 299.25 671.977 300.318 671.318C301.394 670.652 302.572 670.318 303.852 670.318C304.83 670.318 305.644 670.485 306.295 670.818C306.955 671.144 307.485 671.553 307.886 672.045C308.295 672.53 308.606 673.008 308.818 673.477H308.966V664.727H313.795V688H309.023V685.205H308.818C308.591 685.689 308.269 686.17 307.852 686.648C307.443 687.117 306.909 687.508 306.25 687.818C305.598 688.129 304.803 688.284 303.864 688.284ZM305.398 684.432C306.178 684.432 306.837 684.22 307.375 683.795C307.92 683.364 308.337 682.761 308.625 681.989C308.92 681.216 309.068 680.311 309.068 679.273C309.068 678.235 308.924 677.333 308.636 676.568C308.348 675.803 307.932 675.212 307.386 674.795C306.841 674.379 306.178 674.17 305.398 674.17C304.602 674.17 303.932 674.386 303.386 674.818C302.841 675.25 302.428 675.848 302.148 676.614C301.867 677.379 301.727 678.265 301.727 679.273C301.727 680.288 301.867 681.186 302.148 681.966C302.436 682.739 302.848 683.345 303.386 683.784C303.932 684.216 304.602 684.432 305.398 684.432ZM320.764 694.545C320.151 694.545 319.575 694.496 319.037 694.398C318.507 694.307 318.067 694.189 317.719 694.045L318.81 690.432C319.378 690.606 319.889 690.701 320.344 690.716C320.806 690.731 321.204 690.625 321.537 690.398C321.878 690.17 322.154 689.784 322.366 689.239L322.651 688.5L316.389 670.545H321.48L325.094 683.364H325.276L328.923 670.545H334.048L327.264 689.886C326.938 690.826 326.495 691.644 325.935 692.341C325.382 693.045 324.681 693.587 323.832 693.966C322.984 694.352 321.961 694.545 320.764 694.545Z" fill="black"/>
<path d="M1016.53 540V510.909H1028.01C1030.2 510.909 1032.08 511.302 1033.63 512.088C1035.19 512.865 1036.38 513.968 1037.2 515.398C1038.02 516.818 1038.43 518.49 1038.43 520.412C1038.43 522.344 1038.02 524.006 1037.18 525.398C1036.35 526.78 1035.14 527.841 1033.56 528.58C1031.99 529.318 1030.08 529.688 1027.85 529.688H1020.16V524.744H1026.86C1028.03 524.744 1029 524.583 1029.78 524.261C1030.56 523.939 1031.14 523.456 1031.51 522.812C1031.9 522.169 1032.1 521.368 1032.1 520.412C1032.1 519.446 1031.9 518.632 1031.51 517.969C1031.14 517.306 1030.55 516.804 1029.77 516.463C1028.99 516.113 1028.01 515.938 1026.83 515.938H1022.68V540H1016.53ZM1032.24 526.761L1039.47 540H1032.68L1025.61 526.761H1032.24ZM1052.17 540.426C1049.96 540.426 1048.06 539.957 1046.45 539.02C1044.85 538.073 1043.61 536.757 1042.74 535.071C1041.87 533.376 1041.43 531.411 1041.43 529.176C1041.43 526.922 1041.87 524.953 1042.74 523.267C1043.61 521.572 1044.85 520.256 1046.45 519.318C1048.06 518.371 1049.96 517.898 1052.17 517.898C1054.38 517.898 1056.28 518.371 1057.88 519.318C1059.49 520.256 1060.73 521.572 1061.6 523.267C1062.47 524.953 1062.91 526.922 1062.91 529.176C1062.91 531.411 1062.47 533.376 1061.6 535.071C1060.73 536.757 1059.49 538.073 1057.88 539.02C1056.28 539.957 1054.38 540.426 1052.17 540.426ZM1052.2 535.739C1053.2 535.739 1054.04 535.455 1054.71 534.886C1055.39 534.309 1055.89 533.523 1056.23 532.528C1056.58 531.534 1056.76 530.402 1056.76 529.134C1056.76 527.865 1056.58 526.733 1056.23 525.739C1055.89 524.744 1055.39 523.958 1054.71 523.381C1054.04 522.803 1053.2 522.514 1052.2 522.514C1051.19 522.514 1050.33 522.803 1049.64 523.381C1048.96 523.958 1048.44 524.744 1048.09 525.739C1047.75 526.733 1047.58 527.865 1047.58 529.134C1047.58 530.402 1047.75 531.534 1048.09 532.528C1048.44 533.523 1048.96 534.309 1049.64 534.886C1050.33 535.455 1051.19 535.739 1052.2 535.739ZM1070.6 540L1064.66 518.182H1070.79L1074.17 532.841H1074.37L1077.89 518.182H1083.9L1087.48 532.756H1087.66L1090.99 518.182H1097.09L1091.17 540H1084.76L1081.01 526.278H1080.74L1076.99 540H1070.6Z" fill="black"/>
<path d="M369.196 861.094H362.974C362.861 860.289 362.629 859.574 362.278 858.949C361.928 858.314 361.478 857.775 360.929 857.33C360.38 856.884 359.745 856.544 359.026 856.307C358.315 856.07 357.544 855.952 356.71 855.952C355.205 855.952 353.893 856.326 352.776 857.074C351.658 857.812 350.792 858.892 350.176 860.312C349.561 861.723 349.253 863.437 349.253 865.455C349.253 867.528 349.561 869.271 350.176 870.682C350.801 872.093 351.672 873.158 352.79 873.878C353.907 874.598 355.2 874.957 356.668 874.957C357.491 874.957 358.254 874.848 358.955 874.631C359.665 874.413 360.295 874.096 360.844 873.679C361.393 873.253 361.848 872.737 362.207 872.131C362.577 871.525 362.832 870.833 362.974 870.057L369.196 870.085C369.035 871.42 368.633 872.708 367.989 873.949C367.354 875.18 366.497 876.283 365.418 877.259C364.348 878.224 363.069 878.991 361.582 879.56C360.105 880.118 358.434 880.398 356.568 880.398C353.973 880.398 351.653 879.811 349.608 878.636C347.572 877.462 345.962 875.762 344.778 873.537C343.604 871.312 343.017 868.617 343.017 865.455C343.017 862.282 343.614 859.583 344.807 857.358C346 855.133 347.619 853.437 349.665 852.273C351.71 851.098 354.011 850.511 356.568 850.511C358.254 850.511 359.816 850.748 361.256 851.222C362.705 851.695 363.988 852.386 365.105 853.295C366.223 854.195 367.132 855.298 367.832 856.605C368.543 857.912 368.997 859.408 369.196 861.094ZM383.436 880.426C381.192 880.426 379.26 879.972 377.641 879.062C376.031 878.144 374.79 876.847 373.919 875.17C373.048 873.485 372.612 871.491 372.612 869.19C372.612 866.946 373.048 864.976 373.919 863.281C374.79 861.586 376.017 860.265 377.598 859.318C379.189 858.371 381.054 857.898 383.195 857.898C384.634 857.898 385.974 858.13 387.214 858.594C388.464 859.048 389.554 859.735 390.482 860.653C391.419 861.572 392.148 862.727 392.669 864.119C393.19 865.502 393.45 867.121 393.45 868.977V870.639H375.027V866.889H387.754C387.754 866.018 387.565 865.246 387.186 864.574C386.807 863.902 386.282 863.376 385.609 862.997C384.946 862.609 384.175 862.415 383.294 862.415C382.375 862.415 381.561 862.628 380.851 863.054C380.15 863.471 379.601 864.034 379.203 864.744C378.805 865.445 378.602 866.226 378.592 867.088V870.653C378.592 871.733 378.791 872.666 379.189 873.452C379.596 874.238 380.169 874.844 380.908 875.27C381.646 875.696 382.522 875.909 383.536 875.909C384.208 875.909 384.823 875.814 385.382 875.625C385.941 875.436 386.419 875.152 386.817 874.773C387.214 874.394 387.518 873.93 387.726 873.381L393.322 873.75C393.038 875.095 392.456 876.269 391.575 877.273C390.704 878.267 389.577 879.044 388.195 879.602C386.821 880.152 385.235 880.426 383.436 880.426ZM403.45 850.909V880H397.399V850.909H403.45ZM414.349 850.909V880H408.298V850.909H414.349Z" fill="black"/>
<path d="M1693.2 864.094H1686.97C1686.86 863.289 1686.63 862.574 1686.28 861.949C1685.93 861.314 1685.48 860.775 1684.93 860.33C1684.38 859.884 1683.75 859.544 1683.03 859.307C1682.32 859.07 1681.54 858.952 1680.71 858.952C1679.2 858.952 1677.89 859.326 1676.78 860.074C1675.66 860.812 1674.79 861.892 1674.18 863.312C1673.56 864.723 1673.25 866.437 1673.25 868.455C1673.25 870.528 1673.56 872.271 1674.18 873.682C1674.8 875.093 1675.67 876.158 1676.79 876.878C1677.91 877.598 1679.2 877.957 1680.67 877.957C1681.49 877.957 1682.25 877.848 1682.95 877.631C1683.66 877.413 1684.29 877.096 1684.84 876.679C1685.39 876.253 1685.85 875.737 1686.21 875.131C1686.58 874.525 1686.83 873.833 1686.97 873.057L1693.2 873.085C1693.04 874.42 1692.63 875.708 1691.99 876.949C1691.35 878.18 1690.5 879.283 1689.42 880.259C1688.35 881.224 1687.07 881.991 1685.58 882.56C1684.11 883.118 1682.43 883.398 1680.57 883.398C1677.97 883.398 1675.65 882.811 1673.61 881.636C1671.57 880.462 1669.96 878.762 1668.78 876.537C1667.6 874.312 1667.02 871.617 1667.02 868.455C1667.02 865.282 1667.61 862.583 1668.81 860.358C1670 858.133 1671.62 856.437 1673.66 855.273C1675.71 854.098 1678.01 853.511 1680.57 853.511C1682.25 853.511 1683.82 853.748 1685.26 854.222C1686.7 854.695 1687.99 855.386 1689.11 856.295C1690.22 857.195 1691.13 858.298 1691.83 859.605C1692.54 860.912 1693 862.408 1693.2 864.094ZM1707.44 883.426C1705.19 883.426 1703.26 882.972 1701.64 882.062C1700.03 881.144 1698.79 879.847 1697.92 878.17C1697.05 876.485 1696.61 874.491 1696.61 872.19C1696.61 869.946 1697.05 867.976 1697.92 866.281C1698.79 864.586 1700.02 863.265 1701.6 862.318C1703.19 861.371 1705.05 860.898 1707.19 860.898C1708.63 860.898 1709.97 861.13 1711.21 861.594C1712.46 862.048 1713.55 862.735 1714.48 863.653C1715.42 864.572 1716.15 865.727 1716.67 867.119C1717.19 868.502 1717.45 870.121 1717.45 871.977V873.639H1699.03V869.889H1711.75C1711.75 869.018 1711.56 868.246 1711.19 867.574C1710.81 866.902 1710.28 866.376 1709.61 865.997C1708.95 865.609 1708.17 865.415 1707.29 865.415C1706.38 865.415 1705.56 865.628 1704.85 866.054C1704.15 866.471 1703.6 867.034 1703.2 867.744C1702.81 868.445 1702.6 869.226 1702.59 870.088V873.653C1702.59 874.733 1702.79 875.666 1703.19 876.452C1703.6 877.238 1704.17 877.844 1704.91 878.27C1705.65 878.696 1706.52 878.909 1707.54 878.909C1708.21 878.909 1708.82 878.814 1709.38 878.625C1709.94 878.436 1710.42 878.152 1710.82 877.773C1711.21 877.394 1711.52 876.93 1711.73 876.381L1717.32 876.75C1717.04 878.095 1716.46 879.269 1715.58 880.273C1714.7 881.267 1713.58 882.044 1712.19 882.602C1710.82 883.152 1709.24 883.426 1707.44 883.426ZM1727.45 853.909V883H1721.4V853.909H1727.45ZM1738.35 853.909V883H1732.3V853.909H1738.35Z" fill="black"/>
<path d="M1251.2 861.094H1244.97C1244.86 860.289 1244.63 859.574 1244.28 858.949C1243.93 858.314 1243.48 857.775 1242.93 857.33C1242.38 856.884 1241.75 856.544 1241.03 856.307C1240.32 856.07 1239.54 855.952 1238.71 855.952C1237.2 855.952 1235.89 856.326 1234.78 857.074C1233.66 857.812 1232.79 858.892 1232.18 860.312C1231.56 861.723 1231.25 863.437 1231.25 865.455C1231.25 867.528 1231.56 869.271 1232.18 870.682C1232.8 872.093 1233.67 873.158 1234.79 873.878C1235.91 874.598 1237.2 874.957 1238.67 874.957C1239.49 874.957 1240.25 874.848 1240.95 874.631C1241.66 874.413 1242.29 874.096 1242.84 873.679C1243.39 873.253 1243.85 872.737 1244.21 872.131C1244.58 871.525 1244.83 870.833 1244.97 870.057L1251.2 870.085C1251.04 871.42 1250.63 872.708 1249.99 873.949C1249.35 875.18 1248.5 876.283 1247.42 877.259C1246.35 878.224 1245.07 878.991 1243.58 879.56C1242.11 880.118 1240.43 880.398 1238.57 880.398C1235.97 880.398 1233.65 879.811 1231.61 878.636C1229.57 877.462 1227.96 875.762 1226.78 873.537C1225.6 871.312 1225.02 868.617 1225.02 865.455C1225.02 862.282 1225.61 859.583 1226.81 857.358C1228 855.133 1229.62 853.437 1231.66 852.273C1233.71 851.098 1236.01 850.511 1238.57 850.511C1240.25 850.511 1241.82 850.748 1243.26 851.222C1244.7 851.695 1245.99 852.386 1247.11 853.295C1248.22 854.195 1249.13 855.298 1249.83 856.605C1250.54 857.912 1251 859.408 1251.2 861.094ZM1265.44 880.426C1263.19 880.426 1261.26 879.972 1259.64 879.062C1258.03 878.144 1256.79 876.847 1255.92 875.17C1255.05 873.485 1254.61 871.491 1254.61 869.19C1254.61 866.946 1255.05 864.976 1255.92 863.281C1256.79 861.586 1258.02 860.265 1259.6 859.318C1261.19 858.371 1263.05 857.898 1265.19 857.898C1266.63 857.898 1267.97 858.13 1269.21 858.594C1270.46 859.048 1271.55 859.735 1272.48 860.653C1273.42 861.572 1274.15 862.727 1274.67 864.119C1275.19 865.502 1275.45 867.121 1275.45 868.977V870.639H1257.03V866.889H1269.75C1269.75 866.018 1269.56 865.246 1269.19 864.574C1268.81 863.902 1268.28 863.376 1267.61 862.997C1266.95 862.609 1266.17 862.415 1265.29 862.415C1264.38 862.415 1263.56 862.628 1262.85 863.054C1262.15 863.471 1261.6 864.034 1261.2 864.744C1260.81 865.445 1260.6 866.226 1260.59 867.088V870.653C1260.59 871.733 1260.79 872.666 1261.19 873.452C1261.6 874.238 1262.17 874.844 1262.91 875.27C1263.65 875.696 1264.52 875.909 1265.54 875.909C1266.21 875.909 1266.82 875.814 1267.38 875.625C1267.94 875.436 1268.42 875.152 1268.82 874.773C1269.21 874.394 1269.52 873.93 1269.73 873.381L1275.32 873.75C1275.04 875.095 1274.46 876.269 1273.58 877.273C1272.7 878.267 1271.58 879.044 1270.19 879.602C1268.82 880.152 1267.24 880.426 1265.44 880.426ZM1285.45 850.909V880H1279.4V850.909H1285.45ZM1296.35 850.909V880H1290.3V850.909H1296.35Z" fill="black"/>
<path d="M809.196 864.094H802.974C802.861 863.289 802.629 862.574 802.278 861.949C801.928 861.314 801.478 860.775 800.929 860.33C800.38 859.884 799.745 859.544 799.026 859.307C798.315 859.07 797.544 858.952 796.71 858.952C795.205 858.952 793.893 859.326 792.776 860.074C791.658 860.812 790.792 861.892 790.176 863.312C789.561 864.723 789.253 866.437 789.253 868.455C789.253 870.528 789.561 872.271 790.176 873.682C790.801 875.093 791.672 876.158 792.79 876.878C793.907 877.598 795.2 877.957 796.668 877.957C797.491 877.957 798.254 877.848 798.955 877.631C799.665 877.413 800.295 877.096 800.844 876.679C801.393 876.253 801.848 875.737 802.207 875.131C802.577 874.525 802.832 873.833 802.974 873.057L809.196 873.085C809.035 874.42 808.633 875.708 807.989 876.949C807.354 878.18 806.497 879.283 805.418 880.259C804.348 881.224 803.069 881.991 801.582 882.56C800.105 883.118 798.434 883.398 796.568 883.398C793.973 883.398 791.653 882.811 789.608 881.636C787.572 880.462 785.962 878.762 784.778 876.537C783.604 874.312 783.017 871.617 783.017 868.455C783.017 865.282 783.614 862.583 784.807 860.358C786 858.133 787.619 856.437 789.665 855.273C791.71 854.098 794.011 853.511 796.568 853.511C798.254 853.511 799.816 853.748 801.256 854.222C802.705 854.695 803.988 855.386 805.105 856.295C806.223 857.195 807.132 858.298 807.832 859.605C808.543 860.912 808.997 862.408 809.196 864.094ZM823.436 883.426C821.192 883.426 819.26 882.972 817.641 882.062C816.031 881.144 814.79 879.847 813.919 878.17C813.048 876.485 812.612 874.491 812.612 872.19C812.612 869.946 813.048 867.976 813.919 866.281C814.79 864.586 816.017 863.265 817.598 862.318C819.189 861.371 821.054 860.898 823.195 860.898C824.634 860.898 825.974 861.13 827.214 861.594C828.464 862.048 829.554 862.735 830.482 863.653C831.419 864.572 832.148 865.727 832.669 867.119C833.19 868.502 833.45 870.121 833.45 871.977V873.639H815.027V869.889H827.754C827.754 869.018 827.565 868.246 827.186 867.574C826.807 866.902 826.282 866.376 825.609 865.997C824.946 865.609 824.175 865.415 823.294 865.415C822.375 865.415 821.561 865.628 820.851 866.054C820.15 866.471 819.601 867.034 819.203 867.744C818.805 868.445 818.602 869.226 818.592 870.088V873.653C818.592 874.733 818.791 875.666 819.189 876.452C819.596 877.238 820.169 877.844 820.908 878.27C821.646 878.696 822.522 878.909 823.536 878.909C824.208 878.909 824.823 878.814 825.382 878.625C825.941 878.436 826.419 878.152 826.817 877.773C827.214 877.394 827.518 876.93 827.726 876.381L833.322 876.75C833.038 878.095 832.456 879.269 831.575 880.273C830.704 881.267 829.577 882.044 828.195 882.602C826.821 883.152 825.235 883.426 823.436 883.426ZM843.45 853.909V883H837.399V853.909H843.45ZM854.349 853.909V883H848.298V853.909H854.349Z" fill="black"/>
<path d="M911.705 1394.18V1388.09H940.375V1394.18H929.688V1423H922.392V1394.18H911.705ZM948.864 1423.49C947.193 1423.49 945.705 1423.2 944.398 1422.62C943.091 1422.03 942.057 1421.16 941.295 1420.02C940.545 1418.86 940.17 1417.41 940.17 1415.69C940.17 1414.23 940.438 1413.01 940.972 1412.02C941.506 1411.03 942.233 1410.24 943.153 1409.64C944.074 1409.03 945.119 1408.58 946.29 1408.27C947.472 1407.97 948.71 1407.75 950.006 1407.62C951.528 1407.47 952.756 1407.32 953.688 1407.18C954.619 1407.03 955.295 1406.82 955.716 1406.53C956.136 1406.25 956.347 1405.83 956.347 1405.27V1405.17C956.347 1404.09 956.006 1403.26 955.324 1402.66C954.653 1402.07 953.699 1401.78 952.46 1401.78C951.153 1401.78 950.114 1402.07 949.341 1402.65C948.568 1403.22 948.057 1403.93 947.807 1404.8L941.091 1404.25C941.432 1402.66 942.102 1401.28 943.102 1400.12C944.102 1398.95 945.392 1398.06 946.972 1397.43C948.563 1396.8 950.403 1396.48 952.494 1396.48C953.949 1396.48 955.341 1396.65 956.67 1396.99C958.011 1397.33 959.199 1397.86 960.233 1398.57C961.278 1399.29 962.102 1400.21 962.705 1401.34C963.307 1402.45 963.608 1403.78 963.608 1405.34V1423H956.722V1419.37H956.517C956.097 1420.19 955.534 1420.91 954.83 1421.53C954.125 1422.15 953.278 1422.63 952.29 1422.98C951.301 1423.32 950.159 1423.49 948.864 1423.49ZM950.943 1418.48C952.011 1418.48 952.955 1418.27 953.773 1417.85C954.591 1417.42 955.233 1416.84 955.699 1416.11C956.165 1415.39 956.398 1414.56 956.398 1413.64V1410.86C956.17 1411.01 955.858 1411.15 955.46 1411.27C955.074 1411.39 954.636 1411.49 954.148 1411.6C953.659 1411.69 953.17 1411.77 952.682 1411.85C952.193 1411.92 951.75 1411.98 951.352 1412.04C950.5 1412.16 949.756 1412.36 949.119 1412.64C948.483 1412.91 947.989 1413.28 947.636 1413.74C947.284 1414.2 947.108 1414.77 947.108 1415.45C947.108 1416.44 947.466 1417.19 948.182 1417.72C948.909 1418.23 949.83 1418.48 950.943 1418.48ZM969.378 1423V1388.09H976.639V1401.22H976.861C977.179 1400.51 977.639 1399.8 978.241 1399.07C978.855 1398.33 979.651 1397.72 980.628 1397.23C981.616 1396.73 982.844 1396.48 984.31 1396.48C986.219 1396.48 987.98 1396.98 989.594 1397.98C991.207 1398.97 992.497 1400.46 993.463 1402.46C994.429 1404.45 994.912 1406.94 994.912 1409.94C994.912 1412.86 994.44 1415.33 993.497 1417.34C992.565 1419.34 991.293 1420.86 989.679 1421.89C988.077 1422.91 986.281 1423.43 984.293 1423.43C982.884 1423.43 981.685 1423.19 980.696 1422.73C979.719 1422.26 978.918 1421.68 978.293 1420.97C977.668 1420.26 977.19 1419.53 976.861 1418.81H976.537V1423H969.378ZM976.486 1409.91C976.486 1411.47 976.702 1412.82 977.134 1413.98C977.565 1415.14 978.19 1416.05 979.009 1416.69C979.827 1417.33 980.821 1417.65 981.991 1417.65C983.173 1417.65 984.173 1417.32 984.991 1416.68C985.81 1416.02 986.429 1415.11 986.849 1413.95C987.281 1412.78 987.497 1411.43 987.497 1409.91C987.497 1408.4 987.287 1407.07 986.866 1405.92C986.446 1404.77 985.827 1403.87 985.009 1403.23C984.19 1402.58 983.185 1402.26 981.991 1402.26C980.81 1402.26 979.81 1402.57 978.991 1403.19C978.185 1403.82 977.565 1404.7 977.134 1405.85C976.702 1407 976.486 1408.35 976.486 1409.91ZM1007.02 1388.09V1423H999.757V1388.09H1007.02ZM1024.77 1423.51C1022.07 1423.51 1019.76 1422.97 1017.81 1421.88C1015.88 1420.77 1014.39 1419.22 1013.35 1417.2C1012.3 1415.18 1011.78 1412.79 1011.78 1410.03C1011.78 1407.34 1012.3 1404.97 1013.35 1402.94C1014.39 1400.9 1015.86 1399.32 1017.76 1398.18C1019.67 1397.05 1021.91 1396.48 1024.48 1396.48C1026.2 1396.48 1027.81 1396.76 1029.3 1397.31C1030.8 1397.86 1032.11 1398.68 1033.22 1399.78C1034.35 1400.89 1035.22 1402.27 1035.85 1403.94C1036.47 1405.6 1036.78 1407.55 1036.78 1409.77V1411.77H1014.68V1407.27H1029.95C1029.95 1406.22 1029.72 1405.3 1029.27 1404.49C1028.81 1403.68 1028.18 1403.05 1027.38 1402.6C1026.58 1402.13 1025.65 1401.9 1024.6 1401.9C1023.49 1401.9 1022.52 1402.15 1021.66 1402.66C1020.82 1403.16 1020.16 1403.84 1019.69 1404.69C1019.21 1405.53 1018.97 1406.47 1018.95 1407.51V1411.78C1018.95 1413.08 1019.19 1414.2 1019.67 1415.14C1020.16 1416.09 1020.85 1416.81 1021.73 1417.32C1022.62 1417.84 1023.67 1418.09 1024.89 1418.09C1025.69 1418.09 1026.43 1417.98 1027.1 1417.75C1027.77 1417.52 1028.35 1417.18 1028.82 1416.73C1029.3 1416.27 1029.66 1415.72 1029.91 1415.06L1036.63 1415.5C1036.29 1417.11 1035.59 1418.52 1034.53 1419.73C1033.49 1420.92 1032.14 1421.85 1030.48 1422.52C1028.83 1423.18 1026.93 1423.51 1024.77 1423.51ZM1052.77 1423V1388.09H1075.88V1394.18H1060.15V1402.49H1074.35V1408.58H1060.15V1423H1052.77ZM1090.62 1423.51C1087.97 1423.51 1085.68 1422.95 1083.75 1421.82C1081.83 1420.69 1080.35 1419.11 1079.3 1417.09C1078.25 1415.05 1077.73 1412.69 1077.73 1410.01C1077.73 1407.31 1078.25 1404.94 1079.3 1402.92C1080.35 1400.89 1081.83 1399.31 1083.75 1398.18C1085.68 1397.05 1087.97 1396.48 1090.62 1396.48C1093.27 1396.48 1095.55 1397.05 1097.47 1398.18C1099.4 1399.31 1100.89 1400.89 1101.94 1402.92C1102.98 1404.94 1103.5 1407.31 1103.5 1410.01C1103.5 1412.69 1102.98 1415.05 1101.94 1417.09C1100.89 1419.11 1099.4 1420.69 1097.47 1421.82C1095.55 1422.95 1093.27 1423.51 1090.62 1423.51ZM1090.65 1417.89C1091.86 1417.89 1092.86 1417.55 1093.67 1416.86C1094.48 1416.17 1095.08 1415.23 1095.49 1414.03C1095.91 1412.84 1096.12 1411.48 1096.12 1409.96C1096.12 1408.44 1095.91 1407.08 1095.49 1405.89C1095.08 1404.69 1094.48 1403.75 1093.67 1403.06C1092.86 1402.36 1091.86 1402.02 1090.65 1402.02C1089.44 1402.02 1088.41 1402.36 1087.58 1403.06C1086.77 1403.75 1086.15 1404.69 1085.73 1405.89C1085.32 1407.08 1085.11 1408.44 1085.11 1409.96C1085.11 1411.48 1085.32 1412.84 1085.73 1414.03C1086.15 1415.23 1086.77 1416.17 1087.58 1416.86C1088.41 1417.55 1089.44 1417.89 1090.65 1417.89ZM1120.06 1423.51C1117.41 1423.51 1115.12 1422.95 1113.19 1421.82C1111.27 1420.69 1109.78 1419.11 1108.74 1417.09C1107.69 1415.05 1107.17 1412.69 1107.17 1410.01C1107.17 1407.31 1107.69 1404.94 1108.74 1402.92C1109.78 1400.89 1111.27 1399.31 1113.19 1398.18C1115.12 1397.05 1117.41 1396.48 1120.06 1396.48C1122.7 1396.48 1124.99 1397.05 1126.91 1398.18C1128.84 1399.31 1130.33 1400.89 1131.37 1402.92C1132.42 1404.94 1132.94 1407.31 1132.94 1410.01C1132.94 1412.69 1132.42 1415.05 1131.37 1417.09C1130.33 1419.11 1128.84 1420.69 1126.91 1421.82C1124.99 1422.95 1122.7 1423.51 1120.06 1423.51ZM1120.09 1417.89C1121.29 1417.89 1122.3 1417.55 1123.11 1416.86C1123.91 1416.17 1124.52 1415.23 1124.93 1414.03C1125.35 1412.84 1125.56 1411.48 1125.56 1409.96C1125.56 1408.44 1125.35 1407.08 1124.93 1405.89C1124.52 1404.69 1123.91 1403.75 1123.11 1403.06C1122.3 1402.36 1121.29 1402.02 1120.09 1402.02C1118.87 1402.02 1117.85 1402.36 1117.02 1403.06C1116.2 1403.75 1115.58 1404.69 1115.16 1405.89C1114.75 1407.08 1114.55 1408.44 1114.55 1409.96C1114.55 1411.48 1114.75 1412.84 1115.16 1414.03C1115.58 1415.23 1116.2 1416.17 1117.02 1416.86C1117.85 1417.55 1118.87 1417.89 1120.09 1417.89ZM1151.59 1396.82V1402.27H1135.82V1396.82H1151.59ZM1139.4 1390.55H1146.66V1414.95C1146.66 1415.62 1146.77 1416.15 1146.97 1416.52C1147.17 1416.89 1147.46 1417.14 1147.82 1417.29C1148.2 1417.44 1148.63 1417.51 1149.12 1417.51C1149.46 1417.51 1149.8 1417.48 1150.14 1417.43C1150.48 1417.36 1150.74 1417.31 1150.92 1417.27L1152.07 1422.68C1151.7 1422.79 1151.19 1422.92 1150.53 1423.07C1149.87 1423.23 1149.07 1423.32 1148.13 1423.36C1146.38 1423.43 1144.85 1423.19 1143.53 1422.66C1142.22 1422.12 1141.2 1421.3 1140.48 1420.17C1139.75 1419.05 1139.39 1417.62 1139.4 1415.91V1390.55ZM1167.97 1423.51C1165.28 1423.51 1162.96 1422.97 1161.02 1421.88C1159.08 1420.77 1157.6 1419.22 1156.55 1417.2C1155.5 1415.18 1154.98 1412.79 1154.98 1410.03C1154.98 1407.34 1155.5 1404.97 1156.55 1402.94C1157.6 1400.9 1159.07 1399.32 1160.96 1398.18C1162.87 1397.05 1165.11 1396.48 1167.68 1396.48C1169.41 1396.48 1171.02 1396.76 1172.5 1397.31C1174 1397.86 1175.31 1398.68 1176.42 1399.78C1177.55 1400.89 1178.42 1402.27 1179.05 1403.94C1179.67 1405.6 1179.99 1407.55 1179.99 1409.77V1411.77H1157.88V1407.27H1173.15C1173.15 1406.22 1172.92 1405.3 1172.47 1404.49C1172.02 1403.68 1171.38 1403.05 1170.58 1402.6C1169.78 1402.13 1168.86 1401.9 1167.8 1401.9C1166.7 1401.9 1165.72 1402.15 1164.87 1402.66C1164.03 1403.16 1163.37 1403.84 1162.89 1404.69C1162.41 1405.53 1162.17 1406.47 1162.16 1407.51V1411.78C1162.16 1413.08 1162.4 1414.2 1162.87 1415.14C1163.36 1416.09 1164.05 1416.81 1164.94 1417.32C1165.82 1417.84 1166.87 1418.09 1168.09 1418.09C1168.9 1418.09 1169.63 1417.98 1170.31 1417.75C1170.98 1417.52 1171.55 1417.18 1172.03 1416.73C1172.5 1416.27 1172.87 1415.72 1173.12 1415.06L1179.83 1415.5C1179.49 1417.11 1178.79 1418.52 1177.74 1419.73C1176.69 1420.92 1175.34 1421.85 1173.68 1422.52C1172.03 1423.18 1170.13 1423.51 1167.97 1423.51ZM1184.73 1423V1396.82H1191.77V1401.39H1192.04C1192.52 1399.76 1193.32 1398.53 1194.44 1397.7C1195.57 1396.86 1196.86 1396.44 1198.33 1396.44C1198.69 1396.44 1199.08 1396.47 1199.5 1396.51C1199.92 1396.56 1200.29 1396.62 1200.61 1396.7V1403.14C1200.27 1403.04 1199.8 1402.95 1199.2 1402.87C1198.6 1402.79 1198.04 1402.75 1197.54 1402.75C1196.48 1402.75 1195.52 1402.98 1194.68 1403.45C1193.85 1403.9 1193.19 1404.54 1192.7 1405.36C1192.23 1406.18 1191.99 1407.12 1191.99 1408.19V1423H1184.73Z" fill="black"/>
<path d="M861.705 1572.18V1566.09H890.375V1572.18H879.688V1601H872.392V1572.18H861.705ZM898.864 1601.49C897.193 1601.49 895.705 1601.2 894.398 1600.62C893.091 1600.03 892.057 1599.16 891.295 1598.02C890.545 1596.86 890.17 1595.41 890.17 1593.69C890.17 1592.23 890.438 1591.01 890.972 1590.02C891.506 1589.03 892.233 1588.24 893.153 1587.64C894.074 1587.03 895.119 1586.58 896.29 1586.27C897.472 1585.97 898.71 1585.75 900.006 1585.62C901.528 1585.47 902.756 1585.32 903.688 1585.18C904.619 1585.03 905.295 1584.82 905.716 1584.53C906.136 1584.25 906.347 1583.83 906.347 1583.27V1583.17C906.347 1582.09 906.006 1581.26 905.324 1580.66C904.653 1580.07 903.699 1579.78 902.46 1579.78C901.153 1579.78 900.114 1580.07 899.341 1580.65C898.568 1581.22 898.057 1581.93 897.807 1582.8L891.091 1582.25C891.432 1580.66 892.102 1579.28 893.102 1578.12C894.102 1576.95 895.392 1576.06 896.972 1575.43C898.563 1574.8 900.403 1574.48 902.494 1574.48C903.949 1574.48 905.341 1574.65 906.67 1574.99C908.011 1575.33 909.199 1575.86 910.233 1576.57C911.278 1577.29 912.102 1578.21 912.705 1579.34C913.307 1580.45 913.608 1581.78 913.608 1583.34V1601H906.722V1597.37H906.517C906.097 1598.19 905.534 1598.91 904.83 1599.53C904.125 1600.15 903.278 1600.63 902.29 1600.98C901.301 1601.32 900.159 1601.49 898.864 1601.49ZM900.943 1596.48C902.011 1596.48 902.955 1596.27 903.773 1595.85C904.591 1595.42 905.233 1594.84 905.699 1594.11C906.165 1593.39 906.398 1592.56 906.398 1591.64V1588.86C906.17 1589.01 905.858 1589.15 905.46 1589.27C905.074 1589.39 904.636 1589.49 904.148 1589.6C903.659 1589.69 903.17 1589.77 902.682 1589.85C902.193 1589.92 901.75 1589.98 901.352 1590.04C900.5 1590.16 899.756 1590.36 899.119 1590.64C898.483 1590.91 897.989 1591.28 897.636 1591.74C897.284 1592.2 897.108 1592.77 897.108 1593.45C897.108 1594.44 897.466 1595.19 898.182 1595.72C898.909 1596.23 899.83 1596.48 900.943 1596.48ZM919.378 1601V1566.09H926.639V1579.22H926.861C927.179 1578.51 927.639 1577.8 928.241 1577.07C928.855 1576.33 929.651 1575.72 930.628 1575.23C931.616 1574.73 932.844 1574.48 934.31 1574.48C936.219 1574.48 937.98 1574.98 939.594 1575.98C941.207 1576.97 942.497 1578.46 943.463 1580.46C944.429 1582.45 944.912 1584.94 944.912 1587.94C944.912 1590.86 944.44 1593.33 943.497 1595.34C942.565 1597.34 941.293 1598.86 939.679 1599.89C938.077 1600.91 936.281 1601.43 934.293 1601.43C932.884 1601.43 931.685 1601.19 930.696 1600.73C929.719 1600.26 928.918 1599.68 928.293 1598.97C927.668 1598.26 927.19 1597.53 926.861 1596.81H926.537V1601H919.378ZM926.486 1587.91C926.486 1589.47 926.702 1590.82 927.134 1591.98C927.565 1593.14 928.19 1594.05 929.009 1594.69C929.827 1595.33 930.821 1595.65 931.991 1595.65C933.173 1595.65 934.173 1595.32 934.991 1594.68C935.81 1594.02 936.429 1593.11 936.849 1591.95C937.281 1590.78 937.497 1589.43 937.497 1587.91C937.497 1586.4 937.287 1585.07 936.866 1583.92C936.446 1582.77 935.827 1581.87 935.009 1581.23C934.19 1580.58 933.185 1580.26 931.991 1580.26C930.81 1580.26 929.81 1580.57 928.991 1581.19C928.185 1581.82 927.565 1582.7 927.134 1583.85C926.702 1585 926.486 1586.35 926.486 1587.91ZM957.018 1566.09V1601H949.757V1566.09H957.018ZM974.767 1601.51C972.074 1601.51 969.756 1600.97 967.812 1599.88C965.881 1598.77 964.392 1597.22 963.347 1595.2C962.301 1593.18 961.778 1590.79 961.778 1588.03C961.778 1585.34 962.301 1582.97 963.347 1580.94C964.392 1578.9 965.864 1577.32 967.761 1576.18C969.67 1575.05 971.909 1574.48 974.477 1574.48C976.205 1574.48 977.813 1574.76 979.301 1575.31C980.801 1575.86 982.108 1576.68 983.222 1577.78C984.347 1578.89 985.222 1580.27 985.847 1581.94C986.472 1583.6 986.784 1585.55 986.784 1587.77V1589.77H964.676V1585.27H979.949C979.949 1584.22 979.722 1583.3 979.267 1582.49C978.813 1581.68 978.182 1581.05 977.375 1580.6C976.58 1580.13 975.653 1579.9 974.597 1579.9C973.494 1579.9 972.517 1580.15 971.665 1580.66C970.824 1581.16 970.165 1581.84 969.688 1582.69C969.21 1583.53 968.966 1584.47 968.955 1585.51V1589.78C968.955 1591.08 969.193 1592.2 969.67 1593.14C970.159 1594.09 970.847 1594.81 971.733 1595.32C972.619 1595.84 973.67 1596.09 974.886 1596.09C975.693 1596.09 976.432 1595.98 977.102 1595.75C977.773 1595.52 978.347 1595.18 978.824 1594.73C979.301 1594.27 979.665 1593.72 979.915 1593.06L986.631 1593.5C986.29 1595.11 985.591 1596.52 984.534 1597.73C983.489 1598.92 982.136 1599.85 980.477 1600.52C978.83 1601.18 976.926 1601.51 974.767 1601.51ZM1002.77 1601V1566.09H1016.54C1019.19 1566.09 1021.44 1566.6 1023.31 1567.61C1025.17 1568.61 1026.59 1570 1027.57 1571.78C1028.56 1573.56 1029.05 1575.6 1029.05 1577.92C1029.05 1580.24 1028.55 1582.28 1027.55 1584.06C1026.55 1585.83 1025.1 1587.21 1023.21 1588.2C1021.32 1589.19 1019.04 1589.68 1016.35 1589.68H1007.58V1583.77H1015.16C1016.58 1583.77 1017.75 1583.52 1018.67 1583.03C1019.6 1582.53 1020.3 1581.85 1020.75 1580.97C1021.22 1580.09 1021.45 1579.07 1021.45 1577.92C1021.45 1576.76 1021.22 1575.75 1020.75 1574.89C1020.3 1574.01 1019.6 1573.34 1018.67 1572.86C1017.74 1572.37 1016.56 1572.12 1015.13 1572.12H1010.15V1601H1002.77ZM1040.47 1601.49C1038.8 1601.49 1037.31 1601.2 1036.01 1600.62C1034.7 1600.03 1033.67 1599.16 1032.9 1598.02C1032.15 1596.86 1031.78 1595.41 1031.78 1593.69C1031.78 1592.23 1032.05 1591.01 1032.58 1590.02C1033.12 1589.03 1033.84 1588.24 1034.76 1587.64C1035.68 1587.03 1036.73 1586.58 1037.9 1586.27C1039.08 1585.97 1040.32 1585.75 1041.62 1585.62C1043.14 1585.47 1044.37 1585.32 1045.3 1585.18C1046.23 1585.03 1046.9 1584.82 1047.33 1584.53C1047.75 1584.25 1047.96 1583.83 1047.96 1583.27V1583.17C1047.96 1582.09 1047.62 1581.26 1046.93 1580.66C1046.26 1580.07 1045.31 1579.78 1044.07 1579.78C1042.76 1579.78 1041.72 1580.07 1040.95 1580.65C1040.18 1581.22 1039.67 1581.93 1039.42 1582.8L1032.7 1582.25C1033.04 1580.66 1033.71 1579.28 1034.71 1578.12C1035.71 1576.95 1037 1576.06 1038.58 1575.43C1040.17 1574.8 1042.01 1574.48 1044.1 1574.48C1045.56 1574.48 1046.95 1574.65 1048.28 1574.99C1049.62 1575.33 1050.81 1575.86 1051.84 1576.57C1052.89 1577.29 1053.71 1578.21 1054.31 1579.34C1054.92 1580.45 1055.22 1581.78 1055.22 1583.34V1601H1048.33V1597.37H1048.13C1047.71 1598.19 1047.14 1598.91 1046.44 1599.53C1045.73 1600.15 1044.89 1600.63 1043.9 1600.98C1042.91 1601.32 1041.77 1601.49 1040.47 1601.49ZM1042.55 1596.48C1043.62 1596.48 1044.56 1596.27 1045.38 1595.85C1046.2 1595.42 1046.84 1594.84 1047.31 1594.11C1047.77 1593.39 1048.01 1592.56 1048.01 1591.64V1588.86C1047.78 1589.01 1047.47 1589.15 1047.07 1589.27C1046.68 1589.39 1046.25 1589.49 1045.76 1589.6C1045.27 1589.69 1044.78 1589.77 1044.29 1589.85C1043.8 1589.92 1043.36 1589.98 1042.96 1590.04C1042.11 1590.16 1041.37 1590.36 1040.73 1590.64C1040.09 1590.91 1039.6 1591.28 1039.25 1591.74C1038.89 1592.2 1038.72 1592.77 1038.72 1593.45C1038.72 1594.44 1039.08 1595.19 1039.79 1595.72C1040.52 1596.23 1041.44 1596.48 1042.55 1596.48ZM1072.65 1611.36C1070.29 1611.36 1068.28 1611.04 1066.6 1610.39C1064.92 1609.76 1063.6 1608.89 1062.61 1607.78C1061.62 1606.68 1060.98 1605.44 1060.68 1604.07L1067.4 1603.16C1067.6 1603.69 1067.92 1604.18 1068.37 1604.63C1068.81 1605.09 1069.4 1605.45 1070.12 1605.72C1070.86 1606.01 1071.76 1606.15 1072.82 1606.15C1074.4 1606.15 1075.7 1605.76 1076.72 1604.99C1077.75 1604.23 1078.27 1602.95 1078.27 1601.15V1596.36H1077.96C1077.65 1597.09 1077.17 1597.78 1076.53 1598.43C1075.9 1599.07 1075.08 1599.6 1074.08 1600.01C1073.08 1600.42 1071.88 1600.62 1070.5 1600.62C1068.53 1600.62 1066.74 1600.17 1065.13 1599.26C1063.53 1598.34 1062.25 1596.94 1061.29 1595.05C1060.35 1593.15 1059.88 1590.76 1059.88 1587.86C1059.88 1584.89 1060.36 1582.41 1061.33 1580.43C1062.29 1578.44 1063.58 1576.95 1065.18 1575.96C1066.79 1574.97 1068.56 1574.48 1070.48 1574.48C1071.95 1574.48 1073.17 1574.73 1074.16 1575.23C1075.15 1575.72 1075.95 1576.33 1076.55 1577.07C1077.16 1577.8 1077.63 1578.51 1077.96 1579.22H1078.24V1574.82H1085.45V1601.26C1085.45 1603.48 1084.9 1605.35 1083.81 1606.85C1082.72 1608.35 1081.21 1609.47 1079.28 1610.22C1077.36 1610.98 1075.15 1611.36 1072.65 1611.36ZM1072.8 1595.17C1073.97 1595.17 1074.96 1594.88 1075.77 1594.3C1076.58 1593.71 1077.21 1592.87 1077.64 1591.78C1078.08 1590.68 1078.31 1589.36 1078.31 1587.82C1078.31 1586.29 1078.09 1584.96 1077.66 1583.84C1077.23 1582.7 1076.6 1581.82 1075.78 1581.19C1074.96 1580.57 1073.97 1580.26 1072.8 1580.26C1071.61 1580.26 1070.6 1580.58 1069.78 1581.23C1068.96 1581.86 1068.35 1582.75 1067.92 1583.89C1067.5 1585.02 1067.29 1586.34 1067.29 1587.82C1067.29 1589.34 1067.5 1590.64 1067.92 1591.74C1068.36 1592.84 1068.98 1593.68 1069.78 1594.28C1070.6 1594.87 1071.61 1595.17 1072.8 1595.17ZM1091.23 1601V1574.82H1098.49V1601H1091.23ZM1094.87 1571.44C1093.79 1571.44 1092.87 1571.09 1092.1 1570.37C1091.33 1569.64 1090.95 1568.77 1090.95 1567.76C1090.95 1566.76 1091.33 1565.9 1092.1 1565.19C1092.87 1564.46 1093.79 1564.1 1094.87 1564.1C1095.95 1564.1 1096.87 1564.46 1097.63 1565.19C1098.41 1565.9 1098.79 1566.76 1098.79 1567.76C1098.79 1568.77 1098.41 1569.64 1097.63 1570.37C1096.87 1571.09 1095.95 1571.44 1094.87 1571.44ZM1111.57 1585.86V1601H1104.3V1574.82H1111.22V1579.44H1111.53C1112.11 1577.91 1113.08 1576.71 1114.45 1575.82C1115.81 1574.93 1117.46 1574.48 1119.41 1574.48C1121.22 1574.48 1122.81 1574.88 1124.16 1575.67C1125.51 1576.47 1126.57 1577.6 1127.32 1579.08C1128.07 1580.55 1128.44 1582.3 1128.44 1584.33V1601H1121.18V1585.62C1121.19 1584.02 1120.78 1582.77 1119.95 1581.88C1119.12 1580.97 1117.98 1580.51 1116.53 1580.51C1115.55 1580.51 1114.68 1580.72 1113.93 1581.14C1113.2 1581.56 1112.62 1582.18 1112.2 1582.98C1111.79 1583.78 1111.58 1584.74 1111.57 1585.86ZM1141.63 1601.49C1139.96 1601.49 1138.47 1601.2 1137.16 1600.62C1135.86 1600.03 1134.82 1599.16 1134.06 1598.02C1133.31 1596.86 1132.94 1595.41 1132.94 1593.69C1132.94 1592.23 1133.2 1591.01 1133.74 1590.02C1134.27 1589.03 1135 1588.24 1135.92 1587.64C1136.84 1587.03 1137.88 1586.58 1139.06 1586.27C1140.24 1585.97 1141.48 1585.75 1142.77 1585.62C1144.29 1585.47 1145.52 1585.32 1146.45 1585.18C1147.38 1585.03 1148.06 1584.82 1148.48 1584.53C1148.9 1584.25 1149.11 1583.83 1149.11 1583.27V1583.17C1149.11 1582.09 1148.77 1581.26 1148.09 1580.66C1147.42 1580.07 1146.46 1579.78 1145.23 1579.78C1143.92 1579.78 1142.88 1580.07 1142.11 1580.65C1141.33 1581.22 1140.82 1581.93 1140.57 1582.8L1133.86 1582.25C1134.2 1580.66 1134.87 1579.28 1135.87 1578.12C1136.87 1576.95 1138.16 1576.06 1139.74 1575.43C1141.33 1574.8 1143.17 1574.48 1145.26 1574.48C1146.71 1574.48 1148.11 1574.65 1149.44 1574.99C1150.78 1575.33 1151.96 1575.86 1153 1576.57C1154.04 1577.29 1154.87 1578.21 1155.47 1579.34C1156.07 1580.45 1156.37 1581.78 1156.37 1583.34V1601H1149.49V1597.37H1149.28C1148.86 1598.19 1148.3 1598.91 1147.6 1599.53C1146.89 1600.15 1146.04 1600.63 1145.06 1600.98C1144.07 1601.32 1142.92 1601.49 1141.63 1601.49ZM1143.71 1596.48C1144.78 1596.48 1145.72 1596.27 1146.54 1595.85C1147.36 1595.42 1148 1594.84 1148.46 1594.11C1148.93 1593.39 1149.16 1592.56 1149.16 1591.64V1588.86C1148.94 1589.01 1148.62 1589.15 1148.23 1589.27C1147.84 1589.39 1147.4 1589.49 1146.91 1589.6C1146.42 1589.69 1145.94 1589.77 1145.45 1589.85C1144.96 1589.92 1144.52 1589.98 1144.12 1590.04C1143.27 1590.16 1142.52 1590.36 1141.88 1590.64C1141.25 1590.91 1140.75 1591.28 1140.4 1591.74C1140.05 1592.2 1139.87 1592.77 1139.87 1593.45C1139.87 1594.44 1140.23 1595.19 1140.95 1595.72C1141.67 1596.23 1142.6 1596.48 1143.71 1596.48ZM1175.93 1574.82V1580.27H1160.17V1574.82H1175.93ZM1163.75 1568.55H1171.01V1592.95C1171.01 1593.62 1171.11 1594.15 1171.31 1594.52C1171.52 1594.89 1171.8 1595.14 1172.17 1595.29C1172.54 1595.44 1172.97 1595.51 1173.46 1595.51C1173.8 1595.51 1174.14 1595.48 1174.48 1595.43C1174.83 1595.36 1175.09 1595.31 1175.27 1595.27L1176.41 1600.68C1176.05 1600.79 1175.54 1600.92 1174.88 1601.07C1174.22 1601.23 1173.42 1601.32 1172.47 1601.36C1170.72 1601.43 1169.19 1601.19 1167.87 1600.66C1166.56 1600.12 1165.55 1599.3 1164.82 1598.17C1164.09 1597.05 1163.73 1595.62 1163.75 1593.91V1568.55ZM1180.66 1601V1574.82H1187.92V1601H1180.66ZM1184.31 1571.44C1183.23 1571.44 1182.31 1571.09 1181.53 1570.37C1180.77 1569.64 1180.39 1568.77 1180.39 1567.76C1180.39 1566.76 1180.77 1565.9 1181.53 1565.19C1182.31 1564.46 1183.23 1564.1 1184.31 1564.1C1185.39 1564.1 1186.31 1564.46 1187.07 1565.19C1187.85 1565.9 1188.23 1566.76 1188.23 1567.76C1188.23 1568.77 1187.85 1569.64 1187.07 1570.37C1186.31 1571.09 1185.39 1571.44 1184.31 1571.44ZM1205.57 1601.51C1202.92 1601.51 1200.63 1600.95 1198.7 1599.82C1196.78 1598.69 1195.3 1597.11 1194.25 1595.09C1193.21 1593.05 1192.68 1590.69 1192.68 1588.01C1192.68 1585.31 1193.21 1582.94 1194.25 1580.92C1195.3 1578.89 1196.78 1577.31 1198.7 1576.18C1200.63 1575.05 1202.92 1574.48 1205.57 1574.48C1208.22 1574.48 1210.5 1575.05 1212.42 1576.18C1214.36 1577.31 1215.84 1578.89 1216.89 1580.92C1217.93 1582.94 1218.46 1585.31 1218.46 1588.01C1218.46 1590.69 1217.93 1593.05 1216.89 1595.09C1215.84 1597.11 1214.36 1598.69 1212.42 1599.82C1210.5 1600.95 1208.22 1601.51 1205.57 1601.51ZM1205.61 1595.89C1206.81 1595.89 1207.82 1595.55 1208.62 1594.86C1209.43 1594.17 1210.04 1593.23 1210.45 1592.03C1210.87 1590.84 1211.08 1589.48 1211.08 1587.96C1211.08 1586.44 1210.87 1585.08 1210.45 1583.89C1210.04 1582.69 1209.43 1581.75 1208.62 1581.06C1207.82 1580.36 1206.81 1580.02 1205.61 1580.02C1204.39 1580.02 1203.37 1580.36 1202.54 1581.06C1201.72 1581.75 1201.1 1582.69 1200.68 1583.89C1200.27 1585.08 1200.07 1586.44 1200.07 1587.96C1200.07 1589.48 1200.27 1590.84 1200.68 1592.03C1201.1 1593.23 1201.72 1594.17 1202.54 1594.86C1203.37 1595.55 1204.39 1595.89 1205.61 1595.89ZM1230.44 1585.86V1601H1223.18V1574.82H1230.1V1579.44H1230.41C1230.99 1577.91 1231.96 1576.71 1233.32 1575.82C1234.68 1574.93 1236.34 1574.48 1238.28 1574.48C1240.1 1574.48 1241.68 1574.88 1243.04 1575.67C1244.39 1576.47 1245.44 1577.6 1246.19 1579.08C1246.94 1580.55 1247.32 1582.3 1247.32 1584.33V1601H1240.05V1585.62C1240.07 1584.02 1239.66 1582.77 1238.83 1581.88C1238 1580.97 1236.86 1580.51 1235.4 1580.51C1234.42 1580.51 1233.56 1580.72 1232.81 1581.14C1232.07 1581.56 1231.49 1582.18 1231.07 1582.98C1230.66 1583.78 1230.45 1584.74 1230.44 1585.86Z" fill="black"/>
</svg>
