<svg width="24" height="24" viewBox="0 0 24 24" fill="none" xmlns="http://www.w3.org/2000/svg">
<g clip-path="url(#clip0_48_1483)">
<path fill-rule="evenodd" clip-rule="evenodd" d="M15.466 9.84973C15.466 7.72358 13.7331 6 11.5955 6C11.2666 6 11 6.26517 11 6.59227C11 6.91937 11.2666 7.18453 11.5955 7.18453C13.0754 7.18453 14.2751 8.37778 14.2751 9.84973C14.2751 10.1768 14.5417 10.442 14.8706 10.442C15.1994 10.442 15.466 10.1768 15.466 9.84973ZM15.639 15.1714C15.4168 14.977 15.2272 15.1217 15 15.322C14.7538 15.5389 14.5825 15.7646 14.8006 16.0094L19.9588 21.8005L20.0118 21.853C20.2341 22.0474 20.5722 22.0513 20.7994 21.851C21.0456 21.6341 21.0683 21.2598 20.8503 21.015L15.692 15.2239L15.639 15.1714Z" fill="#0073E6"/>
<path fill-rule="evenodd" clip-rule="evenodd" d="M10.8602 2C15.2013 2 18.7204 5.53998 18.7204 9.90676C18.7204 14.2735 15.2013 17.8135 10.8602 17.8135C6.51913 17.8135 3 14.2735 3 9.90676C3 5.53998 6.51913 2 10.8602 2ZM10.8602 3.198C7.17689 3.198 4.19096 6.18426 4.19096 9.868C4.19096 13.5517 7.17689 16.538 10.8602 16.538C14.5436 16.538 17.5295 13.5517 17.5295 9.868C17.5295 6.18426 14.5436 3.198 10.8602 3.198Z" fill="#1D1D1D"/>
</g>
<defs>
<clipPath id="clip0_48_1483">
<rect width="24" height="24" fill="white"/>
</clipPath>
</defs>
</svg>
