<svg width="24" height="24" viewBox="0 0 24 24" fill="none" xmlns="http://www.w3.org/2000/svg">
<g clip-path="url(#clip0_31_948)">
<path fill-rule="evenodd" clip-rule="evenodd" d="M22 11L22 19.28C22 20.7822 20.7649 22 19.2414 22H4.75862C3.23508 22 2 20.7822 2 19.28L2 11V10L2 7.72C2 6.21779 3.23508 5 4.75862 5H19.2414C20.7649 5 22 6.21779 22 7.72L22 10V11ZM21 11V19.5714C21 20.3604 20.3553 21 19.56 21H4.44C3.64471 21 3 20.3604 3 19.5714V11H21ZM21 10V7.42857C21 6.63959 20.3553 6 19.56 6H4.44C3.64471 6 3 6.63959 3 7.42857V10H21ZM9.8486 13.0382C9.8486 12.7798 10.058 12.5704 10.3164 12.5704H10.547C10.8054 12.5704 11.0148 12.7798 11.0148 13.0382V13.284C11.0148 13.5423 10.8054 13.7517 10.547 13.7517H10.3164C10.058 13.7517 9.8486 13.5423 9.8486 13.284V13.0382ZM9.8486 15.818C9.8486 15.5596 10.058 15.3502 10.3164 15.3502H10.547C10.8054 15.3502 11.0148 15.5596 11.0148 15.818V16.0638C11.0148 16.3221 10.8054 16.5316 10.547 16.5316H10.3164C10.058 16.5316 9.8486 16.3221 9.8486 16.0638V15.818ZM10.3164 18.13C10.058 18.13 9.8486 18.3394 9.8486 18.5977V18.8436C9.8486 19.1019 10.058 19.3113 10.3164 19.3113H10.547C10.8054 19.3113 11.0148 19.1019 11.0148 18.8436V18.5977C11.0148 18.3394 10.8054 18.13 10.547 18.13H10.3164ZM7.10413 15.818C7.10413 15.5596 7.31356 15.3502 7.5719 15.3502H7.80255C8.06089 15.3502 8.27032 15.5596 8.27032 15.818V16.0638C8.27032 16.3221 8.06089 16.5316 7.80255 16.5316H7.5719C7.31356 16.5316 7.10413 16.3221 7.10413 16.0638V15.818ZM7.5719 12.5704C7.31356 12.5704 7.10413 12.7798 7.10413 13.0382V13.284C7.10413 13.5423 7.31356 13.7517 7.5719 13.7517H7.80255C8.06089 13.7517 8.27032 13.5423 8.27032 13.284V13.0382C8.27032 12.7798 8.06089 12.5704 7.80255 12.5704H7.5719ZM7.10413 18.5977C7.10413 18.3394 7.31356 18.13 7.5719 18.13H7.80255C8.06089 18.13 8.27032 18.3394 8.27032 18.5977V18.8436C8.27032 19.1019 8.06089 19.3113 7.80255 19.3113H7.5719C7.31356 19.3113 7.10413 19.1019 7.10413 18.8436V18.5977ZM13.0596 15.3502C12.8012 15.3502 12.5918 15.5596 12.5918 15.818V16.0638C12.5918 16.3221 12.8012 16.5316 13.0596 16.5316H13.2902C13.5486 16.5316 13.758 16.3221 13.758 16.0638V15.818C13.758 15.5596 13.5486 15.3502 13.2902 15.3502H13.0596ZM12.5918 13.0382C12.5918 12.7798 12.8012 12.5704 13.0596 12.5704H13.2902C13.5486 12.5704 13.758 12.7798 13.758 13.0382V13.284C13.758 13.5423 13.5486 13.7517 13.2902 13.7517H13.0596C12.8012 13.7517 12.5918 13.5423 12.5918 13.284V13.0382ZM13.0596 18.13C12.8012 18.13 12.5918 18.3394 12.5918 18.5977V18.8436C12.5918 19.1019 12.8012 19.3113 13.0596 19.3113H13.2902C13.5486 19.3113 13.758 19.1019 13.758 18.8436V18.5977C13.758 18.3394 13.5486 18.13 13.2902 18.13H13.0596ZM15.3363 15.818C15.3363 15.5596 15.5457 15.3502 15.804 15.3502H16.0347C16.293 15.3502 16.5025 15.5596 16.5025 15.818V16.0638C16.5025 16.3221 16.293 16.5316 16.0347 16.5316H15.804C15.5457 16.5316 15.3363 16.3221 15.3363 16.0638V15.818ZM15.804 12.5704C15.5457 12.5704 15.3363 12.7798 15.3363 13.0382V13.284C15.3363 13.5423 15.5457 13.7517 15.804 13.7517H16.0347C16.293 13.7517 16.5025 13.5423 16.5025 13.284V13.0382C16.5025 12.7798 16.293 12.5704 16.0347 12.5704H15.804Z" fill="#1D1D1D"/>
<path fill-rule="evenodd" clip-rule="evenodd" d="M8.70906 2.62015C8.66991 2.27101 8.38345 2 8.03589 2C7.66158 2 7.35815 2.3143 7.35815 2.70202V7.31173L7.36271 7.3936C7.40186 7.74274 7.68832 8.01375 8.03589 8.01375C8.41019 8.01375 8.71362 7.69945 8.71362 7.31173V2.70202L8.70906 2.62015ZM17.2999 2.62015C17.2608 2.27101 16.9743 2 16.6268 2C16.2525 2 15.949 2.3143 15.949 2.70202V7.31173L15.9536 7.3936C15.9928 7.74274 16.2792 8.01375 16.6268 8.01375C17.0011 8.01375 17.3045 7.69945 17.3045 7.31173V2.70202L17.2999 2.62015Z" fill="#0073E6"/>
</g>
<defs>
<clipPath id="clip0_31_948">
<rect width="24" height="24" fill="white"/>
</clipPath>
</defs>
</svg>
