<svg width="24" height="24" viewBox="0 0 24 24" fill="none" xmlns="http://www.w3.org/2000/svg">
<g clip-path="url(#clip0_31_1105)">
<path fill-rule="evenodd" clip-rule="evenodd" d="M2 6.5856L2 17.4144C2 18.8424 3.13048 20 4.525 20H19.475C20.8695 20 22 18.8424 22 17.4144V6.5856C22 5.15761 20.8695 4 19.475 4L4.525 4C3.13048 4 2 5.15761 2 6.5856ZM3.25 6.65867V6.58559C3.25 5.86453 3.82084 5.27999 4.525 5.27999L19.475 5.27999C20.1477 5.27999 20.6987 5.81342 20.7466 6.48971L12.5149 12.1093L12.4212 12.1674C12.0075 12.4001 11.4981 12.3807 11.1004 12.1093L3.25 6.65867ZM3.25 8.27886L3.25 17.4144C3.25 18.1355 3.82084 18.72 4.525 18.72H19.475C20.1792 18.72 20.75 18.1355 20.75 17.4144V8.02577L13.2082 13.1743C12.4005 13.7257 11.3598 13.752 10.5299 13.2531L10.407 13.1743L3.25 8.27886Z" fill="#1D1D1D"/>
<path fill-rule="evenodd" clip-rule="evenodd" d="M17.2173 12.8619C17.5472 12.8619 17.8192 13.1162 17.8563 13.4439L17.8607 13.5207V14.4424L18.7614 14.4431C19.1167 14.4431 19.4048 14.738 19.4048 15.1019C19.4048 15.4397 19.1564 15.7182 18.8364 15.7563L18.7614 15.7607L17.8607 15.76V16.6831C17.8607 17.0469 17.5726 17.3419 17.2173 17.3419C16.8873 17.3419 16.6154 17.0875 16.5782 16.7599L16.5739 16.6831V15.76L15.6732 15.7607C15.3178 15.7607 15.0298 15.4657 15.0298 15.1019C15.0298 14.764 15.2782 14.4855 15.5981 14.4475L15.6732 14.4431L16.5739 14.4424V13.5207C16.5739 13.1568 16.862 12.8619 17.2173 12.8619Z" fill="#0073E6"/>
</g>
<defs>
<clipPath id="clip0_31_1105">
<rect width="24" height="24" fill="white"/>
</clipPath>
</defs>
</svg>
