<svg width="24" height="24" viewBox="0 0 24 24" fill="none" xmlns="http://www.w3.org/2000/svg">
<g clip-path="url(#clip0_31_1060)">
<path fill-rule="evenodd" clip-rule="evenodd" d="M17.9727 7.47943C16.8531 7.47943 15.9455 8.39276 15.9455 9.5194V19.96C15.9455 21.0866 16.8531 21.9999 17.9727 21.9999C19.0924 21.9999 20 21.0866 20 19.96V9.5194C20 8.39276 19.0924 7.47943 17.9727 7.47943ZM17.9727 8.60681C18.4736 8.60681 18.8797 9.0154 18.8797 9.51942V19.96C18.8797 20.464 18.4736 20.8726 17.9727 20.8726C17.4719 20.8726 17.0658 20.464 17.0658 19.96V9.51942C17.0658 9.0154 17.4719 8.60681 17.9727 8.60681ZM6.02727 12.6054C4.90764 12.6054 4 13.5188 4 14.6454V19.96C4 21.0867 4.90764 22 6.02727 22C7.1469 22 8.05453 21.0867 8.05453 19.96V14.6454C8.05453 13.5188 7.1469 12.6054 6.02727 12.6054ZM6.02726 13.7328C6.52814 13.7328 6.93418 14.1414 6.93418 14.6454V19.9601C6.93418 20.4641 6.52814 20.8727 6.02726 20.8727C5.52639 20.8727 5.12034 20.4641 5.12034 19.9601V14.6454C5.12034 14.1414 5.52639 13.7328 6.02726 13.7328Z" fill="#1D1D1D"/>
<path fill-rule="evenodd" clip-rule="evenodd" d="M12 2C10.8804 2 9.97278 2.91333 9.97278 4.03997V19.9595C9.97278 21.0862 10.8804 21.9995 12 21.9995C13.1197 21.9995 14.0273 21.0862 14.0273 19.9595V4.03997C14.0273 2.91333 13.1197 2 12 2ZM12 3.12738C12.5009 3.12738 12.907 3.53597 12.907 4.03999V19.9596C12.907 20.4636 12.5009 20.8722 12 20.8722C11.4992 20.8722 11.0931 20.4636 11.0931 19.9596V4.03999C11.0931 3.53597 11.4992 3.12738 12 3.12738Z" fill="#0073E6"/>
</g>
<defs>
<clipPath id="clip0_31_1060">
<rect width="24" height="24" fill="white"/>
</clipPath>
</defs>
</svg>
