<svg width="24" height="24" viewBox="0 0 24 24" fill="none" xmlns="http://www.w3.org/2000/svg">
<g clip-path="url(#clip0_40_2742)">
<path fill-rule="evenodd" clip-rule="evenodd" d="M12 2C6.47715 2 2 6.47715 2 12C2 17.5228 6.47715 22 12 22C17.5228 22 22 17.5228 22 12C22 6.47715 17.5228 2 12 2ZM11.9997 3.30206C16.8032 3.30206 20.6973 7.19612 20.6973 11.9997C20.6973 16.8032 16.8032 20.6973 11.9997 20.6973C7.19612 20.6973 3.30207 16.8032 3.30207 11.9997C3.30207 7.19612 7.19612 3.30206 11.9997 3.30206Z" fill="#1D1D1D"/>
<path d="M12.1902 6.51947C10.4854 6.51947 9.09851 7.89033 9.09851 9.57534C9.09851 9.99728 9.44455 10.3393 9.87143 10.3393C10.2983 10.3393 10.6444 9.99728 10.6444 9.57534C10.6444 8.73284 11.3378 8.04741 12.1902 8.04741C13.0426 8.04741 13.736 8.73284 13.736 9.57534C13.736 10.4178 13.0426 11.1033 12.1902 11.1033C11.7633 11.1033 11.4173 11.4453 11.4173 11.8672V13.7772C11.4173 14.1991 11.7633 14.5411 12.1902 14.5411C12.6171 14.5411 12.9631 14.1991 12.9631 13.7772V12.5345C14.2951 12.1945 15.2819 10.9967 15.2819 9.57534C15.2819 7.89033 13.8949 6.51947 12.1902 6.51947Z" fill="#0073E6"/>
<ellipse cx="12.1899" cy="16.1289" rx="0.919149" ry="0.919149" fill="#0073E6"/>
</g>
<defs>
<clipPath id="clip0_40_2742">
<rect width="24" height="24" fill="white"/>
</clipPath>
</defs>
</svg>
