<svg width="24" height="24" viewBox="0 0 24 24" fill="none" xmlns="http://www.w3.org/2000/svg">
<g clip-path="url(#clip0_46_586)">
<path d="M21.4098 18.9228C20.0985 17.6149 18.7894 16.3048 17.4796 14.9955L15.7802 13.2959C15.3739 12.8901 14.9541 12.471 14.5456 12.054C14.502 12.0097 14.469 11.9225 14.4746 11.9007C14.8311 11.1152 14.7242 10.372 14.1568 9.68987L14.8444 9.00566C14.9211 9.04012 14.9963 9.07809 15.0694 9.11396C15.2642 9.211 15.4484 9.30241 15.6488 9.33968C16.2246 9.44657 16.8749 9.08301 17.1632 8.49514C17.4297 7.95228 17.3263 7.41926 16.8651 6.95163C16.2133 6.29203 15.5454 5.62611 14.8993 4.98269C14.6862 4.77032 14.4732 4.55796 14.2602 4.34489C14.2145 4.29918 14.959 5.01714 14.8993 4.98269C14.7031 4.86947 13.709 4.13745 13.5437 4.31184C13.3905 4.47428 14.398 5.72737 14.5119 5.9102C14.5569 5.98263 13.5873 4.9869 13.6464 5.04457L13.6837 5.08184C13.9593 5.35819 14.2356 5.63384 14.5119 5.9102C15.0638 6.46221 15.6354 7.0325 16.1936 7.59646C16.4186 7.82359 16.425 8.07604 16.2112 8.2884C16.008 8.49092 15.7366 8.49233 15.5363 8.29333C14.0176 6.78146 12.4955 5.25974 11.0141 3.77178C10.8039 3.56083 10.8031 3.31049 11.0113 3.10094C11.2208 2.88998 11.4612 2.88646 11.6869 3.09039C11.7579 3.15508 11.8275 3.2254 11.895 3.29361C11.9674 3.36674 14.4331 5.83988 14.5119 5.9102C14.7165 6.09233 13.9444 5.04949 14.1265 4.8547C14.3135 4.655 15.1123 5.19505 14.8993 4.98269C14.7158 4.78579 12.378 2.45189 12.1277 2.25429C11.8402 2.02645 11.4936 1.94981 11.1252 2.03208C10.5936 2.15092 10.1514 2.57284 9.99742 3.10727C9.86102 3.58192 9.98266 4.05587 10.3314 4.41169L4.40935 10.334C4.40513 10.3305 4.40092 10.327 4.3967 10.3235C3.75619 9.78269 2.97156 9.82699 2.39714 10.4367C1.84452 11.0231 1.87054 11.7868 2.46323 12.381C3.97134 13.8943 5.44639 15.3731 6.91512 16.8259C7.10074 17.0094 7.32502 17.1557 7.54719 17.238C8.06817 17.4299 8.69602 17.1965 9.07498 16.6698C9.44691 16.1529 9.46027 15.5538 9.11084 15.0679C9.06725 15.0074 9.02155 14.9498 8.98428 14.9034L9.70564 14.1756C10.3356 14.7072 11.026 14.8253 11.7572 14.5264C11.9309 14.4554 12.0012 14.485 12.1242 14.6087C13.6422 16.1332 15.1889 17.6803 16.6851 19.1753L17.6673 20.1569C17.791 20.2807 17.9141 20.4044 18.0371 20.5282C18.3605 20.8531 18.6945 21.1892 19.0292 21.5134C19.3631 21.8376 19.7337 22 20.1358 22C20.2603 22 20.3875 21.9845 20.5176 21.9529C21.2164 21.7848 21.7023 21.3292 21.9216 20.6351C22.1164 20.0198 21.9491 19.4594 21.4098 18.9214V18.9228ZM14.1463 8.32638L8.33112 14.1432L5.19469 11.0077L11.012 5.19224L14.1456 8.32708L14.1463 8.32638ZM8.4401 15.8963C8.4394 16.02 8.38737 16.1347 8.29105 16.2289C8.08716 16.4279 7.81296 16.4138 7.59219 16.1944C6.43914 15.0461 5.26922 13.8753 4.13867 12.7438L3.10866 11.7137C2.93922 11.5442 2.89703 11.3796 2.97718 11.1968C3.07069 10.9816 3.22888 10.8818 3.50238 10.8642C3.51855 10.8726 3.53824 10.8818 3.55933 10.8923C3.63034 10.9261 3.71823 10.9676 3.7815 11.0302C5.21367 12.4527 6.6803 13.9182 8.26574 15.5095C8.37893 15.6234 8.4408 15.7606 8.4401 15.8956V15.8963ZM13.8608 12.6995C13.8932 12.7284 13.929 12.7607 13.9635 12.7952L16.0713 14.9027C17.6251 16.4567 19.1782 18.0101 20.7334 19.5627C21.0147 19.844 21.1082 20.107 21.0365 20.4157C20.9704 20.6984 20.7728 20.9234 20.5084 21.0169C20.2434 21.1112 19.9481 21.0612 19.7189 20.8833C19.6718 20.8468 19.6289 20.8039 19.5832 20.7582L19.5712 20.7462C17.2961 18.4714 15.0216 16.1965 12.7472 13.9217C12.7296 13.9041 12.7127 13.8865 12.6972 13.8697L13.8608 12.6995ZM13.5079 10.3931C13.8334 10.7517 13.8404 11.3023 13.5135 11.6511C12.9384 12.2636 12.3148 12.8873 11.6616 13.5061C11.3073 13.8415 10.7715 13.8387 10.3883 13.5089L13.5079 10.3931Z" fill="#1D1D1D"/>
<path d="M10.3684 13.4838C10.7626 13.7628 11.3595 13.7326 11.7093 13.3882L13.3825 11.7386C13.7612 11.3654 13.8055 10.8003 13.4909 10.3653L14.142 9.66666C14.9043 10.5536 14.7959 11.7274 14.0751 12.4387L12.5477 13.9842C12.1598 14.3665 11.5066 14.6667 10.9963 14.6667C10.5986 14.6667 10.0967 14.5198 9.66663 14.169" fill="#0073E6"/>
</g>
<defs>
<clipPath id="clip0_46_586">
<rect width="24" height="24" fill="white"/>
</clipPath>
</defs>
</svg>
