<svg width="34" height="28" viewBox="0 0 34 28" fill="none" xmlns="http://www.w3.org/2000/svg">
<path d="M30.4254 10.4826C32.5239 12.5809 32.5239 15.983 30.4254 18.0813C28.327 20.1797 24.9247 20.1797 22.8262 18.0813L14.2633 9.51883C12.1648 7.42049 12.1648 4.01841 14.2633 1.92007C16.3617 -0.178271 19.764 -0.178272 21.8625 1.92007L30.4254 10.4826Z" fill="#F5F5F5"/>
<g filter="url(#filter0_d_2318_55197)">
<path fill-rule="evenodd" clip-rule="evenodd" d="M17.5499 13.7302C21.4689 9.75952 25.7701 7.20461 29.7023 9.75952L27.5769 7.63375C26.2101 6.26696 25.3901 5.44709 22.9012 2.95827C22.752 2.80914 22.6122 2.66653 22.4789 2.53057C21.9407 1.98165 21.5088 1.54118 21.0003 1.21802C20.8074 1.0935 20.6337 0.993728 20.4517 0.903768C19.9236 0.642791 19.367 0.477646 18.7849 0.395063C18.7039 0.38357 18.4245 0.343933 17.9998 0.346428C17.0246 0.315626 15.4545 0.731634 14.1368 1.92018C12.8191 3.10873 5.57384 10.4827 5.57384 10.4827C3.47539 12.581 3.47539 15.9831 5.57384 18.0814C7.67229 20.1798 11.0746 20.1798 13.173 18.0814C16.7203 14.5344 15.5191 15.7877 17.5499 13.7302Z" fill="white"/>
</g>
<defs>
<filter id="filter0_d_2318_55197" x="0" y="0.344849" width="33.7031" height="27.3103" filterUnits="userSpaceOnUse" color-interpolation-filters="sRGB">
<feFlood flood-opacity="0" result="BackgroundImageFix"/>
<feColorMatrix in="SourceAlpha" type="matrix" values="0 0 0 0 0 0 0 0 0 0 0 0 0 0 0 0 0 0 127 0" result="hardAlpha"/>
<feOffset dy="4"/>
<feGaussianBlur stdDeviation="2"/>
<feComposite in2="hardAlpha" operator="out"/>
<feColorMatrix type="matrix" values="0 0 0 0 0 0 0 0 0 0 0 0 0 0 0 0 0 0 0.25 0"/>
<feBlend mode="normal" in2="BackgroundImageFix" result="effect1_dropShadow_2318_55197"/>
<feBlend mode="normal" in="SourceGraphic" in2="effect1_dropShadow_2318_55197" result="shape"/>
</filter>
</defs>
</svg>
