<svg width="215" height="150" viewBox="0 0 215 150" fill="none" xmlns="http://www.w3.org/2000/svg">
<g clip-path="url(#clip0_179_8531)">
<path d="M62.5834 129.188C91.2167 120.174 101.519 123.89 130.401 125.842C153.995 127.419 181.866 120.914 199.621 103.814C246.398 58.7692 175.283 12.2999 135.083 2.34293C106.758 -4.65332 88.8876 4.37083 69.4377 24.7157C61.8756 32.6296 55.6323 42.2114 46.7332 48.8578C37.1746 55.9859 25.7467 55.8642 16.7387 61.7958C-26.9523 90.5565 24.3735 141.208 62.5834 129.188Z" fill="#EFF7FF"/>
<path d="M12.4431 146.19C12.4431 145.137 13.2962 144.284 14.3485 144.284H48.6456C49.698 144.284 50.551 145.137 50.551 146.19V148.095C50.551 149.147 49.698 150 48.6456 150H14.3485C13.2962 150 12.4431 149.147 12.4431 148.095V146.19Z" fill="#7BACFC"/>
<path d="M28.1417 114.933C29.3379 111.542 34.1328 111.542 35.329 114.933L45.8259 144.683C46.7006 147.163 44.8613 149.762 42.2322 149.762H21.2385C18.6094 149.762 16.7701 147.163 17.6449 144.683L28.1417 114.933Z" fill="#BFDDFA"/>
<path fill-rule="evenodd" clip-rule="evenodd" d="M35.329 114.933C34.1328 111.542 29.3379 111.542 28.1417 114.933L27.7017 116.179H35.769L35.329 114.933ZM37.6177 121.419H25.853L24.3404 125.706H39.1304L37.6177 121.419ZM20.811 135.71L22.4916 130.946H40.9791L42.6598 135.71H20.811ZM44.5085 140.95H18.9622L17.6449 144.683C16.7701 147.163 18.6094 149.762 21.2385 149.762H42.2322C44.8613 149.762 46.7006 147.163 45.8259 144.683L44.5085 140.95Z" fill="#7BACFC"/>
<ellipse cx="58.0476" cy="137.896" rx="9.25633" ry="1.66139" fill="#F5F5F5"/>
<ellipse cx="192.383" cy="137.896" rx="9.25633" ry="1.66139" fill="#F5F5F5"/>
<path d="M56.0781 23.7677C56.0781 22.7154 56.9312 21.8623 57.9835 21.8623H58.9362C59.9885 21.8623 60.8416 22.7154 60.8416 23.7677V136.186C60.8416 137.238 59.9885 138.091 58.9362 138.091H57.9835C56.9312 138.091 56.0781 137.238 56.0781 136.186V23.7677Z" fill="#656565"/>
<path d="M190.408 23.7677C190.408 22.7154 191.262 21.8623 192.314 21.8623H193.267C194.319 21.8623 195.172 22.7154 195.172 23.7677V136.186C195.172 137.238 194.319 138.091 193.267 138.091H192.314C191.262 138.091 190.408 137.238 190.408 136.186V23.7677Z" fill="#656565"/>
<path d="M46.0747 40.8108C46.0747 38.7062 47.7809 37 49.8855 37H202.317C204.422 37 206.128 38.7062 206.128 40.8108V57.483C206.128 59.5877 204.422 61.2938 202.317 61.2938H49.8855C47.7809 61.2938 46.0747 59.5877 46.0747 57.483V40.8108Z" fill="#7BACFC"/>
<path d="M46.0747 75.8108C46.0747 73.7062 47.7809 72 49.8855 72H202.317C204.422 72 206.128 73.7062 206.128 75.8108V92.483C206.128 94.5877 204.422 96.2938 202.317 96.2938H49.8855C47.7809 96.2938 46.0747 94.5877 46.0747 92.483V75.8108Z" fill="#7BACFC"/>
<path d="M64.6522 20.4333C64.6522 23.8533 61.8797 26.6258 58.4596 26.6258C55.0396 26.6258 52.2671 23.8533 52.2671 20.4333C52.2671 17.0132 55.0396 14.2407 58.4596 14.2407C61.8797 14.2407 64.6522 17.0132 64.6522 20.4333Z" fill="#D8D8D8"/>
<path d="M61.7944 20.4331C61.7944 22.2746 60.3015 23.7675 58.4599 23.7675C56.6184 23.7675 55.1255 22.2746 55.1255 20.4331C55.1255 18.5915 56.6184 17.0986 58.4599 17.0986C60.3015 17.0986 61.7944 18.5915 61.7944 20.4331Z" fill="#BBBBBB"/>
<path d="M198.983 20.4333C198.983 23.8533 196.21 26.6258 192.79 26.6258C189.37 26.6258 186.598 23.8533 186.598 20.4333C186.598 17.0132 189.37 14.2407 192.79 14.2407C196.21 14.2407 198.983 17.0132 198.983 20.4333Z" fill="#D8D8D8"/>
<path fill-rule="evenodd" clip-rule="evenodd" d="M59.5324 61.2938L76.0847 37H92.637L76.0847 61.2938H59.5324ZM92.8769 61.2938L109.429 37H125.981L109.429 61.2938H92.8769ZM126.221 61.2938H142.774L159.326 37H142.774L126.221 61.2938ZM176.118 61.2938H159.566L176.118 37H192.67L176.118 61.2938ZM192.91 61.2938H202.317C204.422 61.2938 206.128 59.5877 206.128 57.483V41.894L192.91 61.2938ZM46.0747 56.3998L59.2925 37H49.8855C47.7809 37 46.0747 38.7062 46.0747 40.8108V56.3998Z" fill="#BFDDFA"/>
<path fill-rule="evenodd" clip-rule="evenodd" d="M59.5324 96.2938L76.0847 72H92.637L76.0847 96.2938H59.5324ZM92.8769 96.2938L109.429 72H125.981L109.429 96.2938H92.8769ZM126.221 96.2938H142.774L159.326 72H142.774L126.221 96.2938ZM176.118 96.2938H159.566L176.118 72H192.67L176.118 96.2938ZM192.91 96.2938H202.317C204.422 96.2938 206.128 94.5877 206.128 92.483V76.894L192.91 96.2938ZM46.0747 91.3998L59.2925 72H49.8855C47.7809 72 46.0747 73.7062 46.0747 75.8108V91.3998Z" fill="#BFDDFA"/>
<path d="M196.125 20.4331C196.125 22.2746 194.632 23.7675 192.79 23.7675C190.949 23.7675 189.456 22.2746 189.456 20.4331C189.456 18.5915 190.949 17.0986 192.79 17.0986C194.632 17.0986 196.125 18.5915 196.125 20.4331Z" fill="#BBBBBB"/>
</g>
<defs>
<clipPath id="clip0_179_8531">
<rect width="215" height="150" fill="white"/>
</clipPath>
</defs>
</svg>
