<svg width="516" height="60" viewBox="0 0 516 60" fill="none" xmlns="http://www.w3.org/2000/svg">
<mask id="mask0_161_172" style="mask-type:luminance" maskUnits="userSpaceOnUse" x="0" y="0" width="516" height="60">
<path d="M515.594 0H0V60H515.594V0Z" fill="white"/>
</mask>
<g mask="url(#mask0_161_172)">
<path d="M23.4027 0.226685C10.7201 0.226685 0.437622 12.2154 0.437622 27.0017C0.437622 41.7871 10.7201 53.7758 23.4027 53.7758C36.0854 53.7758 46.3678 41.7871 46.3678 27.0017C46.3678 12.2154 36.0854 0.226685 23.4027 0.226685Z" fill="#ED192D"/>
<path d="M7.36827 40.3368C5.16259 36.5561 3.86902 31.9597 3.86902 27.0017C3.86902 22.0436 5.16259 17.4472 7.36827 13.6656V40.3368Z" fill="white"/>
<path d="M12.301 7.7916C13.5729 6.7388 14.9533 5.86446 16.4187 5.19312V48.8091C14.9533 48.1387 13.5729 47.2624 12.301 46.2115V7.7916Z" fill="white"/>
<path d="M21.3501 3.78238C22.0252 3.69835 22.7088 3.65491 23.4019 3.65491C24.0997 3.65491 24.7889 3.6993 25.4678 3.78427V50.2178C24.7889 50.3027 24.0997 50.3481 23.4019 50.3481C22.7088 50.3481 22.0252 50.3037 21.3501 50.2206V3.78238Z" fill="white"/>
<path d="M30.401 5.19995C31.8674 5.87223 33.2478 6.75033 34.5187 7.80312V46.1995C33.2478 47.2532 31.8674 48.1304 30.401 48.8026V5.19995Z" fill="white"/>
<path d="M39.4519 13.691C41.6491 17.4669 42.9379 22.0539 42.9379 27.0015C42.9379 31.9492 41.6491 36.5352 39.4519 40.3111V13.691Z" fill="white"/>
<path d="M2.36206 27.0018C2.36206 20.8635 4.24765 15.2463 7.36921 10.9096V12.3741C4.7462 16.4247 3.18635 21.4961 3.18635 27.0018C3.18635 32.5065 4.7462 37.5778 7.36921 41.6285V43.092C4.24765 38.7562 2.36206 33.1391 2.36206 27.0018Z" fill="white"/>
<path d="M39.4519 41.6069C42.0664 37.5601 43.6215 32.4972 43.6215 27.0019C43.6215 21.5066 42.0664 16.4437 39.4519 12.3968V10.9305C42.5659 15.2635 44.4439 20.873 44.4439 27.0019C44.4439 33.1298 42.5659 38.7394 39.4519 43.0724V41.6069Z" fill="white"/>
<path d="M45.7857 50.9706C45.9424 50.2984 46.2606 49.61 46.6308 49.0605C46.1558 48.8273 45.7555 48.6517 45.3428 48.2938C46.2531 46.919 46.4797 45.9776 46.6289 44.3224L46.5646 34.9644C45.9641 37.6856 44.511 41.2547 43.2561 43.1205C42.8898 43.6662 42.7283 44.0118 42.5017 44.3753C42.3714 44.5859 41.634 45.8011 41.6529 47.2891C41.1383 47.393 40.6662 47.3741 40.0685 47.3298C40.1421 47.9775 40.1818 48.0691 40.0118 49.1304C37.7429 49.306 37.0819 50.6666 34.3928 52.1207C33.0785 52.8317 32.2259 53.1555 30.26 53.8731C34.8309 53.8184 38.1876 54.468 41.0609 52.5361C41.3875 52.9686 41.6302 53.3888 41.8455 53.8977C42.2411 53.5871 43.0172 53.2037 43.6621 53.0375C44.4015 53.7655 45.3919 54.0525 46.661 53.9383C46.8404 52.9166 46.5864 51.6609 45.7857 50.9706Z" fill="#ED192D"/>
<path d="M46.1294 49.2425C45.7753 49.387 44.1079 50.0026 44.1079 50.0026L44.0852 50.0262C44.0767 49.8799 44.0418 49.7354 43.9804 49.5995L43.9709 49.5683C44.614 49.184 45.0181 48.6401 45.0275 48.5561C45.0228 48.5495 45.02 48.5448 45.0238 48.5457C45.0266 48.5466 45.0275 48.5504 45.0275 48.5561C45.0823 48.6307 45.6309 49.1396 46.1294 49.2425Z" fill="white"/>
<path d="M44.7504 41.3358C46.4226 37.6373 46.0289 37.7979 46.399 36.2626C46.3499 37.0019 46.3027 37.9347 46.1979 38.6108C45.469 42.6407 44.4218 45.6263 43.1632 48.9206C43.1632 48.9206 42.8176 48.8914 42.6439 48.9244C42.3389 48.5732 42.2436 48.0869 42.2436 48.0869C41.6581 45.6584 43.4795 44.1458 44.7504 41.3358Z" fill="white"/>
<path d="M40.5665 47.8273L42.1273 49.1303L42.132 49.1426C42.0848 49.1775 42.0385 49.2172 41.9951 49.2597C41.9167 49.339 41.8506 49.4249 41.7987 49.5175L41.7893 49.5401C40.9942 49.1539 40.4626 49.1379 40.4626 49.1379C40.6628 48.2768 40.5665 47.8273 40.5665 47.8273Z" fill="white"/>
<path d="M33.4785 53.4435C32.6939 53.6229 32.0603 53.6145 31.5656 53.6362L33.2273 53.1216C36.8286 51.7713 37.7454 49.6808 40.1777 49.6327C40.7471 49.6374 41.2135 49.7866 41.6356 50.0236L41.6403 50.0887C41.6233 50.2445 41.6374 50.4032 41.6828 50.5552L41.6837 50.5779C40.004 51.4116 36.1639 52.8279 33.4785 53.4435Z" fill="white"/>
<path d="M42.0373 53.335C41.941 53.0772 41.807 52.6608 41.4349 52.2491C41.9363 51.8242 42.0392 51.5957 42.2073 51.1803L42.2196 51.186C42.3772 51.2794 42.5519 51.3333 42.7285 51.3474L42.7493 51.3446L42.0373 53.335Z" fill="white"/>
<path d="M42.3577 50.6259C42.081 50.3473 42.0819 49.897 42.3605 49.6194C42.639 49.3427 43.0885 49.3437 43.3661 49.6231C43.6427 49.9007 43.6418 50.3511 43.3632 50.6278C43.0847 50.9044 42.6343 50.9035 42.3577 50.6259Z" fill="white"/>
<path d="M43.9041 52.619C43.5368 52.1912 43.3792 51.8607 43.2404 51.2819C43.4226 51.2291 43.6369 51.1186 43.7653 50.9392L46.2581 53.4706C45.312 53.5585 44.4933 53.3356 43.9041 52.619Z" fill="white"/>
<path d="M46.661 0.024692C45.3919 -0.0905017 44.4015 0.196518 43.6621 0.924505C43.0172 0.758324 42.2411 0.374987 41.8455 0.0643415C41.6302 0.573271 41.3875 0.992494 41.0609 1.42588C38.1876 -0.505969 34.8309 0.143655 30.26 0.0879468C32.2259 0.806491 33.0785 1.13034 34.3928 1.84133C37.0819 3.29541 37.7429 4.65507 40.0118 4.83164C40.1818 5.89293 40.1421 5.98358 40.0685 6.6332C40.6662 6.58788 41.1383 6.56898 41.6529 6.67285C41.634 8.15998 42.3714 9.37613 42.5017 9.58575C42.7283 9.95021 42.8898 10.2958 43.2561 10.8416C44.511 12.7073 45.9641 16.2755 46.5646 18.9977L46.6289 9.6396C46.4797 7.9844 46.2531 7.04301 45.3428 5.66824C45.7555 5.31038 46.1558 5.13475 46.6308 4.90153C46.2606 4.352 45.9424 3.66273 45.7857 2.99139C46.5864 2.30023 46.8404 1.04538 46.661 0.024692Z" fill="#ED192D"/>
<path d="M46.1294 4.71904C45.7753 4.57457 44.1079 3.95896 44.1079 3.95896L44.0852 3.93536C44.0767 4.08077 44.0418 4.22618 43.9804 4.36214L43.9709 4.39331C44.614 4.7776 45.0181 5.32144 45.0275 5.40548C45.0228 5.41303 45.02 5.41774 45.0238 5.41585C45.0266 5.41396 45.0275 5.41114 45.0275 5.40548C45.0823 5.33183 45.6309 4.82195 46.1294 4.71904Z" fill="white"/>
<path d="M44.7504 12.6262C46.4226 16.3247 46.0289 16.1641 46.399 17.6994C46.3499 16.9601 46.3027 16.0263 46.1979 15.3521C45.469 11.3213 44.4218 8.33565 43.1632 5.04036C43.1632 5.04036 42.8176 5.07059 42.6439 5.03754C42.3389 5.38879 42.2436 5.87507 42.2436 5.87507C41.6581 8.30358 43.4795 9.81621 44.7504 12.6262Z" fill="white"/>
<path d="M40.5665 6.13451L42.1273 4.83147L42.132 4.81921C42.0848 4.78427 42.0385 4.74464 41.9951 4.70215C41.9167 4.62378 41.8506 4.53595 41.7987 4.4453L41.7893 4.42078C40.9942 4.8079 40.4626 4.82299 40.4626 4.82299C40.6628 5.68411 40.5665 6.13451 40.5665 6.13451Z" fill="white"/>
<path d="M33.4785 0.518673C32.6939 0.339273 32.0603 0.347767 31.5656 0.32605L33.2273 0.840618C36.8286 2.19084 37.7454 4.28132 40.1777 4.33041C40.7471 4.32475 41.2135 4.17557 41.6356 3.93858L41.6403 3.87343C41.6233 3.71764 41.6374 3.55901 41.6828 3.407L41.6837 3.38436C40.004 2.54968 36.1639 1.13335 33.4785 0.518673Z" fill="white"/>
<path d="M42.0373 0.627136C41.941 0.884906 41.807 1.3013 41.4349 1.71298C41.9363 2.13787 42.0392 2.36636 42.2073 2.78181L42.2196 2.77711C42.3772 2.68269 42.5519 2.62887 42.7285 2.61376L42.7493 2.61754L42.0373 0.627136Z" fill="white"/>
<path d="M42.3577 3.33599C42.081 3.61547 42.0819 4.06491 42.3605 4.34156C42.639 4.61916 43.0885 4.61727 43.3661 4.33967C43.6427 4.06019 43.6418 3.61075 43.3632 3.3341C43.0847 3.05744 42.6343 3.05839 42.3577 3.33599Z" fill="white"/>
<path d="M43.9041 1.34283C43.5368 1.77056 43.3792 2.101 43.2404 2.6798C43.4226 2.73268 43.6369 2.84318 43.7653 3.02258L46.2581 0.491152C45.312 0.40334 44.4933 0.626176 43.9041 1.34283Z" fill="white"/>
<path d="M0.0543584 53.9383C1.32338 54.0525 2.31386 53.7655 3.05317 53.0375C3.69807 53.2037 4.47421 53.5871 4.87078 53.8977C5.08512 53.3888 5.32873 52.9686 5.65543 52.5361C8.52866 54.468 11.8844 53.8184 16.4553 53.8731C14.4895 53.1555 13.6368 52.8317 12.3225 52.1207C9.63339 50.6666 8.97338 49.306 6.7035 49.1304C6.53448 48.0691 6.57319 47.9775 6.64684 47.3298C6.05009 47.3741 5.578 47.393 5.0634 47.2891C5.08229 45.8011 4.34486 44.5859 4.21361 44.3753C3.987 44.0118 3.82649 43.6662 3.45919 43.1205C2.20528 41.2547 0.752132 37.6856 0.15067 34.9644L0.0864699 44.3224C0.235655 45.9776 0.46321 46.919 1.37343 48.2938C0.959866 48.6517 0.560463 48.8273 0.0855248 49.0605C0.454711 49.61 0.77385 50.2984 0.930589 50.9706C0.128954 51.6609 -0.124098 52.9166 0.0543584 53.9383Z" fill="#ED192D"/>
<path d="M0.585938 49.2425C0.940017 49.387 2.60844 50.0026 2.60844 50.0026L2.6311 50.0262C2.63866 49.8799 2.67453 49.7354 2.73591 49.5995L2.74441 49.5683C2.10235 49.184 1.69728 48.6401 1.68878 48.5561C1.6935 48.5495 1.69634 48.5448 1.69162 48.5457C1.68878 48.5466 1.68784 48.5504 1.68878 48.5561C1.63307 48.6307 1.08543 49.1396 0.585938 49.2425Z" fill="white"/>
<path d="M1.96354 41.3358C0.291344 37.6373 0.685072 37.7979 0.314941 36.2626C0.363096 37.0019 0.410307 37.9347 0.516059 38.6108C1.24499 42.6407 2.29118 45.6263 3.55075 48.9206C3.55075 48.9206 3.89539 48.8914 4.06913 48.9244C4.37411 48.5732 4.46947 48.0869 4.46947 48.0869C5.05488 45.6584 3.23445 44.1458 1.96354 41.3358Z" fill="white"/>
<path d="M6.14863 47.8273L4.58879 49.1303L4.58313 49.1426C4.63128 49.1775 4.6766 49.2172 4.72004 49.2597C4.79841 49.339 4.8645 49.4249 4.91643 49.5175L4.92588 49.5401C5.7209 49.1539 6.25343 49.1379 6.25343 49.1379C6.05232 48.2768 6.14863 47.8273 6.14863 47.8273Z" fill="white"/>
<path d="M13.236 53.4435C14.0206 53.6229 14.6542 53.6145 15.149 53.6362L13.4881 53.1216C9.88593 51.7713 8.96909 49.6808 6.53681 49.6327C5.96839 49.6374 5.50101 49.7866 5.07895 50.0236L5.07517 50.0887C5.09122 50.2445 5.07706 50.4032 5.03268 50.5552L5.03174 50.5779C6.71055 51.4116 10.5516 52.8279 13.236 53.4435Z" fill="white"/>
<path d="M4.678 53.335C4.77431 53.0772 4.90839 52.6608 5.28136 52.2491C4.77998 51.8242 4.67611 51.5957 4.50899 51.1803L4.49577 51.186C4.33903 51.2794 4.16435 51.3333 3.98683 51.3474L3.96606 51.3446L4.678 53.335Z" fill="white"/>
<path d="M4.35635 50.6259C4.63395 50.3473 4.63206 49.897 4.35446 49.6194C4.07592 49.3427 3.62553 49.3437 3.34887 49.6231C3.07222 49.9007 3.07317 50.3511 3.35171 50.6278C3.63025 50.9044 4.0797 50.9035 4.35635 50.6259Z" fill="white"/>
<path d="M2.81074 52.619C3.17804 52.1912 3.33573 51.8607 3.47547 51.2819C3.29324 51.2291 3.07889 51.1186 2.94954 50.9392L0.457764 53.4706C1.40386 53.5585 2.2225 53.3356 2.81074 52.619Z" fill="white"/>
<path d="M0.930589 2.99133C0.77385 3.66267 0.454711 4.35194 0.0855248 4.90147C0.560463 5.13469 0.959866 5.31032 1.37343 5.66818C0.46321 7.04295 0.235655 7.98434 0.0864699 9.63954L0.15067 18.9977C0.752132 16.2755 2.20528 12.7073 3.45919 10.8416C3.82649 10.2958 3.987 9.95015 4.21361 9.58569C4.34486 9.37607 5.08229 8.15992 5.0634 6.67279C5.578 6.56892 6.05009 6.58782 6.64684 6.63314C6.57319 5.98352 6.53448 5.89287 6.7035 4.83158C8.97338 4.65501 9.63339 3.29535 12.3225 1.84127C13.6368 1.13028 14.4895 0.80643 16.4553 0.0878857C11.8844 0.143594 8.52866 -0.50603 5.65543 1.42582C5.32873 0.992433 5.08512 0.57321 4.87078 0.0642804C4.47421 0.374926 3.69807 0.758263 3.05317 0.924444C2.31386 0.196457 1.32338 -0.0905628 0.0543584 0.0246309C-0.124098 1.04532 0.128954 2.30017 0.930589 2.99133Z" fill="#ED192D"/>
<path d="M0.585938 4.71904C0.940017 4.57457 2.60844 3.95896 2.60844 3.95896L2.6311 3.93536C2.63866 4.08077 2.67453 4.22618 2.73591 4.36214L2.74441 4.39331C2.10235 4.7776 1.69728 5.32144 1.68878 5.40548C1.6935 5.41303 1.69634 5.41774 1.69162 5.41585C1.68878 5.41396 1.68784 5.41114 1.68878 5.40548C1.63307 5.33183 1.08543 4.82195 0.585938 4.71904Z" fill="white"/>
<path d="M1.96354 12.6262C0.291344 16.3247 0.685072 16.1641 0.314941 17.6994C0.363096 16.9601 0.410307 16.0263 0.516059 15.3521C1.24499 11.3213 2.29118 8.33565 3.55075 5.04036C3.55075 5.04036 3.89539 5.07059 4.06913 5.03754C4.37411 5.38879 4.46947 5.87507 4.46947 5.87507C5.05488 8.30358 3.23445 9.81621 1.96354 12.6262Z" fill="white"/>
<path d="M6.14863 6.13451L4.58879 4.83147L4.58313 4.81921C4.63128 4.78427 4.6766 4.74464 4.72004 4.70215C4.79841 4.62378 4.8645 4.53595 4.91643 4.4453L4.92588 4.42078C5.7209 4.8079 6.25343 4.82299 6.25343 4.82299C6.05232 5.68411 6.14863 6.13451 6.14863 6.13451Z" fill="white"/>
<path d="M13.236 0.518673C14.0206 0.339273 14.6542 0.347767 15.149 0.32605L13.4881 0.840618C9.88593 2.19084 8.96909 4.28132 6.53681 4.33041C5.96839 4.32475 5.50101 4.17557 5.07895 3.93858L5.07517 3.87343C5.09122 3.71764 5.07706 3.55901 5.03268 3.407L5.03174 3.38436C6.71055 2.54968 10.5516 1.13335 13.236 0.518673Z" fill="white"/>
<path d="M4.678 0.627136C4.77431 0.884906 4.90839 1.3013 5.28136 1.71298C4.77998 2.13787 4.67611 2.36636 4.50899 2.78181L4.49577 2.77711C4.33903 2.68269 4.16435 2.62887 3.98683 2.61376L3.96606 2.61754L4.678 0.627136Z" fill="white"/>
<path d="M4.35635 3.33599C4.63395 3.61547 4.63206 4.06491 4.35446 4.34156C4.07592 4.61916 3.62553 4.61727 3.34887 4.33967C3.07222 4.06019 3.07317 3.61075 3.35171 3.3341C3.63025 3.05744 4.0797 3.05839 4.35635 3.33599Z" fill="white"/>
<path d="M2.81074 1.34283C3.17804 1.77056 3.33573 2.101 3.47547 2.6798C3.29324 2.73268 3.07889 2.84318 2.94954 3.02258L0.457764 0.491152C1.40386 0.40334 2.2225 0.626176 2.81074 1.34283Z" fill="white"/>
<path d="M34.5187 5.89777V6.94019C33.2403 5.93838 31.8608 5.10372 30.401 4.46449V3.55707C31.8541 4.16231 33.2327 4.95167 34.5187 5.89777Z" fill="white"/>
<path d="M23.4019 2.14703C24.0987 2.14703 24.788 2.18855 25.4678 2.26598V3.10821C24.7889 3.027 24.0997 2.98451 23.4019 2.98451C22.7098 2.98451 22.0252 3.02608 21.3501 3.10728V2.26505C22.0262 2.18763 22.7098 2.14703 23.4019 2.14703Z" fill="white"/>
<path d="M16.4187 3.55127V4.45772C14.9599 5.09506 13.5804 5.92879 12.301 6.92871V5.88634C13.588 4.94119 14.9675 4.15462 16.4187 3.55127Z" fill="white"/>
<path d="M12.301 48.116V47.0745C13.5804 48.0744 14.9599 48.9072 16.4187 49.5455V50.451C14.9675 49.8477 13.588 49.0621 12.301 48.116Z" fill="white"/>
<path d="M23.4019 51.8564C22.7098 51.8564 22.0262 51.8158 21.3501 51.7384V50.8952C22.0252 50.9764 22.7098 51.0179 23.4019 51.0179C24.0997 51.0179 24.7889 50.9754 25.4678 50.8933V51.7365C24.788 51.8148 24.0987 51.8564 23.4019 51.8564Z" fill="white"/>
<path d="M30.401 50.4446V49.5382C31.8608 48.8999 33.2403 48.0652 34.5187 47.0634V48.1039C33.2327 49.0519 31.8541 49.8403 30.401 50.4446Z" fill="white"/>
<path d="M71.2233 14.6516H79.7202V25.6139H76.8886L76.4637 23.0636C75.3863 24.3099 73.8293 26.1511 70.1186 26.1511C65.2191 26.1511 60.7709 22.6387 60.7709 15.5014C60.7709 9.95036 63.8584 4.71001 70.7134 4.73833C76.9452 4.73833 79.4086 8.78899 79.6352 11.5923H75.3863C75.3863 10.7992 73.9426 8.24985 70.94 8.24985C67.9091 8.24985 65.1057 10.346 65.1057 15.558C65.1057 21.11 68.1367 22.5546 71.025 22.5546C71.9598 22.5546 75.0757 22.1855 75.9538 18.0791H71.2233V14.6516Z" fill="#231F20"/>
<path d="M92.2692 21.1937C91.9576 22.2711 90.8246 22.8376 89.7199 22.8376C86.519 22.8376 86.2924 20.2873 86.1791 19.1552H96.5172V18.447C96.5172 11.5637 92.4109 10.1484 89.4366 10.1484C82.8375 10.1484 82.2143 15.9543 82.2143 17.7672C82.2143 23.9707 85.4709 26.0092 89.7199 26.0092C92.2966 26.0092 95.3001 24.8205 96.3473 21.1937H92.2692ZM86.2924 16.5775C86.519 14.5947 87.5104 13.405 89.38 13.405C90.6546 13.405 92.2126 14.1415 92.4392 16.5775H86.2924Z" fill="#231F20"/>
<path d="M112.777 25.6137H108.811V16.4643C108.811 15.3596 108.754 13.49 106.233 13.49C104.477 13.49 103.117 14.6797 103.117 16.9742V25.6137H99.1516V10.5441H102.948V12.7536H103.004C103.543 11.8471 104.675 10.1485 107.536 10.1485C110.482 10.1485 112.777 11.8754 112.777 15.1896V25.6137Z" fill="#231F20"/>
<path d="M125.323 21.1937C125.012 22.2711 123.879 22.8376 122.774 22.8376C119.573 22.8376 119.347 20.2873 119.233 19.1552H129.572V18.447C129.572 11.5637 125.465 10.1484 122.491 10.1484C115.892 10.1484 115.269 15.9543 115.269 17.7672C115.269 23.9707 118.526 26.0092 122.774 26.0092C125.352 26.0092 128.354 24.8205 129.401 21.1937H125.323ZM119.347 16.5775C119.573 14.5947 120.565 13.405 122.434 13.405C123.709 13.405 125.266 14.1415 125.493 16.5775H119.347Z" fill="#231F20"/>
<path d="M132.178 10.5441H135.973V13.1501H136.031C136.851 11.6205 137.758 10.1485 140.165 10.1485C140.42 10.1485 140.675 10.1759 140.93 10.2051V14.2265C140.59 14.1699 140.165 14.1699 139.797 14.1699C136.711 14.1699 136.143 16.0961 136.143 17.7673V25.6137H132.178V10.5441Z" fill="#231F20"/>
<path d="M155.433 14.5097C155.433 10.7989 151.552 10.1484 149.427 10.1484C146.341 10.1484 143.14 10.7989 142.687 15.4161H146.51C146.624 14.538 146.964 13.3209 148.947 13.3209C149.967 13.3209 151.552 13.4049 151.552 15.0762C151.552 15.926 150.788 16.1809 150.165 16.2659L146.595 16.8041C144.074 17.1724 142.205 18.6737 142.205 21.6196C142.205 24.7346 144.528 26.0092 146.793 26.0092C149.485 26.0092 150.759 24.7628 151.665 23.8281C151.75 24.6788 151.807 24.9054 152.033 25.6136H156.311V25.0178C155.829 24.8478 155.433 24.4522 155.433 22.6667V14.5097ZM151.552 20.2033C151.552 22.0445 149.768 23.1766 148.011 23.1766C147.247 23.1766 146.171 22.7526 146.171 21.3646C146.171 19.7217 147.388 19.3535 148.862 19.0985C150.504 18.8436 151.155 18.5887 151.552 18.2771V20.2033Z" fill="#231F20"/>
<path d="M163.051 25.6137H159.086V5.27631H163.051V25.6137Z" fill="#231F20"/>
<path d="M170.928 8.75951H166.963V5.07806H170.928V8.75951ZM170.928 10.5441V25.6137H166.963V10.5441H170.928Z" fill="#231F20"/>
<path d="M179.168 10.5439H181.632V13.3766H179.168V21.5629C179.168 22.4401 179.196 22.7809 180.811 22.7809C181.065 22.7809 181.349 22.7526 181.632 22.7233V25.7259C181.009 25.7542 180.385 25.7835 179.763 25.7835H179.253C175.825 25.7835 175.202 24.4796 175.202 22.526V13.3766H173.163V10.5439H175.202V6.46588H179.168V10.5439Z" fill="#231F20"/>
<path d="M196.361 14.5097C196.361 10.7989 192.481 10.1484 190.357 10.1484C187.269 10.1484 184.069 10.7989 183.615 15.4161H187.439C187.553 14.538 187.894 13.3209 189.875 13.3209C190.895 13.3209 192.481 13.4049 192.481 15.0762C192.481 15.926 191.717 16.1809 191.093 16.2659L187.524 16.8041C185.003 17.1724 183.135 18.6737 183.135 21.6196C183.135 24.7346 185.457 26.0092 187.723 26.0092C190.414 26.0092 191.688 24.7628 192.595 23.8281C192.68 24.6788 192.735 24.9054 192.963 25.6136H197.24V25.0178C196.758 24.8478 196.361 24.4522 196.361 22.6667V14.5097ZM192.481 20.2033C192.481 22.0445 190.697 23.1766 188.941 23.1766C188.176 23.1766 187.099 22.7526 187.099 21.3646C187.099 19.7217 188.317 19.3535 189.79 19.0985C191.433 18.8436 192.085 18.5887 192.481 18.2771V20.2033Z" fill="#231F20"/>
<path d="M204.35 10.5439H206.814V13.3766H204.35V21.5629C204.35 22.4401 204.379 22.7809 205.993 22.7809C206.247 22.7809 206.531 22.7526 206.814 22.7233V25.7259C206.19 25.7542 205.568 25.7835 204.944 25.7835H204.435C201.007 25.7835 200.384 24.4796 200.384 22.526V13.3766H198.345V10.5439H200.384V6.46588H204.35V10.5439Z" fill="#231F20"/>
<path d="M75.1318 33.6026H71.1661V40.8249H71.1094C70.4863 39.8618 69.2965 38.4748 66.7472 38.4748C63.433 38.4748 60.4871 41.0232 60.4871 46.2343C60.4871 50.3709 62.3575 54.3356 66.8322 54.3356C68.4751 54.3356 70.2313 53.7417 71.1944 52.0421H71.2511V53.94H75.1318V33.6026ZM64.566 46.5185C64.566 44.1391 65.4158 41.9013 67.9378 41.9013C70.6562 41.9013 71.336 44.3374 71.336 46.7442C71.336 48.9829 70.3446 51.0791 67.8236 51.0791C65.2742 51.0791 64.566 48.3031 64.566 46.5185Z" fill="#231F20"/>
<path d="M87.5378 49.5202C87.2262 50.5966 86.0932 51.164 84.9884 51.164C81.7885 51.164 81.561 48.6137 81.4477 47.4816H91.7858V46.7735C91.7858 39.8902 87.6794 38.4748 84.7052 38.4748C78.1051 38.4748 77.4829 44.2807 77.4829 46.0936C77.4829 52.2971 80.7395 54.3356 84.9884 54.3356C87.5661 54.3356 90.5678 53.1469 91.6168 49.5202H87.5378ZM81.561 44.9039C81.7885 42.9211 82.779 41.7314 84.6485 41.7314C85.9232 41.7314 87.4811 42.4679 87.7078 44.9039H81.561Z" fill="#231F20"/>
<path d="M115.58 40.2582C115.239 39.0402 114.589 36.7457 111.076 36.7457C109.037 36.7457 106.034 38.1064 106.034 43.8557C106.034 47.5098 107.479 50.7956 111.076 50.7956C113.427 50.7956 115.07 49.4643 115.58 46.9716H119.828C118.979 51.3895 116.09 54.4771 110.991 54.4771C105.581 54.4771 101.7 50.8239 101.7 43.799C101.7 36.69 105.808 33.0643 111.048 33.0643C117.137 33.0643 119.602 37.2556 119.828 40.2582H115.58Z" fill="#231F20"/>
<path d="M134.953 42.8361C134.953 39.1253 131.073 38.4748 128.948 38.4748C125.86 38.4748 122.661 39.1253 122.206 43.7425H126.03C126.144 42.8644 126.484 41.6473 128.467 41.6473C129.486 41.6473 131.073 41.7314 131.073 43.4026C131.073 44.2524 130.308 44.5073 129.685 44.5923L126.116 45.1305C123.595 45.4988 121.725 47.0001 121.725 49.946C121.725 53.061 124.048 54.3356 126.315 54.3356C129.005 54.3356 130.279 53.0893 131.186 52.1545C131.271 53.0052 131.327 53.2319 131.554 53.94H135.831V53.3442C135.35 53.1743 134.953 52.7786 134.953 50.9931V42.8361ZM131.073 48.5297C131.073 50.3709 129.288 51.503 127.533 51.503C126.767 51.503 125.691 51.0791 125.691 49.6911C125.691 48.0481 126.91 47.6799 128.382 47.425C130.024 47.17 130.676 46.9151 131.073 46.6035V48.5297Z" fill="#231F20"/>
<path d="M142.942 38.8704H145.407V41.703H142.942V49.8893C142.942 50.7665 142.97 51.1073 144.584 51.1073C144.839 51.1073 145.124 51.079 145.407 51.0498V54.0523C144.783 54.0807 144.16 54.11 143.536 54.11H143.027C139.6 54.11 138.977 52.806 138.977 50.8524V41.703H136.937V38.8704H138.977V34.7923H142.942V38.8704Z" fill="#231F20"/>
<path d="M160.133 42.8361C160.133 39.1253 156.253 38.4748 154.129 38.4748C151.041 38.4748 147.84 39.1253 147.387 43.7425H151.211C151.324 42.8644 151.663 41.6473 153.647 41.6473C154.667 41.6473 156.253 41.7314 156.253 43.4026C156.253 44.2524 155.487 44.5073 154.865 44.5923L151.296 45.1305C148.775 45.4988 146.906 47.0001 146.906 49.946C146.906 53.061 149.228 54.3356 151.494 54.3356C154.184 54.3356 155.46 53.0893 156.367 52.1545C156.451 53.0052 156.507 53.2319 156.735 53.94H161.011V53.3442C160.53 53.1743 160.133 52.7786 160.133 50.9931V42.8361ZM156.253 48.5297C156.253 50.3709 154.469 51.503 152.712 51.503C151.948 51.503 150.871 51.0791 150.871 49.6911C150.871 48.0481 152.089 47.6799 153.562 47.425C155.204 47.17 155.857 46.9151 156.253 46.6035V48.5297Z" fill="#231F20"/>
<path d="M167.753 53.9401H163.788V33.6028H167.753V53.9401Z" fill="#231F20"/>
<path d="M185.144 53.94H181.349V51.8155H181.292C180.386 53.4292 178.8 54.3356 176.704 54.3356C173.73 54.3356 171.577 52.636 171.577 48.7846V38.8704H175.542V48.2181C175.542 50.5408 176.902 50.9931 178.12 50.9931C179.423 50.9931 181.179 50.2566 181.179 47.5666V38.8704H185.144V53.94Z" fill="#231F20"/>
<path d="M202.479 53.9401H198.513V44.7907C198.513 43.686 198.457 41.8165 195.936 41.8165C194.18 41.8165 192.82 43.0062 192.82 45.3006V53.9401H188.855V38.8705H192.651V41.08H192.706C193.246 40.1736 194.379 38.4749 197.239 38.4749C200.185 38.4749 202.479 40.2019 202.479 43.516V53.9401Z" fill="#231F20"/>
<path d="M213.844 53.6851C211.974 59.2645 211.465 60 208.009 60C207.471 60 206.791 59.9726 206.226 59.9443V56.7727C206.395 56.8001 206.65 56.8293 206.989 56.8293C208.434 56.8293 209.227 56.6301 209.595 54.5632L204.044 38.8704H208.462L211.692 49.9734H211.748L214.836 38.8704H219.027L213.844 53.6851Z" fill="#231F20"/>
<path d="M232.716 42.8361C232.716 39.1253 228.836 38.4748 226.712 38.4748C223.623 38.4748 220.423 39.1253 219.97 43.7425H223.793C223.907 42.8644 224.247 41.6473 226.229 41.6473C227.249 41.6473 228.836 41.7314 228.836 43.4026C228.836 44.2524 228.07 44.5073 227.447 44.5923L223.879 45.1305C221.358 45.4988 219.488 47.0001 219.488 49.946C219.488 53.061 221.81 54.3356 224.077 54.3356C226.767 54.3356 228.042 53.0893 228.949 52.1545C229.034 53.0052 229.09 53.2319 229.318 53.94H233.594V53.3442C233.112 53.1743 232.716 52.7786 232.716 50.9931V42.8361ZM228.836 48.5297C228.836 50.3709 227.051 51.503 225.295 51.503C224.53 51.503 223.454 51.0791 223.454 49.6911C223.454 48.0481 224.672 47.6799 226.144 47.425C227.788 47.17 228.439 46.9151 228.836 46.6035V48.5297Z" fill="#231F20"/>
<path d="M250.594 4.97998L251.594 54.98" stroke="black" stroke-width="2"/>
<path d="M280.608 20.6816C280.608 21.8665 280.312 22.8783 279.719 23.7168C279.136 24.5462 278.315 25.1797 277.258 25.6172C276.201 26.0547 274.957 26.2734 273.526 26.2734C272.769 26.2734 272.054 26.237 271.379 26.1641C270.705 26.0911 270.085 25.9863 269.52 25.8496C268.955 25.7129 268.458 25.5443 268.03 25.3438V23.1152C268.713 23.3978 269.547 23.6621 270.532 23.9082C271.516 24.1452 272.546 24.2637 273.621 24.2637C274.624 24.2637 275.472 24.1315 276.164 23.8672C276.857 23.5938 277.381 23.2064 277.737 22.7051C278.101 22.1947 278.284 21.584 278.284 20.873C278.284 20.1895 278.133 19.6198 277.832 19.1641C277.532 18.6992 277.03 18.2799 276.328 17.9062C275.636 17.5234 274.688 17.1178 273.485 16.6895C272.637 16.3887 271.89 16.0605 271.242 15.7051C270.595 15.3405 270.053 14.9303 269.616 14.4746C269.178 14.0189 268.845 13.4902 268.617 12.8887C268.399 12.2871 268.289 11.599 268.289 10.8242C268.289 9.75781 268.558 8.84635 269.096 8.08984C269.643 7.32422 270.395 6.74089 271.352 6.33984C272.318 5.92969 273.425 5.72461 274.674 5.72461C275.741 5.72461 276.725 5.82487 277.627 6.02539C278.539 6.22591 279.373 6.49479 280.129 6.83203L279.405 8.82812C278.685 8.52734 277.919 8.27669 277.108 8.07617C276.306 7.87565 275.476 7.77539 274.619 7.77539C273.763 7.77539 273.038 7.90299 272.446 8.1582C271.862 8.4043 271.416 8.75521 271.106 9.21094C270.796 9.66667 270.641 10.209 270.641 10.8379C270.641 11.5397 270.787 12.123 271.078 12.5879C271.379 13.0527 271.853 13.4674 272.5 13.832C273.157 14.1875 274.022 14.5612 275.098 14.9531C276.274 15.3815 277.272 15.8372 278.092 16.3203C278.912 16.7943 279.537 17.3776 279.965 18.0703C280.394 18.7539 280.608 19.6243 280.608 20.6816ZM286.623 11.0156V26H284.354V11.0156H286.623ZM285.516 5.41016C285.89 5.41016 286.209 5.5332 286.473 5.7793C286.746 6.01628 286.883 6.38997 286.883 6.90039C286.883 7.40169 286.746 7.77539 286.473 8.02148C286.209 8.26758 285.89 8.39062 285.516 8.39062C285.124 8.39062 284.796 8.26758 284.532 8.02148C284.276 7.77539 284.149 7.40169 284.149 6.90039C284.149 6.38997 284.276 6.01628 284.532 5.7793C284.796 5.5332 285.124 5.41016 285.516 5.41016ZM301.129 21.8984C301.129 22.8555 300.888 23.6621 300.405 24.3184C299.931 24.9655 299.247 25.4531 298.354 25.7812C297.47 26.1094 296.412 26.2734 295.182 26.2734C294.134 26.2734 293.227 26.1914 292.461 26.0273C291.696 25.8633 291.026 25.6309 290.451 25.3301V23.2383C291.062 23.5391 291.791 23.8125 292.639 24.0586C293.487 24.3047 294.353 24.4277 295.237 24.4277C296.531 24.4277 297.47 24.2181 298.053 23.7988C298.636 23.3796 298.928 22.8099 298.928 22.0898C298.928 21.6797 298.81 21.3197 298.573 21.0098C298.345 20.6908 297.957 20.3854 297.41 20.0938C296.864 19.793 296.107 19.4648 295.141 19.1094C294.184 18.7448 293.354 18.3848 292.653 18.0293C291.96 17.6647 291.422 17.2227 291.039 16.7031C290.666 16.1836 290.479 15.5091 290.479 14.6797C290.479 13.4128 290.989 12.4421 292.01 11.7676C293.04 11.084 294.389 10.7422 296.057 10.7422C296.959 10.7422 297.802 10.8333 298.586 11.0156C299.379 11.1888 300.117 11.4258 300.801 11.7266L300.035 13.5449C299.416 13.2806 298.755 13.0573 298.053 12.875C297.351 12.6927 296.636 12.6016 295.907 12.6016C294.858 12.6016 294.052 12.7747 293.487 13.1211C292.931 13.4674 292.653 13.9414 292.653 14.543C292.653 15.0078 292.78 15.3906 293.035 15.6914C293.3 15.9922 293.719 16.2747 294.293 16.5391C294.867 16.8034 295.624 17.1133 296.563 17.4688C297.502 17.8151 298.313 18.1751 298.996 18.5488C299.68 18.9134 300.204 19.36 300.569 19.8887C300.942 20.4082 301.129 21.0781 301.129 21.8984ZM309.619 24.4141C309.993 24.4141 310.376 24.3822 310.768 24.3184C311.16 24.2546 311.479 24.1771 311.725 24.0859V25.8496C311.461 25.9681 311.091 26.0684 310.617 26.1504C310.153 26.2324 309.697 26.2734 309.25 26.2734C308.457 26.2734 307.737 26.1367 307.09 25.8633C306.443 25.5807 305.923 25.1068 305.532 24.4414C305.149 23.776 304.957 22.8555 304.957 21.6797V12.793H302.825V11.6855L304.971 10.7969L305.873 7.54297H307.241V11.0156H311.629V12.793H307.241V21.6113C307.241 22.5501 307.455 23.252 307.883 23.7168C308.321 24.1816 308.899 24.4141 309.619 24.4141ZM320.53 10.7422C321.806 10.7422 322.899 11.0247 323.811 11.5898C324.722 12.1549 325.42 12.9479 325.903 13.9688C326.386 14.9805 326.627 16.1654 326.627 17.5234V18.9316H316.278C316.305 20.6908 316.742 22.0306 317.59 22.9512C318.438 23.8717 319.632 24.332 321.172 24.332C322.12 24.332 322.959 24.2454 323.688 24.0723C324.417 23.8991 325.173 23.6439 325.957 23.3066V25.3027C325.201 25.64 324.449 25.8861 323.701 26.041C322.963 26.196 322.088 26.2734 321.076 26.2734C319.636 26.2734 318.379 25.9818 317.303 25.3984C316.237 24.806 315.407 23.9401 314.815 22.8008C314.222 21.6615 313.926 20.2669 313.926 18.6172C313.926 17.0039 314.195 15.6094 314.733 14.4336C315.28 13.2487 316.045 12.3372 317.03 11.6992C318.023 11.0612 319.19 10.7422 320.53 10.7422ZM320.502 12.6016C319.29 12.6016 318.324 12.998 317.604 13.791C316.884 14.584 316.455 15.6914 316.319 17.1133H324.248C324.239 16.2201 324.098 15.4362 323.825 14.7617C323.56 14.0781 323.155 13.5495 322.608 13.1758C322.061 12.793 321.359 12.6016 320.502 12.6016ZM346.752 10.7422C348.402 10.7422 349.646 11.1751 350.485 12.041C351.323 12.8978 351.742 14.2786 351.742 16.1836V26H349.5V16.293C349.5 15.0807 349.236 14.1738 348.707 13.5723C348.188 12.9616 347.413 12.6562 346.383 12.6562C344.934 12.6562 343.881 13.0755 343.225 13.9141C342.569 14.7526 342.241 15.9876 342.241 17.6191V26H339.985V16.293C339.985 15.4818 339.866 14.8073 339.629 14.2695C339.401 13.7318 339.055 13.3307 338.59 13.0664C338.134 12.793 337.556 12.6562 336.854 12.6562C335.86 12.6562 335.063 12.8613 334.461 13.2715C333.86 13.6816 333.422 14.2923 333.149 15.1035C332.884 15.9056 332.752 16.8945 332.752 18.0703V26H330.483V11.0156H332.315L332.657 13.1348H332.78C333.08 12.6152 333.459 12.1777 333.914 11.8223C334.37 11.4668 334.881 11.1979 335.446 11.0156C336.011 10.8333 336.612 10.7422 337.25 10.7422C338.39 10.7422 339.342 10.9564 340.108 11.3848C340.882 11.804 341.443 12.4466 341.789 13.3125H341.912C342.405 12.4466 343.079 11.804 343.936 11.3848C344.793 10.9564 345.731 10.7422 346.752 10.7422ZM362.01 10.7695C363.797 10.7695 365.123 11.1706 365.989 11.9727C366.854 12.7747 367.287 14.0553 367.287 15.8145V26H365.633L365.196 23.7852H365.086C364.667 24.332 364.229 24.7923 363.774 25.166C363.318 25.5306 362.789 25.8086 362.188 26C361.595 26.1823 360.866 26.2734 360 26.2734C359.089 26.2734 358.278 26.1139 357.567 25.7949C356.865 25.4759 356.309 24.9928 355.899 24.3457C355.498 23.6986 355.297 22.8783 355.297 21.8848C355.297 20.39 355.89 19.2415 357.075 18.4395C358.259 17.6374 360.064 17.1999 362.489 17.127L365.073 17.0176V16.1016C365.073 14.8073 364.795 13.9004 364.239 13.3809C363.683 12.8613 362.899 12.6016 361.887 12.6016C361.103 12.6016 360.356 12.7155 359.645 12.9434C358.934 13.1712 358.259 13.4401 357.621 13.75L356.924 12.0273C357.599 11.681 358.373 11.3848 359.248 11.1387C360.123 10.8926 361.044 10.7695 362.01 10.7695ZM365.045 18.6172L362.762 18.7129C360.894 18.7858 359.576 19.0911 358.811 19.6289C358.045 20.1667 357.662 20.9277 357.662 21.9121C357.662 22.7689 357.922 23.4023 358.442 23.8125C358.961 24.2227 359.649 24.4277 360.506 24.4277C361.837 24.4277 362.926 24.0586 363.774 23.3203C364.621 22.582 365.045 21.4746 365.045 19.998V18.6172ZM384.569 26.2734C382.673 26.2734 381.169 25.6263 380.057 24.332C378.954 23.0378 378.403 21.1146 378.403 18.5625C378.403 15.9831 378.968 14.0371 380.098 12.7246C381.228 11.403 382.732 10.7422 384.61 10.7422C385.403 10.7422 386.095 10.847 386.688 11.0566C387.28 11.2663 387.791 11.5488 388.219 11.9043C388.647 12.2507 389.007 12.6471 389.299 13.0938H389.463C389.427 12.8112 389.39 12.4238 389.354 11.9316C389.317 11.4395 389.299 11.0384 389.299 10.7285V4.72656H391.569V26H389.737L389.395 23.8672H389.299C389.017 24.3138 388.657 24.7194 388.219 25.084C387.791 25.4486 387.276 25.7402 386.674 25.959C386.082 26.1686 385.38 26.2734 384.569 26.2734ZM384.924 24.3867C386.528 24.3867 387.663 23.931 388.328 23.0195C388.994 22.1081 389.326 20.7546 389.326 18.959V18.5488C389.326 16.6439 389.007 15.181 388.369 14.1602C387.741 13.1393 386.592 12.6289 384.924 12.6289C383.53 12.6289 382.486 13.1667 381.793 14.2422C381.101 15.3086 380.754 16.7669 380.754 18.6172C380.754 20.4583 381.096 21.8802 381.78 22.8828C382.472 23.8854 383.52 24.3867 384.924 24.3867ZM402.151 10.7422C403.427 10.7422 404.52 11.0247 405.432 11.5898C406.343 12.1549 407.041 12.9479 407.524 13.9688C408.007 14.9805 408.248 16.1654 408.248 17.5234V18.9316H397.899C397.926 20.6908 398.364 22.0306 399.211 22.9512C400.059 23.8717 401.253 24.332 402.793 24.332C403.741 24.332 404.58 24.2454 405.309 24.0723C406.038 23.8991 406.795 23.6439 407.578 23.3066V25.3027C406.822 25.64 406.07 25.8861 405.323 26.041C404.584 26.196 403.709 26.2734 402.698 26.2734C401.257 26.2734 400 25.9818 398.924 25.3984C397.858 24.806 397.028 23.9401 396.436 22.8008C395.843 21.6615 395.547 20.2669 395.547 18.6172C395.547 17.0039 395.816 15.6094 396.354 14.4336C396.901 13.2487 397.666 12.3372 398.651 11.6992C399.644 11.0612 400.811 10.7422 402.151 10.7422ZM402.123 12.6016C400.911 12.6016 399.945 12.998 399.225 13.791C398.505 14.584 398.076 15.6914 397.94 17.1133H405.869C405.86 16.2201 405.719 15.4362 405.446 14.7617C405.181 14.0781 404.776 13.5495 404.229 13.1758C403.682 12.793 402.98 12.6016 402.123 12.6016ZM424.709 26.2734C422.813 26.2734 421.31 25.6263 420.198 24.332C419.095 23.0378 418.543 21.1146 418.543 18.5625C418.543 15.9831 419.108 14.0371 420.239 12.7246C421.369 11.403 422.873 10.7422 424.75 10.7422C425.543 10.7422 426.236 10.847 426.828 11.0566C427.421 11.2663 427.931 11.5488 428.36 11.9043C428.788 12.2507 429.148 12.6471 429.44 13.0938H429.604C429.567 12.8112 429.531 12.4238 429.494 11.9316C429.458 11.4395 429.44 11.0384 429.44 10.7285V4.72656H431.709V26H429.877L429.535 23.8672H429.44C429.157 24.3138 428.797 24.7194 428.36 25.084C427.931 25.4486 427.416 25.7402 426.815 25.959C426.222 26.1686 425.52 26.2734 424.709 26.2734ZM425.065 24.3867C426.669 24.3867 427.804 23.931 428.469 23.0195C429.134 22.1081 429.467 20.7546 429.467 18.959V18.5488C429.467 16.6439 429.148 15.181 428.51 14.1602C427.881 13.1393 426.733 12.6289 425.065 12.6289C423.67 12.6289 422.627 13.1667 421.934 14.2422C421.241 15.3086 420.895 16.7669 420.895 18.6172C420.895 20.4583 421.237 21.8802 421.92 22.8828C422.613 23.8854 423.661 24.3867 425.065 24.3867ZM438.791 11.0156V26H436.522V11.0156H438.791ZM437.684 5.41016C438.058 5.41016 438.377 5.5332 438.641 5.7793C438.914 6.01628 439.051 6.38997 439.051 6.90039C439.051 7.40169 438.914 7.77539 438.641 8.02148C438.377 8.26758 438.058 8.39062 437.684 8.39062C437.292 8.39062 436.964 8.26758 436.7 8.02148C436.444 7.77539 436.317 7.40169 436.317 6.90039C436.317 6.38997 436.444 6.01628 436.7 5.7793C436.964 5.5332 437.292 5.41016 437.684 5.41016ZM453.297 21.8984C453.297 22.8555 453.056 23.6621 452.573 24.3184C452.099 24.9655 451.415 25.4531 450.522 25.7812C449.638 26.1094 448.58 26.2734 447.35 26.2734C446.302 26.2734 445.395 26.1914 444.629 26.0273C443.864 25.8633 443.194 25.6309 442.619 25.3301V23.2383C443.23 23.5391 443.959 23.8125 444.807 24.0586C445.655 24.3047 446.52 24.4277 447.405 24.4277C448.699 24.4277 449.638 24.2181 450.221 23.7988C450.804 23.3796 451.096 22.8099 451.096 22.0898C451.096 21.6797 450.978 21.3197 450.741 21.0098C450.513 20.6908 450.125 20.3854 449.578 20.0938C449.032 19.793 448.275 19.4648 447.309 19.1094C446.352 18.7448 445.522 18.3848 444.821 18.0293C444.128 17.6647 443.59 17.2227 443.207 16.7031C442.834 16.1836 442.647 15.5091 442.647 14.6797C442.647 13.4128 443.157 12.4421 444.178 11.7676C445.208 11.084 446.557 10.7422 448.225 10.7422C449.127 10.7422 449.97 10.8333 450.754 11.0156C451.547 11.1888 452.285 11.4258 452.969 11.7266L452.203 13.5449C451.584 13.2806 450.923 13.0573 450.221 12.875C449.519 12.6927 448.804 12.6016 448.075 12.6016C447.026 12.6016 446.22 12.7747 445.655 13.1211C445.099 13.4674 444.821 13.9414 444.821 14.543C444.821 15.0078 444.948 15.3906 445.203 15.6914C445.468 15.9922 445.887 16.2747 446.461 16.5391C447.035 16.8034 447.792 17.1133 448.731 17.4688C449.67 17.8151 450.481 18.1751 451.164 18.5488C451.848 18.9134 452.372 19.36 452.737 19.8887C453.11 20.4082 453.297 21.0781 453.297 21.8984ZM466.641 21.8984C466.641 22.8555 466.399 23.6621 465.916 24.3184C465.442 24.9655 464.759 25.4531 463.866 25.7812C462.981 26.1094 461.924 26.2734 460.694 26.2734C459.645 26.2734 458.739 26.1914 457.973 26.0273C457.207 25.8633 456.537 25.6309 455.963 25.3301V23.2383C456.574 23.5391 457.303 23.8125 458.151 24.0586C458.998 24.3047 459.864 24.4277 460.748 24.4277C462.043 24.4277 462.981 24.2181 463.565 23.7988C464.148 23.3796 464.44 22.8099 464.44 22.0898C464.44 21.6797 464.321 21.3197 464.084 21.0098C463.856 20.6908 463.469 20.3854 462.922 20.0938C462.375 19.793 461.619 19.4648 460.653 19.1094C459.696 18.7448 458.866 18.3848 458.164 18.0293C457.472 17.6647 456.934 17.2227 456.551 16.7031C456.177 16.1836 455.991 15.5091 455.991 14.6797C455.991 13.4128 456.501 12.4421 457.522 11.7676C458.552 11.084 459.901 10.7422 461.569 10.7422C462.471 10.7422 463.314 10.8333 464.098 11.0156C464.891 11.1888 465.629 11.4258 466.313 11.7266L465.547 13.5449C464.927 13.2806 464.267 13.0573 463.565 12.875C462.863 12.6927 462.147 12.6016 461.418 12.6016C460.37 12.6016 459.563 12.7747 458.998 13.1211C458.442 13.4674 458.164 13.9414 458.164 14.543C458.164 15.0078 458.292 15.3906 458.547 15.6914C458.812 15.9922 459.231 16.2747 459.805 16.5391C460.379 16.8034 461.136 17.1133 462.075 17.4688C463.013 17.8151 463.825 18.1751 464.508 18.5488C465.192 18.9134 465.716 19.36 466.08 19.8887C466.454 20.4082 466.641 21.0781 466.641 21.8984ZM476.061 10.7422C477.337 10.7422 478.431 11.0247 479.342 11.5898C480.254 12.1549 480.951 12.9479 481.434 13.9688C481.917 14.9805 482.159 16.1654 482.159 17.5234V18.9316H471.809C471.836 20.6908 472.274 22.0306 473.121 22.9512C473.969 23.8717 475.163 24.332 476.703 24.332C477.651 24.332 478.49 24.2454 479.219 24.0723C479.948 23.8991 480.705 23.6439 481.489 23.3066V25.3027C480.732 25.64 479.98 25.8861 479.233 26.041C478.494 26.196 477.619 26.2734 476.608 26.2734C475.168 26.2734 473.91 25.9818 472.834 25.3984C471.768 24.806 470.938 23.9401 470.346 22.8008C469.754 21.6615 469.457 20.2669 469.457 18.6172C469.457 17.0039 469.726 15.6094 470.264 14.4336C470.811 13.2487 471.576 12.3372 472.561 11.6992C473.554 11.0612 474.721 10.7422 476.061 10.7422ZM476.034 12.6016C474.821 12.6016 473.855 12.998 473.135 13.791C472.415 14.584 471.987 15.6914 471.85 17.1133H479.78C479.77 16.2201 479.629 15.4362 479.356 14.7617C479.091 14.0781 478.686 13.5495 478.139 13.1758C477.592 12.793 476.89 12.6016 476.034 12.6016ZM493.11 10.7422C494.887 10.7422 496.231 11.1797 497.143 12.0547C498.054 12.9206 498.51 14.3151 498.51 16.2383V26H496.268V16.3887C496.268 15.14 495.981 14.2057 495.407 13.5859C494.841 12.9661 493.971 12.6562 492.795 12.6562C491.136 12.6562 489.97 13.1257 489.295 14.0645C488.621 15.0033 488.284 16.3659 488.284 18.1523V26H486.014V11.0156H487.846L488.188 13.1758H488.311C488.63 12.6471 489.035 12.2051 489.528 11.8496C490.02 11.485 490.571 11.2116 491.182 11.0293C491.793 10.8379 492.435 10.7422 493.11 10.7422ZM500.821 11.0156H503.254L506.563 19.7109C506.754 20.2214 506.932 20.7135 507.096 21.1875C507.26 21.6523 507.406 22.099 507.534 22.5273C507.661 22.9557 507.761 23.3704 507.834 23.7715H507.93C508.058 23.3158 508.24 22.7188 508.477 21.9805C508.714 21.2331 508.969 20.472 509.242 19.6973L512.373 11.0156H514.821L508.299 28.2012C507.953 29.1217 507.547 29.9238 507.082 30.6074C506.627 31.291 506.071 31.8151 505.414 32.1797C504.758 32.5534 503.965 32.7402 503.035 32.7402C502.607 32.7402 502.229 32.7129 501.901 32.6582C501.573 32.6126 501.29 32.5579 501.053 32.4941V30.6758C501.254 30.7214 501.495 30.7624 501.778 30.7988C502.069 30.8353 502.37 30.8535 502.68 30.8535C503.245 30.8535 503.733 30.7441 504.143 30.5254C504.562 30.3158 504.922 30.0059 505.223 29.5957C505.524 29.1855 505.784 28.6979 506.002 28.1328L506.823 26.0273L500.821 11.0156ZM274.319 56.2734C272.423 56.2734 270.919 55.6263 269.807 54.332C268.704 53.0378 268.153 51.1146 268.153 48.5625C268.153 45.9831 268.718 44.0371 269.848 42.7246C270.978 41.403 272.482 40.7422 274.36 40.7422C275.153 40.7422 275.845 40.847 276.438 41.0566C277.03 41.2663 277.541 41.5488 277.969 41.9043C278.397 42.2507 278.757 42.6471 279.049 43.0938H279.213C279.177 42.8112 279.14 42.4238 279.104 41.9316C279.067 41.4395 279.049 41.0384 279.049 40.7285V34.7266H281.319V56H279.487L279.145 53.8672H279.049C278.767 54.3138 278.407 54.7194 277.969 55.084C277.541 55.4486 277.026 55.7402 276.424 55.959C275.832 56.1686 275.13 56.2734 274.319 56.2734ZM274.674 54.3867C276.278 54.3867 277.413 53.931 278.078 53.0195C278.744 52.1081 279.076 50.7546 279.076 48.959V48.5488C279.076 46.6439 278.757 45.181 278.119 44.1602C277.491 43.1393 276.342 42.6289 274.674 42.6289C273.28 42.6289 272.236 43.1667 271.543 44.2422C270.851 45.3086 270.504 46.7669 270.504 48.6172C270.504 50.4583 270.846 51.8802 271.53 52.8828C272.222 53.8854 273.27 54.3867 274.674 54.3867ZM291.901 40.7422C293.177 40.7422 294.27 41.0247 295.182 41.5898C296.093 42.1549 296.791 42.9479 297.274 43.9688C297.757 44.9805 297.998 46.1654 297.998 47.5234V48.9316H287.649C287.676 50.6908 288.114 52.0306 288.961 52.9512C289.809 53.8717 291.003 54.332 292.543 54.332C293.491 54.332 294.33 54.2454 295.059 54.0723C295.788 53.8991 296.545 53.6439 297.328 53.3066V55.3027C296.572 55.64 295.82 55.8861 295.073 56.041C294.334 56.196 293.459 56.2734 292.448 56.2734C291.007 56.2734 289.75 55.9818 288.674 55.3984C287.608 54.806 286.778 53.9401 286.186 52.8008C285.593 51.6615 285.297 50.2669 285.297 48.6172C285.297 47.0039 285.566 45.6094 286.104 44.4336C286.651 43.2487 287.416 42.3372 288.401 41.6992C289.394 41.0612 290.561 40.7422 291.901 40.7422ZM291.873 42.6016C290.661 42.6016 289.695 42.998 288.975 43.791C288.255 44.584 287.826 45.6914 287.69 47.1133H295.619C295.61 46.2201 295.469 45.4362 295.196 44.7617C294.931 44.0781 294.526 43.5495 293.979 43.1758C293.432 42.793 292.73 42.6016 291.873 42.6016ZM320.748 50.6816C320.748 51.8665 320.452 52.8783 319.86 53.7168C319.276 54.5462 318.456 55.1797 317.399 55.6172C316.341 56.0547 315.097 56.2734 313.666 56.2734C312.91 56.2734 312.194 56.237 311.52 56.1641C310.845 56.0911 310.226 55.9863 309.66 55.8496C309.095 55.7129 308.599 55.5443 308.17 55.3438V53.1152C308.854 53.3978 309.688 53.6621 310.672 53.9082C311.657 54.1452 312.687 54.2637 313.762 54.2637C314.765 54.2637 315.612 54.1315 316.305 53.8672C316.998 53.5938 317.522 53.2064 317.877 52.7051C318.242 52.1947 318.424 51.584 318.424 50.873C318.424 50.1895 318.274 49.6198 317.973 49.1641C317.672 48.6992 317.171 48.2799 316.469 47.9062C315.776 47.5234 314.828 47.1178 313.625 46.6895C312.778 46.3887 312.03 46.0605 311.383 45.7051C310.736 45.3405 310.194 44.9303 309.756 44.4746C309.319 44.0189 308.986 43.4902 308.758 42.8887C308.539 42.2871 308.43 41.599 308.43 40.8242C308.43 39.7578 308.699 38.8464 309.237 38.0898C309.784 37.3242 310.535 36.7409 311.492 36.3398C312.459 35.9297 313.566 35.7246 314.815 35.7246C315.881 35.7246 316.866 35.8249 317.768 36.0254C318.679 36.2259 319.513 36.4948 320.27 36.832L319.545 38.8281C318.825 38.5273 318.06 38.2767 317.248 38.0762C316.446 37.8757 315.617 37.7754 314.76 37.7754C313.903 37.7754 313.179 37.903 312.586 38.1582C312.003 38.4043 311.556 38.7552 311.246 39.2109C310.937 39.6667 310.782 40.209 310.782 40.8379C310.782 41.5397 310.927 42.123 311.219 42.5879C311.52 43.0527 311.994 43.4674 312.641 43.832C313.297 44.1875 314.163 44.5612 315.239 44.9531C316.414 45.3815 317.412 45.8372 318.233 46.3203C319.053 46.7943 319.677 47.3776 320.106 48.0703C320.534 48.7539 320.748 49.6243 320.748 50.6816ZM330.1 40.7695C331.886 40.7695 333.213 41.1706 334.078 41.9727C334.944 42.7747 335.377 44.0553 335.377 45.8145V56H333.723L333.285 53.7852H333.176C332.757 54.332 332.319 54.7923 331.864 55.166C331.408 55.5306 330.879 55.8086 330.278 56C329.685 56.1823 328.956 56.2734 328.09 56.2734C327.179 56.2734 326.367 56.1139 325.657 55.7949C324.955 55.4759 324.399 54.9928 323.989 54.3457C323.588 53.6986 323.387 52.8783 323.387 51.8848C323.387 50.39 323.979 49.2415 325.164 48.4395C326.349 47.6374 328.154 47.1999 330.578 47.127L333.162 47.0176V46.1016C333.162 44.8073 332.884 43.9004 332.328 43.3809C331.772 42.8613 330.989 42.6016 329.977 42.6016C329.193 42.6016 328.446 42.7155 327.735 42.9434C327.024 43.1712 326.349 43.4401 325.711 43.75L325.014 42.0273C325.688 41.681 326.463 41.3848 327.338 41.1387C328.213 40.8926 329.134 40.7695 330.1 40.7695ZM333.135 48.6172L330.852 48.7129C328.983 48.7858 327.666 49.0911 326.901 49.6289C326.135 50.1667 325.752 50.9277 325.752 51.9121C325.752 52.7689 326.012 53.4023 326.532 53.8125C327.051 54.2227 327.739 54.4277 328.596 54.4277C329.927 54.4277 331.016 54.0586 331.864 53.3203C332.711 52.582 333.135 51.4746 333.135 49.998V48.6172ZM342.336 56H340.053V34.7266H342.336V56ZM359.508 41.0156V56H357.649L357.321 53.8945H357.198C356.888 54.4141 356.487 54.8516 355.994 55.207C355.502 55.5625 354.946 55.8268 354.326 56C353.716 56.1823 353.064 56.2734 352.371 56.2734C351.187 56.2734 350.193 56.082 349.391 55.6992C348.589 55.3164 347.983 54.724 347.573 53.9219C347.172 53.1198 346.971 52.0898 346.971 50.832V41.0156H349.268V50.668C349.268 51.9167 349.55 52.8509 350.116 53.4707C350.681 54.0814 351.542 54.3867 352.7 54.3867C353.812 54.3867 354.696 54.1771 355.352 53.7578C356.017 53.3385 356.496 52.7233 356.787 51.9121C357.079 51.0918 357.225 50.0892 357.225 48.9043V41.0156H359.508ZM369.147 54.4141C369.52 54.4141 369.903 54.3822 370.295 54.3184C370.687 54.2546 371.006 54.1771 371.252 54.0859V55.8496C370.988 55.9681 370.619 56.0684 370.145 56.1504C369.68 56.2324 369.224 56.2734 368.778 56.2734C367.985 56.2734 367.265 56.1367 366.617 55.8633C365.97 55.5807 365.451 55.1068 365.059 54.4414C364.676 53.776 364.485 52.8555 364.485 51.6797V42.793H362.352V41.6855L364.498 40.7969L365.401 37.543H366.768V41.0156H371.157V42.793H366.768V51.6113C366.768 52.5501 366.982 53.252 367.41 53.7168C367.848 54.1816 368.427 54.4141 369.147 54.4141Z" fill="black"/>
</g>
</svg>
