<svg width="24" height="24" viewBox="0 0 24 24" fill="none" xmlns="http://www.w3.org/2000/svg">
<g clip-path="url(#clip0_31_918)">
<path fill-rule="evenodd" clip-rule="evenodd" d="M12 2C7.58827 2 4 5.74951 4 10.3595C4 12.4644 4.88698 14.5488 6.47055 16.6531L6.60761 16.8335L6.88205 17.1841C6.92795 17.2415 6.97399 17.2986 7.02022 17.3553L7.30046 17.6917C7.53682 17.9696 7.78136 18.2425 8.04234 18.5204L8.36395 18.8568C8.41904 18.9135 8.47492 18.9705 8.53167 19.028L8.88292 19.3786L9.25792 19.7433C9.32258 19.8055 9.38836 19.8684 9.45532 19.9322L9.8719 20.3253L10.3202 20.742L11.0888 21.4515L11.336 21.6859C11.3606 21.7095 11.3847 21.733 11.4091 21.7568C11.7415 22.081 12.2586 22.081 12.5907 21.7571L13.101 21.2754L13.9082 20.5305L14.3402 20.1261C14.4096 20.0606 14.4778 19.996 14.5448 19.9322L14.9328 19.5589L15.2955 19.2017L15.6361 18.8568L15.9577 18.5204C16.5319 17.9091 17.0264 17.3216 17.5295 16.6531C19.113 14.5488 20 12.4644 20 10.3595C20 5.74952 16.4117 2 12 2ZM12 3C15.8593 3 19 6.30506 19 10.3663C19 12.859 17.8322 15.0332 15.4299 17.6433L15.0603 18.0382C14.9971 18.1046 14.9332 18.1713 14.8685 18.2383L14.471 18.644C14.4032 18.7123 14.3347 18.7809 14.2653 18.8499L13.8398 19.2678L13.3956 19.6945L12.9327 20.1305L12.0831 20.9215L11.9996 21L10.8336 19.9112C10.7564 19.8386 10.68 19.7663 10.6044 19.6944L10.1602 19.2677L9.73477 18.8498L9.32796 18.4402C6.41305 15.4648 5 13.1083 5 10.3663C5 6.30505 8.1407 3 12 3Z" fill="#1D1D1D"/>
<path fill-rule="evenodd" clip-rule="evenodd" d="M12.0466 6.19464C10.1292 6.19464 8.57483 7.81885 8.57483 9.82242C8.57483 11.826 10.1292 13.4502 12.0466 13.4502C13.964 13.4502 15.5184 11.826 15.5184 9.82242C15.5184 7.81885 13.964 6.19464 12.0466 6.19464ZM12.0466 7.40393C13.3249 7.40393 14.3611 8.48674 14.3611 9.82245C14.3611 11.1582 13.3249 12.241 12.0466 12.241C10.7683 12.241 9.73208 11.1582 9.73208 9.82245C9.73208 8.48674 10.7683 7.40393 12.0466 7.40393Z" fill="#0073E6"/>
</g>
<defs>
<clipPath id="clip0_31_918">
<rect width="24" height="24" fill="white"/>
</clipPath>
</defs>
</svg>
