<svg width="24" height="24" viewBox="0 0 24 24" fill="none" xmlns="http://www.w3.org/2000/svg">
<g clip-path="url(#clip0_46_526)">
<path fill-rule="evenodd" clip-rule="evenodd" d="M13.8947 2C14.7668 2 15.4737 2.6584 15.4737 3.47059C15.4737 3.98808 15.1867 4.44315 14.7529 4.70525C16.6817 5.63389 18 7.50918 18 9.67124V18.8235C18 20.5778 16.4731 22 14.5895 22H9.41053C7.52694 22 6 20.5778 6 18.8235V9.67124C6 7.50918 7.3183 5.63389 9.24708 4.70462C8.81331 4.44315 8.52632 3.98808 8.52632 3.47059C8.52632 2.6584 9.23323 2 10.1053 2H13.8947ZM13.8947 3.17651H10.1053C9.93085 3.17651 9.78946 3.30819 9.78946 3.47063C9.78946 3.57206 9.84366 3.66291 9.93338 3.71699C10.7476 4.20775 10.6888 5.33459 9.82744 5.7496C8.31682 6.47741 7.33054 7.90428 7.26647 9.50508L7.26363 9.64703H16.7368C16.7271 7.98895 15.7277 6.49898 14.1728 5.75039C13.3117 5.33579 13.2522 4.20961 14.0654 3.71828C14.1561 3.66352 14.2105 3.57224 14.2105 3.47063C14.2105 3.32624 14.0988 3.20616 13.9515 3.18125L13.8947 3.17651ZM16.7368 10.8235H7.26315V17.2941H16.7368V10.8235ZM16.7368 18.4706H7.26315V18.8236C7.26315 19.8913 8.16153 20.7636 9.29269 20.8206L9.41051 20.8236H14.5895C15.7359 20.8236 16.6725 19.9868 16.7337 18.9333L16.7368 18.8236V18.4706Z" fill="#1D1D1D"/>
<path fill-rule="evenodd" clip-rule="evenodd" d="M12 12C12.3017 12 12.5503 12.2271 12.5843 12.5196L12.5882 12.5882L12.5876 13.4112L13.4118 13.4118C13.7366 13.4118 14 13.6751 14 14C14 14.3017 13.7729 14.5503 13.4804 14.5843L13.4118 14.5882L12.5876 14.5876L12.5882 15.4118C12.5882 15.7366 12.3249 16 12 16C11.6983 16 11.4497 15.7729 11.4157 15.4804L11.4118 15.4118L11.4112 14.5876L10.5882 14.5882C10.2634 14.5882 10 14.3249 10 14C10 13.6983 10.2271 13.4497 10.5196 13.4157L10.5882 13.4118L11.4112 13.4112L11.4118 12.5882C11.4118 12.2634 11.6751 12 12 12Z" fill="#0073E6"/>
</g>
<defs>
<clipPath id="clip0_46_526">
<rect width="24" height="24" fill="white"/>
</clipPath>
</defs>
</svg>
