<svg width="24" height="24" viewBox="0 0 24 24" fill="none" xmlns="http://www.w3.org/2000/svg">
<g clip-path="url(#clip0_40_2580)">
<path fill-rule="evenodd" clip-rule="evenodd" d="M6.31292 14.901C7.62054 13.7266 9.51951 13.6964 11.9467 14.7266L12.1394 14.8101C14.2634 15.7496 15.5336 15.5632 16.1718 14.3577C16.3111 14.0946 16.6344 13.9958 16.894 14.137C17.1535 14.2781 17.251 14.6058 17.1117 14.8688C16.1811 16.6265 14.3666 16.9273 11.8761 15.8717L11.7127 15.8009C9.53372 14.8371 7.99235 14.8371 7.02036 15.7101C6.79991 15.9081 6.46284 15.8875 6.26748 15.664C6.07213 15.4406 6.09247 15.099 6.31292 14.901Z" fill="#0073E6"/>
<path fill-rule="evenodd" clip-rule="evenodd" d="M13.4195 2H10.581C9.80716 2 9.17232 2.6248 9.17232 3.40194V3.55257L9.17585 3.65238C9.20134 4.01257 9.36388 4.34085 9.61883 4.57795L9.70182 4.64919L9.70228 10.9183C9.70228 11.0526 9.65291 11.1822 9.56379 11.2816L4.82864 16.5668C3.95874 17.5473 3.75665 18.9015 4.30366 20.0864C4.8486 21.2663 6.00565 22 7.3136 22H16.6865C17.9946 22 19.152 21.2661 19.6965 20.0863C20.2431 18.9012 20.0412 17.5471 19.1732 16.5688L14.4363 11.2816L14.3951 11.2295C14.3321 11.1388 14.2978 11.0302 14.2978 10.9183L14.2976 4.64919L14.3021 4.64628C14.6275 4.38617 14.8281 3.98816 14.8281 3.55257V3.40194C14.8281 2.62489 14.193 2 13.4195 2ZM10.581 3.08112H13.4195C13.6109 3.08112 13.7615 3.22928 13.7615 3.40197V3.55261C13.7615 3.66321 13.7018 3.76495 13.6045 3.82325L13.5605 3.84547C13.3612 3.92911 13.2312 4.12624 13.2312 4.3449V10.9183C13.2312 11.3214 13.3793 11.71 13.6466 12.0084L18.3818 17.2936C18.9625 17.9481 19.0951 18.8374 18.7302 19.6284C18.3626 20.4251 17.5837 20.919 16.6865 20.919H7.31364C6.41661 20.919 5.63788 20.4251 5.26981 19.6282C4.90483 18.8376 5.03754 17.9483 5.6201 17.2916L10.3535 12.0084C10.6209 11.71 10.769 11.3214 10.769 10.9183V4.3449C10.769 4.1481 10.6637 3.96875 10.4973 3.87388L10.4397 3.84547C10.3168 3.79392 10.239 3.67923 10.239 3.55261V3.40197C10.239 3.22912 10.3894 3.08112 10.581 3.08112Z" fill="#1D1D1D"/>
</g>
<defs>
<clipPath id="clip0_40_2580">
<rect width="24" height="24" fill="white"/>
</clipPath>
</defs>
</svg>
