<svg width="24" height="24" viewBox="0 0 24 24" fill="none" xmlns="http://www.w3.org/2000/svg">
<g clip-path="url(#clip0_48_1530)">
<path fill-rule="evenodd" clip-rule="evenodd" d="M12 2C6.47716 2 2 6.47716 2 12C2 17.5229 6.47716 22 12 22C17.5228 22 22 17.5229 22 12C22 6.47716 17.5228 2 12 2ZM12 3.29032C16.8102 3.29032 20.7097 7.18979 20.7097 12C20.7097 16.8102 16.8102 20.7097 12 20.7097C7.18978 20.7097 3.29032 16.8102 3.29032 12C3.29032 7.18979 7.18978 3.29032 12 3.29032Z" fill="#1D1D1D"/>
<path fill-rule="evenodd" clip-rule="evenodd" d="M15.5551 8.70582C15.7788 8.42838 16.1849 8.38475 16.4623 8.60837C16.7199 8.81595 16.7759 9.18101 16.6036 9.45423L16.5598 9.51554L11.4442 15.8626C11.3946 15.924 11.3396 15.9809 11.2797 16.0322C10.7659 16.473 10.005 16.4388 9.53237 15.9706L9.46024 15.8931L7.14845 13.1985C6.91644 12.9282 6.94757 12.5208 7.218 12.2888C7.46762 12.0746 7.83387 12.0847 8.07123 12.3002L8.12774 12.3583L10.4395 15.0529L15.5551 8.70582Z" fill="#0073E6"/>
</g>
<defs>
<clipPath id="clip0_48_1530">
<rect width="24" height="24" fill="white"/>
</clipPath>
</defs>
</svg>
