<svg width="24" height="24" viewBox="0 0 24 24" fill="none" xmlns="http://www.w3.org/2000/svg">
<g clip-path="url(#clip0_48_1651)">
<path fill-rule="evenodd" clip-rule="evenodd" d="M11.5648 4.1875C11.5648 2.97938 10.6029 2 9.41638 2C8.22984 2 7.26795 2.97938 7.26795 4.1875C7.26795 5.18073 7.91808 6.01936 8.80869 6.28627C8.80465 6.31525 8.80255 6.34487 8.80255 6.375V11.6875H2.61384L2.54225 11.6917C2.23697 11.7278 2 11.992 2 12.3125C2 12.6577 2.27482 12.9375 2.61384 12.9375H3.89185V17.625L3.89598 17.6979L3.89799 17.7137C3.00741 17.9807 2.3573 18.8193 2.3573 19.8125C2.3573 21.0206 3.31918 22 4.50572 22C5.69226 22 6.65415 21.0206 6.65415 19.8125C6.65415 18.8193 6.004 17.9806 5.11338 17.7137C5.11742 17.6847 5.11952 17.6551 5.11952 17.625V12.9375H13.7132V17.625L13.7173 17.6979L13.7193 17.7137C12.8288 17.9807 12.1786 18.8193 12.1786 19.8125C12.1786 21.0206 13.1405 22 14.3271 22C15.5136 22 16.4755 21.0206 16.4755 19.8125C16.4755 18.8193 15.8253 17.9806 14.9347 17.7137C14.9388 17.6847 14.9409 17.6551 14.9409 17.625V12.9375H21.1284L21.2 12.9333C21.5053 12.8972 21.7423 12.633 21.7423 12.3125C21.7423 11.9673 21.4674 11.6875 21.1284 11.6875H20.4654V6.375L20.4613 6.30211C20.4607 6.29681 20.46 6.29153 20.4593 6.28627C21.3499 6.01936 22 5.18073 22 4.1875C22 2.97938 21.0381 2 19.8516 2C18.665 2 17.7032 2.97938 17.7032 4.1875C17.7032 5.18073 18.3533 6.01934 19.2439 6.28626C19.2398 6.31525 19.2377 6.34487 19.2377 6.375V11.6875H10.0302V6.375L10.0261 6.30211L10.0241 6.28626C10.9147 6.01935 11.5648 5.18073 11.5648 4.1875ZM8.49561 4.1875C8.49561 3.66973 8.90785 3.25 9.41637 3.25C9.92489 3.25 10.3371 3.66973 10.3371 4.1875C10.3371 4.70527 9.92489 5.125 9.41637 5.125C8.90785 5.125 8.49561 4.70527 8.49561 4.1875ZM3.58496 19.8125C3.58496 19.2947 3.9972 18.875 4.50571 18.875C5.01423 18.875 5.42647 19.2947 5.42647 19.8125C5.42647 20.3303 5.01423 20.75 4.50571 20.75C3.9972 20.75 3.58496 20.3303 3.58496 19.8125ZM19.8516 3.25C19.3431 3.25 18.9309 3.66973 18.9309 4.1875C18.9309 4.70527 19.3431 5.125 19.8516 5.125C20.3601 5.125 20.7724 4.70527 20.7724 4.1875C20.7724 3.66973 20.3601 3.25 19.8516 3.25ZM13.4063 19.8125C13.4063 19.2947 13.8185 18.875 14.3271 18.875C14.8356 18.875 15.2478 19.2947 15.2478 19.8125C15.2478 20.3303 14.8356 20.75 14.3271 20.75C13.8185 20.75 13.4063 20.3303 13.4063 19.8125Z" fill="#1D1D1D"/>
<path fill-rule="evenodd" clip-rule="evenodd" d="M7.62565 7.3125C7.62565 6.96732 7.35083 6.6875 7.01181 6.6875H4.45417L4.38258 6.6917C4.0773 6.72781 3.84033 6.99198 3.84033 7.3125C3.84033 7.65768 4.11516 7.9375 4.45417 7.9375H7.01181L7.0834 7.9333C7.38868 7.89719 7.62565 7.63302 7.62565 7.3125ZM18.0608 7.3125C18.0608 6.96732 17.786 6.6875 17.447 6.6875H14.8893L14.8178 6.6917C14.5125 6.72781 14.2755 6.99198 14.2755 7.3125C14.2755 7.65768 14.5503 7.9375 14.8893 7.9375H17.447L17.5186 7.9333C17.8239 7.89719 18.0608 7.63302 18.0608 7.3125ZM19.2885 13.5625C19.6275 13.5625 19.9023 13.8423 19.9023 14.1875C19.9023 14.508 19.6654 14.7722 19.3601 14.8083L19.2885 14.8125H16.7308C16.3918 14.8125 16.117 14.5327 16.117 14.1875C16.117 13.867 16.354 13.6028 16.6593 13.5667L16.7308 13.5625H19.2885ZM10.081 14.1875C10.081 13.8423 9.80615 13.5625 9.46714 13.5625H6.90949L6.8379 13.5667C6.53262 13.6028 6.29565 13.867 6.29565 14.1875C6.29565 14.5327 6.57048 14.8125 6.90949 14.8125H9.46714L9.53872 14.8083C9.84401 14.7722 10.081 14.508 10.081 14.1875ZM7.01181 8.5625C7.35083 8.5625 7.62565 8.84232 7.62565 9.1875C7.62565 9.50802 7.38868 9.77219 7.0834 9.80829L7.01181 9.8125H4.45417C4.11516 9.8125 3.84033 9.53268 3.84033 9.1875C3.84033 8.86698 4.0773 8.60281 4.38258 8.5667L4.45417 8.5625H7.01181ZM18.0608 9.1875C18.0608 8.84232 17.786 8.5625 17.447 8.5625H14.8893L14.8178 8.5667C14.5125 8.60281 14.2755 8.86698 14.2755 9.1875C14.2755 9.53268 14.5503 9.8125 14.8893 9.8125H17.447L17.5186 9.80829C17.8239 9.77219 18.0608 9.50802 18.0608 9.1875ZM19.2885 15.4375C19.6275 15.4375 19.9023 15.7173 19.9023 16.0625C19.9023 16.383 19.6654 16.6472 19.3601 16.6833L19.2885 16.6875H16.7308C16.3918 16.6875 16.117 16.4077 16.117 16.0625C16.117 15.742 16.354 15.4778 16.6593 15.4417L16.7308 15.4375H19.2885ZM10.081 16.0625C10.081 15.7173 9.80615 15.4375 9.46714 15.4375H6.90949L6.8379 15.4417C6.53262 15.4778 6.29565 15.742 6.29565 16.0625C6.29565 16.4077 6.57048 16.6875 6.90949 16.6875H9.46714L9.53872 16.6833C9.84401 16.6472 10.081 16.383 10.081 16.0625Z" fill="#0073E6"/>
</g>
<defs>
<clipPath id="clip0_48_1651">
<rect width="24" height="24" fill="white"/>
</clipPath>
</defs>
</svg>
