<svg width="24" height="24" viewBox="0 0 24 24" fill="none" xmlns="http://www.w3.org/2000/svg">
<g clip-path="url(#clip0_40_2611)">
<path d="M20.1088 3.17766C20.3648 2.92745 20.7688 2.93872 21.0112 3.20283C21.235 3.44662 21.2429 3.82063 21.0415 4.07352L20.9868 4.13408L8.85926 15.9913C8.60335 16.2415 8.19935 16.2302 7.95691 15.9661C7.73311 15.7223 7.7252 15.3483 7.92659 15.0954L7.98129 15.0349L20.1088 3.17766Z" fill="#0073E6"/>
<path d="M8.42027 14.8544C8.74761 14.8544 9.0174 15.1087 9.05427 15.4363L9.05857 15.5131V20.6826L13.115 17.1497C13.3844 16.915 13.7871 16.9502 14.0144 17.2282C14.2243 17.4849 14.2114 17.8587 13.9963 18.0993L13.9383 18.1565L9.8819 21.6894C9.65158 21.89 9.35993 22 9.05857 22C8.38558 22 7.83422 21.4626 7.78548 20.7809L7.78198 20.6826V15.5131C7.78198 15.1493 8.06776 14.8544 8.42027 14.8544Z" fill="#0073E6"/>
<path fill-rule="evenodd" clip-rule="evenodd" d="M19.2719 2.18754L3.10214 10.0157C2.67081 10.2245 2.33039 10.5917 2.14739 11.0457C1.74118 12.0534 2.20343 13.2102 3.17986 13.6294L16.7479 19.4547C16.8659 19.5054 16.9886 19.5437 17.114 19.5692C18.1517 19.7798 19.1583 19.0824 19.3623 18.0114L21.964 4.35799C22.0426 3.94553 21.9917 3.51796 21.8187 3.13739C21.3696 2.14928 20.2293 1.72402 19.2719 2.18754ZM20.6627 3.69664C20.7203 3.82349 20.7373 3.96602 20.7111 4.1035L18.1094 17.757C18.0414 18.1139 17.7059 18.3464 17.36 18.2762C17.3182 18.2677 17.2773 18.2549 17.238 18.2381L3.66988 12.4127C3.3444 12.273 3.19032 11.8874 3.32572 11.5515C3.38673 11.4002 3.5002 11.2777 3.64398 11.2081L19.8137 3.38002C20.1101 3.23655 20.459 3.34853 20.6272 3.62897L20.6627 3.69664Z" fill="#1D1D1D"/>
</g>
<defs>
<clipPath id="clip0_40_2611">
<rect width="24" height="24" fill="white"/>
</clipPath>
</defs>
</svg>
