<svg width="24" height="24" viewBox="0 0 24 24" fill="none" xmlns="http://www.w3.org/2000/svg">
<g clip-path="url(#clip0_46_503)">
<path fill-rule="evenodd" clip-rule="evenodd" d="M12 2C6.47715 2 2 6.47715 2 12C2 17.5228 6.47715 22 12 22C17.5228 22 22 17.5228 22 12C22 6.47715 17.5228 2 12 2ZM11.9997 3.30206C16.8032 3.30206 20.6973 7.19612 20.6973 11.9997C20.6973 16.8032 16.8032 20.6973 11.9997 20.6973C7.19612 20.6973 3.30207 16.8032 3.30207 11.9997C3.30207 7.19612 7.19612 3.30206 11.9997 3.30206Z" fill="#1D1D1D"/>
<path fill-rule="evenodd" clip-rule="evenodd" d="M12.0095 9.11782C12.549 9.11782 12.9863 8.6805 12.9863 8.14103C12.9863 7.60157 12.549 7.16425 12.0095 7.16425C11.47 7.16425 11.0327 7.60157 11.0327 8.14103C11.0327 8.6805 11.47 9.11782 12.0095 9.11782ZM12.8202 10.6629C12.7785 10.2524 12.4319 9.93213 12.0104 9.93213C11.5608 9.93213 11.1964 10.2966 11.1964 10.7461V15.9557L11.2006 16.0389C11.2423 16.4493 11.5889 16.7697 12.0104 16.7697C12.46 16.7697 12.8244 16.4052 12.8244 15.9557V10.7461L12.8202 10.6629Z" fill="#0073E6"/>
</g>
<defs>
<clipPath id="clip0_46_503">
<rect width="24" height="24" fill="white"/>
</clipPath>
</defs>
</svg>
