<svg width="24" height="24" viewBox="0 0 24 24" fill="none" xmlns="http://www.w3.org/2000/svg">
<g clip-path="url(#clip0_40_2697)">
<path fill-rule="evenodd" clip-rule="evenodd" d="M10.4922 8.75098C10.7112 8.32025 11.3022 8.28319 11.5799 8.65534L11.6255 8.72527L14.1427 13.1629L15.2039 10.7499C15.2949 10.5429 15.4877 10.4009 15.7088 10.3719L15.7929 10.3664H20.0882C20.4432 10.3664 20.731 10.653 20.731 11.0064C20.731 11.3346 20.4829 11.6051 20.1632 11.6421L20.0882 11.6464L16.2134 11.6461L14.8057 14.8502C14.6045 15.3081 13.9875 15.363 13.7015 14.9769L13.657 14.9085L11.0962 10.3955L9.59312 13.3534C9.49583 13.5448 9.3098 13.6732 9.09946 13.6994L9.01956 13.7044H4.58329C4.22825 13.7044 3.94043 13.4178 3.94043 13.0644C3.94043 12.7362 4.1886 12.4657 4.50832 12.4287L4.58329 12.4244L8.62381 12.4243L10.4922 8.75098Z" fill="#0073E6"/>
<path fill-rule="evenodd" clip-rule="evenodd" d="M17.7857 2H6.21429C4.43908 2 3 3.43269 3 5.2V16.72C3 18.4873 4.43908 19.92 6.21429 19.92H17.7857C19.5609 19.92 21 18.4873 21 16.72V5.2C21 3.43269 19.5609 2 17.7857 2ZM6.21428 3.28003H17.7857C18.8508 3.28003 19.7143 4.13964 19.7143 5.20003V16.72C19.7143 17.7804 18.8508 18.64 17.7857 18.64H6.21428C5.14916 18.64 4.28571 17.7804 4.28571 16.72V5.20003C4.28571 4.13964 5.14916 3.28003 6.21428 3.28003ZM17.4643 21.36C17.4643 21.0065 17.1765 20.72 16.8214 20.72H7.82142L7.74645 20.7243C7.42673 20.7612 7.17856 21.0318 7.17856 21.36C7.17856 21.7134 7.46638 22 7.82142 22H16.8214L16.8964 21.9957C17.2161 21.9587 17.4643 21.6882 17.4643 21.36Z" fill="#1D1D1D"/>
</g>
<defs>
<clipPath id="clip0_40_2697">
<rect width="24" height="24" fill="white"/>
</clipPath>
</defs>
</svg>
