<svg width="24" height="24" viewBox="0 0 24 24" fill="none" xmlns="http://www.w3.org/2000/svg">
<g clip-path="url(#clip0_48_1715)">
<path d="M20.2353 20H3.76471C2.76471 20 2 19.2545 2 18.2796V7.95699C2 6.98208 2.76471 6.23656 3.76471 6.23656H7.29412C7.41177 6.23656 7.58824 6.12186 7.64706 6.06452L8.29412 4.80287C8.52941 4.34409 9.11765 4 9.64706 4H14.3529C14.8824 4 15.4706 4.34409 15.7059 4.80287L16.3529 6.06452C16.4118 6.17921 16.5882 6.23656 16.7059 6.23656H20.2353C21.2353 6.23656 22 6.98208 22 7.95699V18.2796C22 19.2545 21.2353 20 20.2353 20ZM3.76471 7.38351C3.41176 7.38351 3.17647 7.6129 3.17647 7.95699V18.2796C3.17647 18.6237 3.41176 18.853 3.76471 18.853H20.2353C20.5882 18.853 20.8235 18.6237 20.8235 18.2796V7.95699C20.8235 7.6129 20.5882 7.38351 20.2353 7.38351H16.7059C16.1765 7.38351 15.5882 7.03943 15.3529 6.58065L14.7059 5.319C14.6471 5.2043 14.4706 5.08961 14.3529 5.08961H9.64706C9.52941 5.08961 9.35294 5.2043 9.29412 5.26165L8.64706 6.5233C8.41176 7.03943 7.82353 7.38351 7.29412 7.38351H3.76471Z" fill="#1D1D1D"/>
<path fill-rule="evenodd" clip-rule="evenodd" d="M6.58828 4.51662C6.91315 4.51662 7.17651 4.77356 7.17651 5.09051C7.17651 5.38482 6.94943 5.62739 6.65688 5.66054L6.58828 5.6644H3.76475C3.43988 5.6644 3.17651 5.40746 3.17651 5.09051C3.17651 4.7962 3.4036 4.55364 3.69615 4.52049L3.76475 4.51662L6.58828 4.51662Z" fill="#0073E6"/>
<path d="M11.9999 17.706C9.05875 17.706 6.70581 15.4121 6.70581 12.5447C6.70581 9.67728 9.05875 7.38338 11.9999 7.38338C14.9411 7.38338 17.294 9.67728 17.294 12.5447C17.294 15.4121 14.9411 17.706 11.9999 17.706ZM11.9999 8.53033C9.70581 8.53033 7.88228 10.3081 7.88228 12.5447C7.88228 14.7812 9.70581 16.559 11.9999 16.559C14.294 16.559 16.1176 14.7812 16.1176 12.5447C16.1176 10.3081 14.294 8.53033 11.9999 8.53033Z" fill="#1D1D1D"/>
<path d="M11.8823 9.67723C13.5717 9.67723 14.9412 11.0124 14.9412 12.6593C14.9412 12.9127 14.7305 13.1181 14.4706 13.1181C14.2107 13.1181 14 12.9127 14 12.6593C14 11.5191 13.0519 10.5948 11.8823 10.5948C11.6224 10.5948 11.4117 10.3894 11.4117 10.136C11.4117 9.88263 11.6224 9.67723 11.8823 9.67723Z" fill="#0073E6"/>
<path d="M17.8824 9.10404C18.2073 9.10404 18.4707 8.84711 18.4707 8.53016C18.4707 8.21321 18.2073 7.95627 17.8824 7.95627C17.5576 7.95627 17.2942 8.21321 17.2942 8.53016C17.2942 8.84711 17.5576 9.10404 17.8824 9.10404Z" fill="#1D1D1D"/>
</g>
<defs>
<clipPath id="clip0_48_1715">
<rect width="24" height="24" fill="white"/>
</clipPath>
</defs>
</svg>
