<svg width="24" height="24" viewBox="0 0 24 24" fill="none" xmlns="http://www.w3.org/2000/svg">
<g clip-path="url(#clip0_40_2495)">
<path d="M13.0455 2.20624C12.7002 2.20624 12.4177 2.48749 12.4177 2.83124V10.025L10.7665 8.97499C10.5593 8.84374 10.2956 8.84374 10.0884 8.97499L8.43719 10.025V2.83124C8.43719 2.48749 8.15466 2.20624 7.80935 2.20624C7.46404 2.20624 7.18152 2.48749 7.18152 2.83124V11.1687C7.18152 11.4 7.30709 11.6062 7.50799 11.7187C7.7089 11.8312 7.95375 11.8187 8.14838 11.6937L10.4274 10.2437L12.7065 11.6937C12.8069 11.7562 12.9262 11.7937 13.0455 11.7937C13.1522 11.7937 13.2527 11.7687 13.3468 11.7187C13.5478 11.6062 13.6733 11.4 13.6733 11.1687V2.83124C13.6733 2.48749 13.3908 2.20624 13.0455 2.20624Z" fill="#0073E6"/>
<path d="M5.71852 17.8313H20.3722V17.8187C20.7175 17.8187 21 17.5375 21 17.1937V3.2625C21 2.925 20.8682 2.6125 20.6359 2.375C20.4036 2.1375 20.0771 2 19.7443 2H5.71852C4.99023 2 4.30589 2.2875 3.79107 2.8125C3.28253 3.33125 3 4.01875 3 4.75V19.625C3 19.7313 3.03139 19.825 3.08162 19.9125C3.19463 20.3937 3.43321 20.8438 3.79735 21.2062C4.31217 21.7188 4.99651 22 5.71852 22H20.3722C20.7175 22 21 21.7188 21 21.375C21 21.0312 20.7175 20.75 20.3722 20.75H5.71852C5.32926 20.75 4.95884 20.6 4.6826 20.325C4.40635 20.05 4.25567 19.6812 4.25567 19.2938C4.25567 18.9062 4.40635 18.5375 4.6826 18.2625C4.95884 17.9875 5.32926 17.8375 5.71852 17.8375V17.8313ZM4.25567 4.75C4.25567 4.35 4.41263 3.9625 4.68887 3.6875C4.96512 3.40625 5.32926 3.25 5.71852 3.25L19.7381 3.2625V16.5813H5.71852C5.19114 16.5813 4.68887 16.7313 4.25567 17.0125V4.75Z" fill="#1D1D1D"/>
</g>
<defs>
<clipPath id="clip0_40_2495">
<rect width="24" height="24" fill="white"/>
</clipPath>
</defs>
</svg>
