<svg width="24" height="24" viewBox="0 0 24 24" fill="none" xmlns="http://www.w3.org/2000/svg">
<g clip-path="url(#clip0_46_394)">
<path fill-rule="evenodd" clip-rule="evenodd" d="M13.7146 2.39357C13.5175 2.2101 13.2764 2.08534 13.0175 2.03093C12.9583 2.01117 12.8951 2.00049 12.8295 2.00049C12.8165 2.00049 12.8035 2.00091 12.7907 2.00173C12.7672 2.00058 12.7436 2 12.7199 2H6.82532L6.70788 2.00295C5.46292 2.06558 4.47247 3.11858 4.47247 4.40858V7.67538H3.67179L3.57368 7.67864C2.69876 7.73718 2.0491 8.57415 2.0491 9.55074V19.615L2.05061 19.6435C1.77163 20.8272 2.67987 22 3.94401 22H15.9608L16.078 21.9965C16.7776 21.9547 17.4039 21.5408 17.7102 20.9102L17.733 20.8584L21.8084 14.1976L21.8532 14.1093L21.8907 14.011C22.3298 12.7632 21.3911 11.4542 20.0556 11.4542H17.4759V7.05111L17.4716 6.93544C17.4457 6.59019 17.3044 6.26294 17.0702 6.0095L13.7933 2.47256L13.7146 2.39357ZM16.264 11.4542V7.4843H12.8295C12.5171 7.4843 12.2599 7.24236 12.227 6.93155L12.2235 6.86396V3.24068H6.82532C6.22379 3.24068 5.73112 3.71703 5.68757 4.32141L5.68444 4.40858V8.26813C5.68483 8.27728 5.68503 8.28647 5.68503 8.29572C5.68503 8.30496 5.68483 8.31416 5.68444 8.3233V13.5463L6.26642 12.5948L6.28942 12.5441C6.5957 11.9136 7.2223 11.4996 7.92162 11.4577L8.03881 11.4542H16.264ZM4.47247 15.5278V8.91606H3.67179C3.48791 8.91606 3.29355 9.13856 3.26473 9.4666L3.26108 9.55074V17.5083L4.47247 15.5278ZM13.4349 6.24319L13.4352 3.88901L15.6166 6.24349L13.4349 6.24319ZM20.0552 12.6952H8.0384C7.76197 12.6952 7.51452 12.8419 7.39073 13.0651L7.3574 13.1343L7.31279 13.2221L3.25064 19.862L3.24082 19.8904C3.12094 20.2922 3.41451 20.7151 3.87032 20.7563L3.9436 20.7596H15.9604C16.237 20.7596 16.4842 20.613 16.608 20.3898L16.6414 20.3206L16.686 20.2327L20.748 13.5924L20.7584 13.5644C20.8782 13.1628 20.5844 12.7398 20.1285 12.6985L20.0552 12.6952Z" fill="#1D1D1D"/>
<path fill-rule="evenodd" clip-rule="evenodd" d="M10.3364 7.31119C10.3364 6.96858 10.0651 6.69085 9.73038 6.69085H7.51974L7.45371 6.69449C7.15009 6.72817 6.91375 6.99142 6.91375 7.31119C6.91375 7.65379 7.18506 7.93153 7.51974 7.93153H9.73038L9.79641 7.92789C10.1 7.89421 10.3364 7.63095 10.3364 7.31119ZM11.7186 9.66857C11.7186 9.32597 11.4473 9.04823 11.1127 9.04823H7.42825L7.36222 9.05187C7.05861 9.08555 6.82227 9.34881 6.82227 9.66857C6.82227 10.0112 7.09358 10.2889 7.42825 10.2889H11.1127L11.1787 10.2853C11.4823 10.2516 11.7186 9.98834 11.7186 9.66857Z" fill="#0073E6"/>
</g>
<defs>
<clipPath id="clip0_46_394">
<rect width="24" height="24" fill="white"/>
</clipPath>
</defs>
</svg>
