<svg width="215" height="150" viewBox="0 0 215 150" fill="none" xmlns="http://www.w3.org/2000/svg">
<path d="M132.567 147.925C107.663 137.604 98.7018 141.859 73.5817 144.094C53.0605 145.899 28.8192 138.451 13.3757 118.871C-27.3088 67.293 34.5441 14.0839 69.5091 2.68275C94.145 -5.32822 109.688 5.00477 126.605 28.3004C133.183 37.3621 138.613 48.3337 146.353 55.9441C154.667 64.106 164.606 63.9667 172.441 70.7586C210.442 103.691 165.801 161.689 132.567 147.925Z" fill="#EFF7FF"/>
<path d="M100.714 124.222C100.714 124.335 100.714 124.448 100.714 124.561C100.703 125.212 100.443 125.832 99.9909 126.288C99.5388 126.745 98.9306 127 98.297 127L37.3382 126.232C36.7472 126.217 36.1824 125.979 35.7523 125.562C35.3223 125.145 35.0575 124.579 35.0089 123.974C34.997 123.869 34.997 123.763 35.0089 123.658C35.0218 123.158 35.1821 122.675 35.4687 122.272C35.7552 121.868 36.1543 121.564 36.6131 121.399C36.8615 121.318 37.1214 121.28 37.3822 121.286L98.341 122.032C98.7724 122.017 99.1984 122.134 99.5657 122.367C99.9331 122.6 100.226 122.939 100.407 123.342C100.568 123.61 100.673 123.91 100.714 124.222Z" fill="#656565"/>
<path opacity="0.5" d="M95.9606 127L204.061 126.226C204.373 126.226 204.683 126.161 204.972 126.036C205.26 125.911 205.522 125.728 205.742 125.498C205.963 125.267 206.137 124.993 206.254 124.692C206.372 124.391 206.431 124.069 206.428 123.744C206.417 123.092 206.161 122.47 205.714 122.011C205.268 121.552 204.667 121.291 204.039 121.286L95.9387 122.06C95.3106 122.071 94.7117 122.337 94.2695 122.801C93.8273 123.264 93.5767 123.889 93.5711 124.541C93.5825 125.193 93.8386 125.815 94.2849 126.275C94.7312 126.734 95.3324 126.994 95.9606 127Z" fill="#1D1D1D"/>
<path d="M212.109 54.5398L207.23 114.387C207.064 116.104 206.378 117.729 205.262 119.044C204.146 120.36 202.655 121.303 200.989 121.747C200.445 121.91 199.885 122.006 199.318 122.033H199.033L99.2343 122.714H99.0145C98.0546 122.719 97.1043 122.522 96.2256 122.136C95.347 121.749 94.5596 121.182 93.9148 120.471C93.27 119.76 92.7822 118.921 92.4833 118.009C92.1843 117.098 92.0808 116.133 92.1796 115.178L97.0585 55.3307C97.2567 53.278 98.2002 51.3689 99.7106 49.9642C101.221 48.5595 103.194 47.7565 105.256 47.707H106.772L205.054 47.0039C206.032 46.9708 207.005 47.1471 207.908 47.5208C208.812 47.8946 209.625 48.4572 210.293 49.1709C210.961 49.8846 211.469 50.7329 211.782 51.6589C212.095 52.5849 212.207 53.5672 212.109 54.5398Z" fill="#6AAAE4"/>
<path opacity="0.2" d="M208.157 47.0002L109.387 47.6899C108.732 47.6984 108.082 47.7926 107.452 47.97C105.804 48.4018 104.328 49.3229 103.224 50.6096C102.12 51.8962 101.44 53.4868 101.274 55.1677L96.4675 113.891C96.3647 114.839 96.4678 115.798 96.7701 116.703C97.0723 117.609 97.5666 118.439 98.2198 119.139C98.8729 119.84 99.6698 120.393 100.557 120.763C101.444 121.133 102.4 121.31 103.362 121.283L200.609 120.593H202.11C204.152 120.549 206.107 119.763 207.603 118.385C209.099 117.006 210.031 115.131 210.223 113.116L214.964 54.4134C215.062 53.4725 214.959 52.5216 214.661 51.6231C214.362 50.7245 213.876 49.8983 213.233 49.1986C212.591 48.499 211.807 47.9415 210.932 47.5627C210.057 47.1839 209.111 46.9922 208.157 47.0002Z" fill="white"/>
<circle cx="33" cy="31" r="20" fill="#FFDD2C"/>
<path d="M33 40C34.1046 40 35 39.1046 35 38C35 36.8954 34.1046 36 33 36C31.8954 36 31 36.8954 31 38C31 39.1046 31.8954 40 33 40Z" fill="#483D09"/>
<path d="M33 22C31.9 22 31 22.9 31 24V32C31 33.1 31.9 34 33 34C34.1 34 35 33.1 35 32V24C35 22.9 34.1 22 33 22Z" fill="#483D09"/>
</svg>
