<svg width="215" height="150" viewBox="0 0 215 150" fill="none" xmlns="http://www.w3.org/2000/svg">
<path opacity="0.9" d="M80.7613 68.3647C118.407 77.8313 131.747 152.777 187.322 111.883C226.755 82.8673 202.597 12.1103 153.12 20.3255C123.175 25.3161 127.796 25.8257 102.44 12.3576C76.7232 -1.26699 48.4073 -8.13478 20.9361 16.0463C6.7237 28.5607 1.14881 59.0596 14.9416 74.8439C32.2331 94.5895 57.7533 62.5717 80.7613 68.3647Z" fill="#EFF7FF"/>
<ellipse cx="105.5" cy="146.5" rx="73.5" ry="3.5" fill="#F5F5F5"/>
<path d="M82.9552 53.3895L70.3628 118.13L68.7144 126.605L152.779 126.19C156.551 126.172 159.895 122.822 161.108 117.845L176.015 56.7234C176.936 52.9454 174.914 49.0158 172.051 49.0186L86.9678 49.1084C85.0893 49.1102 83.4466 50.8629 82.9552 53.3895Z" fill="#656565"/>
<path d="M144.766 113.845L135.866 42.1219C135.501 39.1833 133.16 36.9911 130.396 37L110.879 37.0641C109.434 37.0688 108.05 37.6827 107.023 38.7735L97.7558 48.6252L43.4754 48.9083C40.1583 48.9254 37.61 52.0642 38.0494 55.5907L46.3133 121.881C46.6794 124.816 49.0158 127.005 51.776 127L146.375 126.813C155 126.5 155.5 125.5 155.5 125.5C146 125.5 144.767 113.853 144.766 113.845Z" fill="#7BACFC"/>
<path d="M85.5221 79.7012C84.16 79.1223 83.5811 77.4367 84.3983 76.2108C86.0499 73.759 88.8082 71.9712 92.4519 71.9712C96.4531 71.9712 99.1944 73.793 100.591 76.0746C101.782 78.0326 102.48 81.6933 100.642 84.4176C98.5984 87.4313 96.6404 88.3507 95.5847 90.2917C95.3293 90.7514 95.1761 91.126 95.0739 91.8922C94.9207 93.1351 93.8991 94.1056 92.6392 94.1056C91.1579 94.1056 89.949 92.8286 90.1192 91.3473C90.2214 90.479 90.4257 89.5766 90.9025 88.7253C92.2135 86.3586 94.7334 84.9624 96.1977 82.8681C97.7471 80.6717 96.8788 76.5683 92.4859 76.5683C90.4938 76.5683 89.1998 77.607 88.3996 78.8499C87.8036 79.8204 86.5607 80.1269 85.5221 79.7012ZM95.8742 100.916C95.8742 102.789 94.3418 104.322 92.4689 104.322C90.596 104.322 89.0636 102.789 89.0636 100.916C89.0636 99.0433 90.596 97.5109 92.4689 97.5109C94.3418 97.5109 95.8742 99.0433 95.8742 100.916Z" fill="#BFDDFA"/>
</svg>
