<svg width="31" height="26" viewBox="0 0 31 26" fill="none" xmlns="http://www.w3.org/2000/svg">
<path d="M26.6497 9.41228C28.4484 11.2052 28.4484 14.1122 26.6497 15.9052C24.851 17.6981 21.9347 17.6981 20.136 15.9052L12.7963 8.58881C10.9976 6.79585 10.9976 3.8889 12.7963 2.09594C14.595 0.302982 17.5112 0.302981 19.3099 2.09594L26.6497 9.41228Z" fill="#F5F5F5"/>
<g filter="url(#filter0_d_7014_7076)">
<path fill-rule="evenodd" clip-rule="evenodd" d="M15.6143 12.1873C18.9735 8.7945 22.6603 6.61142 26.0308 8.7945L24.209 6.9781C23.0374 5.81024 22.3346 5.10968 20.2012 2.98307C20.0734 2.85565 19.9535 2.73379 19.8392 2.61762C19.3779 2.14859 19.0077 1.77222 18.5718 1.4961C18.4065 1.3897 18.2576 1.30444 18.1016 1.22758C17.649 1.00458 17.1719 0.86347 16.6729 0.792906C16.6035 0.783086 16.364 0.749217 15.9999 0.75135C15.164 0.72503 13.8182 1.08049 12.6888 2.09606C11.5593 3.11163 5.34902 9.41241 5.34902 9.41241C3.55033 11.2054 3.55033 14.1123 5.34902 15.9053C7.14771 17.6982 10.064 17.6982 11.8627 15.9053C14.9032 12.8744 13.8736 13.9453 15.6143 12.1873Z" fill="white"/>
</g>
<defs>
<filter id="filter0_d_7014_7076" x="0" y="0.75" width="30.0308" height="24.5" filterUnits="userSpaceOnUse" color-interpolation-filters="sRGB">
<feFlood flood-opacity="0" result="BackgroundImageFix"/>
<feColorMatrix in="SourceAlpha" type="matrix" values="0 0 0 0 0 0 0 0 0 0 0 0 0 0 0 0 0 0 127 0" result="hardAlpha"/>
<feOffset dy="4"/>
<feGaussianBlur stdDeviation="2"/>
<feComposite in2="hardAlpha" operator="out"/>
<feColorMatrix type="matrix" values="0 0 0 0 0 0 0 0 0 0 0 0 0 0 0 0 0 0 0.25 0"/>
<feBlend mode="normal" in2="BackgroundImageFix" result="effect1_dropShadow_7014_7076"/>
<feBlend mode="normal" in="SourceGraphic" in2="effect1_dropShadow_7014_7076" result="shape"/>
</filter>
</defs>
</svg>
