<svg width="200" height="68" viewBox="0 0 200 68" fill="none" xmlns="http://www.w3.org/2000/svg">
<path d="M4.51539 45.4832H2L10.2262 22.5187H12.7412L4.51539 45.4832Z" fill="#6AAAE4"/>
<path d="M22.1574 46C19.1695 46 16.8372 45.3218 15.1604 43.9659C13.4836 42.6095 12.633 40.5906 12.6094 37.9092H15.417C15.4812 41.6737 17.7276 43.5563 22.1574 43.5563C24.0288 43.5563 25.4647 43.1901 26.4642 42.4587C27.4642 41.7269 27.9644 40.6581 27.9644 39.2522C28.0074 38.2425 27.54 37.2791 26.7212 36.6874C25.8942 36.0743 24.449 35.5427 22.3853 35.091L20.3511 34.6389C18.0281 34.0994 16.2875 33.3204 15.128 32.3019C13.969 31.283 13.393 29.8494 13.4004 28.0016C13.35 26.2814 14.1493 24.6466 15.5381 23.6305C16.944 22.545 18.844 22.0023 21.2383 22.0023C22.6576 21.9764 24.0722 22.1724 25.4314 22.5829C26.4818 22.8857 27.4406 23.4456 28.221 24.2111C28.858 24.8621 29.3573 25.635 29.6883 26.4838C30.0096 27.3525 30.1797 28.2693 30.1908 29.1952H27.4156C27.2876 27.5587 26.7554 26.3595 25.8197 25.5967C24.8836 24.8343 23.3566 24.4534 21.2383 24.4534C19.623 24.4534 18.3808 24.7659 17.5117 25.3905C16.6573 25.9795 16.1645 26.9646 16.2038 28.0016C16.1493 28.9983 16.5612 29.9636 17.3194 30.6131C18.0484 31.2377 19.4732 31.7865 21.5943 32.2589L23.6289 32.7115C26.1651 33.2718 27.9926 34.0721 29.1114 35.1127C30.2301 36.1529 30.7881 37.5352 30.7858 39.2596C30.7858 41.3446 30.0235 42.9895 28.4988 44.1938C26.9737 45.3976 24.86 46 22.1574 46Z" fill="#6AAAE4"/>
<path d="M38.6944 43.6769C40.0097 43.6977 41.2894 43.252 42.3073 42.4194C43.3355 41.6025 43.8514 40.4301 43.8537 38.9031V36.9365C43.1996 37.3646 42.4433 37.6105 41.6624 37.6494L39.2437 37.9378C37.8433 38.1121 36.8494 38.433 36.2581 38.9068C35.6557 39.4038 35.3261 40.1578 35.3709 40.9373C35.3312 41.7024 35.64 42.4439 36.2119 42.9538C36.7782 43.4346 37.626 43.6769 38.6944 43.6769ZM47.284 43.3778H48.2174V45.4762C47.7459 45.5437 47.2693 45.5756 46.7926 45.5723C45.0497 45.5723 44.1145 44.7767 43.9892 43.1855C42.8344 44.9764 41.0305 45.8715 38.5775 45.8715C36.7463 45.8715 35.3141 45.4443 34.2702 44.5964C33.2263 43.7486 32.7062 42.5475 32.7062 41.0015C32.7062 37.9878 34.7593 36.2666 38.866 35.8395L41.2528 35.5829C42.9934 35.3882 43.8639 34.6245 43.8639 33.2922C43.8639 32.3657 43.5791 31.6986 43.0091 31.2899C42.4391 30.8836 41.477 30.6774 40.1234 30.6774C38.6981 30.6774 37.6297 30.9196 37.0098 31.3898C36.3898 31.86 36.0159 32.7291 35.941 33.9546H33.3511C33.5647 30.2779 35.8212 28.4398 40.1197 28.4398C44.2906 28.4398 46.3761 30.0528 46.3761 33.2778V42.5798C46.3793 43.1175 46.6821 43.3778 47.284 43.3778Z" fill="#6AAAE4"/>
<path d="M52.8951 45.4832H50.3159V22.5187H52.8951V45.4832Z" fill="#6AAAE4"/>
<path d="M67.7336 38.2582V28.8388H70.3128V45.4831H67.8617V42.9894C66.5936 44.9108 64.8516 45.8715 62.6358 45.8715C60.7875 45.8715 59.347 45.3657 58.3142 44.3542C57.2809 43.3422 56.7641 41.9174 56.7641 40.0788V28.8388H59.358V39.8402C59.358 42.3126 60.6262 43.5488 63.1628 43.5488C64.3717 43.553 65.5303 43.063 66.3694 42.1915C67.2787 41.2914 67.7336 39.9803 67.7336 38.2582Z" fill="#6AAAE4"/>
<path d="M81.471 28.8388V31.0977H78.0545V41.9031C78.0545 42.8508 78.6884 43.3279 79.9569 43.3279H81.471V45.4906C80.7586 45.5548 80.146 45.5867 79.6324 45.5867C76.8609 45.5867 75.4749 44.4361 75.4749 42.1347V31.0907H72.7316V28.8388H75.4749V24.14H78.0545V28.8388H81.471Z" fill="#6AAAE4"/>
<path d="M114.832 22.0907C109.759 22.0907 105.646 26.8862 105.646 32.8007C105.646 38.7149 109.759 43.5103 114.832 43.5103C119.905 43.5103 124.018 38.7149 124.018 32.8007C124.018 26.8862 119.905 22.0907 114.832 22.0907Z" fill="#ED192D"/>
<path d="M108.418 38.1347C107.536 36.6225 107.019 34.7839 107.019 32.8007C107.019 30.8174 107.536 28.9789 108.418 27.4662V38.1347Z" fill="white"/>
<path d="M110.391 25.1166C110.9 24.6955 111.452 24.3458 112.038 24.0772V41.5236C111.452 41.2555 110.9 40.905 110.391 40.4846V25.1166Z" fill="white"/>
<path d="M114.011 23.513C114.281 23.4794 114.554 23.462 114.832 23.462C115.111 23.462 115.387 23.4798 115.658 23.5138V42.0872C115.387 42.1212 115.111 42.1393 114.832 42.1393C114.554 42.1393 114.281 42.1215 114.011 42.0883V23.513Z" fill="white"/>
<path d="M117.631 24.08C118.218 24.3489 118.77 24.7001 119.278 25.1213V40.4798C118.77 40.9013 118.218 41.2521 117.631 41.5211V24.08Z" fill="white"/>
<path d="M121.252 27.4764C122.131 28.9868 122.646 30.8216 122.646 32.8007C122.646 34.7797 122.131 36.6142 121.252 38.1245V27.4764Z" fill="white"/>
<path d="M106.416 32.8007C106.416 30.3454 107.17 28.0985 108.419 26.3638V26.9496C107.369 28.5699 106.745 30.5984 106.745 32.8007C106.745 35.0026 107.369 37.0311 108.419 38.6514V39.2368C107.17 37.5025 106.416 35.2557 106.416 32.8007Z" fill="white"/>
<path d="M121.252 38.6427C122.298 37.0239 122.92 34.9988 122.92 32.8006C122.92 30.6025 122.298 28.5774 121.252 26.9586V26.3721C122.497 28.1053 123.249 30.3491 123.249 32.8006C123.249 35.2518 122.497 37.4956 121.252 39.2288V38.6427Z" fill="white"/>
<path d="M123.785 42.3881C123.848 42.1192 123.975 41.8439 124.123 41.6241C123.933 41.5308 123.773 41.4605 123.608 41.3174C123.972 40.7675 124.063 40.3909 124.122 39.7289L124.097 35.9856C123.857 37.0741 123.275 38.5018 122.773 39.2481C122.627 39.4664 122.562 39.6046 122.472 39.75C122.42 39.8342 122.125 40.3203 122.132 40.9155C121.926 40.9571 121.737 40.9495 121.498 40.9318C121.528 41.1909 121.544 41.2275 121.476 41.652C120.568 41.7223 120.304 42.2665 119.228 42.8481C118.702 43.1325 118.361 43.2621 117.575 43.5491C119.403 43.5272 120.746 43.7871 121.895 43.0143C122.026 43.1873 122.123 43.3554 122.209 43.559C122.367 43.4347 122.678 43.2813 122.936 43.2149C123.232 43.5061 123.628 43.6209 124.135 43.5752C124.207 43.1665 124.105 42.6642 123.785 42.3881Z" fill="#ED192D"/>
<path d="M123.923 41.697C123.781 41.7548 123.114 42.0011 123.114 42.0011L123.105 42.0105C123.102 41.952 123.088 41.8942 123.063 41.8398L123.059 41.8273C123.317 41.6736 123.478 41.456 123.482 41.4224C123.48 41.4198 123.479 41.4179 123.48 41.4183C123.482 41.4187 123.482 41.4202 123.482 41.4224C123.504 41.4523 123.723 41.6558 123.923 41.697Z" fill="white"/>
<path d="M123.371 38.5343C124.04 37.0549 123.883 37.1191 124.031 36.505C124.011 36.8008 123.992 37.1739 123.95 37.4443C123.659 39.0563 123.24 40.2505 122.736 41.5683C122.736 41.5683 122.598 41.5565 122.529 41.5698C122.407 41.4293 122.368 41.2348 122.368 41.2348C122.134 40.2634 122.863 39.6583 123.371 38.5343Z" fill="white"/>
<path d="M121.698 41.1309L122.322 41.6521L122.324 41.657C122.305 41.671 122.286 41.6869 122.269 41.7039C122.238 41.7356 122.211 41.77 122.19 41.807L122.187 41.816C121.869 41.6616 121.656 41.6552 121.656 41.6552C121.736 41.3107 121.698 41.1309 121.698 41.1309Z" fill="white"/>
<path d="M118.862 43.3773C118.549 43.4491 118.295 43.4457 118.097 43.4543L118.762 43.2485C120.202 42.7084 120.569 41.8722 121.542 41.8529C121.77 41.8548 121.956 41.9145 122.125 42.0093L122.127 42.0354C122.12 42.0977 122.126 42.1611 122.144 42.2219V42.231C121.473 42.5645 119.936 43.131 118.862 43.3773Z" fill="white"/>
<path d="M122.286 43.3339C122.247 43.2308 122.194 43.0642 122.045 42.8995C122.245 42.7296 122.287 42.6382 122.354 42.472L122.359 42.4743C122.422 42.5117 122.492 42.5332 122.562 42.5388L122.571 42.5377L122.286 43.3339Z" fill="white"/>
<path d="M122.414 42.2503C122.303 42.1389 122.304 41.9588 122.415 41.8477C122.527 41.7371 122.706 41.7375 122.817 41.8493C122.928 41.9603 122.928 42.1404 122.816 42.2511C122.705 42.3618 122.525 42.3614 122.414 42.2503Z" fill="white"/>
<path d="M123.033 43.0476C122.886 42.8765 122.823 42.7443 122.767 42.5128C122.84 42.4916 122.926 42.4474 122.977 42.3757L123.974 43.3883C123.596 43.4234 123.268 43.3342 123.033 43.0476Z" fill="white"/>
<path d="M124.135 22.0099C123.628 21.9638 123.232 22.0786 122.936 22.3698C122.678 22.3033 122.367 22.15 122.209 22.0257C122.123 22.2293 122.026 22.397 121.895 22.5703C120.746 21.7976 119.403 22.0575 117.575 22.0352C118.361 22.3226 118.702 22.4521 119.228 22.7365C120.304 23.3182 120.568 23.862 121.476 23.9327C121.544 24.3572 121.528 24.3934 121.498 24.6533C121.737 24.6351 121.926 24.6276 122.132 24.6691C122.125 25.264 122.42 25.7504 122.472 25.8343C122.562 25.9801 122.627 26.1183 122.773 26.3366C123.275 27.0829 123.857 28.5102 124.097 29.5991L124.122 25.8558C124.063 25.1938 123.972 24.8172 123.608 24.2673C123.773 24.1241 123.933 24.0539 124.123 23.9606C123.975 23.7408 123.848 23.4651 123.785 23.1966C124.105 22.9201 124.207 22.4181 124.135 22.0099Z" fill="#ED192D"/>
<path d="M123.923 23.8877C123.781 23.8299 123.114 23.5836 123.114 23.5836L123.105 23.5742C123.102 23.6324 123.088 23.6905 123.063 23.7449L123.059 23.7574C123.317 23.9111 123.478 24.1286 123.482 24.1622C123.48 24.1653 123.479 24.1672 123.48 24.1664C123.482 24.1656 123.482 24.1645 123.482 24.1622C123.504 24.1328 123.723 23.9288 123.923 23.8877Z" fill="white"/>
<path d="M123.371 27.0504C124.04 28.5297 123.883 28.4655 124.031 29.0797C124.011 28.7839 123.992 28.4104 123.95 28.1407C123.659 26.5284 123.24 25.3341 122.736 24.016C122.736 24.016 122.598 24.0281 122.529 24.0149C122.407 24.1554 122.368 24.3499 122.368 24.3499C122.134 25.3213 122.863 25.9264 123.371 27.0504Z" fill="white"/>
<path d="M121.698 24.4539L122.322 23.9326L122.324 23.9277C122.305 23.9138 122.286 23.8979 122.269 23.8809C122.238 23.8496 122.211 23.8144 122.19 23.7782L122.187 23.7684C121.869 23.9232 121.656 23.9292 121.656 23.9292C121.736 24.2737 121.698 24.4539 121.698 24.4539Z" fill="white"/>
<path d="M118.862 22.2074C118.549 22.1356 118.295 22.139 118.097 22.1303L118.762 22.3361C120.202 22.8762 120.569 23.7124 121.542 23.7321C121.77 23.7298 121.956 23.6701 122.125 23.5753L122.127 23.5493C122.12 23.4869 122.126 23.4235 122.144 23.3627V23.3536C121.473 23.0198 119.936 22.4532 118.862 22.2074Z" fill="white"/>
<path d="M122.286 22.2509C122.247 22.354 122.194 22.5205 122.045 22.6852C122.245 22.8552 122.287 22.9466 122.354 23.1127L122.359 23.1109C122.422 23.0731 122.492 23.0516 122.562 23.0455L122.571 23.047L122.286 22.2509Z" fill="white"/>
<path d="M122.414 23.3344C122.303 23.4462 122.304 23.626 122.415 23.7366C122.527 23.8477 122.706 23.8469 122.817 23.7359C122.928 23.6241 122.928 23.4443 122.816 23.3336C122.705 23.223 122.525 23.2233 122.414 23.3344Z" fill="white"/>
<path d="M123.033 22.537C122.886 22.7081 122.823 22.8403 122.767 23.0718C122.84 23.093 122.926 23.1372 122.977 23.2089L123.974 22.1963C123.596 22.1612 123.268 22.2504 123.033 22.537Z" fill="white"/>
<path d="M105.493 43.5752C106 43.6209 106.396 43.5061 106.692 43.2149C106.95 43.2813 107.261 43.4347 107.419 43.559C107.505 43.3554 107.602 43.1873 107.733 43.0143C108.882 43.7871 110.225 43.5272 112.053 43.5491C111.267 43.2621 110.926 43.1325 110.4 42.8481C109.324 42.2665 109.06 41.7223 108.152 41.652C108.085 41.2275 108.1 41.1909 108.13 40.9318C107.891 40.9495 107.702 40.9571 107.496 40.9155C107.504 40.3203 107.209 39.8342 107.156 39.75C107.066 39.6046 107.002 39.4664 106.855 39.2481C106.353 38.5018 105.772 37.0741 105.531 35.9856L105.506 39.7289C105.565 40.3909 105.656 40.7675 106.02 41.3174C105.855 41.4605 105.695 41.5308 105.505 41.6241C105.653 41.8439 105.78 42.1192 105.843 42.3881C105.523 42.6642 105.421 43.1665 105.493 43.5752Z" fill="#ED192D"/>
<path d="M105.705 41.697C105.847 41.7548 106.514 42.0011 106.514 42.0011L106.523 42.0105C106.526 41.952 106.541 41.8942 106.565 41.8398L106.569 41.8273C106.312 41.6736 106.15 41.456 106.146 41.4224C106.148 41.4198 106.149 41.4179 106.148 41.4183C106.146 41.4187 106.146 41.4202 106.146 41.4224C106.124 41.4523 105.905 41.6558 105.705 41.697Z" fill="white"/>
<path d="M106.256 38.5343C105.587 37.0549 105.745 37.1191 105.597 36.505C105.616 36.8008 105.635 37.1739 105.677 37.4443C105.969 39.0563 106.387 40.2505 106.891 41.5683C106.891 41.5683 107.029 41.5565 107.099 41.5698C107.221 41.4293 107.259 41.2348 107.259 41.2348C107.493 40.2634 106.765 39.6583 106.256 38.5343Z" fill="white"/>
<path d="M107.93 41.1308L107.306 41.652L107.304 41.6569C107.323 41.6709 107.342 41.6868 107.359 41.7038C107.39 41.7355 107.417 41.7699 107.438 41.8069L107.441 41.8159C107.759 41.6614 107.972 41.655 107.972 41.655C107.892 41.3106 107.93 41.1308 107.93 41.1308Z" fill="white"/>
<path d="M110.765 43.3773C111.079 43.4491 111.333 43.4457 111.531 43.4543L110.866 43.2485C109.425 42.7084 109.059 41.8722 108.086 41.8529C107.858 41.8548 107.671 41.9145 107.503 42.0093L107.501 42.0354C107.507 42.0977 107.502 42.1611 107.484 42.2219V42.231C108.155 42.5645 109.692 43.131 110.765 43.3773Z" fill="white"/>
<path d="M107.342 43.3339C107.381 43.2308 107.434 43.0642 107.583 42.8995C107.383 42.7296 107.341 42.6382 107.275 42.472L107.269 42.4743C107.207 42.5117 107.137 42.5332 107.066 42.5388L107.057 42.5377L107.342 43.3339Z" fill="white"/>
<path d="M107.213 42.2503C107.325 42.1389 107.324 41.9588 107.213 41.8477C107.101 41.7371 106.921 41.7375 106.81 41.8493C106.7 41.9603 106.7 42.1404 106.812 42.2511C106.923 42.3618 107.103 42.3614 107.213 42.2503Z" fill="white"/>
<path d="M106.595 43.0476C106.742 42.8765 106.805 42.7443 106.861 42.5128C106.788 42.4916 106.703 42.4474 106.651 42.3757L105.654 43.3883C106.032 43.4234 106.36 43.3342 106.595 43.0476Z" fill="white"/>
<path d="M105.843 23.1966C105.78 23.4651 105.653 23.7408 105.505 23.9606C105.695 24.0539 105.855 24.1241 106.02 24.2673C105.656 24.8172 105.565 25.1938 105.506 25.8558L105.531 29.5991C105.772 28.5102 106.353 27.0829 106.855 26.3366C107.002 26.1183 107.066 25.9801 107.156 25.8343C107.209 25.7504 107.504 25.264 107.496 24.6691C107.702 24.6276 107.891 24.6351 108.13 24.6533C108.1 24.3934 108.085 24.3572 108.152 23.9327C109.06 23.862 109.324 23.3182 110.4 22.7365C110.926 22.4521 111.267 22.3226 112.053 22.0352C110.225 22.0575 108.882 21.7976 107.733 22.5703C107.602 22.397 107.505 22.2293 107.419 22.0257C107.261 22.15 106.95 22.3033 106.692 22.3698C106.396 22.0786 106 21.9638 105.493 22.0099C105.421 22.4181 105.523 22.9201 105.843 23.1966Z" fill="#ED192D"/>
<path d="M105.705 23.8877C105.847 23.8299 106.514 23.5836 106.514 23.5836L106.523 23.5742C106.526 23.6324 106.541 23.6905 106.565 23.7449L106.569 23.7574C106.312 23.9111 106.15 24.1286 106.146 24.1622C106.148 24.1653 106.149 24.1672 106.148 24.1664C106.146 24.1656 106.146 24.1645 106.146 24.1622C106.124 24.1328 105.905 23.9288 105.705 23.8877Z" fill="white"/>
<path d="M106.256 27.0505C105.587 28.5299 105.745 28.4657 105.597 29.0798C105.616 28.784 105.635 28.4105 105.677 28.1409C105.969 26.5285 106.387 25.3343 106.891 24.0161C106.891 24.0161 107.029 24.0282 107.099 24.015C107.221 24.1555 107.259 24.35 107.259 24.35C107.493 25.3214 106.765 25.9265 106.256 27.0505Z" fill="white"/>
<path d="M107.93 24.4539L107.306 23.9326L107.304 23.9277C107.323 23.9138 107.342 23.8979 107.359 23.8809C107.39 23.8496 107.417 23.8144 107.438 23.7782L107.441 23.7684C107.759 23.9232 107.972 23.9292 107.972 23.9292C107.892 24.2737 107.93 24.4539 107.93 24.4539Z" fill="white"/>
<path d="M110.765 22.2074C111.079 22.1356 111.333 22.139 111.531 22.1303L110.866 22.3361C109.425 22.8762 109.059 23.7124 108.086 23.7321C107.858 23.7298 107.671 23.6701 107.503 23.5753L107.501 23.5493C107.507 23.4869 107.502 23.4235 107.484 23.3627V23.3536C108.155 23.0198 109.692 22.4532 110.765 22.2074Z" fill="white"/>
<path d="M107.342 22.2509C107.381 22.354 107.434 22.5205 107.583 22.6852C107.383 22.8552 107.341 22.9466 107.275 23.1127L107.269 23.1109C107.207 23.0731 107.137 23.0516 107.066 23.0455L107.057 23.047L107.342 22.2509Z" fill="white"/>
<path d="M107.213 23.3344C107.325 23.4462 107.324 23.626 107.213 23.7366C107.101 23.8477 106.921 23.8469 106.81 23.7359C106.7 23.6241 106.7 23.4443 106.812 23.3336C106.923 23.223 107.103 23.2233 107.213 23.3344Z" fill="white"/>
<path d="M106.595 22.5371C106.742 22.7082 106.805 22.8404 106.861 23.0719C106.788 23.0931 106.703 23.1373 106.651 23.209L105.654 22.1965C106.032 22.1613 106.36 22.2505 106.595 22.5371Z" fill="white"/>
<path d="M119.278 24.359V24.7759C118.767 24.3752 118.215 24.0414 117.631 23.7857V23.4227C118.213 23.6648 118.764 23.9805 119.278 24.359Z" fill="white"/>
<path d="M114.832 22.8589C115.11 22.8589 115.386 22.8755 115.658 22.9065V23.2433C115.387 23.2109 115.111 23.1939 114.832 23.1939C114.555 23.1939 114.281 23.2105 114.011 23.243V22.9061C114.281 22.8751 114.555 22.8589 114.832 22.8589Z" fill="white"/>
<path d="M112.038 23.4205V23.7831C111.455 24.038 110.903 24.3715 110.391 24.7715V24.3545C110.906 23.9765 111.458 23.6618 112.038 23.4205Z" fill="white"/>
<path d="M110.391 41.2465V40.8299C110.903 41.2298 111.455 41.563 112.038 41.8183V42.1805C111.458 41.9391 110.906 41.6249 110.391 41.2465Z" fill="white"/>
<path d="M114.832 42.7424C114.555 42.7424 114.281 42.7262 114.011 42.6952V42.3579C114.281 42.3904 114.555 42.4071 114.832 42.4071C115.111 42.4071 115.387 42.39 115.658 42.3572V42.6945C115.386 42.7258 115.11 42.7424 114.832 42.7424Z" fill="white"/>
<path d="M117.631 42.1779V41.8153C118.215 41.56 118.767 41.2261 119.278 40.8254V41.2416C118.764 41.6208 118.213 41.9361 117.631 42.1779Z" fill="white"/>
<path d="M133.96 27.8605H137.359V32.2454H136.226L136.056 31.2253C135.625 31.7239 135.003 32.4603 133.518 32.4603C131.559 32.4603 129.779 31.0553 129.779 28.2004C129.779 25.98 131.014 23.8839 133.756 23.8952C136.249 23.8952 137.234 25.5155 137.325 26.6368H135.625C135.625 26.3196 135.048 25.2998 133.847 25.2998C132.635 25.2998 131.513 26.1383 131.513 28.2231C131.513 30.4439 132.726 31.0217 133.881 31.0217C134.255 31.0217 135.501 30.8741 135.852 29.2315H133.96V27.8605Z" fill="#231F20"/>
<path d="M142.379 30.4775C142.254 30.9084 141.801 31.1351 141.359 31.1351C140.079 31.1351 139.988 30.1149 139.943 29.6621H144.078V29.3788C144.078 26.6255 142.435 26.0593 141.246 26.0593C138.606 26.0593 138.357 28.3817 138.357 29.1069C138.357 31.5883 139.659 32.4037 141.359 32.4037C142.39 32.4037 143.591 31.9282 144.01 30.4775H142.379ZM139.988 28.631C140.079 27.8379 140.475 27.362 141.223 27.362C141.733 27.362 142.356 27.6566 142.447 28.631H139.988Z" fill="#231F20"/>
<path d="M150.582 32.2455H148.995V28.5857C148.995 28.1438 148.973 27.396 147.964 27.396C147.262 27.396 146.718 27.8719 146.718 28.7897V32.2455H145.132V26.2176H146.65V27.1014H146.673C146.888 26.7389 147.341 26.0594 148.485 26.0594C149.664 26.0594 150.582 26.7502 150.582 28.0759V32.2455Z" fill="#231F20"/>
<path d="M155.6 30.4775C155.476 30.9084 155.022 31.1351 154.581 31.1351C153.3 31.1351 153.21 30.1149 153.164 29.6621H157.3V29.3788C157.3 26.6255 155.657 26.0593 154.467 26.0593C151.828 26.0593 151.578 28.3817 151.578 29.1069C151.578 31.5883 152.881 32.4037 154.581 32.4037C155.612 32.4037 156.813 31.9282 157.232 30.4775H155.6ZM153.21 28.631C153.3 27.8379 153.697 27.362 154.445 27.362C154.954 27.362 155.577 27.6566 155.668 28.631H153.21Z" fill="#231F20"/>
<path d="M158.342 26.2176H159.86V27.26H159.883C160.211 26.6482 160.574 26.0594 161.537 26.0594C161.639 26.0594 161.741 26.0703 161.843 26.0821V27.6906C161.707 27.6679 161.537 27.668 161.39 27.668C160.155 27.668 159.928 28.4384 159.928 29.1069V32.2455H158.342V26.2176Z" fill="#231F20"/>
<path d="M167.644 27.8039C167.644 26.3196 166.092 26.0593 165.242 26.0593C164.007 26.0593 162.727 26.3196 162.546 28.1664H164.075C164.121 27.8152 164.257 27.3284 165.05 27.3284C165.458 27.3284 166.092 27.362 166.092 28.0305C166.092 28.3704 165.786 28.4724 165.537 28.5064L164.109 28.7217C163.1 28.8689 162.353 29.4695 162.353 30.6478C162.353 31.8938 163.282 32.4037 164.188 32.4037C165.265 32.4037 165.774 31.9051 166.137 31.5312C166.171 31.8715 166.194 31.9622 166.284 32.2454H167.995V32.0071C167.803 31.9391 167.644 31.7809 167.644 31.0667V27.8039ZM166.092 30.0813C166.092 30.8178 165.378 31.2706 164.675 31.2706C164.37 31.2706 163.939 31.1011 163.939 30.5459C163.939 29.8887 164.426 29.7414 165.016 29.6394C165.672 29.5374 165.933 29.4355 166.092 29.3108V30.0813Z" fill="#231F20"/>
<path d="M170.691 32.2455H169.105V24.1105H170.691V32.2455Z" fill="#231F20"/>
<path d="M173.842 25.5038H172.256V24.0312H173.842V25.5038ZM173.842 26.2176V32.2455H172.256V26.2176H173.842Z" fill="#231F20"/>
<path d="M177.138 26.2176H178.124V27.3506H177.138V30.6252C177.138 30.976 177.149 31.1124 177.795 31.1124C177.897 31.1124 178.011 31.101 178.124 31.0893V32.2904C177.875 32.3017 177.625 32.3134 177.376 32.3134H177.172C175.801 32.3134 175.552 31.7918 175.552 31.0104V27.3506H174.736V26.2176H175.552V24.5864H177.138V26.2176Z" fill="#231F20"/>
<path d="M184.015 27.8039C184.015 26.3196 182.464 26.0593 181.614 26.0593C180.379 26.0593 179.099 26.3196 178.917 28.1664H180.447C180.492 27.8152 180.628 27.3284 181.421 27.3284C181.829 27.3284 182.464 27.362 182.464 28.0305C182.464 28.3704 182.158 28.4724 181.908 28.5064L180.481 28.7217C179.472 28.8689 178.725 29.4695 178.725 30.6478C178.725 31.8938 179.654 32.4037 180.56 32.4037C181.636 32.4037 182.146 31.9051 182.509 31.5312C182.543 31.8715 182.565 31.9622 182.656 32.2454H184.367V32.0071C184.174 31.9391 184.015 31.7809 184.015 31.0667V27.8039ZM182.464 30.0813C182.464 30.8178 181.75 31.2706 181.047 31.2706C180.741 31.2706 180.311 31.1011 180.311 30.5459C180.311 29.8887 180.798 29.7414 181.387 29.6394C182.044 29.5374 182.305 29.4355 182.464 29.3108V30.0813Z" fill="#231F20"/>
<path d="M187.211 26.2176H188.197V27.3506H187.211V30.6252C187.211 30.976 187.222 31.1124 187.868 31.1124C187.97 31.1124 188.083 31.101 188.197 31.0893V32.2904C187.947 32.3017 187.698 32.3134 187.449 32.3134H187.245C185.874 32.3134 185.624 31.7918 185.624 31.0104V27.3506H184.809V26.2176H185.624V24.5864H187.211V26.2176Z" fill="#231F20"/>
<path d="M135.524 35.4411H133.937V38.33H133.915C133.665 37.9447 133.19 37.3899 132.17 37.3899C130.844 37.3899 129.666 38.4093 129.666 40.4937C129.666 42.1484 130.414 43.7343 132.204 43.7343C132.861 43.7343 133.563 43.4967 133.949 42.8169H133.971V43.576H135.524V35.4411ZM131.297 40.6074C131.297 39.6556 131.637 38.7605 132.646 38.7605C133.733 38.7605 134.005 39.735 134.005 40.6977C134.005 41.5932 133.609 42.4316 132.6 42.4316C131.581 42.4316 131.297 41.3212 131.297 40.6074Z" fill="#231F20"/>
<path d="M140.486 41.8081C140.361 42.2386 139.908 42.4656 139.466 42.4656C138.186 42.4656 138.095 41.4455 138.05 40.9926H142.185V40.7094C142.185 37.9561 140.543 37.3899 139.353 37.3899C136.713 37.3899 136.464 39.7123 136.464 40.4374C136.464 42.9188 137.767 43.7343 139.466 43.7343C140.497 43.7343 141.698 43.2587 142.118 41.8081H140.486ZM138.095 39.9616C138.186 39.1684 138.583 38.6926 139.33 38.6926C139.84 38.6926 140.463 38.9872 140.554 39.9616H138.095Z" fill="#231F20"/>
<path d="M151.703 38.1033C151.567 37.6161 151.306 36.6984 149.902 36.6984C149.086 36.6984 147.885 37.2426 147.885 39.5423C147.885 41.004 148.463 42.3183 149.902 42.3183C150.842 42.3183 151.499 41.7858 151.703 40.7887H153.402C153.062 42.5559 151.907 43.7909 149.867 43.7909C147.703 43.7909 146.151 42.3296 146.151 39.5197C146.151 36.6761 147.794 35.2258 149.89 35.2258C152.326 35.2258 153.312 36.9023 153.402 38.1033H151.703Z" fill="#231F20"/>
<path d="M159.452 39.1344C159.452 37.6501 157.9 37.3899 157.05 37.3899C155.815 37.3899 154.535 37.6501 154.353 39.497H155.883C155.928 39.1458 156.064 38.6589 156.858 38.6589C157.265 38.6589 157.9 38.6925 157.9 39.361C157.9 39.701 157.594 39.8029 157.345 39.8369L155.917 40.0522C154.909 40.1995 154.161 40.8 154.161 41.9784C154.161 43.2244 155.09 43.7343 155.997 43.7343C157.073 43.7343 157.583 43.2357 157.945 42.8618C157.979 43.2021 158.002 43.2927 158.093 43.576H159.803V43.3377C159.611 43.2697 159.452 43.1115 159.452 42.3973V39.1344ZM157.9 41.4119C157.9 42.1484 157.186 42.6012 156.484 42.6012C156.178 42.6012 155.748 42.4316 155.748 41.8764C155.748 41.2193 156.235 41.072 156.824 40.97C157.481 40.868 157.741 40.766 157.9 40.6414V41.4119Z" fill="#231F20"/>
<path d="M162.648 37.5481H163.634V38.6812H162.648V41.9557C162.648 42.3066 162.659 42.4429 163.305 42.4429C163.407 42.4429 163.52 42.4316 163.634 42.4199V43.6209C163.384 43.6323 163.135 43.644 162.885 43.644H162.682C161.311 43.644 161.062 43.1224 161.062 42.341V38.6812H160.246V37.5481H161.062V35.9169H162.648V37.5481Z" fill="#231F20"/>
<path d="M169.524 39.1344C169.524 37.6501 167.972 37.3899 167.122 37.3899C165.887 37.3899 164.607 37.6501 164.426 39.497H165.955C166.001 39.1458 166.136 38.6589 166.93 38.6589C167.338 38.6589 167.972 38.6925 167.972 39.361C167.972 39.701 167.666 39.8029 167.417 39.8369L165.989 40.0522C164.981 40.1995 164.233 40.8 164.233 41.9784C164.233 43.2244 165.162 43.7343 166.069 43.7343C167.145 43.7343 167.655 43.2357 168.018 42.8618C168.052 43.2021 168.074 43.2927 168.165 43.576H169.875V43.3377C169.683 43.2697 169.524 43.1115 169.524 42.3973V39.1344ZM167.972 41.4119C167.972 42.1484 167.258 42.6012 166.556 42.6012C166.25 42.6012 165.819 42.4316 165.819 41.8764C165.819 41.2193 166.307 41.072 166.896 40.97C167.553 40.868 167.814 40.766 167.972 40.6414V41.4119Z" fill="#231F20"/>
<path d="M172.572 43.576H170.986V35.4411H172.572V43.576Z" fill="#231F20"/>
<path d="M179.529 43.576H178.01V42.7262H177.988C177.625 43.3717 176.991 43.7343 176.153 43.7343C174.963 43.7343 174.102 43.0544 174.102 41.5138V37.5482H175.688V41.2872C175.688 42.2163 176.232 42.3973 176.719 42.3973C177.24 42.3973 177.942 42.1027 177.942 41.0266V37.5482H179.529V43.576Z" fill="#231F20"/>
<path d="M186.463 43.576H184.876V39.9163C184.876 39.4744 184.854 38.7266 183.845 38.7266C183.143 38.7266 182.599 39.2025 182.599 40.1202V43.576H181.013V37.5482H182.531V38.432H182.554C182.769 38.0694 183.222 37.39 184.366 37.39C185.545 37.39 186.463 38.0807 186.463 39.4064V43.576Z" fill="#231F20"/>
<path d="M191.009 43.4741C190.261 45.7058 190.057 46 188.675 46C188.459 46 188.187 45.989 187.961 45.9777V44.7091C188.029 44.72 188.131 44.7317 188.267 44.7317C188.845 44.7317 189.162 44.652 189.309 43.8253L187.088 37.5482H188.856L190.148 41.9894H190.17L191.405 37.5482H193.082L191.009 43.4741Z" fill="#231F20"/>
<path d="M198.557 39.1344C198.557 37.6501 197.005 37.3899 196.156 37.3899C194.92 37.3899 193.64 37.6501 193.459 39.497H194.988C195.034 39.1458 195.17 38.6589 195.963 38.6589C196.371 38.6589 197.005 38.6925 197.005 39.361C197.005 39.701 196.699 39.8029 196.45 39.8369L195.023 40.0522C194.014 40.1995 193.266 40.8 193.266 41.9784C193.266 43.2244 194.195 43.7343 195.102 43.7343C196.178 43.7343 196.688 43.2357 197.05 42.8618C197.085 43.2021 197.107 43.2927 197.198 43.576H198.909V43.3377C198.716 43.2697 198.557 43.1115 198.557 42.3973V39.1344ZM197.005 41.4119C197.005 42.1484 196.291 42.6012 195.589 42.6012C195.283 42.6012 194.853 42.4316 194.853 41.8764C194.853 41.2193 195.34 41.072 195.929 40.97C196.586 40.868 196.846 40.766 197.005 40.6414V41.4119Z" fill="#231F20"/>
<path d="M93.9709 26.5V41.5" stroke="#D8D8D8" stroke-linecap="round"/>
</svg>
