<svg width="24" height="24" viewBox="0 0 24 24" fill="none" xmlns="http://www.w3.org/2000/svg">
<g clip-path="url(#clip0_40_1976)">
<path fill-rule="evenodd" clip-rule="evenodd" d="M15.1559 2.35897L15.1286 2.42675L12.3636 10.6533L6.92612 12.2642C6.59389 12.3626 6.40467 12.7106 6.50349 13.0414C6.59526 13.3486 6.90311 13.5331 7.21263 13.479L7.28398 13.4623L11.8766 12.102L10.3486 16.6455C10.2385 16.9728 10.4158 17.327 10.7445 17.4366C11.0497 17.5383 11.3781 17.3934 11.5116 17.1101L11.5389 17.0423L13.3464 11.6664L21.5512 9.23616C21.8834 9.13774 22.0726 8.78976 21.9738 8.45891C21.882 8.15169 21.5742 7.96727 21.2647 8.02129L21.1933 8.03804L13.8334 10.2177L16.3189 2.82359C16.429 2.49626 16.2517 2.14208 15.923 2.0325C15.6413 1.93857 15.3398 2.05484 15.1901 2.2961L15.1559 2.35897Z" fill="#1D1D1D"/>
<path fill-rule="evenodd" clip-rule="evenodd" d="M10.7865 16.375C9.22675 16.375 7.9623 17.6342 7.9623 19.1875C7.9623 20.6964 9.15553 21.9278 10.6536 21.9969L10.7865 22C12.3463 22 13.6107 20.7408 13.6107 19.1875C13.6107 17.6786 12.4175 16.4472 10.9195 16.3781L10.7865 16.375ZM10.7865 17.625C11.6531 17.625 12.3555 18.3246 12.3555 19.1875C12.3555 20.0504 11.6531 20.75 10.7865 20.75C9.91998 20.75 9.21751 20.0504 9.21751 19.1875C9.21751 18.3246 9.91998 17.625 10.7865 17.625ZM4.82428 10.4375C3.26451 10.4375 2.00006 11.6967 2.00006 13.25C2.00006 14.7589 3.19328 15.9903 4.69133 16.0594L4.82428 16.0625C6.38406 16.0625 7.6485 14.8033 7.6485 13.25C7.6485 11.7411 6.45528 10.5097 4.95723 10.4406L4.82428 10.4375ZM4.8243 11.6875C5.69084 11.6875 6.39331 12.3871 6.39331 13.25C6.39331 14.1129 5.69084 14.8125 4.8243 14.8125C3.95776 14.8125 3.25529 14.1129 3.25529 13.25C3.25529 12.3871 3.95776 11.6875 4.8243 11.6875Z" fill="#0073E6"/>
</g>
<defs>
<clipPath id="clip0_40_1976">
<rect width="24" height="24" fill="white"/>
</clipPath>
</defs>
</svg>
