<svg width="24" height="24" viewBox="0 0 24 24" fill="none" xmlns="http://www.w3.org/2000/svg">
<g clip-path="url(#clip0_31_903)">
<path fill-rule="evenodd" clip-rule="evenodd" d="M12.3637 10.0546C12.1313 9.86401 11.7951 9.88134 11.5815 10.1066L9.41661 12.3899L9.36731 12.4488C9.18656 12.694 9.20299 13.0485 9.41661 13.2738L9.47243 13.3258C9.7049 13.5165 10.041 13.4991 10.2547 13.2738L11.4074 12.0578V16.6875L11.4114 16.7604C11.4456 17.0712 11.6961 17.3125 12 17.3125C12.3273 17.3125 12.5926 17.0327 12.5926 16.6875V12.0569L13.7464 13.2738L13.8022 13.3258C14.0347 13.5165 14.3708 13.4991 14.5845 13.2738C14.8159 13.0297 14.8159 12.634 14.5845 12.3899L12.4196 10.1066L12.3637 10.0546Z" fill="#0073E6"/>
<path fill-rule="evenodd" clip-rule="evenodd" d="M14.3691 2C14.6944 2 15.0053 2.14552 15.2291 2.40246L19.6748 7.50647C19.8836 7.74619 20 8.06397 20 8.39433V19.4194C20 20.8446 18.9387 22 17.6296 22H6.37037C5.06125 22 4 20.8446 4 19.4194V4.58065C4 3.15539 5.06125 2 6.37037 2H14.3691ZM14.0741 3V8.25L14.0781 8.32289C14.1123 8.63373 14.3628 8.875 14.6667 8.875H19V19.6667L18.9967 19.7662C18.9502 20.4561 18.4244 21 17.7826 21H6.21739L6.12654 20.9963C5.49662 20.9454 5 20.3696 5 19.6667V4.33333L5.00334 4.23382C5.04981 3.54392 5.57561 3 6.21739 3H14.0741ZM15 3.65427V8H18.7626L15 3.65427Z" fill="#1D1D1D"/>
</g>
<defs>
<clipPath id="clip0_31_903">
<rect width="24" height="24" fill="white"/>
</clipPath>
</defs>
</svg>
