<svg width="24" height="24" viewBox="0 0 24 24" fill="none" xmlns="http://www.w3.org/2000/svg">
<g clip-path="url(#clip0_217_458)">
<path d="M13.5801 12.2857C14.486 12.2857 15.2281 12.9533 15.2937 13.8L15.2984 13.9222V21.2653H14.0307V13.4313L10.1319 13.4286L10.1307 21.2653H8.80005V13.9222C8.80005 13.0595 9.501 12.3527 10.3901 12.2902L10.5183 12.2857H13.5801Z" fill="#0073E6"/>
<path fill-rule="evenodd" clip-rule="evenodd" d="M9.67617 2.98398C9.73584 2.92139 9.79821 2.86123 9.8631 2.80367L9.99835 2.69025C11.2833 1.67222 13.1843 1.78869 14.3238 2.98398L20.0152 8.95405C20.6485 9.6184 21 10.488 21 11.3905V18.4004C21 20.3884 19.3293 22 17.2683 22H6.7317C4.67074 22 3 20.3884 3 18.4004V11.3905C3 10.488 3.35149 9.6184 3.98483 8.95405L9.67617 2.98398ZM19.2304 9.95629L13.1357 3.61951C12.5589 3.01981 11.5829 2.98071 10.9556 3.53217L10.8643 3.61951L4.76962 9.95629C4.40331 10.3372 4.20001 10.8357 4.20001 11.3531V18.7936C4.20001 19.9332 5.16634 20.8571 6.35837 20.8571H17.6416C18.8337 20.8571 19.8 19.9332 19.8 18.7936V11.3531C19.8 10.8357 19.5967 10.3372 19.2304 9.95629Z" fill="#1D1D1D"/>
</g>
<defs>
<clipPath id="clip0_217_458">
<rect width="24" height="24" fill="white"/>
</clipPath>
</defs>
</svg>
