<svg width="24" height="24" viewBox="0 0 24 24" fill="none" xmlns="http://www.w3.org/2000/svg">
<g clip-path="url(#clip0_31_832)">
<path fill-rule="evenodd" clip-rule="evenodd" d="M20.9418 7.68076C20.6931 9.44122 20.1296 11.0081 19.5313 12.3237L19.3309 12.7528L19.1303 13.1628L18.9317 13.5533L18.7374 13.9236L18.4591 14.4406L18.1248 15.0553L17.9785 15.3296L17.8491 15.5812C17.7691 15.7413 17.702 15.8859 17.6507 16.0145C17.5609 16.2399 17.4829 16.5387 17.4167 16.911L17.3692 17.2039C17.339 17.4084 17.3118 17.6312 17.2875 17.8724L17.2533 18.248L17.2234 18.6511L17.198 19.0818C17.1942 19.1559 17.1905 19.2311 17.187 19.3075L17.1682 19.7794L17.1538 20.2789C17.1311 21.236 16.3565 22 15.4086 22C14.454 22 13.68 21.2183 13.68 20.2539V17.6195C13.68 16.625 12.9494 15.8028 12.0007 15.6709C11.0875 15.7974 10.3765 16.5625 10.3232 17.5055L10.32 17.6195V20.2539C10.32 21.2183 9.54604 22 8.59135 22C7.64354 22 6.86889 21.236 6.8462 20.2789L6.83182 19.7794L6.81303 19.3075L6.78982 18.863L6.76221 18.4461C6.75724 18.379 6.75208 18.3129 6.74674 18.248L6.7125 17.8724C6.68821 17.6312 6.66097 17.4084 6.63079 17.2039L6.58331 16.911C6.51707 16.5387 6.43905 16.2399 6.34927 16.0145C6.29804 15.8859 6.23088 15.7413 6.15085 15.5812L6.02154 15.3296L5.87524 15.0553L5.3574 14.1012L5.16615 13.741L4.96942 13.3605L4.76951 12.9602C4.73606 12.8919 4.70257 12.8227 4.66909 12.7528L4.46874 12.3237C3.87042 11.0081 3.30695 9.44122 3.05818 7.68076C2.49152 3.67082 6.18388 1.10437 8.93871 2.29143L9.33798 2.46101C9.4025 2.48798 9.46601 2.51432 9.5285 2.54001L9.89128 2.68645L10.2297 2.81746C10.2841 2.83801 10.3375 2.85792 10.3899 2.87718L10.6918 2.98506L10.9695 3.07751C11.3677 3.20462 11.6839 3.27967 11.9179 3.30266L12.0071 3.30839C12.2229 3.29697 12.5208 3.23349 12.9008 3.11795L13.1663 3.03321C13.2126 3.0178 13.2599 3.00175 13.3082 2.98506L13.6101 2.87718L13.9364 2.75388L14.2871 2.61516C14.3475 2.59075 14.409 2.5657 14.4715 2.54001L14.8586 2.37815C14.9252 2.34988 14.9927 2.32098 15.0613 2.29143C17.8161 1.10437 21.5085 3.67082 20.9418 7.68076ZM19.7542 7.50964C20.16 4.63744 17.6045 2.51363 15.5324 3.4065L15.1167 3.58314L14.7247 3.74445L14.3557 3.89048C14.2961 3.91354 14.2375 3.93597 14.1797 3.95776L13.8443 4.08091L13.5306 4.18885C12.9748 4.37283 12.5253 4.4803 12.1659 4.51219L12.0702 4.51901L11.9932 4.52067L11.9304 4.51901C11.5561 4.4992 11.0763 4.38955 10.47 4.18885L10.1563 4.08091L9.82085 3.95776C9.76311 3.93597 9.70445 3.91354 9.64485 3.89048L9.2759 3.74445L8.88385 3.58314L8.46814 3.4065C6.39605 2.51363 3.84055 4.63744 4.24642 7.50964C4.47314 9.11396 4.99087 10.649 5.77291 12.2736L5.90657 12.5412L7.15482 14.9281L7.32526 15.266L7.40883 15.4396C7.43202 15.4894 7.45028 15.5307 7.46281 15.5622C7.67916 16.1053 7.82966 16.8916 7.92603 17.9476L7.95965 18.3563L7.98834 18.7906L8.01223 19.2507L8.03145 19.7372L8.04615 20.2501C8.05324 20.5492 8.29538 20.788 8.59164 20.788C8.86113 20.788 9.08352 20.5843 9.11614 20.3211L9.12026 20.2541L9.12075 17.5852L9.12543 17.4365C9.2087 15.9644 10.2845 14.7515 11.7038 14.4917L11.8379 14.4702L12.0013 14.4475L12.1647 14.4702C13.6685 14.6794 14.8114 15.9486 14.8773 17.4798L14.8803 17.6197V20.2541C14.8803 20.549 15.117 20.788 15.4089 20.788C15.7052 20.788 15.9473 20.5492 15.9544 20.2501L15.9691 19.7371L15.9884 19.2507L16.0122 18.7906L16.0409 18.3563L16.0746 17.9476C16.1709 16.8916 16.3214 16.1053 16.5378 15.5622L16.5608 15.5078L16.6301 15.3586L16.7837 15.0497L17.2105 14.2271L18.0374 12.6517L18.1898 12.3512C18.2036 12.3233 18.2162 12.2973 18.2277 12.2736C18.9538 10.765 19.4521 9.33371 19.7011 7.85242L19.7542 7.50964Z" fill="#1D1D1D"/>
<path fill-rule="evenodd" clip-rule="evenodd" d="M5.39024 8.28362C5.41683 8.62051 5.70597 8.86942 6.03629 8.84281C6.34302 8.81809 6.5774 8.5645 6.58825 8.2616L6.58592 8.17443C6.57162 7.83657 6.62544 7.39851 6.80083 6.99164C6.89751 6.76738 7.02515 6.57256 7.18692 6.41169C7.64889 5.95229 8.21311 5.76006 8.92866 5.82744C9.2586 5.85851 9.55101 5.61353 9.58177 5.28026C9.61253 4.94698 9.36999 4.65162 9.04005 4.62055C7.97936 4.52067 7.06467 4.83231 6.34505 5.54792C6.06847 5.82296 5.85602 6.14721 5.70061 6.50773C5.46653 7.05076 5.38245 7.59883 5.38358 8.07153L5.39024 8.28362Z" fill="#0073E6"/>
</g>
<defs>
<clipPath id="clip0_31_832">
<rect width="24" height="24" fill="white"/>
</clipPath>
</defs>
</svg>
