<svg width="24" height="24" viewBox="0 0 24 24" fill="none" xmlns="http://www.w3.org/2000/svg">
<g clip-path="url(#clip0_46_627)">
<path fill-rule="evenodd" clip-rule="evenodd" d="M10.9432 11.0407C11.2036 11.0407 11.4181 11.2401 11.4475 11.497L11.4509 11.5573V14.657C11.4509 14.9423 11.2236 15.1736 10.9432 15.1736C10.6829 15.1736 10.4683 14.9741 10.439 14.7172L10.4355 14.657V11.5573C10.4355 11.272 10.6628 11.0407 10.9432 11.0407Z" fill="#0073E6"/>
<path fill-rule="evenodd" clip-rule="evenodd" d="M8.65877 4.32475C8.65877 3.07751 9.62396 2.05967 10.8357 2.00253L10.9433 2C12.2049 2 13.2277 3.04083 13.2277 4.32399L13.2272 4.39552C13.99 5.04871 14.4552 5.99561 14.4942 7.02522L14.4969 7.16611V7.64908L17.4951 9.35973C18.8536 10.1349 19.3784 11.847 18.7122 13.2643L18.6586 13.3728L15.4535 19.5476C15.4419 19.5698 15.429 19.5908 15.4149 19.6106L15.3925 19.6396L15.3449 19.6898L15.3117 19.7177L15.2543 19.7561L15.2158 19.7762L15.1628 19.7973L15.0969 19.8143L15.0638 19.8195L15.0046 19.8229H7.89727C7.6169 19.8229 7.38961 19.5916 7.38961 19.3063C7.38961 19.0414 7.58559 18.823 7.83807 18.7932L7.89727 18.7897H14.6979L17.7608 12.8902C18.2334 11.9798 17.933 10.8594 17.0879 10.3152L16.9985 10.261L14.4969 8.83363V11.299C14.4969 11.5843 14.2696 11.8156 13.9892 11.8156H7.89727C7.6169 11.8156 7.38961 11.5843 7.38961 11.299V7.16611C7.38961 6.08207 7.86218 5.0778 8.65877 4.39552V4.32475ZM13.4816 7.94247C13.4815 7.94832 13.4815 7.95415 13.4816 7.95999V10.7824H8.40492V7.16612C8.40492 6.32386 8.80329 5.55039 9.46291 5.06753C9.59554 4.97044 9.67415 4.81433 9.67412 4.64808L9.67408 4.32469C9.67408 3.61147 10.2423 3.03323 10.9432 3.03323C11.6442 3.03323 12.2124 3.61147 12.2124 4.32476L12.2129 4.64928C12.2131 4.81521 12.2916 4.97092 12.424 5.06784L12.5259 5.14647C13.1242 5.63232 13.4816 6.36836 13.4816 7.16612V7.94247ZM17.2884 20.9668C17.5688 20.9668 17.7961 21.1981 17.7961 21.4834C17.7961 21.7483 17.6001 21.9667 17.3476 21.9965L17.2884 22H5.50766C5.22729 22 5 21.7687 5 21.4834C5 21.2184 5.19598 21.0001 5.44846 20.9702L5.50766 20.9668H17.2884Z" fill="#1D1D1D"/>
</g>
<defs>
<clipPath id="clip0_46_627">
<rect width="24" height="24" fill="white"/>
</clipPath>
</defs>
</svg>
