<svg width="24" height="24" viewBox="0 0 24 24" fill="none" xmlns="http://www.w3.org/2000/svg">
<g clip-path="url(#clip0_46_670)">
<path fill-rule="evenodd" clip-rule="evenodd" d="M12.288 2C9.76325 2 7.72065 4.08395 7.72065 6.6496C7.72065 7.80449 8.13453 8.86178 8.81995 9.67533C7.08401 10.8349 6 12.7978 6 14.9541V19.0392C6 20.6744 7.32334 22 8.95576 22H15.7083C17.3407 22 18.664 20.6744 18.664 19.0392V14.9541C18.664 12.7732 17.5551 10.7912 15.7871 9.63815C16.454 8.82969 16.8554 7.78698 16.8554 6.6496C16.8554 4.08395 14.8128 2 12.288 2ZM14.8407 10.5059C14.8795 10.4793 14.9178 10.452 14.9558 10.4242L15.0916 10.5056C16.6057 11.4481 17.56 13.1153 17.56 14.9541V19.0393C17.56 20.0637 16.731 20.8942 15.7083 20.8942H8.95576C7.93305 20.8942 7.10398 20.0637 7.10398 19.0393V14.9541L7.1067 14.784C7.16296 13.0313 8.08556 11.4514 9.52887 10.5325L9.65885 10.4522C9.69756 10.4799 9.73672 10.5071 9.77631 10.5337L9.7787 10.5354C9.96658 10.6614 10.163 10.7729 10.3664 10.869C10.7408 11.046 11.1428 11.1729 11.5641 11.2412C11.8014 11.2797 12.0434 11.2994 12.2883 11.2994C13.2088 11.2994 14.0877 11.0208 14.8305 10.5132L14.8407 10.5059ZM12.288 3.10585C14.1985 3.10585 15.7514 4.69019 15.7514 6.6496C15.7514 8.60901 14.1985 10.1934 12.288 10.1934C10.3775 10.1934 8.82464 8.60901 8.82464 6.6496C8.82464 4.69019 10.3775 3.10585 12.288 3.10585Z" fill="#1D1D1D"/>
<path fill-rule="evenodd" clip-rule="evenodd" d="M14.5007 12.7712C14.7837 12.7712 15.0171 12.9847 15.0489 13.2597L15.0527 13.3241L15.0521 14.0977L15.8254 14.0982C16.1303 14.0982 16.3774 14.3458 16.3774 14.6512C16.3774 14.9347 16.1643 15.1684 15.8898 15.2004L15.8254 15.2041L15.0521 15.2035L15.0527 15.9782C15.0527 16.2836 14.8055 16.5311 14.5007 16.5311C14.2176 16.5311 13.9843 16.3177 13.9524 16.0427L13.9487 15.9782L13.9481 15.2035L13.1759 15.2041C12.871 15.2041 12.6239 14.9565 12.6239 14.6512C12.6239 14.3676 12.837 14.1339 13.1115 14.102L13.1759 14.0982L13.9481 14.0977L13.9487 13.3241C13.9487 13.0188 14.1958 12.7712 14.5007 12.7712Z" fill="#0073E6"/>
</g>
<defs>
<clipPath id="clip0_46_670">
<rect width="24" height="24" fill="white"/>
</clipPath>
</defs>
</svg>
