<svg width="24" height="24" viewBox="0 0 24 24" fill="none" xmlns="http://www.w3.org/2000/svg">
<g clip-path="url(#clip0_31_963)">
<path fill-rule="evenodd" clip-rule="evenodd" d="M16.9194 9.5C18.0237 9.5 18.9194 8.60487 18.9194 7.5C18.9194 6.39513 18.0237 5.5 16.9194 5.5C15.8146 5.5 14.9194 6.39513 14.9194 7.5C14.9194 8.60487 15.8146 9.5 16.9194 9.5ZM11.9727 20.774C10.6889 20.774 9.64804 19.6986 9.64804 18.3722H8.46143L8.46385 18.5082C8.53308 20.4487 10.0776 22 11.9727 22C13.9117 22 15.4834 20.3757 15.4834 18.3722H14.2968L14.2938 18.4958C14.2315 19.7649 13.2162 20.774 11.9727 20.774Z" fill="#0073E6"/>
<path fill-rule="evenodd" clip-rule="evenodd" d="M14.7912 5.16946C14.6107 3.59192 13.4001 2 12.0009 2C10.6754 2 9.51845 3.43065 9.24769 4.92307C7.16102 5.968 5.72238 8.17733 5.72238 10.7342V14.8165L5.7182 14.9161C5.69596 15.179 5.58588 15.4199 5.40579 15.606C5.20504 15.8134 4.9341 15.9331 4.64731 15.9331L4.54711 15.9362C3.68526 15.9895 3 16.7258 3 17.6293C3 18.5676 3.73899 19.3255 4.64731 19.3255H19.3583L19.4774 19.321C19.872 19.2913 20.2428 19.1148 20.5174 18.8302C20.8231 18.5145 21 18.0835 21 17.6293C21 16.6909 20.2665 15.9331 19.3583 15.9331H19.2907L19.2023 15.9294C18.6489 15.883 18.2156 15.4039 18.2156 14.8165V10.839L18.2116 10.7676C18.1774 10.4627 17.9266 10.226 17.6223 10.226C17.2946 10.226 17.029 10.5005 17.029 10.839V14.8165L17.0319 14.9371C17.0924 16.1751 18.0782 17.1591 19.2907 17.1591H19.3583L19.4204 17.1634C19.6435 17.1943 19.8134 17.3898 19.8134 17.6293C19.8134 17.7545 19.764 17.8749 19.6777 17.964C19.596 18.0486 19.4793 18.0995 19.3583 18.0995H4.64731L4.58469 18.0952C4.35951 18.064 4.18661 17.8669 4.18661 17.6293C4.18661 17.3702 4.39238 17.1591 4.64731 17.1591C5.25378 17.1591 5.8249 16.9068 6.24485 16.4729C6.66789 16.0359 6.90899 15.4463 6.90899 14.8165V10.7342L6.91123 10.5773C6.99154 7.7622 9.22492 5.50621 11.969 5.50621C12.6768 5.50621 13.3632 5.65649 13.9963 5.94368C14.2964 6.07977 14.6464 5.9388 14.7781 5.62881C14.7865 5.60907 14.7938 5.58912 14.8 5.56904H14.8144L14.8134 5.51852C14.8397 5.40007 14.8305 5.27895 14.7912 5.16946ZM13.3584 4.44087C13.0426 3.76355 12.4989 3.22601 12.0009 3.22601C11.5077 3.22601 10.9691 3.75464 10.6521 4.42383C11.0767 4.32974 11.5172 4.2802 11.969 4.2802C12.4414 4.2802 12.9067 4.33464 13.3584 4.44087Z" fill="#1D1D1D"/>
</g>
<defs>
<clipPath id="clip0_31_963">
<rect width="24" height="24" fill="white"/>
</clipPath>
</defs>
</svg>
