<svg width="24" height="24" viewBox="0 0 24 24" fill="none" xmlns="http://www.w3.org/2000/svg">
<g clip-path="url(#clip0_48_1608)">
<path fill-rule="evenodd" clip-rule="evenodd" d="M11.0228 5.75656L10.5959 5.20068C10.1323 4.58692 9.21206 3.9864 7.81448 3.34871C7.49031 3.2008 7.10762 3.34369 6.95971 3.66785C6.8118 3.99201 6.95469 4.3747 7.27885 4.52261C8.49605 5.07799 9.26543 5.58006 9.56632 5.9784L10.0933 6.68007L10.191 6.82074L10.2165 6.86688L10.2266 6.89762L10.2287 6.93344L10.1443 7.05715C9.91834 7.35016 9.58702 7.52503 9.28949 7.52503L9.15284 7.52817C8.57053 7.55537 8.1168 7.75961 7.83898 8.14733L7.80321 8.20018L7.71279 8.21351L7.61492 8.22174L7.49101 8.22791L6.68884 8.24577C5.5444 8.28277 5.15115 9.10254 5.229 10.1588C5.26781 10.6856 5.51008 10.9164 6.15953 11.2493L6.76166 11.5478L6.88974 11.6179L6.98173 11.6751C7.01953 11.7009 7.04568 11.7228 7.06297 11.7424L7.13885 11.8216C7.44999 12.1203 7.85128 12.2038 8.2951 12.1459C8.45259 12.1253 8.59987 12.0905 8.7873 12.036L8.94966 11.9886L9.03353 12.0576L9.48248 12.4527C9.63444 12.5811 9.76722 12.6815 9.90692 12.7698L9.94571 12.794L10.0562 12.8589L10.1825 12.9243L10.993 13.2948L11.1297 13.3626L11.2376 13.4222L11.3019 13.4621L11.3262 13.5519C11.3656 13.6722 11.4294 13.7832 11.5129 13.8978L11.5296 13.9206L11.5871 13.9937L11.4241 14.1062C10.4922 14.7598 10.1061 15.3731 10.1061 16.2515L10.1039 16.33C10.0951 16.4784 10.0574 16.5816 9.962 16.7604L9.80485 17.0587L9.73903 17.2015L9.72579 17.2344L9.67581 17.0049C9.59618 16.6618 9.51425 16.4145 9.38601 16.1479C9.23909 15.8425 9.04329 15.5549 8.78013 15.2621C8.74337 15.2212 8.70794 15.1815 8.67379 15.1429L8.48399 14.9251L8.32308 14.7323C8.29856 14.7021 8.27517 14.6729 8.25285 14.6445L8.13162 14.4842C7.91381 14.1829 7.84005 13.9915 7.84005 13.8133L7.83885 13.6784C7.82099 12.7089 7.59711 12.1738 6.7506 11.861C6.69014 11.8387 6.62805 11.8175 6.56262 11.7966L6.45666 11.7637L6.06562 11.6527C5.65994 11.5338 5.54129 11.4585 5.46674 11.2994L5.40604 11.1835C4.98965 10.4659 3.98181 10.0637 3.2903 10.0637C2.93399 10.0637 2.64514 10.3526 2.64514 10.7089C2.64514 11.0652 2.93399 11.354 3.2903 11.354L3.35543 11.3578C3.65708 11.3903 4.19441 11.6251 4.2983 11.8468C4.58919 12.4677 4.99473 12.6942 5.82642 12.9262L6.0513 12.9895L6.30339 13.0714C6.4583 13.1286 6.51848 13.1965 6.53957 13.4519L6.54752 13.6108L6.55198 13.9162C6.57464 14.4246 6.77078 14.8495 7.24694 15.4525L7.45259 15.7038L7.68962 15.9778L7.82037 16.1245C8.00393 16.3288 8.1308 16.5151 8.22323 16.7073C8.29463 16.8557 8.34664 17.0045 8.39879 17.2135L8.4517 17.4447L8.53738 17.8711L8.62703 18.2991L8.66183 18.4497C8.89275 19.4209 9.70017 19.7768 10.3064 19.0384C10.535 18.76 10.7396 18.299 10.8697 17.863L10.891 17.7975C10.9212 17.7117 10.96 17.629 11.0205 17.5159L11.1713 17.2287C11.325 16.9105 11.3964 16.6326 11.3964 16.2515L11.3983 16.1768C11.4193 15.7868 11.6168 15.5264 12.2841 15.0813C12.7209 14.7899 12.9677 14.4528 12.9677 14.0334C12.9677 13.7099 12.8646 13.5267 12.6285 13.231L12.5671 13.1537L12.5636 13.1008C12.5174 12.6546 12.2506 12.4539 11.5191 12.1151L10.7716 11.7752L10.621 11.6944L10.5312 11.6357C10.4422 11.5734 10.3419 11.4921 10.216 11.3814L9.92521 11.1228L9.8097 11.0245L9.66335 10.9105C9.44971 10.7545 9.26188 10.6703 9.01972 10.6703C8.90641 10.6703 8.80674 10.6891 8.67675 10.7241L8.33664 10.8223C8.25279 10.8447 8.18691 10.8587 8.1281 10.8664L8.05732 10.875L8.02934 10.8801C8.02561 10.882 8.02672 10.8844 8.03036 10.8885L7.97539 10.8289C7.8089 10.6563 7.62361 10.5368 7.29416 10.37L6.80528 10.1299L6.66324 10.0551C6.64319 10.0439 6.62475 10.0333 6.60764 10.023L6.50966 9.95953L6.50744 9.90153C6.50111 9.61375 6.56002 9.54094 6.73053 9.53542L7.28949 9.52415L7.54759 9.51752L7.77311 9.50728L7.96912 9.49181C8.4856 9.43898 8.68369 9.30332 8.87709 8.91724C8.90618 8.85916 8.99651 8.81535 9.28949 8.81535C10.0667 8.81535 10.8379 8.37215 11.2937 7.66432C11.4473 7.42577 11.5247 7.1708 11.5187 6.90429C11.5113 6.57917 11.391 6.29275 11.1703 5.964C11.1556 5.9421 11.1406 5.92018 11.125 5.89788L11.0228 5.75656ZM15.967 11.571L15.2459 12.1282C14.8208 12.473 14.5777 12.7311 14.4345 13.0427C14.1105 13.7474 14.2453 14.6783 14.735 15.3022L14.806 15.4014C14.9847 15.6756 15.0782 16.025 15.0782 16.4055L15.0826 16.5088C15.1343 17.1117 15.6423 17.4137 16.2732 17.4732C16.7262 17.5159 17.25 17.4298 17.6245 17.2439C17.9906 17.0622 18.1533 16.8321 18.3526 16.3936L18.4338 16.2197C18.5091 16.0703 18.56 16.0213 18.6634 15.983C19.0032 15.857 19.5176 15.7377 20.1992 15.6295L20.5875 15.5716L20.7939 15.5435C21.1472 15.4969 21.3958 15.1727 21.3491 14.8195C21.3025 14.4662 20.9783 14.2177 20.6251 14.2643C19.5549 14.4055 18.7565 14.5723 18.2148 14.7732C17.7172 14.9577 17.4555 15.2614 17.2301 15.7454L17.1254 15.9716L17.09 16.0393L17.0667 16.0744L17.0508 16.0881L16.9787 16.1183C16.8204 16.1748 16.5848 16.2065 16.3943 16.1885L16.3605 16.1845L16.3515 16.0576C16.2947 15.4841 16.0955 14.9458 15.7501 14.5056C15.5512 14.2522 15.4907 13.8343 15.6068 13.5816C15.6326 13.5257 15.7069 13.4394 15.8376 13.32L15.9875 13.1894C16.0439 13.1422 16.1068 13.0912 16.1767 13.0363L17.0704 12.3502L17.3334 12.1389L17.4583 12.0349C18.1347 11.4648 18.2681 10.7471 17.7362 10.1847C17.4397 9.87119 17.0014 9.66476 16.3406 9.45154L16.273 9.42919C15.9958 9.33459 15.9172 9.26256 15.8956 8.95718L15.8891 8.79873L15.8877 8.60156C15.8877 8.58259 15.8953 8.55436 15.9103 8.51726L15.9501 8.43133C15.9584 8.41507 15.9675 8.39786 15.9774 8.3797L16.0466 8.25954L16.1351 8.11742L16.2425 7.95403L16.3688 7.77005L16.5928 7.45697L16.8578 7.10142L17.163 6.70571L17.3884 6.42073L17.7588 5.96322L18.0269 5.63919C18.2552 5.36561 18.2185 4.95877 17.9449 4.73049C17.6713 4.5022 17.2645 4.53891 17.0362 4.81249L16.7243 5.18901L16.4346 5.54453L16.167 5.87965L15.9213 6.195L15.6972 6.49121L15.4945 6.76889C15.4305 6.85843 15.37 6.94499 15.313 7.02867L15.1526 7.27116C15.1276 7.31016 15.1034 7.34848 15.0801 7.38611L14.9508 7.60384C14.7126 8.02335 14.5974 8.34847 14.5974 8.60156C14.5974 9.75252 14.8558 10.3283 15.9444 10.6795L16.0655 10.7197C16.3386 10.8128 16.545 10.9017 16.6748 10.979L16.6921 10.9897L16.6498 11.0285L16.4497 11.1925L15.967 11.571Z" fill="#0073E6"/>
<path fill-rule="evenodd" clip-rule="evenodd" d="M12 2C6.47715 2 2 6.47715 2 12C2 17.5228 6.47715 22 12 22C17.5228 22 22 17.5228 22 12C22 6.47715 17.5228 2 12 2ZM12 3.29032C16.8102 3.29032 20.7097 7.18978 20.7097 12C20.7097 16.8102 16.8102 20.7097 12 20.7097C7.18977 20.7097 3.29031 16.8102 3.29031 12C3.29031 7.18978 7.18977 3.29032 12 3.29032Z" fill="#1D1D1D"/>
</g>
<defs>
<clipPath id="clip0_48_1608">
<rect width="24" height="24" fill="white"/>
</clipPath>
</defs>
</svg>
