<svg width="24" height="24" viewBox="0 0 24 24" fill="none" xmlns="http://www.w3.org/2000/svg">
<g clip-path="url(#clip0_31_888)">
<path fill-rule="evenodd" clip-rule="evenodd" d="M11.9999 2C12.275 2 12.5017 2.20165 12.5327 2.46144L12.5363 2.52236L12.5373 12.735C12.5657 12.7851 12.585 12.8387 12.5953 12.8936L14.3394 14.5925C14.5489 14.7965 14.5489 15.1273 14.3394 15.3313C14.1461 15.5196 13.8418 15.534 13.6313 15.3747L13.5808 15.3313L11.9999 13.7923L10.419 15.3313C10.2095 15.5353 9.8698 15.5353 9.6603 15.3313C9.46691 15.143 9.45204 14.8467 9.61567 14.6417L9.6603 14.5925L11.4045 12.8936C11.4148 12.8383 11.4343 12.7843 11.463 12.734L11.4634 2.52236C11.4634 2.23387 11.7036 2 11.9999 2Z" fill="#0073E6"/>
<path fill-rule="evenodd" clip-rule="evenodd" d="M9.83665 8.58154H8.89033C5.0849 8.58154 2 11.5854 2 15.2908V19.898C2 21.0589 2.96649 22 4.15873 22H8.21438C9.40662 22 10.3731 21.0589 10.3731 19.898V9.10391C10.3731 8.81541 10.1329 8.58154 9.83665 8.58154ZM8.89032 9.6263H9.30018V19.898C9.30018 20.4819 8.81405 20.9553 8.21438 20.9553H4.15872C3.55905 20.9553 3.07292 20.4819 3.07292 19.898V15.2908C3.07292 12.1624 5.67746 9.6263 8.89032 9.6263ZM14.1634 8.58154H15.1097C18.9151 8.58154 22 11.5854 22 15.2908V19.898C22 21.0589 21.0335 22 19.8413 22H15.7856C14.5934 22 13.6269 21.0589 13.6269 19.898V9.10391C13.6269 8.81541 13.8671 8.58154 14.1634 8.58154ZM15.1097 9.6263H14.7004L14.6998 19.898C14.6998 20.4819 15.1859 20.9553 15.7856 20.9553H19.8413C20.4409 20.9553 20.9271 20.4819 20.9271 19.898V15.2908C20.9271 12.1624 18.3225 9.6263 15.1097 9.6263Z" fill="#1D1D1D"/>
</g>
<defs>
<clipPath id="clip0_31_888">
<rect width="24" height="24" fill="white"/>
</clipPath>
</defs>
</svg>
